<?xml version="1.0" encoding="iso-8859-1"?>
<!-- Generator: Adobe Illustrator 16.0.0, SVG Export Plug-In . SVG Version: 6.00 Build 0)  -->
<!DOCTYPE svg PUBLIC "-//W3C//DTD SVG 1.1//EN" "http://www.w3.org/Graphics/SVG/1.1/DTD/svg11.dtd">
<svg version="1.1" id="Layer_2" xmlns="http://www.w3.org/2000/svg" xmlns:xlink="http://www.w3.org/1999/xlink" x="0px" y="0px"
	 width="910.886px" height="597.925px" viewBox="0 0 910.886 597.925" style="enable-background:new 0 0 910.886 597.925;"
	 xml:space="preserve">
<g id="Layer_3">
</g>
<g id="Layer_4">
</g>
<g>
	<g>
		<g style="enable-background:new    ;">
			<defs>
				<polygon id="SVGID_1_" style="enable-background:new    ;" points="-103.585,599.557 71.197,92.353 839.69,92.353 
					1014.473,599.557 				"/>
			</defs>
			<clipPath id="SVGID_2_">
				<use xlink:href="#SVGID_1_"  style="overflow:visible;"/>
			</clipPath>
			<g style="clip-path:url(#SVGID_2_);">
				<g>
					<g>
						<g>
							<polyline style="fill:#FFFFFF;" points="176.192,356.479 139.922,356.479 139.615,357.82 175.921,357.82 176.192,356.479 
															"/>
							<polyline style="fill:#FFFFFF;" points="244.506,269.984 210.097,269.984 209.874,271.156 244.314,271.156 244.506,269.984 
															"/>
							<polyline style="fill:#FFFFFF;" points="260.675,258.354 226.688,258.354 226.482,259.512 260.499,259.512 260.675,258.354 
															"/>
							<polyline style="fill:#FFFFFF;" points="78.092,258.742 44.846,258.742 44.475,259.901 77.751,259.901 78.092,258.742 
															"/>
							<polyline style="fill:#FFFFFF;" points="371.093,258.68 337.098,258.68 336.991,259.831 371.017,259.831 371.093,258.68 
															"/>
							<polyline style="fill:#FFFFFF;" points="215.96,337.836 214.413,337.836 208.948,368.684 210.531,368.684 215.96,337.836 
															"/>
							<polyline style="fill:#FFFFFF;" points="729.94,178.333 697.562,178.333 697.767,179.351 730.173,179.351 729.94,178.333 
															"/>
							<polyline style="fill:#FFFFFF;" points="696.13,252.651 662.721,252.651 662.905,253.792 696.346,253.792 696.13,252.651 
															"/>
							<polyline style="fill:#FFFFFF;" points="683.705,264.171 650.554,264.171 650.731,265.339 667.098,265.339 668.563,265.339 
								683.912,265.339 683.705,264.171 							"/>
							<polyline style="fill:#FFFFFF;" points="867.508,263.779 832.685,263.779 833.027,264.947 867.882,264.947 867.508,263.779 
															"/>
							<polyline style="fill:#FFFFFF;" points="573.287,263.849 539.014,263.849 539.09,265.01 573.393,265.01 573.287,263.849 
															"/>
							<polyline style="fill:#FFFFFF;" points="666.111,169.882 664.755,169.882 669.127,194.792 670.512,194.792 666.111,169.882 
															"/>
						</g>
					</g>
				</g>
			</g>
		</g>
	</g>
</g>
</svg>
