<?xml version="1.0" encoding="iso-8859-1"?>
<!-- Generator: Adobe Illustrator 16.0.0, SVG Export Plug-In . SVG Version: 6.00 Build 0)  -->
<!DOCTYPE svg PUBLIC "-//W3C//DTD SVG 1.1//EN" "http://www.w3.org/Graphics/SVG/1.1/DTD/svg11.dtd">
<svg version="1.1" id="Layer_2" xmlns="http://www.w3.org/2000/svg" xmlns:xlink="http://www.w3.org/1999/xlink" x="0px" y="0px"
	 width="910.886px" height="597.925px" viewBox="0 0 910.886 597.925" style="enable-background:new 0 0 910.886 597.925;"
	 xml:space="preserve">
<g id="Layer_3">
</g>
<g id="Layer_4">
</g>
<g>
	<g>
		<g style="enable-background:new    ;">
			<defs>
				<polygon id="SVGID_1_" style="enable-background:new    ;" points="-103.585,599.557 71.197,92.353 839.69,92.353 
					1014.473,599.557 				"/>
			</defs>
			<clipPath id="SVGID_2_">
				<use xlink:href="#SVGID_1_"  style="overflow:visible;"/>
			</clipPath>
			<g style="clip-path:url(#SVGID_2_);">
				<g>
					<g>
						<g>
							<path style="fill:#FFFFFF;" d="M471.337,228.032l-1.446,0.158c-0.004,0.045-0.007,0.089-0.01,0.134s-0.005,0.089-0.007,0.133
								c-0.001,0.044-0.003,0.088-0.003,0.132c-0.001,0.043-0.001,0.087,0,0.13v0.02l1.43-0.224c0.001-0.04,0.003-0.08,0.005-0.12
								s0.004-0.081,0.007-0.121c0.002-0.041,0.006-0.081,0.01-0.122C471.326,228.111,471.331,228.071,471.337,228.032"/>
							<path style="fill:#FFFFFF;" d="M439.618,280.772l-1.468,0.28l0,0.022c-0.001,0.068-0.003,0.136-0.006,0.204
								s-0.008,0.136-0.015,0.204c-0.006,0.068-0.015,0.135-0.025,0.203c-0.01,0.067-0.022,0.134-0.036,0.2l1.522-0.251
								c0.005-0.047,0.01-0.093,0.014-0.14c0.004-0.046,0.007-0.093,0.01-0.14c0.003-0.047,0.005-0.093,0.007-0.14
								c0.001-0.046,0.002-0.093,0.003-0.14c0-0.027,0-0.053,0-0.079c0-0.025,0-0.05,0-0.075c0-0.024,0-0.049-0.001-0.074
								C439.621,280.822,439.62,280.797,439.618,280.772"/>
							<polyline style="fill:#FFFFFF;" points="176.192,356.479 139.922,356.479 139.615,357.82 175.921,357.82 176.192,356.479 
															"/>
							<polyline style="fill:#FFFFFF;" points="244.506,269.984 210.097,269.984 209.874,271.156 244.314,271.156 244.506,269.984 
															"/>
							<polyline style="fill:#FFFFFF;" points="260.675,258.354 226.688,258.354 226.482,259.512 260.499,259.512 260.675,258.354 
															"/>
							<polyline style="fill:#FFFFFF;" points="78.092,258.742 44.846,258.742 44.475,259.901 77.751,259.901 78.092,258.742 
															"/>
							<polyline style="fill:#FFFFFF;" points="371.093,258.68 337.098,258.68 336.991,259.831 371.017,259.831 371.093,258.68 
															"/>
							<polyline style="fill:#FFFFFF;" points="215.96,337.836 214.413,337.836 208.948,368.684 210.531,368.684 215.96,337.836 
															"/>
							<polyline style="fill:#FFFFFF;" points="729.94,178.333 697.562,178.333 697.767,179.351 730.173,179.351 729.94,178.333 
															"/>
							<polyline style="fill:#FFFFFF;" points="696.13,252.651 662.721,252.651 662.905,253.792 696.346,253.792 696.13,252.651 
															"/>
							<polyline style="fill:#FFFFFF;" points="683.705,264.171 650.554,264.171 650.731,265.339 667.098,265.339 668.563,265.339 
								683.912,265.339 683.705,264.171 							"/>
							<polyline style="fill:#FFFFFF;" points="867.508,263.779 832.685,263.779 833.027,264.947 867.882,264.947 867.508,263.779 
															"/>
							<polyline style="fill:#FFFFFF;" points="573.287,263.849 539.014,263.849 539.09,265.01 573.393,265.01 573.287,263.849 
															"/>
							<polyline style="fill:#FFFFFF;" points="666.111,169.882 664.755,169.882 669.127,194.792 670.512,194.792 666.111,169.882 
															"/>
						</g>
					</g>
				</g>
			</g>
		</g>
	</g>
</g>
</svg>
