<?xml version="1.0" encoding="iso-8859-1"?>
<!-- Generator: Adobe Illustrator 16.0.0, SVG Export Plug-In . SVG Version: 6.00 Build 0)  -->
<!DOCTYPE svg PUBLIC "-//W3C//DTD SVG 1.1//EN" "http://www.w3.org/Graphics/SVG/1.1/DTD/svg11.dtd">
<svg version="1.1" id="Layer_2" xmlns="http://www.w3.org/2000/svg" xmlns:xlink="http://www.w3.org/1999/xlink" x="0px" y="0px"
	 width="910.886px" height="597.925px" viewBox="0 0 910.886 597.925" style="enable-background:new 0 0 910.886 597.925;"
	 xml:space="preserve">
<g id="Layer_3">
</g>
<g id="Layer_4">
</g>
<g>
	<g>
		<g style="enable-background:new    ;">
			<defs>
				<polygon id="SVGID_1_" style="enable-background:new    ;" points="-103.585,599.557 71.197,92.353 839.69,92.353 
					1014.473,599.557 				"/>
			</defs>
			<clipPath id="SVGID_2_">
				<use xlink:href="#SVGID_1_"  style="overflow:visible;"/>
			</clipPath>
			<g style="clip-path:url(#SVGID_2_);">
				<g>
					<g>
						<g>
							<path style="fill:#FFFFFF;" d="M471.58,227.108h-1.472c-0.041,0.128-0.077,0.259-0.107,0.39
								c-0.03,0.132-0.056,0.265-0.075,0.399c-0.02,0.135-0.034,0.271-0.044,0.407c-0.009,0.137-0.013,0.275-0.011,0.414v0.02
								l1.43-0.224c0.002-0.121,0.011-0.241,0.023-0.36c0.014-0.119,0.032-0.238,0.056-0.355s0.052-0.234,0.085-0.349
								C471.499,227.334,471.537,227.22,471.58,227.108"/>
							<path style="fill:#FFFFFF;" d="M439.618,280.772l-1.468,0.28l0,0.022c-0.002,0.134-0.009,0.268-0.022,0.399
								c-0.013,0.132-0.031,0.263-0.055,0.393c-0.024,0.13-0.054,0.258-0.088,0.386c-0.035,0.127-0.076,0.254-0.122,0.38
								l1.557-0.122c0.035-0.117,0.064-0.235,0.09-0.354c0.025-0.119,0.046-0.239,0.062-0.359c0.017-0.121,0.029-0.241,0.037-0.362
								c0.009-0.121,0.014-0.241,0.015-0.361c0-0.027,0-0.053,0-0.079c0-0.025,0-0.05,0-0.075c0-0.024,0-0.049-0.001-0.074
								C439.621,280.822,439.62,280.797,439.618,280.772"/>
							<polyline style="fill:#FFFFFF;" points="680.54,252.302 679.099,252.302 679.16,252.651 662.721,252.651 662.905,253.792 
								696.346,253.792 696.13,252.651 680.603,252.651 680.54,252.302 							"/>
							<path style="fill:#FFFFFF;" d="M354.838,257.89h-1.457c-0.003,0.064-0.006,0.128-0.009,0.193s-0.006,0.13-0.01,0.196
								c-0.003,0.066-0.007,0.132-0.012,0.199s-0.009,0.134-0.015,0.201h-16.238l-0.106,1.151h34.026l0.076-1.151h-16.3
								c0.003-0.067,0.008-0.134,0.012-0.201s0.009-0.133,0.014-0.199c0.004-0.066,0.009-0.131,0.012-0.196
								S354.837,257.954,354.838,257.89"/>
							<polyline style="fill:#FFFFFF;" points="158.741,355.396 157.174,355.396 156.94,356.479 139.922,356.479 139.615,357.82 
								175.921,357.82 176.192,356.479 158.508,356.479 158.741,355.396 							"/>
							<polyline style="fill:#FFFFFF;" points="403.804,368.234 403.056,368.234 403.005,369.6 403.753,369.6 403.804,368.234 
															"/>
							<polyline style="fill:#FFFFFF;" points="533.729,396.597 533.332,396.597 533.41,398.009 533.807,398.009 533.729,396.597 
															"/>
							<polyline style="fill:#FFFFFF;" points="305.524,453.002 304.771,453.002 304.613,454.538 305.368,454.538 305.524,453.002 
															"/>
							<polyline style="fill:#FFFFFF;" points="465.722,492.622 465.35,492.622 465.36,494.232 465.732,494.232 465.722,492.622 
															"/>
							<polyline style="fill:#FFFFFF;" points="392.832,342.304 391.28,342.304 391.257,342.791 392.81,342.791 392.832,342.304 
															"/>
							<polyline style="fill:#FFFFFF;" points="525.188,480.595 523.478,480.595 523.505,481.195 525.215,481.195 525.188,480.595 
															"/>
							<polyline style="fill:#FFFFFF;" points="244.506,269.984 210.097,269.984 209.874,271.156 226.235,271.156 226.203,271.34 
								227.665,271.34 227.697,271.156 244.314,271.156 244.506,269.984 							"/>
							<polyline style="fill:#FFFFFF;" points="260.675,258.354 226.688,258.354 226.482,259.512 260.499,259.512 260.675,258.354 
															"/>
							<path style="fill:#FFFFFF;" d="M78.092,258.742H44.846l-0.371,1.159h15.643c-0.026,0.076-0.05,0.152-0.074,0.228
								c-0.024,0.076-0.046,0.151-0.069,0.227c-0.022,0.076-0.044,0.151-0.065,0.227c-0.021,0.076-0.043,0.152-0.064,0.228h1.459
								c0.021-0.076,0.043-0.152,0.064-0.228c0.021-0.076,0.043-0.151,0.065-0.227c0.022-0.076,0.045-0.151,0.068-0.227
								s0.048-0.151,0.074-0.228h16.175L78.092,258.742"/>
							<path style="fill:#FFFFFF;" d="M215.96,337.836h-1.547l-5.465,30.848h1.583l2.32-13.184c0.029-0.002,0.059-0.004,0.096-0.007
								c0.036-0.002,0.079-0.004,0.132-0.006c0.053-0.002,0.117-0.004,0.195-0.006s0.172-0.004,0.285-0.006l0.235-1.337
								c-0.113,0.004-0.207,0.007-0.286,0.01c-0.079,0.003-0.143,0.006-0.196,0.008s-0.096,0.003-0.132,0.004
								s-0.066,0.002-0.094,0.002L215.96,337.836"/>
							<polyline style="fill:#FFFFFF;" points="729.94,178.333 697.562,178.333 697.767,179.351 713.517,179.351 713.586,179.674 
								714.953,179.674 714.883,179.351 730.173,179.351 729.94,178.333 							"/>
							<polyline style="fill:#FFFFFF;" points="683.705,264.171 650.554,264.171 650.731,265.339 667.098,265.339 668.563,265.339 
								683.912,265.339 683.705,264.171 							"/>
							<path style="fill:#FFFFFF;" d="M850.963,263.082h-1.462c0.019,0.059,0.036,0.118,0.055,0.177
								c0.018,0.059,0.036,0.117,0.054,0.175c0.019,0.058,0.037,0.116,0.057,0.173c0.019,0.058,0.038,0.115,0.058,0.173h-17.039
								l0.343,1.167h34.854l-0.374-1.167h-16.33c-0.018-0.058-0.035-0.115-0.053-0.173s-0.036-0.115-0.054-0.173
								s-0.036-0.116-0.054-0.175S850.981,263.141,850.963,263.082"/>
							<path style="fill:#FFFFFF;" d="M573.287,263.849h-34.273l0.076,1.161h16.722c0.007,0.062,0.013,0.113,0.02,0.163
								c0.006,0.05,0.012,0.098,0.018,0.151c0.007,0.053,0.014,0.112,0.021,0.185c0.008,0.072,0.017,0.158,0.027,0.265l1.448-0.091
								c-0.01-0.098-0.018-0.177-0.023-0.242c-0.007-0.065-0.012-0.118-0.017-0.165s-0.009-0.088-0.014-0.13
								s-0.01-0.085-0.017-0.136h16.117L573.287,263.849"/>
							<path style="fill:#FFFFFF;" d="M666.111,169.882h-1.356l2.072,11.809c-0.026,0-0.052,0-0.081,0.001
								c-0.028,0-0.062,0.001-0.104,0.003c-0.043,0.001-0.096,0.002-0.163,0.004c-0.068,0.001-0.151,0.003-0.256,0.004l0.18,1.023
								c0.104-0.002,0.188-0.003,0.255-0.005c0.068-0.001,0.121-0.003,0.163-0.004c0.043-0.001,0.076-0.003,0.105-0.005
								s0.054-0.003,0.08-0.004l2.121,12.084h1.385L666.111,169.882"/>
						</g>
					</g>
				</g>
			</g>
		</g>
	</g>
</g>
</svg>
