<?xml version="1.0" encoding="iso-8859-1"?>
<!-- Generator: Adobe Illustrator 16.0.0, SVG Export Plug-In . SVG Version: 6.00 Build 0)  -->
<!DOCTYPE svg PUBLIC "-//W3C//DTD SVG 1.1//EN" "http://www.w3.org/Graphics/SVG/1.1/DTD/svg11.dtd">
<svg version="1.1" id="Layer_2" xmlns="http://www.w3.org/2000/svg" xmlns:xlink="http://www.w3.org/1999/xlink" x="0px" y="0px"
	 width="910.886px" height="597.925px" viewBox="0 0 910.886 597.925" style="enable-background:new 0 0 910.886 597.925;"
	 xml:space="preserve">
<g id="Layer_3">
</g>
<g id="Layer_4">
</g>
<g>
	<g>
		<g style="enable-background:new    ;">
			<defs>
				<polygon id="SVGID_1_" style="enable-background:new    ;" points="-103.585,599.557 71.197,92.353 839.69,92.353 
					1014.473,599.557 				"/>
			</defs>
			<clipPath id="SVGID_2_">
				<use xlink:href="#SVGID_1_"  style="overflow:visible;"/>
			</clipPath>
			<g style="clip-path:url(#SVGID_2_);">
				<g>
					<g>
						<g>
							<path style="fill:#FFFFFF;" d="M475.37,222.497c-0.811,0.236-1.561,0.563-2.23,0.967s-1.259,0.884-1.745,1.424
								c-0.487,0.54-0.872,1.14-1.133,1.784c-0.262,0.644-0.399,1.332-0.391,2.047v0.02l1.43-0.224
								c0.018-0.575,0.149-1.126,0.377-1.643c0.228-0.516,0.552-0.996,0.955-1.427s0.887-0.814,1.434-1.137
								c0.547-0.321,1.156-0.582,1.813-0.769L475.37,222.497"/>
							<path style="fill:#FFFFFF;" d="M439.618,280.772l-1.468,0.28l0,0.022c-0.006,0.445-0.072,0.879-0.191,1.298
								c-0.12,0.419-0.293,0.822-0.514,1.204c-0.221,0.382-0.489,0.743-0.8,1.078c-0.311,0.334-0.662,0.643-1.049,0.919l1.183,0.745
								c0.433-0.331,0.825-0.696,1.171-1.09c0.346-0.394,0.645-0.816,0.891-1.261c0.246-0.445,0.438-0.912,0.571-1.396
								c0.132-0.484,0.205-0.984,0.211-1.496c0-0.027,0-0.053,0-0.079c0-0.025,0-0.05,0-0.075c0-0.024,0-0.049-0.001-0.074
								C439.621,280.822,439.62,280.797,439.618,280.772"/>
							<polyline style="fill:#FFFFFF;" points="680.417,251.602 678.977,251.602 679.16,252.651 662.721,252.651 662.905,253.792 
								696.346,253.792 696.13,252.651 680.603,252.651 680.417,251.602 							"/>
							<path style="fill:#FFFFFF;" d="M666.18,170.272h-1.356l2.004,11.418c-0.346,0.001-0.691,0.004-1.036,0.007
								c-0.346,0.003-0.689,0.008-1.033,0.013c-0.344,0.006-0.686,0.013-1.028,0.021c-0.342,0.009-0.683,0.019-1.022,0.031
								l0.299,1.024c0.33-0.013,0.662-0.023,0.994-0.033c0.333-0.009,0.666-0.017,1-0.023c0.334-0.007,0.668-0.012,1.003-0.016
								c0.335-0.004,0.669-0.006,1.003-0.008l2.04,11.622h1.384L666.18,170.272"/>
							<path style="fill:#FFFFFF;" d="M354.976,251.719l-1.456,0.082c0.012,0.564,0.016,1.13,0.014,1.699
								c-0.002,0.569-0.011,1.14-0.026,1.713c-0.015,0.574-0.037,1.149-0.066,1.727c-0.029,0.578-0.064,1.158-0.106,1.74H337.9
								l-0.105,1.151h32.427l0.077-1.151h-15.514c0.042-0.588,0.078-1.175,0.107-1.76c0.029-0.584,0.052-1.167,0.068-1.748
								s0.026-1.158,0.028-1.734C354.991,252.863,354.987,252.29,354.976,251.719"/>
							<polyline style="fill:#FFFFFF;" points="159.052,353.954 157.486,353.954 156.94,356.479 139.922,356.479 139.615,357.82 
								175.921,357.82 176.192,356.479 158.508,356.479 159.052,353.954 							"/>
							<polyline style="fill:#FFFFFF;" points="403.804,368.234 402.317,368.234 402.265,369.6 403.753,369.6 403.804,368.234 
															"/>
							<polyline style="fill:#FFFFFF;" points="533.729,396.597 532.154,396.597 532.23,398.009 533.807,398.009 533.729,396.597 
															"/>
							<polyline style="fill:#FFFFFF;" points="307.494,453.002 303.544,453.002 303.386,454.538 307.339,454.538 307.494,453.002 
															"/>
							<polyline style="fill:#FFFFFF;" points="465.722,492.622 464.225,492.622 464.234,494.232 465.732,494.232 465.722,492.622 
															"/>
							<polyline style="fill:#FFFFFF;" points="392.832,342.304 391.28,342.304 391.187,344.272 392.742,344.272 392.832,342.304 
															"/>
							<polyline style="fill:#FFFFFF;" points="525.131,479.375 523.423,479.375 523.533,481.807 525.243,481.807 525.131,479.375 
															"/>
							<polyline style="fill:#FFFFFF;" points="244.356,269.984 210.448,269.984 210.227,271.156 226.235,271.156 226.008,272.436 
								227.472,272.436 227.697,271.156 244.165,271.156 244.356,269.984 							"/>
							<path style="fill:#FFFFFF;" d="M260.187,258.354h-15.973h-1.448h-15.772l-0.207,1.158h15.656
								c-0.007,0.018-0.015,0.035-0.022,0.053c-0.007,0.018-0.015,0.036-0.023,0.055c-0.008,0.019-0.017,0.039-0.025,0.06
								c-0.009,0.021-0.019,0.044-0.029,0.068h1.476c0.008-0.024,0.017-0.047,0.024-0.068c0.008-0.021,0.016-0.041,0.023-0.06
								s0.015-0.038,0.022-0.055c0.007-0.018,0.015-0.035,0.022-0.053h16.101L260.187,258.354"/>
							<path style="fill:#FFFFFF;" d="M77.577,258.742H45.186l-0.371,1.159h15.302c-0.083,0.271-0.166,0.542-0.247,0.813
								s-0.161,0.542-0.239,0.813s-0.155,0.542-0.229,0.813c-0.075,0.271-0.147,0.542-0.217,0.812h1.462
								c0.07-0.27,0.142-0.541,0.216-0.812c0.074-0.271,0.15-0.542,0.227-0.813s0.156-0.542,0.235-0.813
								c0.079-0.271,0.16-0.542,0.241-0.813h15.668L77.577,258.742"/>
							<path style="fill:#FFFFFF;" d="M215.96,337.836h-1.547l-5.465,30.848h1.583l2.32-13.184c0.362-0.002,0.723-0.006,1.084-0.01
								c0.361-0.004,0.722-0.01,1.083-0.017s0.721-0.016,1.083-0.026c0.361-0.01,0.722-0.021,1.083-0.036l0.231-1.337
								c-0.361,0.016-0.723,0.029-1.083,0.041c-0.361,0.011-0.721,0.021-1.082,0.027c-0.36,0.008-0.721,0.014-1.082,0.018
								c-0.361,0.005-0.722,0.008-1.083,0.01L215.96,337.836"/>
							<polyline style="fill:#FFFFFF;" points="729.327,178.333 697.897,178.333 698.103,179.351 713.517,179.351 713.966,181.446 
								715.335,181.446 714.883,179.351 729.56,179.351 729.327,178.333 							"/>
							<path style="fill:#FFFFFF;" d="M850.499,261.715h-1.452c0.058,0.172,0.114,0.345,0.171,0.517
								c0.056,0.172,0.112,0.345,0.167,0.517c0.056,0.172,0.111,0.344,0.166,0.516s0.109,0.343,0.164,0.514h-16.26l0.344,1.167
								h33.039l-0.373-1.167H851.17c-0.053-0.171-0.105-0.342-0.159-0.514s-0.107-0.344-0.163-0.516
								c-0.055-0.172-0.111-0.344-0.169-0.517S850.562,261.888,850.499,261.715"/>
							<path style="fill:#FFFFFF;" d="M572.84,263.849h-33.3l0.075,1.161h16.205c0.053,0.616,0.111,1.232,0.176,1.848
								c0.064,0.616,0.136,1.231,0.213,1.845c0.078,0.615,0.162,1.229,0.253,1.841c0.091,0.613,0.189,1.225,0.294,1.835l1.461-0.042
								c-0.103-0.606-0.2-1.215-0.291-1.825c-0.091-0.609-0.176-1.219-0.254-1.831c-0.078-0.611-0.149-1.223-0.215-1.835
								c-0.064-0.612-0.122-1.224-0.173-1.837h15.661L572.84,263.849"/>
							<polyline style="fill:#FFFFFF;" points="668.331,263.94 666.868,263.94 666.906,264.171 650.554,264.171 650.731,265.339 
								667.098,265.339 668.563,265.339 683.912,265.339 683.705,264.171 668.369,264.171 668.331,263.94 							"/>
						</g>
					</g>
				</g>
			</g>
		</g>
	</g>
</g>
</svg>
