<?xml version="1.0" encoding="iso-8859-1"?>
<!-- Generator: Adobe Illustrator 16.0.0, SVG Export Plug-In . SVG Version: 6.00 Build 0)  -->
<!DOCTYPE svg PUBLIC "-//W3C//DTD SVG 1.1//EN" "http://www.w3.org/Graphics/SVG/1.1/DTD/svg11.dtd">
<svg version="1.1" id="Layer_2" xmlns="http://www.w3.org/2000/svg" xmlns:xlink="http://www.w3.org/1999/xlink" x="0px" y="0px"
	 width="910.886px" height="597.925px" viewBox="0 0 910.886 597.925" style="enable-background:new 0 0 910.886 597.925;"
	 xml:space="preserve">
<g id="Layer_3">
</g>
<g id="Layer_4">
</g>
<g>
	<g>
		<g style="enable-background:new    ;">
			<defs>
				<polygon id="SVGID_1_" style="enable-background:new    ;" points="-103.585,599.557 71.197,92.353 839.69,92.353 
					1014.473,599.557 				"/>
			</defs>
			<clipPath id="SVGID_2_">
				<use xlink:href="#SVGID_1_"  style="overflow:visible;"/>
			</clipPath>
			<g style="clip-path:url(#SVGID_2_);">
				<g>
					<g>
						<g>
							<path style="fill:#FFFFFF;" d="M475.37,222.497c-0.811,0.236-1.561,0.563-2.23,0.967s-1.259,0.884-1.745,1.424
								c-0.487,0.54-0.872,1.14-1.133,1.784c-0.262,0.644-0.399,1.332-0.391,2.047v0.02l1.43-0.224
								c0.018-0.575,0.149-1.126,0.377-1.643c0.228-0.516,0.552-0.996,0.955-1.427s0.887-0.814,1.434-1.137
								c0.547-0.321,1.156-0.582,1.813-0.769L475.37,222.497"/>
							<path style="fill:#FFFFFF;" d="M439.618,280.772l-1.468,0.28l0,0.022c-0.008,0.619-0.132,1.217-0.355,1.781
								s-0.546,1.094-0.951,1.575c-0.406,0.482-0.894,0.916-1.447,1.288c-0.554,0.372-1.173,0.683-1.841,0.918l1.028,0.934
								c0.741-0.301,1.425-0.681,2.034-1.126c0.609-0.445,1.143-0.955,1.586-1.516c0.442-0.56,0.793-1.171,1.036-1.819
								c0.242-0.646,0.376-1.33,0.385-2.035c0-0.027,0-0.053,0-0.079c0-0.025,0-0.05,0-0.075c0-0.024,0-0.049-0.001-0.074
								C439.621,280.822,439.62,280.797,439.618,280.772"/>
							<polyline style="fill:#FFFFFF;" points="680.132,249.987 678.693,249.987 679.16,252.651 664.17,252.651 664.357,253.792 
								695.467,253.792 695.253,252.651 680.603,252.651 680.132,249.987 							"/>
							<path style="fill:#FFFFFF;" d="M666.323,171.083h-1.357l1.861,10.607c-0.594,0.003-1.186,0.009-1.775,0.019
								c-0.591,0.009-1.178,0.022-1.764,0.039c-0.586,0.017-1.169,0.037-1.751,0.061c-0.581,0.024-1.16,0.052-1.736,0.084
								l0.361,1.017c0.564-0.032,1.131-0.06,1.698-0.084s1.137-0.044,1.707-0.06s1.142-0.028,1.716-0.037
								c0.572-0.009,1.147-0.014,1.724-0.016l1.901,10.835h1.384L666.323,171.083"/>
							<path style="fill:#FFFFFF;" d="M354.746,246.952l-1.453,0.109c0.078,0.943,0.137,1.893,0.177,2.848
								c0.041,0.957,0.063,1.92,0.066,2.888c0.003,0.97-0.012,1.945-0.045,2.925c-0.034,0.981-0.085,1.967-0.156,2.958H337.9
								l-0.105,1.151h32.427l0.077-1.151h-15.514c0.072-1.002,0.125-1.999,0.16-2.99c0.034-0.99,0.05-1.974,0.046-2.952
								c-0.003-0.977-0.025-1.948-0.066-2.913C354.884,248.861,354.824,247.903,354.746,246.952"/>
							<polyline style="fill:#FFFFFF;" points="159.513,351.813 157.95,351.813 156.94,356.479 140.927,356.479 140.621,357.82 
								174.567,357.82 174.84,356.479 158.508,356.479 159.513,351.813 							"/>
							<polyline style="fill:#FFFFFF;" points="403.804,368.234 401.654,368.234 401.602,369.6 403.753,369.6 403.804,368.234 
															"/>
							<polyline style="fill:#FFFFFF;" points="533.729,396.597 531.313,396.597 531.389,398.009 533.807,398.009 533.729,396.597 
															"/>
							<polyline style="fill:#FFFFFF;" points="309.383,453.002 303.544,453.002 303.386,454.538 309.23,454.538 309.383,453.002 
															"/>
							<polyline style="fill:#FFFFFF;" points="465.722,492.622 462.719,492.622 462.727,494.232 465.732,494.232 465.722,492.622 
															"/>
							<polyline style="fill:#FFFFFF;" points="392.832,342.304 391.28,342.304 391.116,345.788 392.672,345.788 392.832,342.304 
															"/>
							<polyline style="fill:#FFFFFF;" points="525.054,477.719 523.348,477.719 523.533,481.807 525.243,481.807 525.054,477.719 
															"/>
							<polyline style="fill:#FFFFFF;" points="243.458,269.984 211.346,269.984 211.125,271.156 226.235,271.156 225.729,274.01 
								227.195,274.01 227.697,271.156 243.266,271.156 243.458,269.984 							"/>
							<path style="fill:#FFFFFF;" d="M259.951,258.354h-15.737h-1.448h-15.414l-0.206,1.158h15.297
								c-0.007,0.018-0.015,0.035-0.022,0.053c-0.007,0.018-0.015,0.036-0.023,0.055c-0.008,0.019-0.017,0.039-0.025,0.06
								c-0.009,0.021-0.019,0.044-0.029,0.068h1.476c0.008-0.024,0.017-0.047,0.024-0.068c0.008-0.021,0.016-0.041,0.023-0.06
								s0.015-0.038,0.022-0.055c0.007-0.018,0.015-0.035,0.022-0.053h15.865L259.951,258.354"/>
							<path style="fill:#FFFFFF;" d="M77.577,258.742H45.186l-0.371,1.159h15.302c-0.083,0.271-0.166,0.542-0.247,0.813
								s-0.161,0.542-0.239,0.813s-0.155,0.542-0.229,0.813c-0.075,0.271-0.147,0.542-0.217,0.812h1.462
								c0.07-0.27,0.142-0.541,0.216-0.812c0.074-0.271,0.15-0.542,0.227-0.813s0.156-0.542,0.235-0.813
								c0.079-0.271,0.16-0.542,0.241-0.813h15.668L77.577,258.742"/>
							<path style="fill:#FFFFFF;" d="M215.805,338.72h-1.548l-5.151,29.074h1.582l2.164-12.294
								c0.625-0.004,1.249-0.012,1.872-0.023s1.245-0.026,1.867-0.046s1.243-0.044,1.864-0.072s1.242-0.062,1.863-0.1l0.228-1.337
								c-0.621,0.04-1.241,0.074-1.862,0.103c-0.62,0.029-1.241,0.053-1.862,0.071c-0.621,0.02-1.242,0.033-1.864,0.044
								s-1.245,0.019-1.869,0.022L215.805,338.72"/>
							<polyline style="fill:#FFFFFF;" points="728.452,178.333 699.41,178.333 699.617,179.351 713.517,179.351 714.332,183.15 
								715.703,183.15 714.883,179.351 728.684,179.351 728.452,178.333 							"/>
							<path style="fill:#FFFFFF;" d="M849.358,258.43h-1.457c0.161,0.442,0.32,0.885,0.476,1.329
								c0.156,0.444,0.31,0.89,0.461,1.335c0.15,0.446,0.299,0.893,0.445,1.34c0.146,0.448,0.29,0.896,0.432,1.345h-14.191
								l0.345,1.167h28.979l-0.371-1.167h-13.299c-0.143-0.448-0.287-0.897-0.434-1.345c-0.146-0.447-0.296-0.895-0.447-1.34
								s-0.305-0.891-0.461-1.335C849.68,259.315,849.521,258.872,849.358,258.43"/>
							<path style="fill:#FFFFFF;" d="M571.823,263.849h-31.328l0.077,1.161h15.248c0.084,1.021,0.187,2.04,0.308,3.056
								c0.121,1.018,0.261,2.033,0.42,3.045c0.159,1.014,0.337,2.026,0.534,3.035c0.198,1.01,0.415,2.018,0.651,3.022l1.447-0.157
								c-0.231-0.992-0.445-1.986-0.64-2.983c-0.195-0.996-0.371-1.994-0.529-2.995c-0.158-0.999-0.298-2.001-0.419-3.006
								c-0.121-1.003-0.224-2.009-0.309-3.018h14.645L571.823,263.849"/>
							<polyline style="fill:#FFFFFF;" points="668.282,263.647 666.819,263.647 666.906,264.171 651.631,264.171 651.81,265.339 
								667.098,265.339 668.563,265.339 682.999,265.339 682.793,264.171 668.369,264.171 668.282,263.647 							"/>
						</g>
					</g>
				</g>
			</g>
		</g>
	</g>
</g>
</svg>
