<?xml version="1.0" encoding="iso-8859-1"?>
<!-- Generator: Adobe Illustrator 16.0.0, SVG Export Plug-In . SVG Version: 6.00 Build 0)  -->
<!DOCTYPE svg PUBLIC "-//W3C//DTD SVG 1.1//EN" "http://www.w3.org/Graphics/SVG/1.1/DTD/svg11.dtd">
<svg version="1.1" id="Layer_2" xmlns="http://www.w3.org/2000/svg" xmlns:xlink="http://www.w3.org/1999/xlink" x="0px" y="0px"
	 width="910.886px" height="597.925px" viewBox="0 0 910.886 597.925" style="enable-background:new 0 0 910.886 597.925;"
	 xml:space="preserve">
<g id="Layer_3">
</g>
<g>
	<g>
		<g style="enable-background:new    ;">
			<defs>
				<polygon id="SVGID_1_" style="enable-background:new    ;" points="-103.585,599.557 71.197,92.353 839.69,92.353 
					1014.473,599.557 				"/>
			</defs>
			<clipPath id="SVGID_2_">
				<use xlink:href="#SVGID_1_"  style="overflow:visible;"/>
			</clipPath>
			<g style="clip-path:url(#SVGID_2_);">
				<g>
					<g>
						<g>
							<path style="fill:#FFFFFF;" d="M478.339,222.085c-1.181,0.003-2.302,0.19-3.318,0.525c-1.018,0.336-1.933,0.82-2.698,1.418
								c-0.767,0.599-1.384,1.312-1.808,2.105c-0.425,0.793-0.654,1.667-0.644,2.585v0.02l1.43-0.224
								c0.022-0.743,0.234-1.448,0.601-2.087c0.365-0.639,0.884-1.212,1.521-1.693c0.636-0.48,1.389-0.868,2.224-1.137
								c0.834-0.268,1.751-0.417,2.714-0.418L478.339,222.085"/>
							<path style="fill:#FFFFFF;" d="M439.618,280.772l-1.468,0.28l0,0.022c-0.011,0.833-0.231,1.627-0.621,2.352
								c-0.39,0.726-0.949,1.38-1.636,1.93c-0.688,0.551-1.504,0.998-2.407,1.306c-0.903,0.309-1.893,0.48-2.927,0.48
								c-0.031,0-0.063,0-0.094,0c-0.031,0-0.063,0-0.094-0.001s-0.062-0.001-0.093-0.002s-0.063-0.002-0.094-0.004l-0.012,0.602
								c-0.031,0-0.062,0-0.092-0.001c-0.03,0-0.061-0.002-0.091-0.003c-0.031-0.001-0.062-0.003-0.093-0.004
								c-0.032-0.001-0.064-0.003-0.097-0.005l0,0.021h0.375l-0.011,0.587c0.031,0.004,0.063,0.006,0.094,0.009
								c0.031,0.002,0.062,0.003,0.093,0.004c0.031,0,0.063,0.001,0.094,0.001c0.031,0,0.063,0,0.094,0
								c1.239,0,2.424-0.205,3.506-0.575c1.081-0.37,2.059-0.905,2.882-1.565c0.822-0.659,1.492-1.443,1.958-2.313
								c0.466-0.868,0.729-1.821,0.741-2.819c0-0.027,0-0.053,0-0.079c0-0.025,0-0.05,0-0.075c0-0.024,0-0.049-0.001-0.074
								C439.621,280.822,439.62,280.797,439.618,280.772"/>
							<polyline style="fill:#FFFFFF;" points="679.889,248.607 678.451,248.607 679.16,252.651 665.439,252.651 665.627,253.792 
								693.938,253.792 693.725,252.651 680.603,252.651 679.889,248.607 							"/>
							<path style="fill:#FFFFFF;" d="M666.508,172.125h-1.359l1.679,9.566c-0.903,0.003-1.802,0.015-2.696,0.035
								s-1.784,0.05-2.67,0.087c-0.885,0.038-1.766,0.083-2.641,0.138c-0.876,0.054-1.747,0.116-2.613,0.187l0.424,1.012
								c0.846-0.071,1.697-0.132,2.553-0.186s1.717-0.098,2.582-0.134c0.864-0.037,1.734-0.065,2.607-0.085
								c0.874-0.021,1.751-0.033,2.633-0.037l1.69,9.631h1.382L666.508,172.125"/>
							<path style="fill:#FFFFFF;" d="M354.021,240.912l-1.417,0.276c0.224,1.402,0.408,2.817,0.552,4.246
								c0.145,1.432,0.248,2.876,0.311,4.333c0.063,1.459,0.083,2.932,0.062,4.416c-0.021,1.487-0.085,2.986-0.193,4.497h-13.604
								l-0.104,1.151h28.655l0.079-1.151h-13.569c0.108-1.538,0.171-3.063,0.191-4.576c0.02-1.509-0.004-3.005-0.07-4.488
								c-0.066-1.479-0.174-2.945-0.324-4.397C354.441,243.77,354.251,242.334,354.021,240.912"/>
							<polyline style="fill:#FFFFFF;" points="160.083,349.164 158.523,349.164 156.94,356.479 142.739,356.479 142.435,357.82 
								172.959,357.82 173.234,356.479 158.508,356.479 160.083,349.164 							"/>
							<polyline style="fill:#FFFFFF;" points="403.804,368.234 400.252,368.234 400.198,369.6 403.753,369.6 403.804,368.234 
															"/>
							<polyline style="fill:#FFFFFF;" points="533.729,396.597 530.298,396.597 530.372,398.009 533.807,398.009 533.729,396.597 
															"/>
							<polyline style="fill:#FFFFFF;" points="311.965,453.002 303.544,453.002 303.386,454.538 311.816,454.538 311.965,453.002 
															"/>
							<polyline style="fill:#FFFFFF;" points="465.722,492.622 460.521,492.622 460.526,494.232 465.732,494.232 465.722,492.622 
															"/>
							<polyline style="fill:#FFFFFF;" points="392.832,342.304 391.28,342.304 391.041,347.395 392.598,347.395 392.832,342.304 
															"/>
							<polyline style="fill:#FFFFFF;" points="524.943,475.348 523.24,475.348 523.533,481.807 525.243,481.807 524.943,475.348 
															"/>
							<polyline style="fill:#FFFFFF;" points="241.715,269.984 213.265,269.984 213.045,271.156 226.235,271.156 225.449,275.594 
								226.916,275.594 227.697,271.156 241.521,271.156 241.715,269.984 							"/>
							<path style="fill:#FFFFFF;" d="M258.049,258.354h-13.835h-1.448h-13.539l-0.204,1.158h13.463
								c-0.014,0.033-0.028,0.067-0.042,0.102c-0.014,0.035-0.027,0.071-0.042,0.109c-0.015,0.038-0.029,0.077-0.045,0.118
								s-0.033,0.084-0.051,0.129h1.476c0.016-0.045,0.032-0.088,0.047-0.129c0.015-0.041,0.03-0.08,0.044-0.118
								c0.015-0.038,0.028-0.074,0.042-0.109c0.014-0.035,0.026-0.069,0.038-0.102h13.918L258.049,258.354"/>
							<path style="fill:#FFFFFF;" d="M75.885,258.742H46.888l-0.37,1.159h13.599c-0.14,0.46-0.276,0.919-0.41,1.379
								s-0.265,0.919-0.393,1.378c-0.128,0.459-0.253,0.919-0.375,1.378c-0.122,0.46-0.241,0.92-0.356,1.38h1.465
								c0.115-0.46,0.233-0.92,0.354-1.38c0.121-0.459,0.245-0.919,0.373-1.378c0.127-0.459,0.258-0.918,0.391-1.378
								s0.27-0.919,0.409-1.379h13.966L75.885,258.742"/>
							<path style="fill:#FFFFFF;" d="M215.645,339.627h-1.549l-4.709,26.585h1.58l1.885-10.712
								c0.989-0.006,1.977-0.021,2.964-0.047s1.973-0.062,2.957-0.106c0.983-0.046,1.965-0.102,2.945-0.168s1.957-0.144,2.931-0.231
								l0.226-1.346c-0.974,0.09-1.95,0.169-2.929,0.237c-0.979,0.068-1.96,0.126-2.943,0.172c-0.983,0.047-1.967,0.082-2.954,0.107
								c-0.986,0.025-1.973,0.04-2.96,0.044L215.645,339.627"/>
							<polyline style="fill:#FFFFFF;" points="726.522,178.333 700.474,178.333 700.682,179.351 713.517,179.351 714.734,185.024 
								716.107,185.024 714.883,179.351 726.752,179.351 726.522,178.333 							"/>
							<path style="fill:#FFFFFF;" d="M849.358,258.43h-1.457c0.161,0.442,0.32,0.885,0.476,1.329
								c0.156,0.444,0.31,0.89,0.461,1.335c0.15,0.446,0.299,0.893,0.445,1.34c0.146,0.448,0.29,0.896,0.432,1.345h-14.191
								l0.345,1.167h28.979l-0.371-1.167h-13.299c-0.143-0.448-0.287-0.897-0.434-1.345c-0.146-0.447-0.296-0.895-0.447-1.34
								s-0.305-0.891-0.461-1.335C849.68,259.315,849.521,258.872,849.358,258.43"/>
							<path style="fill:#FFFFFF;" d="M570.605,263.849h-28.41l0.078,1.161h13.547c0.129,1.57,0.303,3.134,0.52,4.693
								c0.219,1.563,0.48,3.12,0.787,4.67c0.306,1.554,0.656,3.102,1.049,4.642c0.395,1.544,0.831,3.081,1.311,4.61l1.408-0.295
								c-0.472-1.505-0.902-3.017-1.289-4.537c-0.387-1.516-0.73-3.039-1.032-4.568c-0.301-1.526-0.559-3.058-0.773-4.596
								c-0.215-1.535-0.387-3.074-0.516-4.62h13.426L570.605,263.849"/>
							<polyline style="fill:#FFFFFF;" points="668.197,263.13 666.734,263.13 666.906,264.171 652.972,264.171 653.151,265.339 
								667.098,265.339 668.563,265.339 681.807,265.339 681.602,264.171 668.369,264.171 668.197,263.13 							"/>
						</g>
					</g>
				</g>
			</g>
		</g>
	</g>
</g>
</svg>
