<?xml version="1.0" encoding="iso-8859-1"?>
<!-- Generator: Adobe Illustrator 16.0.0, SVG Export Plug-In . SVG Version: 6.00 Build 0)  -->
<!DOCTYPE svg PUBLIC "-//W3C//DTD SVG 1.1//EN" "http://www.w3.org/Graphics/SVG/1.1/DTD/svg11.dtd">
<svg version="1.1" id="Layer_2" xmlns="http://www.w3.org/2000/svg" xmlns:xlink="http://www.w3.org/1999/xlink" x="0px" y="0px"
	 width="910.886px" height="597.925px" viewBox="0 0 910.886 597.925" style="enable-background:new 0 0 910.886 597.925;"
	 xml:space="preserve">
<g id="Layer_3">
</g>
<g>
	<g>
		<g style="enable-background:new    ;">
			<defs>
				<polygon id="SVGID_1_" style="enable-background:new    ;" points="-103.585,599.557 71.197,92.353 839.69,92.353 
					1014.473,599.557 				"/>
			</defs>
			<clipPath id="SVGID_2_">
				<use xlink:href="#SVGID_1_"  style="overflow:visible;"/>
			</clipPath>
			<g style="clip-path:url(#SVGID_2_);">
				<g>
					<g>
						<g>
							<path style="fill:#FFFFFF;" d="M478.348,222.085c-1.181,0-2.303,0.186-3.32,0.52c-1.019,0.335-1.934,0.82-2.701,1.419
								c-0.767,0.6-1.386,1.314-1.811,2.108c-0.425,0.795-0.655,1.669-0.645,2.587v0.02l1.43-0.224
								c0.022-0.743,0.235-1.448,0.602-2.088c0.366-0.639,0.886-1.213,1.523-1.695c0.637-0.481,1.391-0.869,2.227-1.137
								c0.835-0.268,1.752-0.416,2.715-0.416c0.356,0,0.707,0.021,1.05,0.06s0.678,0.098,1.003,0.174
								c0.326,0.076,0.642,0.17,0.947,0.28c0.305,0.11,0.599,0.236,0.88,0.377l0.743-0.938c-0.337-0.166-0.688-0.313-1.054-0.443
								c-0.365-0.129-0.744-0.239-1.134-0.329c-0.39-0.09-0.79-0.159-1.2-0.205S478.773,222.085,478.348,222.085"/>
							<path style="fill:#FFFFFF;" d="M439.618,280.772l-1.468,0.28l0,0.022c-0.011,0.833-0.231,1.627-0.621,2.352
								c-0.39,0.726-0.949,1.38-1.636,1.93c-0.688,0.551-1.504,0.998-2.407,1.306c-0.903,0.309-1.893,0.48-2.927,0.48
								c-0.413,0-0.816-0.027-1.209-0.078c-0.392-0.051-0.773-0.128-1.142-0.227c-0.368-0.099-0.723-0.221-1.062-0.364
								c-0.339-0.143-0.663-0.307-0.968-0.489l-0.667,1.107c0.354,0.197,0.729,0.375,1.121,0.529c0.392,0.155,0.8,0.287,1.223,0.394
								s0.86,0.19,1.308,0.246c0.448,0.056,0.906,0.085,1.373,0.085c1.239,0,2.424-0.205,3.506-0.575
								c1.081-0.37,2.059-0.905,2.882-1.565c0.822-0.659,1.492-1.443,1.958-2.313c0.466-0.868,0.729-1.821,0.741-2.819
								c0-0.027,0-0.053,0-0.079c0-0.025,0-0.05,0-0.075c0-0.024,0-0.049-0.001-0.074
								C439.621,280.822,439.62,280.797,439.618,280.772"/>
							<polyline style="fill:#FFFFFF;" points="679.558,246.734 678.122,246.734 679.16,252.651 668.07,252.651 668.26,253.792 
								690.635,253.792 690.424,252.651 680.603,252.651 679.558,246.734 							"/>
							<path style="fill:#FFFFFF;" d="M666.812,173.845h-1.361l1.377,7.846c-1.284,0.006-2.561,0.029-3.827,0.069
								c-1.268,0.04-2.526,0.096-3.776,0.169c-1.25,0.073-2.491,0.163-3.724,0.27s-2.455,0.229-3.67,0.369l0.412,1.012
								c1.194-0.14,2.398-0.262,3.611-0.368c1.213-0.105,2.436-0.195,3.666-0.267c1.23-0.072,2.47-0.127,3.718-0.166
								c1.248-0.038,2.505-0.06,3.77-0.064l1.394,7.938h1.38L666.812,173.845"/>
							<path style="fill:#FFFFFF;" d="M352.452,233.589l-1.353,0.526c0.511,1.927,0.944,3.883,1.297,5.868
								c0.354,1.991,0.628,4.01,0.818,6.056c0.191,2.053,0.298,4.132,0.319,6.236c0.021,2.111-0.043,4.247-0.198,6.405h-10.785
								l-0.101,1.151h23.205l0.081-1.151h-10.951c0.158-2.21,0.224-4.396,0.199-6.554c-0.024-2.151-0.139-4.276-0.339-6.373
								c-0.199-2.089-0.484-4.15-0.852-6.182C353.427,237.547,352.979,235.552,352.452,233.589"/>
							<polyline style="fill:#FFFFFF;" points="238.978,269.984 215.343,269.984 215.125,271.156 226.235,271.156 225.022,278.003 
								226.492,278.003 227.697,271.156 238.781,271.156 238.978,269.984 							"/>
							<path style="fill:#FFFFFF;" d="M215.184,342.248h-1.552l-3.862,21.803h1.577l1.505-8.551c1.506-0.01,3.008-0.043,4.507-0.098
								c1.499-0.056,2.995-0.134,4.486-0.235c1.491-0.101,2.979-0.226,4.461-0.372c1.483-0.147,2.961-0.318,4.435-0.513
								l-0.295-1.287c-1.431,0.186-2.867,0.35-4.306,0.491c-1.44,0.142-2.883,0.262-4.331,0.358
								c-1.447,0.098-2.898,0.173-4.352,0.226c-1.454,0.053-2.911,0.084-4.37,0.092L215.184,342.248"/>
							<polyline style="fill:#FFFFFF;" points="160.854,345.582 159.298,345.582 156.94,356.479 145.379,356.479 145.077,357.82 
								169.688,357.82 169.966,356.479 158.508,356.479 160.854,345.582 							"/>
							<polyline style="fill:#FFFFFF;" points="403.804,368.234 399.154,368.234 399.099,369.6 403.753,369.6 403.804,368.234 
															"/>
							<polyline style="fill:#FFFFFF;" points="533.729,396.597 526.867,396.597 526.938,398.009 533.807,398.009 533.729,396.597 
															"/>
							<polyline style="fill:#FFFFFF;" points="316.447,453.002 303.544,453.002 303.386,454.538 316.303,454.538 316.447,453.002 
															"/>
							<polyline style="fill:#FFFFFF;" points="465.722,492.622 457.116,492.622 457.118,494.232 465.732,494.232 465.722,492.622 
															"/>
							<polyline style="fill:#FFFFFF;" points="392.832,342.304 391.28,342.304 390.917,350.006 392.479,350.006 392.832,342.304 
															"/>
							<polyline style="fill:#FFFFFF;" points="524.848,473.276 523.146,473.276 523.533,481.807 525.243,481.807 524.848,473.276 
															"/>
							<path style="fill:#FFFFFF;" d="M255.467,258.354h-11.253h-1.448h-10.625l-0.202,1.158h10.582
								c-0.019,0.073-0.039,0.146-0.061,0.219c-0.021,0.073-0.044,0.146-0.068,0.219c-0.024,0.073-0.049,0.146-0.076,0.219
								c-0.026,0.073-0.053,0.146-0.08,0.219h1.477c0.027-0.073,0.053-0.146,0.078-0.219c0.024-0.073,0.047-0.146,0.07-0.219
								c0.022-0.073,0.044-0.146,0.065-0.219c0.021-0.073,0.042-0.146,0.063-0.219h11.298L255.467,258.354"/>
							<path style="fill:#FFFFFF;" d="M72.926,258.742H49.819l-0.367,1.159h10.673c-0.203,0.663-0.399,1.327-0.589,1.991
								c-0.19,0.664-0.375,1.328-0.552,1.992c-0.178,0.665-0.35,1.329-0.514,1.992c-0.165,0.664-0.323,1.327-0.475,1.989h1.468
								c0.15-0.662,0.308-1.326,0.472-1.989c0.164-0.664,0.334-1.328,0.511-1.992c0.176-0.664,0.359-1.328,0.547-1.992
								s0.382-1.328,0.582-1.991h11.005L72.926,258.742"/>
							<polyline style="fill:#FFFFFF;" points="724.249,178.333 703.18,178.333 703.39,179.351 713.517,179.351 715.361,187.943 
								716.737,187.943 714.883,179.351 724.477,179.351 724.249,178.333 							"/>
							<path style="fill:#FFFFFF;" d="M848.163,255.279h-1.453c0.274,0.698,0.542,1.399,0.804,2.103
								c0.262,0.704,0.518,1.41,0.767,2.118c0.249,0.709,0.492,1.42,0.729,2.133c0.238,0.714,0.471,1.429,0.697,2.146H839.01
								l0.348,1.167h22.289l-0.368-1.167H851.17c-0.228-0.717-0.46-1.433-0.698-2.146c-0.237-0.713-0.48-1.424-0.73-2.133
								c-0.249-0.708-0.505-1.415-0.769-2.118C848.71,256.679,848.44,255.978,848.163,255.279"/>
							<path style="fill:#FFFFFF;" d="M567.811,263.849h-23.242l0.08,1.161h11.172c0.185,2.233,0.46,4.456,0.822,6.667
								c0.364,2.219,0.816,4.425,1.354,6.616c0.54,2.199,1.167,4.383,1.877,6.551c0.713,2.174,1.511,4.331,2.39,6.468l1.359-0.444
								c-0.865-2.103-1.649-4.225-2.351-6.363c-0.699-2.131-1.315-4.279-1.846-6.44c-0.529-2.154-0.975-4.323-1.332-6.503
								c-0.357-2.173-0.628-4.357-0.811-6.552h10.628L567.811,263.849"/>
							<polyline style="fill:#FFFFFF;" points="668.133,262.74 666.671,262.74 666.906,264.171 655.593,264.171 655.774,265.339 
								667.098,265.339 668.563,265.339 678.43,265.339 678.228,264.171 668.369,264.171 668.133,262.74 							"/>
						</g>
					</g>
				</g>
			</g>
		</g>
	</g>
</g>
</svg>
