<?xml version="1.0" encoding="iso-8859-1"?>
<!-- Generator: Adobe Illustrator 16.0.0, SVG Export Plug-In . SVG Version: 6.00 Build 0)  -->
<!DOCTYPE svg PUBLIC "-//W3C//DTD SVG 1.1//EN" "http://www.w3.org/Graphics/SVG/1.1/DTD/svg11.dtd">
<svg version="1.1" id="Layer_2" xmlns="http://www.w3.org/2000/svg" xmlns:xlink="http://www.w3.org/1999/xlink" x="0px" y="0px"
	 width="910.886px" height="597.925px" viewBox="0 0 910.886 597.925" style="enable-background:new 0 0 910.886 597.925;"
	 xml:space="preserve">
<g id="Layer_3">
</g>
<g>
	<g>
		<g style="enable-background:new    ;">
			<defs>
				<polygon id="SVGID_1_" style="enable-background:new    ;" points="-103.585,599.557 71.197,92.353 839.69,92.353 
					1014.473,599.557 				"/>
			</defs>
			<clipPath id="SVGID_2_">
				<use xlink:href="#SVGID_1_"  style="overflow:visible;"/>
			</clipPath>
			<g style="clip-path:url(#SVGID_2_);">
				<g>
					<g>
						<g>
							<path style="fill:#FFFFFF;" d="M478.348,222.085c-1.181,0-2.303,0.186-3.32,0.52c-1.019,0.335-1.934,0.82-2.701,1.419
								c-0.767,0.6-1.386,1.314-1.811,2.108c-0.425,0.795-0.655,1.669-0.645,2.587v0.02l1.43-0.224
								c0.022-0.743,0.235-1.448,0.602-2.088c0.366-0.639,0.886-1.213,1.523-1.695c0.637-0.481,1.391-0.869,2.227-1.137
								c0.835-0.268,1.752-0.416,2.715-0.416c0.675,0,1.329,0.073,1.95,0.209c0.622,0.136,1.211,0.335,1.755,0.588
								s1.043,0.56,1.484,0.91c0.441,0.351,0.826,0.746,1.14,1.175l1.149-0.638c-0.38-0.5-0.841-0.958-1.367-1.365
								c-0.526-0.406-1.119-0.761-1.764-1.053c-0.644-0.292-1.34-0.522-2.072-0.679S479.14,222.085,478.348,222.085"/>
							<path style="fill:#FFFFFF;" d="M439.618,280.772l-1.468,0.28l0,0.022c-0.011,0.833-0.231,1.627-0.621,2.352
								c-0.39,0.726-0.949,1.38-1.636,1.93c-0.688,0.551-1.504,0.998-2.407,1.306c-0.903,0.309-1.893,0.48-2.927,0.48
								c-0.792,0-1.553-0.1-2.266-0.284c-0.713-0.184-1.377-0.454-1.975-0.793c-0.598-0.339-1.129-0.749-1.577-1.213
								c-0.448-0.464-0.811-0.984-1.073-1.543l-1.152,0.886c0.343,0.611,0.791,1.176,1.326,1.68
								c0.536,0.504,1.159,0.946,1.851,1.313c0.693,0.366,1.455,0.656,2.268,0.854c0.813,0.198,1.678,0.305,2.575,0.305
								c1.239,0,2.424-0.205,3.506-0.575c1.081-0.37,2.059-0.905,2.882-1.565c0.822-0.659,1.492-1.443,1.958-2.313
								c0.466-0.868,0.729-1.821,0.741-2.819c0-0.027,0-0.053,0-0.079c0-0.025,0-0.05,0-0.075c0-0.024,0-0.049-0.001-0.074
								C439.621,280.822,439.62,280.797,439.618,280.772"/>
							<polyline style="fill:#FFFFFF;" points="679.098,244.128 677.665,244.128 679.16,252.651 672.639,252.651 672.833,253.792 
								687.574,253.792 687.367,252.651 680.603,252.651 679.098,244.128 							"/>
							<path style="fill:#FFFFFF;" d="M349.563,224.996l-1.296,0.552c1.012,2.519,1.887,5.1,2.616,7.737
								c0.733,2.649,1.319,5.356,1.753,8.116c0.436,2.772,0.717,5.598,0.836,8.473c0.12,2.888,0.077,5.825-0.137,8.806h-6.989
								l-0.098,1.151h15.528l0.084-1.151h-7.068c0.212-3.037,0.251-6.027,0.125-8.965c-0.126-2.925-0.418-5.799-0.867-8.617
								c-0.447-2.806-1.05-5.556-1.802-8.247C351.499,230.172,350.602,227.552,349.563,224.996"/>
							<polyline style="fill:#FFFFFF;" points="235.246,269.984 219.418,269.984 219.204,271.156 226.235,271.156 224.621,280.271 
								226.093,280.271 227.697,271.156 235.046,271.156 235.246,269.984 							"/>
							<path style="fill:#FFFFFF;" d="M214.442,346.46h-1.557l-2.538,14.326h1.573l0.93-5.286c2.081-0.013,4.157-0.069,6.228-0.171
								c2.07-0.102,4.133-0.247,6.188-0.437c2.055-0.189,4.101-0.422,6.137-0.697c2.036-0.275,4.061-0.593,6.074-0.952l-0.218-1.286
								c-1.978,0.352-3.966,0.662-5.965,0.932c-2,0.27-4.009,0.497-6.026,0.683c-2.018,0.186-4.042,0.328-6.074,0.427
								s-4.068,0.153-6.109,0.164L214.442,346.46"/>
							<polyline style="fill:#FFFFFF;" points="161.714,341.588 160.163,341.588 156.94,356.479 149.624,356.479 149.326,357.82 
								166.041,357.82 166.322,356.479 158.508,356.479 161.714,341.588 							"/>
							<polyline style="fill:#FFFFFF;" points="403.804,368.234 397.004,368.234 396.946,369.6 403.753,369.6 403.804,368.234 
															"/>
							<polyline style="fill:#FFFFFF;" points="533.729,396.597 526.867,396.597 526.938,398.009 533.807,398.009 533.729,396.597 
															"/>
							<polyline style="fill:#FFFFFF;" points="320.869,453.002 303.544,453.002 303.386,454.538 320.729,454.538 320.869,453.002 
															"/>
							<polyline style="fill:#FFFFFF;" points="465.722,492.622 454,492.622 453.998,494.232 465.732,494.232 465.722,492.622 
															"/>
							<polyline style="fill:#FFFFFF;" points="392.832,342.304 391.28,342.304 390.758,353.402 392.323,353.402 392.832,342.304 
															"/>
							<polyline style="fill:#FFFFFF;" points="524.713,470.363 523.015,470.363 523.533,481.807 525.243,481.807 524.713,470.363 
															"/>
							<path style="fill:#FFFFFF;" d="M251.463,258.354h-7.25h-1.448H235.9l-0.198,1.158h6.819
								c-0.059,0.212-0.125,0.422-0.198,0.631c-0.073,0.209-0.153,0.416-0.24,0.621c-0.087,0.205-0.182,0.408-0.283,0.609
								c-0.101,0.2-0.209,0.398-0.325,0.593l1.264,0.453c0.139-0.232,0.27-0.467,0.392-0.704s0.235-0.478,0.34-0.72
								c0.105-0.243,0.2-0.488,0.287-0.735c0.086-0.248,0.164-0.497,0.231-0.749h7.291L251.463,258.354"/>
							<path style="fill:#FFFFFF;" d="M69.069,258.742H53.615l-0.363,1.159h6.865c-0.294,0.974-0.575,1.948-0.844,2.921
								c-0.269,0.974-0.525,1.947-0.769,2.919c-0.243,0.973-0.473,1.945-0.689,2.915c-0.216,0.972-0.419,1.942-0.606,2.91h1.472
								c0.187-0.968,0.387-1.938,0.602-2.91c0.214-0.97,0.442-1.942,0.684-2.915c0.241-0.972,0.496-1.945,0.765-2.919
								c0.268-0.973,0.549-1.947,0.844-2.921h7.144L69.069,258.742"/>
							<polyline style="fill:#FFFFFF;" points="720.765,178.333 706.755,178.333 706.968,179.351 713.517,179.351 716.026,191.044 
								717.407,191.044 714.883,179.351 720.989,179.351 720.765,178.333 							"/>
							<path style="fill:#FFFFFF;" d="M846.999,252.425h-1.458c0.393,0.929,0.773,1.861,1.143,2.798
								c0.37,0.938,0.729,1.88,1.076,2.826c0.348,0.947,0.685,1.897,1.011,2.852c0.325,0.956,0.641,1.916,0.944,2.878h-6.851
								l0.352,1.167h14.959l-0.364-1.167h-6.633c-0.305-0.963-0.62-1.923-0.946-2.878c-0.326-0.955-0.662-1.905-1.011-2.852
								c-0.347-0.946-0.705-1.888-1.076-2.826C847.775,254.287,847.394,253.354,846.999,252.425"/>
							<path style="fill:#FFFFFF;" d="M563.877,263.849h-14.946l0.085,1.161h6.805c0.256,3.12,0.689,6.222,1.294,9.299
								c0.606,3.092,1.386,6.158,2.329,9.191c0.948,3.048,2.063,6.063,3.337,9.04c1.279,2.989,2.72,5.938,4.313,8.839l1.341-0.459
								c-1.573-2.864-2.995-5.775-4.26-8.727c-1.259-2.938-2.36-5.915-3.299-8.925c-0.934-2.996-1.705-6.023-2.309-9.076
								c-0.6-3.039-1.032-6.102-1.292-9.183h6.7L563.877,263.849"/>
							<path style="fill:#FFFFFF;" d="M667.261,176.388h-1.364l0.931,5.303c-1.876,0.007-3.734,0.052-5.573,0.133
								s-3.659,0.198-5.459,0.352c-1.801,0.152-3.581,0.341-5.341,0.564c-1.761,0.223-3.502,0.481-5.222,0.772l0.798,0.94
								c1.671-0.28,3.363-0.527,5.074-0.74c1.711-0.214,3.44-0.394,5.19-0.54c1.748-0.146,3.516-0.258,5.301-0.336
								c1.786-0.077,3.59-0.12,5.41-0.128l0.919,5.235h1.377L667.261,176.388"/>
							<polyline style="fill:#FFFFFF;" points="667.877,261.193 666.416,261.193 666.906,264.171 660.377,264.171 660.563,265.339 
								667.098,265.339 668.563,265.339 674.939,265.339 674.74,264.171 668.369,264.171 667.877,261.193 							"/>
						</g>
					</g>
				</g>
			</g>
		</g>
	</g>
</g>
</svg>
