<?xml version="1.0" encoding="iso-8859-1"?>
<!-- Generator: Adobe Illustrator 16.0.0, SVG Export Plug-In . SVG Version: 6.00 Build 0)  -->
<!DOCTYPE svg PUBLIC "-//W3C//DTD SVG 1.1//EN" "http://www.w3.org/Graphics/SVG/1.1/DTD/svg11.dtd">
<svg version="1.1" id="Layer_2" xmlns="http://www.w3.org/2000/svg" xmlns:xlink="http://www.w3.org/1999/xlink" x="0px" y="0px"
	 width="910.886px" height="597.925px" viewBox="0 0 910.886 597.925" style="enable-background:new 0 0 910.886 597.925;"
	 xml:space="preserve">
<g id="Layer_3">
</g>
<g>
	<g>
		<g style="enable-background:new    ;">
			<defs>
				<polygon id="SVGID_1_" style="enable-background:new    ;" points="-103.585,599.557 71.197,92.353 839.69,92.353 
					1014.473,599.557 				"/>
			</defs>
			<clipPath id="SVGID_2_">
				<use xlink:href="#SVGID_1_"  style="overflow:visible;"/>
			</clipPath>
			<g style="clip-path:url(#SVGID_2_);">
				<g>
					<g>
						<g>
							<path style="fill:#FFFFFF;" d="M478.348,222.085c-1.181,0-2.303,0.186-3.32,0.52c-1.019,0.335-1.934,0.82-2.701,1.419
								c-0.767,0.6-1.386,1.314-1.811,2.108c-0.425,0.795-0.655,1.669-0.645,2.587v0.02l1.43-0.224
								c0.022-0.743,0.235-1.448,0.602-2.088c0.366-0.639,0.886-1.213,1.523-1.695c0.637-0.481,1.391-0.869,2.227-1.137
								c0.835-0.268,1.752-0.416,2.715-0.416c0.961,0,1.882,0.148,2.726,0.416c0.845,0.268,1.612,0.656,2.267,1.137
								c0.655,0.481,1.197,1.056,1.588,1.695c0.392,0.64,0.632,1.345,0.684,2.088h1.424c-0.058-0.895-0.342-1.745-0.808-2.516
								c-0.467-0.77-1.114-1.462-1.899-2.042c-0.785-0.579-1.707-1.047-2.722-1.37C480.612,222.263,479.504,222.085,478.348,222.085
								"/>
							<path style="fill:#FFFFFF;" d="M423.249,280.479h-1.491c-0.006,0.048-0.011,0.097-0.016,0.146
								c-0.004,0.049-0.009,0.099-0.012,0.148s-0.006,0.1-0.009,0.15c-0.002,0.05-0.004,0.101-0.005,0.151
								c-0.026,0.998,0.201,1.951,0.633,2.819c0.433,0.869,1.071,1.653,1.869,2.313c0.799,0.66,1.756,1.195,2.825,1.565
								c1.069,0.371,2.25,0.575,3.493,0.575c1.239,0,2.424-0.205,3.506-0.575c1.081-0.37,2.059-0.905,2.882-1.565
								c0.822-0.659,1.492-1.443,1.958-2.313c0.466-0.868,0.729-1.821,0.741-2.819c0-0.027,0-0.053,0-0.079c0-0.025,0-0.05,0-0.075
								c0-0.024,0-0.049-0.001-0.074c-0.001-0.024-0.002-0.049-0.004-0.074l-1.468,0.28l0,0.022
								c-0.011,0.833-0.231,1.627-0.621,2.352c-0.39,0.726-0.949,1.38-1.636,1.93c-0.688,0.551-1.504,0.998-2.407,1.306
								c-0.903,0.309-1.893,0.48-2.927,0.48c-1.037,0-2.022-0.171-2.915-0.48c-0.892-0.309-1.692-0.755-2.359-1.306
								c-0.667-0.55-1.201-1.205-1.563-1.93c-0.362-0.725-0.552-1.52-0.532-2.352c0.001-0.05,0.003-0.101,0.006-0.151
								c0.002-0.05,0.006-0.1,0.011-0.15c0.004-0.05,0.01-0.099,0.017-0.148C423.23,280.576,423.239,280.527,423.249,280.479"/>
							<path style="fill:#FFFFFF;" d="M678.566,241.121h-1.429l2.022,11.53h-4.638l0.195,1.141h4.643l0.017,0.096
								c0.059-0.003,0.117-0.007,0.177-0.009c0.059-0.002,0.118-0.005,0.179-0.006c0.06-0.002,0.12-0.003,0.181-0.004
								s0.121-0.001,0.183-0.001c0.061,0,0.121,0,0.181,0.001c0.061,0.001,0.12,0.002,0.181,0.004
								c0.061,0.001,0.12,0.004,0.181,0.006s0.121,0.006,0.183,0.009l-0.017-0.096h4.885l-0.206-1.141h-4.88L678.566,241.121"/>
							<path style="fill:#FFFFFF;" d="M344.102,214.119l-1.358,0.4c1.939,3.19,3.64,6.509,5.083,9.946
								c1.451,3.456,2.642,7.031,3.553,10.712c0.917,3.704,1.553,7.516,1.886,11.424c0.336,3.933,0.366,7.963,0.071,12.078h-4.607
								l-0.096,1.151h11.022l0.086-1.151h-4.956c0.294-4.156,0.26-8.226-0.08-12.196c-0.338-3.945-0.98-7.792-1.905-11.529
								c-0.92-3.714-2.12-7.32-3.581-10.806C347.766,220.684,346.054,217.336,344.102,214.119"/>
							<polyline style="fill:#FFFFFF;" points="232.719,269.984 221.619,269.984 221.407,271.156 226.235,271.156 224.118,283.107 
								225.594,283.107 227.697,271.156 232.517,271.156 232.719,269.984 							"/>
							<path style="fill:#FFFFFF;" d="M213.884,349.633h-1.561l-1.789,10.096h1.572l0.744-4.229
								c2.854-0.017,5.699-0.117,8.531-0.302c2.832-0.185,5.649-0.451,8.45-0.799c2.798-0.348,5.579-0.776,8.335-1.282
								c2.755-0.506,5.486-1.09,8.189-1.75l-0.626-1.17c-2.635,0.628-5.297,1.187-7.982,1.671c-2.687,0.485-5.396,0.896-8.123,1.23
								c-2.729,0.335-5.474,0.593-8.231,0.771c-2.758,0.178-5.529,0.276-8.307,0.293L213.884,349.633"/>
							<polyline style="fill:#FFFFFF;" points="162.791,336.587 161.245,336.587 156.94,356.479 151.802,356.479 151.507,357.82 
								163.361,357.82 163.646,356.479 158.508,356.479 162.791,336.587 							"/>
							<polyline style="fill:#FFFFFF;" points="403.804,368.234 394.096,368.234 394.036,369.6 403.753,369.6 403.804,368.234 
															"/>
							<polyline style="fill:#FFFFFF;" points="533.729,396.597 523.9,396.597 523.969,398.009 533.807,398.009 533.729,396.597 
															"/>
							<polyline style="fill:#FFFFFF;" points="326.406,453.002 303.544,453.002 303.386,454.538 326.271,454.538 326.406,453.002 
															"/>
							<polyline style="fill:#FFFFFF;" points="465.722,492.622 450.161,492.622 450.155,494.232 465.732,494.232 465.722,492.622 
															"/>
							<polyline style="fill:#FFFFFF;" points="392.832,342.304 391.28,342.304 390.589,357 392.158,357 392.832,342.304 							"/>
							<polyline style="fill:#FFFFFF;" points="524.549,466.825 522.854,466.825 523.533,481.807 525.243,481.807 524.549,466.825 
															"/>
							<path style="fill:#FFFFFF;" d="M667.898,258.742c-0.219,0.402-0.408,0.819-0.564,1.249c-0.157,0.431-0.282,0.874-0.372,1.329
								s-0.146,0.921-0.165,1.396c-0.019,0.476,0,0.961,0.057,1.454h-4.82l0.188,1.168h11.061l-0.197-1.168h-4.768
								c-0.048-0.438-0.063-0.871-0.046-1.294c0.017-0.423,0.065-0.839,0.146-1.245c0.08-0.405,0.19-0.801,0.33-1.185
								c0.141-0.384,0.31-0.756,0.508-1.115L667.898,258.742"/>
							<path style="fill:#FFFFFF;" d="M249.134,258.354h-4.92h-1.448h-4.632l-0.196,1.158h4.566
								c-0.094,0.342-0.207,0.68-0.338,1.012c-0.131,0.333-0.281,0.661-0.448,0.982c-0.167,0.322-0.353,0.638-0.554,0.947
								c-0.202,0.31-0.421,0.612-0.656,0.907l1.151,0.608c0.275-0.339,0.532-0.688,0.769-1.045c0.237-0.357,0.453-0.723,0.648-1.096
								c0.195-0.373,0.369-0.753,0.52-1.14c0.151-0.386,0.28-0.779,0.385-1.176h4.968L249.134,258.354"/>
							<path style="fill:#FFFFFF;" d="M66.94,258.742H55.937l-0.361,1.159h4.542c-0.402,1.334-0.781,2.667-1.135,3.997
								c-0.354,1.333-0.685,2.664-0.99,3.993c-0.305,1.332-0.585,2.66-0.84,3.987c-0.256,1.329-0.485,2.656-0.689,3.98h1.477
								c0.202-1.324,0.43-2.651,0.683-3.979c0.252-1.326,0.53-2.654,0.833-3.985c0.303-1.328,0.63-2.659,0.984-3.992
								c0.353-1.331,0.731-2.664,1.135-4h5.013L66.94,258.742"/>
							<polyline style="fill:#FFFFFF;" points="719.252,178.333 708.938,178.333 709.152,179.351 713.517,179.351 716.819,194.736 
								718.204,194.736 714.883,179.351 719.475,179.351 719.252,178.333 							"/>
							<path style="fill:#FFFFFF;" d="M845.238,248.437h-1.446c0.573,1.244,1.126,2.496,1.659,3.756
								c0.533,1.262,1.047,2.532,1.54,3.81c0.494,1.28,0.967,2.567,1.419,3.862c0.453,1.297,0.886,2.603,1.297,3.914h-4.89
								l0.354,1.167h11.058l-0.363-1.167h-4.695c-0.415-1.312-0.85-2.616-1.305-3.913c-0.453-1.294-0.928-2.582-1.422-3.861
								c-0.494-1.277-1.008-2.547-1.543-3.81C846.367,250.936,845.813,249.683,845.238,248.437"/>
							<path style="fill:#FFFFFF;" d="M561.924,263.849h-11.048l0.086,1.161h4.858c0.348,4.203,1.016,8.372,1.987,12.491
								c0.979,4.146,2.265,8.241,3.841,12.27c1.586,4.053,3.465,8.036,5.62,11.934c2.167,3.92,4.612,7.752,7.317,11.478l1.191-0.692
								c-2.661-3.671-5.068-7.447-7.202-11.311c-2.122-3.841-3.974-7.767-5.536-11.762c-1.554-3.97-2.822-8.007-3.788-12.094
								c-0.96-4.061-1.621-8.171-1.967-12.313h4.735L561.924,263.849"/>
							<path style="fill:#FFFFFF;" d="M667.618,178.412h-1.366l0.575,3.279c-2.464,0.011-4.898,0.085-7.299,0.222
								c-2.401,0.137-4.77,0.335-7.103,0.594c-2.334,0.259-4.633,0.579-6.896,0.957c-2.263,0.378-4.489,0.815-6.677,1.309
								l0.797,0.917c2.143-0.478,4.322-0.9,6.537-1.266c2.213-0.365,4.462-0.674,6.744-0.924c2.282-0.25,4.598-0.442,6.943-0.573
								c2.347-0.132,4.725-0.203,7.132-0.212l0.602,3.426h1.374L667.618,178.412"/>
						</g>
					</g>
				</g>
			</g>
		</g>
	</g>
</g>
</svg>
