<?xml version="1.0" encoding="iso-8859-1"?>
<!-- Generator: Adobe Illustrator 16.0.0, SVG Export Plug-In . SVG Version: 6.00 Build 0)  -->
<!DOCTYPE svg PUBLIC "-//W3C//DTD SVG 1.1//EN" "http://www.w3.org/Graphics/SVG/1.1/DTD/svg11.dtd">
<svg version="1.1" id="Layer_2" xmlns="http://www.w3.org/2000/svg" xmlns:xlink="http://www.w3.org/1999/xlink" x="0px" y="0px"
	 width="910.886px" height="597.925px" viewBox="0 0 910.886 597.925" style="enable-background:new 0 0 910.886 597.925;"
	 xml:space="preserve">
<g id="Layer_3">
</g>
<g>
	<g>
		<g style="enable-background:new    ;">
			<defs>
				<polygon id="SVGID_1_" style="enable-background:new    ;" points="-103.585,599.557 71.197,92.353 839.69,92.353 
					1014.473,599.557 				"/>
			</defs>
			<clipPath id="SVGID_2_">
				<use xlink:href="#SVGID_1_"  style="overflow:visible;"/>
			</clipPath>
			<g style="clip-path:url(#SVGID_2_);">
				<g>
					<g>
						<g>
							<path style="fill:#FFFFFF;" d="M478.348,222.085c-1.181,0-2.303,0.186-3.32,0.52c-1.019,0.335-1.934,0.82-2.701,1.419
								c-0.767,0.6-1.386,1.314-1.811,2.108c-0.425,0.795-0.655,1.669-0.645,2.587v0.02l1.43-0.224
								c0.022-0.743,0.235-1.448,0.602-2.088c0.366-0.639,0.886-1.213,1.523-1.695c0.637-0.481,1.391-0.869,2.227-1.137
								c0.835-0.268,1.752-0.416,2.715-0.416c0.984,0,1.926,0.155,2.786,0.435s1.64,0.685,2.298,1.186
								c0.66,0.501,1.198,1.098,1.577,1.761c0.379,0.664,0.598,1.394,0.616,2.16c0.007,0.263-0.011,0.521-0.05,0.774
								c-0.04,0.253-0.101,0.5-0.184,0.741c-0.082,0.241-0.185,0.476-0.307,0.702c-0.123,0.227-0.265,0.446-0.424,0.657l1.302,0.472
								c0.182-0.246,0.343-0.502,0.48-0.767c0.139-0.265,0.255-0.539,0.347-0.819s0.16-0.569,0.204-0.863
								c0.043-0.293,0.062-0.593,0.054-0.897c-0.022-0.918-0.286-1.792-0.741-2.587c-0.454-0.794-1.1-1.508-1.891-2.108
								c-0.789-0.599-1.723-1.084-2.753-1.419C480.652,222.271,479.525,222.085,478.348,222.085"/>
							<path style="fill:#FFFFFF;" d="M423.132,277.304c-0.217,0.273-0.412,0.558-0.582,0.854c-0.171,0.296-0.317,0.604-0.438,0.92
								s-0.215,0.642-0.282,0.975s-0.105,0.674-0.114,1.02c-0.026,0.998,0.201,1.951,0.633,2.819
								c0.433,0.869,1.071,1.653,1.869,2.313c0.799,0.66,1.756,1.195,2.825,1.565c1.069,0.371,2.25,0.575,3.493,0.575
								c1.239,0,2.424-0.205,3.506-0.575c1.081-0.37,2.059-0.905,2.882-1.565c0.822-0.659,1.492-1.443,1.958-2.313
								c0.466-0.868,0.729-1.821,0.741-2.819c0-0.027,0-0.053,0-0.079c0-0.025,0-0.05,0-0.075c0-0.024,0-0.049-0.001-0.074
								c-0.001-0.024-0.002-0.049-0.004-0.074l-1.468,0.28l0,0.022c-0.011,0.833-0.231,1.627-0.621,2.352
								c-0.39,0.726-0.949,1.38-1.636,1.93c-0.688,0.551-1.504,0.998-2.407,1.306c-0.903,0.309-1.893,0.48-2.927,0.48
								c-1.037,0-2.022-0.171-2.915-0.48c-0.892-0.309-1.692-0.755-2.359-1.306c-0.667-0.55-1.201-1.205-1.563-1.93
								c-0.362-0.725-0.552-1.52-0.532-2.352c0.007-0.278,0.038-0.551,0.09-0.818c0.053-0.267,0.126-0.528,0.22-0.782
								s0.208-0.501,0.339-0.741c0.131-0.239,0.28-0.471,0.445-0.694L423.132,277.304"/>
							<path style="fill:#FFFFFF;" d="M677.925,237.484H676.5l2.66,15.167h-2.988l0.197,1.141h2.991l0.017,0.096
								c0.059-0.003,0.117-0.007,0.177-0.009c0.059-0.002,0.118-0.005,0.179-0.006c0.06-0.002,0.12-0.003,0.181-0.004
								s0.121-0.001,0.183-0.001c0.061,0,0.121,0,0.181,0.001c0.061,0.001,0.12,0.002,0.181,0.004
								c0.061,0.001,0.12,0.004,0.181,0.006s0.121,0.006,0.183,0.009l-0.017-0.096h3.233l-0.205-1.141h-3.229L677.925,237.484"/>
							<path style="fill:#FFFFFF;" d="M335.627,202.6l-1.128,0.691c3.261,3.722,6.152,7.688,8.635,11.869
								c2.5,4.209,4.586,8.641,6.219,13.266c1.644,4.659,2.828,9.519,3.508,14.548c0.685,5.07,0.859,10.315,0.475,15.706h-2.949
								l-0.094,1.151h7.703l0.088-1.151h-3.298c0.386-5.463,0.205-10.778-0.496-15.914c-0.695-5.094-1.901-10.015-3.575-14.732
								c-1.661-4.683-3.782-9.168-6.321-13.428C341.871,210.375,338.936,206.364,335.627,202.6"/>
							<polyline style="fill:#FFFFFF;" points="231.055,269.984 223.292,269.984 223.081,271.156 226.235,271.156 223.306,287.693 
								224.787,287.693 227.697,271.156 230.852,271.156 231.055,269.984 							"/>
							<path style="fill:#FFFFFF;" d="M255.794,347.402c-3.382,1.07-6.82,2.023-10.307,2.851c-3.49,0.829-7.027,1.533-10.6,2.105
								c-3.576,0.572-7.188,1.014-10.824,1.316c-3.638,0.303-7.301,0.467-10.977,0.487l0.529-3.01h-1.562l-1.3,7.336h1.571
								l0.526-2.988c3.741-0.021,7.467-0.188,11.167-0.497c3.699-0.31,7.372-0.759,11.008-1.344
								c3.633-0.584,7.229-1.302,10.777-2.146c3.544-0.844,7.04-1.814,10.479-2.905L255.794,347.402"/>
							<polyline style="fill:#FFFFFF;" points="164.174,330.161 162.636,330.161 156.94,356.479 153.578,356.479 153.284,357.82 
								161.584,357.82 161.87,356.479 158.508,356.479 164.174,330.161 							"/>
							<polyline style="fill:#FFFFFF;" points="403.804,368.234 390.856,368.234 390.793,369.6 403.753,369.6 403.804,368.234 
															"/>
							<polyline style="fill:#FFFFFF;" points="533.729,396.597 520.469,396.597 520.534,398.009 533.807,398.009 533.729,396.597 
															"/>
							<polyline style="fill:#FFFFFF;" points="334.224,453.002 303.544,453.002 303.386,454.538 334.098,454.538 334.224,453.002 
															"/>
							<polyline style="fill:#FFFFFF;" points="465.722,492.622 444.547,492.622 444.536,494.232 465.732,494.232 465.722,492.622 
															"/>
							<polyline style="fill:#FFFFFF;" points="392.832,342.304 391.28,342.304 390.378,361.481 391.952,361.481 392.832,342.304 
															"/>
							<polyline style="fill:#FFFFFF;" points="524.318,461.859 522.63,461.859 523.533,481.807 525.243,481.807 524.318,461.859 
															"/>
							<path style="fill:#FFFFFF;" d="M668.937,257.226c-0.397,0.479-0.744,0.988-1.036,1.523c-0.293,0.536-0.531,1.098-0.709,1.682
								c-0.18,0.584-0.299,1.191-0.355,1.815c-0.057,0.625-0.049,1.268,0.026,1.925h-3.173l0.189,1.168h7.744l-0.196-1.168h-3.11
								c-0.063-0.569-0.07-1.127-0.023-1.669c0.046-0.542,0.146-1.069,0.295-1.578c0.149-0.508,0.349-0.999,0.594-1.467
								c0.246-0.468,0.538-0.916,0.873-1.338L668.937,257.226"/>
							<path style="fill:#FFFFFF;" d="M247.485,258.354h-3.271h-1.448h-2.983l-0.195,1.158h2.934c-0.13,0.47-0.298,0.933-0.5,1.385
								c-0.202,0.453-0.438,0.895-0.707,1.325c-0.269,0.431-0.569,0.849-0.899,1.252c-0.33,0.404-0.69,0.793-1.077,1.166
								l1.111,0.644c0.432-0.418,0.833-0.855,1.201-1.309s0.704-0.923,1.002-1.408s0.562-0.982,0.785-1.492s0.408-1.031,0.55-1.563
								h3.309L247.485,258.354"/>
							<path style="fill:#FFFFFF;" d="M65.291,258.742h-7.705l-0.36,1.159h2.891c-0.546,1.808-1.047,3.612-1.502,5.412
								c-0.457,1.805-0.867,3.605-1.232,5.401c-0.366,1.801-0.687,3.597-0.961,5.387c-0.275,1.795-0.504,3.584-0.687,5.368
								l1.535-0.315c0.179-1.755,0.403-3.518,0.673-5.286c0.269-1.764,0.583-3.533,0.943-5.308c0.358-1.77,0.762-3.544,1.211-5.324
								c0.448-1.774,0.94-3.552,1.479-5.333h3.362L65.291,258.742"/>
							<polyline style="fill:#FFFFFF;" points="717.705,178.333 710.483,178.333 710.699,179.351 713.517,179.351 717.944,199.976 
								719.335,199.976 714.883,179.351 717.928,179.351 717.705,178.333 							"/>
							<path style="fill:#FFFFFF;" d="M842.654,243.133l-1.297,0.298c0.835,1.633,1.636,3.28,2.401,4.942
								c0.769,1.666,1.502,3.347,2.199,5.041c0.699,1.699,1.362,3.411,1.988,5.137c0.628,1.73,1.218,3.474,1.769,5.229h-3.241
								l0.354,1.167h7.733l-0.361-1.167h-3.022c-0.563-1.78-1.165-3.548-1.805-5.304c-0.638-1.75-1.313-3.487-2.026-5.211
								c-0.711-1.719-1.458-3.424-2.241-5.115C844.324,246.462,843.507,244.79,842.654,243.133"/>
							<path style="fill:#FFFFFF;" d="M560.268,263.849h-7.727l0.088,1.161h3.191c0.462,5.592,1.493,11.125,3.052,16.563
								c1.572,5.482,3.682,10.866,6.286,16.108c2.624,5.285,5.751,10.425,9.335,15.378c3.61,4.99,7.685,9.788,12.173,14.351
								l1.025-0.885c-4.42-4.497-8.431-9.226-11.987-14.145c-3.53-4.882-6.611-9.948-9.199-15.158
								c-2.567-5.168-4.647-10.475-6.2-15.881c-1.54-5.361-2.56-10.817-3.021-16.331h3.078L560.268,263.849"/>
							<path style="fill:#FFFFFF;" d="M667.81,179.497h-1.367l0.385,2.194c-3.229,0.012-6.405,0.135-9.522,0.363
								c-3.118,0.229-6.179,0.563-9.178,0.999c-3,0.437-5.939,0.975-8.812,1.61c-2.875,0.636-5.685,1.371-8.423,2.199l0.784,0.914
								c2.694-0.811,5.459-1.53,8.287-2.153c2.825-0.623,5.716-1.149,8.666-1.577c2.947-0.427,5.956-0.755,9.021-0.979
								c3.063-0.225,6.184-0.346,9.355-0.359l0.381,2.168h1.373L667.81,179.497"/>
						</g>
					</g>
				</g>
			</g>
		</g>
	</g>
</g>
</svg>
