<?xml version="1.0" encoding="iso-8859-1"?>
<!-- Generator: Adobe Illustrator 16.0.0, SVG Export Plug-In . SVG Version: 6.00 Build 0)  -->
<!DOCTYPE svg PUBLIC "-//W3C//DTD SVG 1.1//EN" "http://www.w3.org/Graphics/SVG/1.1/DTD/svg11.dtd">
<svg version="1.1" id="Layer_2" xmlns="http://www.w3.org/2000/svg" xmlns:xlink="http://www.w3.org/1999/xlink" x="0px" y="0px"
	 width="910.886px" height="597.925px" viewBox="0 0 910.886 597.925" style="enable-background:new 0 0 910.886 597.925;"
	 xml:space="preserve">
<g id="Layer_3">
</g>
<g>
	<g>
		<g style="enable-background:new    ;">
			<defs>
				<polygon id="SVGID_1_" style="enable-background:new    ;" points="-103.585,599.557 71.197,92.353 839.69,92.353 
					1014.473,599.557 				"/>
			</defs>
			<clipPath id="SVGID_2_">
				<use xlink:href="#SVGID_1_"  style="overflow:visible;"/>
			</clipPath>
			<g style="clip-path:url(#SVGID_2_);">
				<g>
					<g>
						<g>
							<path style="fill:#FFFFFF;" d="M478.348,222.085c-1.181,0-2.303,0.186-3.32,0.52c-1.019,0.335-1.934,0.82-2.701,1.419
								c-0.767,0.6-1.386,1.314-1.811,2.108c-0.425,0.795-0.655,1.669-0.645,2.587v0.02l1.43-0.224
								c0.022-0.743,0.235-1.448,0.602-2.088c0.366-0.639,0.886-1.213,1.523-1.695c0.637-0.481,1.391-0.869,2.227-1.137
								c0.835-0.268,1.752-0.416,2.715-0.416c0.984,0,1.926,0.155,2.786,0.435s1.64,0.685,2.298,1.186
								c0.66,0.501,1.198,1.098,1.577,1.761c0.379,0.664,0.598,1.394,0.616,2.16c0.013,0.526-0.069,1.035-0.234,1.518
								c-0.164,0.483-0.412,0.94-0.73,1.362s-0.708,0.807-1.155,1.146c-0.448,0.34-0.955,0.634-1.508,0.872l1.341,0.68
								c0.572-0.301,1.095-0.656,1.556-1.055c0.46-0.398,0.857-0.841,1.182-1.318c0.324-0.477,0.575-0.988,0.74-1.525
								c0.166-0.537,0.247-1.099,0.232-1.678c-0.022-0.918-0.286-1.792-0.741-2.587c-0.454-0.794-1.1-1.508-1.891-2.108
								c-0.789-0.599-1.723-1.084-2.753-1.419C480.652,222.271,479.525,222.085,478.348,222.085"/>
							<path style="fill:#FFFFFF;" d="M426.214,274.89c-0.659,0.314-1.265,0.694-1.805,1.126c-0.54,0.433-1.013,0.92-1.406,1.449
								c-0.394,0.53-0.707,1.103-0.926,1.708c-0.219,0.605-0.344,1.242-0.361,1.9c-0.026,0.998,0.201,1.951,0.633,2.819
								c0.433,0.869,1.071,1.653,1.869,2.313c0.799,0.66,1.756,1.195,2.825,1.565c1.069,0.371,2.25,0.575,3.493,0.575
								c1.239,0,2.424-0.205,3.506-0.575c1.081-0.37,2.059-0.905,2.882-1.565c0.822-0.659,1.492-1.443,1.958-2.313
								c0.466-0.868,0.729-1.821,0.741-2.819c0-0.027,0-0.053,0-0.079c0-0.025,0-0.05,0-0.075c0-0.024,0-0.049-0.001-0.074
								c-0.001-0.024-0.002-0.049-0.004-0.074l-1.468,0.28l0,0.022c-0.011,0.833-0.231,1.627-0.621,2.352
								c-0.39,0.726-0.949,1.38-1.636,1.93c-0.688,0.551-1.504,0.998-2.407,1.306c-0.903,0.309-1.893,0.48-2.927,0.48
								c-1.037,0-2.022-0.171-2.915-0.48c-0.892-0.309-1.692-0.755-2.359-1.306c-0.667-0.55-1.201-1.205-1.563-1.93
								c-0.362-0.725-0.552-1.52-0.532-2.352c0.014-0.563,0.123-1.107,0.313-1.623c0.19-0.516,0.462-1.002,0.803-1.451
								s0.752-0.859,1.219-1.222c0.468-0.363,0.992-0.678,1.562-0.936L426.214,274.89"/>
							<path style="fill:#FFFFFF;" d="M558.612,263.849h-4.416l0.089,1.161h1.535c0.6,7.272,2.162,14.445,4.597,21.435
								c2.462,7.065,5.813,13.939,9.961,20.532c4.189,6.658,9.188,13.023,14.892,19.003c5.755,6.032,12.222,11.663,19.292,16.797
								l0.854-1.022c-6.974-5.065-13.354-10.621-19.032-16.573c-5.628-5.899-10.561-12.181-14.697-18.751
								c-4.097-6.506-7.408-13.289-9.843-20.262c-2.41-6.899-3.958-13.979-4.56-21.158h1.421L558.612,263.849"/>
							<path style="fill:#FFFFFF;" d="M677.127,232.97h-1.419l3.452,19.682h-1.347l0.199,1.141h1.348l0.017,0.096
								c0.059-0.003,0.117-0.007,0.177-0.009c0.059-0.002,0.118-0.005,0.179-0.006c0.06-0.002,0.12-0.003,0.181-0.004
								s0.121-0.001,0.183-0.001c0.061,0,0.121,0,0.181,0.001c0.061,0.001,0.12,0.002,0.181,0.004
								c0.061,0.001,0.12,0.004,0.181,0.006s0.121,0.006,0.183,0.009l-0.017-0.096h1.59l-0.202-1.141h-1.589L677.127,232.97"/>
							<polyline style="fill:#FFFFFF;" points="229.392,269.984 224.955,269.984 224.746,271.156 226.235,271.156 222.514,292.165 
								224,292.165 227.697,271.156 229.187,271.156 229.392,269.984 							"/>
							<path style="fill:#FFFFFF;" d="M267.599,343.114c-4.187,1.73-8.488,3.278-12.886,4.63c-4.406,1.354-8.906,2.51-13.479,3.451
								c-4.579,0.943-9.228,1.672-13.926,2.171c-4.702,0.5-9.449,0.77-14.221,0.796l0.248-1.407h-1.564l-0.717,4.045h1.568
								l0.229-1.3c4.853-0.028,9.679-0.304,14.458-0.814c4.776-0.509,9.501-1.252,14.154-2.213c4.647-0.961,9.22-2.139,13.697-3.519
								c4.469-1.378,8.84-2.957,13.094-4.722L267.599,343.114"/>
							<polyline style="fill:#FFFFFF;" points="165.836,322.441 164.307,322.441 156.94,356.479 155.353,356.479 155.061,357.82 
								159.798,357.82 160.086,356.479 158.508,356.479 165.836,322.441 							"/>
							<polyline style="fill:#FFFFFF;" points="403.804,368.234 387.665,368.234 387.598,369.6 403.753,369.6 403.804,368.234 
															"/>
							<polyline style="fill:#FFFFFF;" points="533.729,396.597 517.435,396.597 517.496,398.009 533.807,398.009 533.729,396.597 
															"/>
							<polyline style="fill:#FFFFFF;" points="343.429,453.002 303.544,453.002 303.386,454.538 343.312,454.538 343.429,453.002 
															"/>
							<polyline style="fill:#FFFFFF;" points="444.284,487.705 442.566,487.705 442.511,494.232 465.732,494.232 465.722,492.622 
								444.248,492.622 444.284,487.705 							"/>
							<polyline style="fill:#FFFFFF;" points="392.832,342.304 391.28,342.304 390.119,367.002 391.699,367.002 392.832,342.304 
															"/>
							<polyline style="fill:#FFFFFF;" points="524.079,456.706 522.396,456.706 523.533,481.807 525.243,481.807 524.079,456.706 
															"/>
							<path style="fill:#FFFFFF;" d="M670.304,255.866c-0.621,0.516-1.17,1.086-1.638,1.704c-0.469,0.618-0.856,1.282-1.154,1.985
								c-0.299,0.704-0.508,1.445-0.619,2.217c-0.111,0.773-0.124,1.576-0.03,2.4h-1.516l0.19,1.168h4.429l-0.194-1.168h-1.446
								c-0.081-0.732-0.069-1.445,0.029-2.132c0.099-0.687,0.283-1.347,0.548-1.974c0.263-0.626,0.605-1.22,1.02-1.773
								c0.413-0.552,0.898-1.064,1.447-1.529L670.304,255.866"/>
							<path style="fill:#FFFFFF;" d="M245.836,258.354h-1.623h-1.448h-1.334l-0.193,1.158h1.275
								c-0.19,0.684-0.458,1.35-0.794,1.993c-0.337,0.643-0.743,1.263-1.21,1.853c-0.467,0.59-0.995,1.15-1.575,1.674
								c-0.581,0.524-1.213,1.012-1.89,1.457l1.007,0.744c0.737-0.495,1.426-1.037,2.058-1.619c0.63-0.581,1.203-1.202,1.708-1.855
								c0.505-0.653,0.943-1.338,1.306-2.049c0.362-0.71,0.647-1.445,0.848-2.198h1.676L245.836,258.354"/>
							<path style="fill:#FFFFFF;" d="M63.642,258.742h-4.397l-0.358,1.159h1.231c-0.699,2.311-1.323,4.617-1.874,6.917
								c-0.552,2.308-1.029,4.609-1.432,6.903c-0.404,2.301-0.734,4.594-0.989,6.877c-0.256,2.291-0.438,4.572-0.545,6.841
								l1.553-0.471c0.104-2.228,0.281-4.467,0.532-6.718c0.25-2.243,0.573-4.496,0.97-6.758c0.396-2.254,0.864-4.517,1.405-6.787
								c0.54-2.262,1.152-4.531,1.837-6.805h1.711L63.642,258.742"/>
							<path style="fill:#FFFFFF;" d="M322.718,190.559l-0.873,0.876c5.203,4.019,9.871,8.482,13.921,13.334
								c4.083,4.891,7.545,10.182,10.297,15.814c2.777,5.685,4.835,11.723,6.081,18.056c1.258,6.396,1.688,13.098,1.191,20.04h-1.3
								l-0.093,1.151h4.401l0.089-1.151h-1.649c0.499-7.043,0.055-13.84-1.23-20.325c-1.273-6.419-3.372-12.54-6.201-18.298
								c-2.803-5.706-6.327-11.063-10.48-16.012C332.752,199.135,328.006,194.62,322.718,190.559"/>
							<polyline style="fill:#FFFFFF;" points="716.16,178.333 712.037,178.333 712.255,179.351 713.517,179.351 719.381,206.668 
								720.779,206.668 714.883,179.351 716.381,179.351 716.16,178.333 							"/>
							<path style="fill:#FFFFFF;" d="M839.503,237.344l-1.303,0.289c1.19,2.073,2.324,4.171,3.399,6.292
								c1.079,2.128,2.1,4.281,3.061,6.457c0.963,2.183,1.867,4.39,2.709,6.619c0.845,2.237,1.627,4.497,2.346,6.778h-1.585
								l0.356,1.167h4.419l-0.36-1.167h-1.375c-0.728-2.306-1.52-4.59-2.375-6.852c-0.853-2.254-1.769-4.485-2.746-6.693
								c-0.973-2.2-2.008-4.376-3.102-6.529C841.857,241.561,840.709,239.439,839.503,237.344"/>
							<path style="fill:#FFFFFF;" d="M668.012,180.639h-1.369l0.185,1.052c-4.232,0.017-8.375,0.224-12.415,0.609
								c-4.043,0.386-7.986,0.953-11.819,1.688c-3.837,0.737-7.564,1.644-11.171,2.712c-3.613,1.07-7.107,2.301-10.469,3.685
								l0.911,0.858c3.311-1.357,6.75-2.566,10.307-3.615c3.55-1.047,7.218-1.938,10.993-2.66c3.771-0.722,7.65-1.277,11.628-1.656
								c3.975-0.379,8.05-0.582,12.215-0.599l0.178,1.013h1.372L668.012,180.639"/>
						</g>
					</g>
				</g>
			</g>
		</g>
	</g>
</g>
</svg>
