<?xml version="1.0" encoding="iso-8859-1"?>
<!-- Generator: Adobe Illustrator 16.0.0, SVG Export Plug-In . SVG Version: 6.00 Build 0)  -->
<!DOCTYPE svg PUBLIC "-//W3C//DTD SVG 1.1//EN" "http://www.w3.org/Graphics/SVG/1.1/DTD/svg11.dtd">
<svg version="1.1" id="Layer_2" xmlns="http://www.w3.org/2000/svg" xmlns:xlink="http://www.w3.org/1999/xlink" x="0px" y="0px"
	 width="910.886px" height="597.925px" viewBox="0 0 910.886 597.925" style="enable-background:new 0 0 910.886 597.925;"
	 xml:space="preserve">
<g id="Layer_3">
</g>
<g>
	<g>
		<g style="enable-background:new    ;">
			<defs>
				<polygon id="SVGID_1_" style="enable-background:new    ;" points="-103.585,599.557 71.197,92.353 839.69,92.353 
					1014.473,599.557 				"/>
			</defs>
			<clipPath id="SVGID_2_">
				<use xlink:href="#SVGID_1_"  style="overflow:visible;"/>
			</clipPath>
			<g style="clip-path:url(#SVGID_2_);">
				<g>
					<g>
						<g>
							<path style="fill:#FFFFFF;" d="M478.348,222.085c-1.181,0-2.303,0.186-3.32,0.52c-1.019,0.335-1.934,0.82-2.701,1.419
								c-0.767,0.6-1.386,1.314-1.811,2.108c-0.425,0.795-0.655,1.669-0.645,2.587v0.02l1.43-0.224
								c0.022-0.743,0.235-1.448,0.602-2.088c0.366-0.639,0.886-1.213,1.523-1.695c0.637-0.481,1.391-0.869,2.227-1.137
								c0.835-0.268,1.752-0.416,2.715-0.416c0.984,0,1.926,0.155,2.786,0.435s1.64,0.685,2.298,1.186
								c0.66,0.501,1.198,1.098,1.577,1.761c0.379,0.664,0.598,1.394,0.616,2.16c0.018,0.723-0.144,1.414-0.451,2.048
								c-0.309,0.635-0.765,1.214-1.336,1.711c-0.572,0.498-1.261,0.914-2.034,1.223s-1.631,0.511-2.541,0.581l0.021,1.122
								c1.107-0.07,2.153-0.304,3.097-0.671c0.943-0.366,1.784-0.865,2.483-1.465c0.699-0.599,1.256-1.299,1.633-2.068
								c0.377-0.768,0.573-1.605,0.551-2.48c-0.022-0.918-0.286-1.792-0.741-2.587c-0.454-0.794-1.1-1.508-1.891-2.108
								c-0.789-0.599-1.723-1.084-2.753-1.419C480.652,222.271,479.525,222.085,478.348,222.085"/>
							<path style="fill:#FFFFFF;" d="M430.069,273.896c-1.145,0.075-2.232,0.324-3.222,0.714c-0.989,0.391-1.88,0.924-2.632,1.565
								c-0.752,0.642-1.365,1.393-1.795,2.22c-0.431,0.828-0.68,1.732-0.704,2.678c-0.026,0.998,0.201,1.951,0.633,2.819
								c0.433,0.869,1.071,1.653,1.869,2.313c0.799,0.66,1.756,1.195,2.825,1.565c1.069,0.371,2.25,0.575,3.493,0.575
								c1.239,0,2.424-0.205,3.506-0.575c1.081-0.37,2.059-0.905,2.882-1.565c0.822-0.659,1.492-1.443,1.958-2.313
								c0.466-0.868,0.729-1.821,0.741-2.819c0-0.027,0-0.053,0-0.079c0-0.025,0-0.05,0-0.075c0-0.024,0-0.049-0.001-0.074
								c-0.001-0.024-0.002-0.049-0.004-0.074l-1.468,0.28l0,0.022c-0.011,0.833-0.231,1.627-0.621,2.352
								c-0.39,0.726-0.949,1.38-1.636,1.93c-0.688,0.551-1.504,0.998-2.407,1.306c-0.903,0.309-1.893,0.48-2.927,0.48
								c-1.037,0-2.022-0.171-2.915-0.48c-0.892-0.309-1.692-0.755-2.359-1.306c-0.667-0.55-1.201-1.205-1.563-1.93
								c-0.362-0.725-0.552-1.52-0.532-2.352c0.02-0.784,0.223-1.531,0.576-2.216c0.353-0.685,0.855-1.307,1.473-1.84
								c0.617-0.533,1.349-0.978,2.161-1.308c0.812-0.33,1.706-0.545,2.646-0.62L430.069,273.896"/>
							<path style="fill:#FFFFFF;" d="M557.508,263.849h-2.207l0.09,1.161h0.43c0.764,9.257,3.087,18.354,6.786,27.116
								c3.749,8.881,8.907,17.407,15.272,25.391c6.443,8.079,14.111,15.589,22.786,22.33c8.761,6.809,18.528,12.816,29.06,17.821
								l0.645-1.149c-10.404-4.94-20.053-10.87-28.711-17.591c-8.573-6.654-16.153-14.067-22.524-22.044
								c-6.296-7.884-11.399-16.304-15.112-25.077c-3.665-8.657-5.972-17.647-6.737-26.797h0.316L557.508,263.849"/>
							<path style="fill:#FFFFFF;" d="M676.174,227.57h-1.413l4.399,25.082h-0.252l0.2,1.141h0.252l0.017,0.096
								c0.059-0.003,0.117-0.007,0.177-0.009c0.059-0.002,0.118-0.005,0.179-0.006c0.06-0.002,0.12-0.003,0.181-0.004
								s0.121-0.001,0.183-0.001c0.061,0,0.121,0,0.181,0.001c0.061,0.001,0.12,0.002,0.181,0.004
								c0.061,0.001,0.12,0.004,0.181,0.006s0.121,0.006,0.183,0.009l-0.017-0.096h0.495l-0.202-1.141h-0.494L676.174,227.57"/>
							<polyline style="fill:#FFFFFF;" points="228.282,269.984 226.064,269.984 225.856,271.156 226.235,271.156 221.309,298.964 
								222.803,298.964 227.697,271.156 228.077,271.156 228.282,269.984 							"/>
							<path style="fill:#FFFFFF;" d="M280.802,336.845c-4.96,2.675-10.144,5.084-15.511,7.196
								c-5.383,2.119-10.947,3.938-16.648,5.425c-5.714,1.49-11.563,2.647-17.502,3.439c-5.947,0.794-11.979,1.223-18.053,1.257
								l0.07-0.399h-1.565l-0.357,2.018h1.567l0.049-0.28c6.179-0.036,12.317-0.475,18.368-1.285
								c6.043-0.811,11.994-1.991,17.807-3.513c5.8-1.518,11.458-3.373,16.93-5.534c5.455-2.155,10.721-4.612,15.757-7.34
								L280.802,336.845"/>
							<polyline style="fill:#FFFFFF;" points="167.697,313.8 166.177,313.8 156.94,356.479 156.536,356.479 156.245,357.82 
								158.614,357.82 158.903,356.479 158.508,356.479 167.697,313.8 							"/>
							<polyline style="fill:#FFFFFF;" points="533.729,396.597 512.775,396.597 512.833,398.009 533.807,398.009 533.729,396.597 
															"/>
							<polyline style="fill:#FFFFFF;" points="353.528,453.002 303.544,453.002 303.386,454.538 353.422,454.538 353.528,453.002 
															"/>
							<polyline style="fill:#FFFFFF;" points="444.332,481.225 442.622,481.225 442.511,494.232 465.732,494.232 465.722,492.622 
								444.248,492.622 444.332,481.225 							"/>
							<polyline style="fill:#FFFFFF;" points="392.832,342.304 391.28,342.304 390.061,368.234 382.796,368.234 382.725,369.6 
								403.753,369.6 403.804,368.234 391.643,368.234 392.832,342.304 							"/>
							<polyline style="fill:#FFFFFF;" points="523.799,450.662 522.123,450.662 523.533,481.807 525.243,481.807 523.799,450.662 
															"/>
							<path style="fill:#FFFFFF;" d="M672.334,254.494c-0.937,0.504-1.776,1.104-2.502,1.785c-0.726,0.681-1.338,1.442-1.818,2.269
								c-0.48,0.827-0.83,1.719-1.029,2.661c-0.199,0.943-0.249,1.936-0.131,2.963h-0.403l0.191,1.168h2.219l-0.193-1.168h-0.351
								c-0.103-0.914-0.059-1.796,0.117-2.636c0.176-0.838,0.484-1.633,0.908-2.372c0.424-0.737,0.964-1.418,1.606-2.028
								c0.641-0.61,1.384-1.15,2.214-1.607L672.334,254.494"/>
							<path style="fill:#FFFFFF;" d="M244.737,258.354h-0.523h-1.448h-0.235l-0.192,1.158h0.183
								c-0.249,0.892-0.629,1.754-1.122,2.572c-0.494,0.819-1.101,1.594-1.803,2.312c-0.703,0.719-1.5,1.38-2.373,1.971
								c-0.874,0.591-1.823,1.111-2.829,1.547l0.842,0.886c1.09-0.491,2.118-1.073,3.062-1.731c0.943-0.657,1.803-1.391,2.559-2.185
								c0.755-0.794,1.406-1.648,1.934-2.549c0.527-0.9,0.93-1.846,1.189-2.823h0.567L244.737,258.354"/>
							<path style="fill:#FFFFFF;" d="M62.542,258.742h-2.199l-0.357,1.159h0.14c-0.887,2.926-1.653,5.845-2.301,8.752
								c-0.651,2.921-1.182,5.831-1.593,8.726c-0.413,2.908-0.706,5.801-0.879,8.676c-0.174,2.888-0.228,5.756-0.162,8.603
								l1.545-0.212c-0.071-2.826-0.024-5.674,0.143-8.542c0.166-2.855,0.45-5.73,0.855-8.62c0.403-2.877,0.924-5.77,1.566-8.675
								c0.639-2.892,1.397-5.795,2.276-8.708h0.611L62.542,258.742"/>
							<path style="fill:#FFFFFF;" d="M302.993,178.674l-0.823,0.872c8.087,3.767,15.435,8.356,21.878,13.648
								c6.501,5.339,12.098,11.405,16.613,18.078c4.564,6.745,8.033,14.122,10.213,22.004c2.208,7.982,3.097,16.495,2.46,25.403
								h-0.201l-0.092,1.151h2.201l0.09-1.151h-0.549c0.636-9.012-0.27-17.623-2.51-25.696c-2.211-7.971-5.725-15.429-10.346-22.248
								c-4.571-6.744-10.234-12.875-16.81-18.271C318.601,187.117,311.17,182.479,302.993,178.674"/>
							<polyline style="fill:#FFFFFF;" points="715.129,178.333 713.068,178.333 713.287,179.351 713.517,179.351 720.95,213.977 
								722.356,213.977 714.883,179.351 715.35,179.351 715.129,178.333 							"/>
							<path style="fill:#FFFFFF;" d="M835.192,230.313l-1.217,0.378c1.674,2.578,3.262,5.199,4.759,7.861
								c1.503,2.673,2.915,5.388,4.23,8.141c1.321,2.766,2.545,5.57,3.668,8.412c1.129,2.854,2.154,5.747,3.074,8.674h-0.474
								l0.357,1.167h2.21l-0.359-1.167h-0.271c-0.936-2.96-1.979-5.885-3.125-8.773c-1.142-2.875-2.386-5.712-3.729-8.509
								c-1.336-2.785-2.77-5.531-4.295-8.234C838.502,235.57,836.891,232.92,835.192,230.313"/>
							<path style="fill:#FFFFFF;" d="M668.146,181.403h-1.369l0.05,0.288c-5.368,0.021-10.591,0.349-15.646,0.96
								c-5.06,0.612-9.955,1.509-14.665,2.671c-4.718,1.164-9.252,2.594-13.578,4.271c-4.339,1.681-8.471,3.611-12.371,5.769
								l0.976,0.814c3.846-2.126,7.92-4.027,12.197-5.683c4.265-1.651,8.736-3.06,13.388-4.205c4.643-1.144,9.47-2.027,14.457-2.629
								c4.983-0.602,10.131-0.924,15.422-0.945l0.041,0.233h1.371L668.146,181.403"/>
						</g>
					</g>
				</g>
			</g>
		</g>
	</g>
</g>
</svg>
