<?xml version="1.0" encoding="iso-8859-1"?>
<!-- Generator: Adobe Illustrator 16.0.0, SVG Export Plug-In . SVG Version: 6.00 Build 0)  -->
<!DOCTYPE svg PUBLIC "-//W3C//DTD SVG 1.1//EN" "http://www.w3.org/Graphics/SVG/1.1/DTD/svg11.dtd">
<svg version="1.1" id="Layer_2" xmlns="http://www.w3.org/2000/svg" xmlns:xlink="http://www.w3.org/1999/xlink" x="0px" y="0px"
	 width="910.886px" height="597.925px" viewBox="0 0 910.886 597.925" style="enable-background:new 0 0 910.886 597.925;"
	 xml:space="preserve">
<g id="Layer_3">
</g>
<g>
	<g>
		<g style="enable-background:new    ;">
			<defs>
				<polygon id="SVGID_1_" style="enable-background:new    ;" points="-104.406,600.169 70.88,92.057 840.008,92.057 
					1015.293,600.169 				"/>
			</defs>
			<clipPath id="SVGID_2_">
				<use xlink:href="#SVGID_1_"  style="overflow:visible;"/>
			</clipPath>
			<g style="clip-path:url(#SVGID_2_);">
				<g>
					<g>
						<g>
							<path style="fill:#FFFFFF;" d="M478.348,222.084c-1.181,0-2.303,0.185-3.32,0.52c-1.019,0.335-1.934,0.82-2.701,1.418
								c-0.767,0.6-1.386,1.314-1.811,2.108c-0.425,0.794-0.655,1.669-0.645,2.587v0.02l1.43-0.225
								c0.022-0.743,0.235-1.448,0.602-2.088s0.887-1.214,1.523-1.695s1.391-0.869,2.227-1.137c0.835-0.268,1.752-0.416,2.715-0.416
								c0.984,0,1.926,0.155,2.786,0.435c0.86,0.28,1.64,0.686,2.298,1.186c0.66,0.501,1.198,1.098,1.577,1.761
								c0.379,0.664,0.598,1.394,0.616,2.16c0.019,0.769-0.165,1.502-0.514,2.171c-0.349,0.669-0.862,1.272-1.502,1.78
								c-0.642,0.508-1.408,0.919-2.264,1.204c-0.856,0.285-1.8,0.442-2.793,0.442c-0.248,0-0.492-0.01-0.732-0.029
								c-0.24-0.02-0.476-0.048-0.707-0.085c-0.232-0.037-0.46-0.083-0.684-0.136c-0.223-0.053-0.442-0.115-0.657-0.183
								l-0.686,0.974c0.215,0.073,0.435,0.141,0.659,0.201c0.224,0.061,0.451,0.114,0.684,0.161
								c0.231,0.046,0.466,0.085,0.703,0.117c0.238,0.031,0.479,0.055,0.721,0.069l0.032,1.8h1.433l-0.034-1.8
								c1.107-0.07,2.153-0.304,3.097-0.671s1.784-0.866,2.483-1.465s1.256-1.299,1.633-2.068c0.377-0.768,0.573-1.605,0.551-2.48
								c-0.022-0.918-0.286-1.792-0.741-2.587c-0.454-0.794-1.1-1.508-1.89-2.108c-0.79-0.599-1.724-1.083-2.754-1.418
								C480.653,222.269,479.525,222.084,478.348,222.084"/>
							<path style="fill:#FFFFFF;" d="M431.583,271.692h-1.472l-0.043,2.203c-1.145,0.075-2.233,0.324-3.222,0.714
								c-0.99,0.391-1.881,0.924-2.632,1.565c-0.752,0.642-1.364,1.393-1.795,2.22c-0.431,0.828-0.68,1.732-0.704,2.678
								c-0.026,0.998,0.201,1.951,0.633,2.819c0.433,0.869,1.071,1.653,1.869,2.313c0.799,0.66,1.756,1.195,2.825,1.565
								c1.07,0.37,2.25,0.575,3.493,0.575c1.239,0,2.424-0.205,3.506-0.575c1.081-0.37,2.059-0.905,2.882-1.565
								c0.823-0.659,1.492-1.443,1.958-2.313c0.466-0.868,0.729-1.821,0.741-2.819c0-0.027,0-0.053,0-0.079c0-0.025,0-0.05,0-0.075
								c0-0.024,0-0.049-0.001-0.073c-0.001-0.025-0.002-0.049-0.004-0.075l-1.468,0.28v0.022c-0.011,0.833-0.231,1.628-0.621,2.352
								c-0.39,0.726-0.949,1.38-1.636,1.93c-0.688,0.551-1.504,0.998-2.407,1.306c-0.903,0.309-1.893,0.48-2.927,0.48
								c-1.037,0-2.022-0.171-2.915-0.48c-0.892-0.309-1.692-0.755-2.359-1.306c-0.667-0.55-1.201-1.205-1.563-1.93
								c-0.362-0.724-0.552-1.52-0.532-2.352c0.021-0.833,0.25-1.627,0.646-2.348c0.396-0.721,0.958-1.369,1.646-1.913
								c0.688-0.543,1.5-0.983,2.398-1.287s1.88-0.472,2.908-0.472c0.276,0,0.549,0.012,0.817,0.037
								c0.268,0.024,0.532,0.06,0.791,0.107c0.259,0.047,0.513,0.105,0.76,0.174c0.248,0.069,0.49,0.148,0.725,0.237l0.663-1.066
								c-0.229-0.089-0.463-0.169-0.704-0.241s-0.487-0.135-0.738-0.189c-0.251-0.054-0.507-0.099-0.768-0.135
								c-0.26-0.036-0.524-0.063-0.791-0.081L431.583,271.692"/>
							<path style="fill:#FFFFFF;" d="M557.23,264.428h-1.464l0.017,0.217c0.911,11.685,4.31,23.117,9.824,33.944
								c5.606,11.008,13.388,21.368,22.93,30.695c9.675,9.457,21.127,17.822,33.893,24.688c12.894,6.937,27.066,12.313,42,15.724
								l0.301-1.284c-14.759-3.36-28.768-8.664-41.514-15.509c-12.621-6.777-23.947-15.035-33.52-24.375
								c-9.44-9.213-17.144-19.447-22.698-30.325c-5.464-10.702-8.838-22.004-9.752-33.559L557.23,264.428"/>
							<path style="fill:#FFFFFF;" d="M675.027,221.071h-1.406l5.556,31.669c-0.1,0.003-0.197,0.007-0.295,0.012
								c-0.097,0.004-0.193,0.01-0.289,0.016s-0.19,0.014-0.284,0.023c-0.095,0.009-0.188,0.02-0.281,0.031l0.338,1.141
								c0.138-0.016,0.278-0.029,0.421-0.041c0.142-0.012,0.285-0.022,0.431-0.03c0.145-0.008,0.29-0.014,0.438-0.019
								c0.146-0.004,0.294-0.006,0.441-0.006c0.061,0,0.121,0,0.182,0.001c0.061,0,0.12,0.002,0.18,0.004
								c0.061,0.001,0.121,0.004,0.182,0.006s0.121,0.006,0.183,0.009l-0.104-0.592l-0.099-0.556L675.027,221.071"/>
							<path style="fill:#FFFFFF;" d="M667.393,181.684c-6.872,0-13.51,0.5-19.863,1.457c-6.365,0.958-12.455,2.374-18.222,4.205
								c-5.783,1.836-11.249,4.093-16.343,6.727c-5.117,2.646-9.865,5.675-14.188,9.046l1.087,0.73
								c4.268-3.326,8.953-6.314,14.001-8.924c5.026-2.598,10.42-4.824,16.127-6.635c5.689-1.806,11.699-3.202,17.979-4.146
								c6.271-0.943,12.82-1.437,19.603-1.437L667.393,181.684"/>
							<polyline style="fill:#FFFFFF;" points="714.826,179.081 713.459,179.081 722.941,223.249 724.358,223.249 714.826,179.081 
															"/>
							<path style="fill:#FFFFFF;" d="M829.82,222.601l-1.014,0.635c2.327,3.155,4.524,6.381,6.581,9.676
								c2.067,3.312,3.995,6.692,5.771,10.138c1.786,3.464,3.42,6.993,4.893,10.583c1.479,3.61,2.797,7.283,3.939,11.013h1.464
								c-1.165-3.789-2.509-7.52-4.021-11.188c-1.503-3.646-3.172-7.231-4.996-10.75c-1.814-3.498-3.782-6.93-5.895-10.292
								C834.441,229.073,832.197,225.8,829.82,222.601"/>
							<path style="fill:#FFFFFF;" d="M275.648,169.694l-0.395,0.997c11.863,2.48,22.78,6.433,32.451,11.615
								c9.755,5.228,18.283,11.728,25.248,19.261c7.052,7.627,12.526,16.339,16.049,25.886c3.578,9.696,5.152,20.278,4.313,31.481
								h1.457c0.837-11.345-0.77-22.057-4.405-31.868c-3.579-9.66-9.132-18.471-16.281-26.183
								c-7.06-7.616-15.7-14.185-25.581-19.465C298.711,176.184,287.658,172.194,275.648,169.694"/>
							<polyline style="fill:#FFFFFF;" points="227.8,270.569 227.069,270.569 226.338,270.569 220.191,305.268 221.692,305.268 
								227.8,270.569 							"/>
							<path style="fill:#FFFFFF;" d="M295.605,327.616c-5.642,4.048-11.711,7.726-18.131,10.969
								c-6.451,3.258-13.247,6.072-20.307,8.38c-7.083,2.314-14.421,4.115-21.928,5.338c-7.52,1.225-15.197,1.867-22.942,1.867
								l-0.236,1.337c7.851,0,15.634-0.651,23.26-1.895c7.611-1.24,15.052-3.066,22.235-5.415
								c7.158-2.341,14.048-5.197,20.587-8.504c6.507-3.29,12.658-7.022,18.372-11.131L295.605,327.616"/>
							<polyline style="fill:#FFFFFF;" points="170.133,302.481 168.626,302.481 156.795,357.145 158.364,357.145 170.133,302.481 
															"/>
							<path style="fill:#FFFFFF;" d="M61.745,259.316h-1.458c-1.171,3.799-2.138,7.584-2.904,11.348
								c-0.771,3.787-1.34,7.551-1.709,11.288c-0.372,3.758-0.543,7.487-0.517,11.179c0.026,3.713,0.252,7.389,0.672,11.021
								l1.553-0.357c-0.421-3.602-0.65-7.247-0.682-10.929c-0.031-3.662,0.133-7.359,0.496-11.087
								c0.361-3.706,0.92-7.44,1.68-11.198C59.631,266.846,60.586,263.089,61.745,259.316"/>
							<polyline style="fill:#FFFFFF;" points="533.729,396.596 506.514,396.596 506.564,398.009 533.807,398.009 533.729,396.596 
															"/>
							<polyline style="fill:#FFFFFF;" points="366.551,453.002 303.544,453.002 303.386,454.538 366.458,454.538 366.551,453.002 
															"/>
							<polyline style="fill:#FFFFFF;" points="444.398,472.201 442.699,472.201 442.511,494.232 465.732,494.232 465.722,492.622 
								444.248,492.622 444.398,472.201 							"/>
							<polyline style="fill:#FFFFFF;" points="392.832,342.304 391.279,342.304 390.061,368.234 376.971,368.234 376.894,369.6 
								403.753,369.6 403.804,368.234 391.642,368.234 392.832,342.304 							"/>
							<polyline style="fill:#FFFFFF;" points="391.124,379.536 389.529,379.536 389.39,382.497 390.988,382.497 391.124,379.536 
															"/>
							<polyline style="fill:#FFFFFF;" points="523.411,442.309 521.745,442.309 523.533,481.807 525.244,481.807 523.411,442.309 
															"/>
							<path style="fill:#FFFFFF;" d="M676.662,253.015c-1.613,0.295-3.086,0.812-4.373,1.51c-1.288,0.699-2.393,1.579-3.266,2.6
								c-0.875,1.022-1.52,2.187-1.887,3.453c-0.367,1.268-0.458,2.638-0.223,4.069l0.018,0.104h1.464l-0.018-0.104
								c-0.215-1.298-0.134-2.541,0.199-3.69c0.333-1.147,0.918-2.203,1.713-3.129c0.794-0.925,1.799-1.72,2.972-2.35
								c1.172-0.629,2.514-1.093,3.983-1.355L676.662,253.015"/>
							<path style="fill:#FFFFFF;" d="M244.213,258.353h-1.448l-0.023,0.194c-0.247,1.486-0.863,2.905-1.768,4.199
								c-0.906,1.296-2.101,2.466-3.5,3.45c-1.402,0.985-3.009,1.784-4.736,2.336c-1.729,0.553-3.578,0.859-5.46,0.859
								c-0.059,0-0.12,0-0.181-0.001c-0.061,0-0.123-0.002-0.185-0.003c-0.062-0.001-0.124-0.003-0.186-0.005
								c-0.062-0.001-0.124-0.003-0.185-0.005l-0.208,1.178c0.061,0.002,0.123,0.003,0.185,0.005
								c0.062,0.002,0.125,0.003,0.187,0.005c0.062,0.001,0.124,0.002,0.185,0.003c0.062,0.001,0.122,0.001,0.181,0.001
								c2.087,0,4.136-0.34,6.052-0.954c1.914-0.614,3.693-1.5,5.246-2.594c1.549-1.092,2.871-2.389,3.873-3.825
								c0.999-1.433,1.68-3.004,1.951-4.649L244.213,258.353"/>
						</g>
					</g>
				</g>
			</g>
		</g>
	</g>
</g>
</svg>
