<?xml version="1.0" encoding="iso-8859-1"?>
<!-- Generator: Adobe Illustrator 16.0.0, SVG Export Plug-In . SVG Version: 6.00 Build 0)  -->
<!DOCTYPE svg PUBLIC "-//W3C//DTD SVG 1.1//EN" "http://www.w3.org/Graphics/SVG/1.1/DTD/svg11.dtd">
<svg version="1.1" id="Layer_2" xmlns="http://www.w3.org/2000/svg" xmlns:xlink="http://www.w3.org/1999/xlink" x="0px" y="0px"
	 width="910.886px" height="597.925px" viewBox="0 0 910.886 597.925" style="enable-background:new 0 0 910.886 597.925;"
	 xml:space="preserve">
<g id="Layer_3">
</g>
<g>
	<g>
		<g style="enable-background:new    ;">
			<defs>
				<polygon id="SVGID_1_" style="enable-background:new    ;" points="-104.406,600.169 70.88,92.057 840.008,92.057 
					1015.293,600.169 				"/>
			</defs>
			<clipPath id="SVGID_2_">
				<use xlink:href="#SVGID_1_"  style="overflow:visible;"/>
			</clipPath>
			<g style="clip-path:url(#SVGID_2_);">
				<g>
					<g>
						<g>
							<path style="fill:#FFFFFF;" d="M478.348,222.084c-1.181,0-2.303,0.185-3.32,0.52c-1.019,0.335-1.934,0.82-2.701,1.418
								c-0.767,0.6-1.386,1.314-1.811,2.108c-0.425,0.794-0.655,1.669-0.645,2.587v0.02l1.43-0.225
								c0.022-0.743,0.235-1.448,0.602-2.088s0.887-1.214,1.523-1.695s1.391-0.869,2.227-1.137c0.835-0.268,1.752-0.416,2.715-0.416
								c0.984,0,1.926,0.155,2.786,0.435c0.86,0.28,1.64,0.686,2.298,1.186c0.66,0.501,1.198,1.098,1.577,1.761
								c0.379,0.664,0.598,1.394,0.616,2.16c0.019,0.769-0.165,1.502-0.514,2.171c-0.349,0.669-0.862,1.272-1.502,1.78
								c-0.642,0.508-1.408,0.919-2.264,1.204c-0.856,0.285-1.8,0.442-2.793,0.442c-0.539,0-1.065-0.047-1.573-0.135
								c-0.508-0.088-0.996-0.218-1.46-0.384c-0.463-0.167-0.9-0.369-1.306-0.603c-0.406-0.234-0.779-0.499-1.115-0.79l-0.764,0.985
								c0.358,0.283,0.749,0.542,1.166,0.773c0.417,0.232,0.86,0.436,1.327,0.608c0.466,0.172,0.954,0.314,1.46,0.42
								c0.506,0.107,1.029,0.179,1.565,0.212l0.083,4.694h1.437l-0.089-4.694c1.107-0.07,2.153-0.304,3.097-0.671
								s1.784-0.866,2.483-1.465s1.256-1.299,1.633-2.068c0.377-0.768,0.573-1.605,0.551-2.48c-0.022-0.918-0.286-1.792-0.741-2.587
								c-0.454-0.794-1.1-1.508-1.89-2.108c-0.79-0.599-1.724-1.083-2.754-1.418C480.653,222.269,479.525,222.084,478.348,222.084"
								/>
							<path style="fill:#FFFFFF;" d="M431.641,268.581h-1.468l-0.104,5.314c-1.145,0.075-2.233,0.324-3.222,0.714
								c-0.99,0.391-1.881,0.924-2.632,1.565c-0.752,0.642-1.364,1.393-1.795,2.22c-0.431,0.828-0.68,1.732-0.704,2.678
								c-0.026,0.998,0.201,1.951,0.633,2.819c0.433,0.869,1.071,1.653,1.869,2.313c0.799,0.66,1.756,1.195,2.825,1.565
								c1.07,0.37,2.25,0.575,3.493,0.575c1.239,0,2.424-0.205,3.506-0.575c1.081-0.37,2.059-0.905,2.882-1.565
								c0.823-0.659,1.492-1.443,1.958-2.313c0.466-0.868,0.729-1.821,0.741-2.819c0-0.027,0-0.053,0-0.079c0-0.025,0-0.05,0-0.075
								c0-0.024,0-0.049-0.001-0.073c-0.001-0.025-0.002-0.049-0.004-0.075l-1.468,0.28v0.022c-0.011,0.833-0.231,1.628-0.621,2.352
								c-0.39,0.726-0.949,1.38-1.636,1.93c-0.688,0.551-1.504,0.998-2.407,1.306c-0.903,0.309-1.893,0.48-2.927,0.48
								c-1.037,0-2.022-0.171-2.915-0.48c-0.892-0.309-1.692-0.755-2.359-1.306c-0.667-0.55-1.201-1.205-1.563-1.93
								c-0.362-0.724-0.552-1.52-0.532-2.352c0.021-0.833,0.25-1.627,0.646-2.348c0.396-0.721,0.958-1.369,1.646-1.913
								c0.688-0.543,1.5-0.983,2.398-1.287s1.88-0.472,2.908-0.472c0.539,0,1.064,0.046,1.569,0.135
								c0.505,0.088,0.991,0.219,1.451,0.386c0.46,0.167,0.896,0.372,1.299,0.608c0.404,0.236,0.777,0.505,1.114,0.8l1.021-0.862
								c-0.363-0.313-0.76-0.6-1.188-0.855c-0.427-0.256-0.884-0.48-1.366-0.671c-0.482-0.19-0.988-0.346-1.514-0.464
								s-1.071-0.197-1.631-0.234L431.641,268.581"/>
							<path style="fill:#FFFFFF;" d="M557.23,264.428h-1.464l0.017,0.217c1.094,14.03,5.773,27.695,13.393,40.382
								c7.768,12.935,18.563,24.808,31.65,34.947c13.284,10.292,28.855,18.74,45.867,24.641c17.156,5.952,35.647,9.268,54.523,9.268
								c0.499,0,0.997-0.003,1.494-0.007c0.497-0.005,0.993-0.011,1.488-0.021c0.496-0.009,0.99-0.021,1.482-0.036
								c0.493-0.015,0.985-0.031,1.477-0.052l-0.246-1.365c-0.491,0.019-0.982,0.035-1.476,0.049
								c-0.492,0.015-0.985,0.026-1.48,0.036c-0.495,0.011-0.99,0.018-1.487,0.022c-0.496,0.006-0.994,0.008-1.492,0.008
								c-18.639,0-36.898-3.271-53.842-9.142c-16.801-5.822-32.185-14.16-45.313-24.318c-12.935-10.01-23.61-21.733-31.297-34.509
								c-7.542-12.533-12.182-26.036-13.278-39.903L557.23,264.428"/>
							<path style="fill:#FFFFFF;" d="M673.639,213.202h-1.397l6.936,39.539c-1.961,0.073-3.771,0.453-5.368,1.079
								c-1.598,0.627-2.983,1.502-4.091,2.568c-1.109,1.068-1.942,2.328-2.431,3.721c-0.491,1.396-0.637,2.929-0.373,4.537
								l0.018,0.104h1.464l-0.018-0.104c-0.247-1.497-0.103-2.921,0.37-4.213c0.473-1.291,1.271-2.451,2.333-3.424
								c1.061-0.972,2.384-1.757,3.907-2.3c1.521-0.542,3.245-0.842,5.107-0.842c0.061,0,0.121,0,0.182,0.001
								c0.061,0,0.12,0.002,0.18,0.004c0.061,0.001,0.121,0.004,0.182,0.006s0.121,0.006,0.183,0.009l-0.104-0.592l-0.099-0.556
								L673.639,213.202"/>
							<path style="fill:#FFFFFF;" d="M667.393,181.684c-8.543,0-16.725,0.773-24.452,2.235c-7.747,1.465-15.056,3.624-21.829,6.395
								c-6.805,2.783-13.083,6.189-18.729,10.138c-5.684,3.973-10.736,8.502-15.046,13.505l1.286,0.536
								c4.257-4.929,9.243-9.39,14.849-13.303c5.569-3.889,11.761-7.244,18.47-9.984c6.679-2.729,13.885-4.855,21.522-6.297
								c7.619-1.439,15.686-2.201,24.109-2.201L667.393,181.684"/>
							<polyline style="fill:#FFFFFF;" points="714.826,179.081 713.459,179.081 725.452,234.942 726.883,234.942 714.826,179.081 
															"/>
							<path style="fill:#FFFFFF;" d="M822.739,213.724l-1.084,0.517c3.187,3.729,6.187,7.576,8.982,11.532
								c2.814,3.98,5.422,8.073,7.805,12.267c2.399,4.222,4.571,8.548,6.497,12.969c1.939,4.452,3.63,9.001,5.051,13.638h1.464
								c-1.441-4.685-3.155-9.282-5.122-13.781c-1.953-4.467-4.156-8.839-6.588-13.104c-2.416-4.237-5.059-8.371-7.908-12.391
								C829.003,221.374,825.965,217.489,822.739,213.724"/>
							<path style="fill:#FFFFFF;" d="M245.417,166.672c-0.454,0-0.907,0.002-1.36,0.005c-0.454,0.004-0.907,0.009-1.36,0.017
								c-0.453,0.007-0.907,0.017-1.36,0.028s-0.908,0.024-1.362,0.04l-0.1,0.998c0.446-0.015,0.893-0.028,1.34-0.04
								c0.447-0.012,0.894-0.022,1.342-0.03c0.447-0.008,0.895-0.015,1.342-0.019c0.448-0.004,0.895-0.007,1.343-0.007
								c15.863,0,30.63,2.38,43.826,6.706c13.291,4.357,25.075,10.718,34.805,18.67c9.858,8.057,17.66,17.789,22.78,28.774
								c5.212,11.183,7.667,23.708,6.663,37.122h1.457c1.001-13.571-1.496-26.24-6.781-37.547
								c-5.191-11.106-13.09-20.942-23.067-29.083c-9.845-8.034-21.764-14.459-35.204-18.861
								C276.379,169.075,261.451,166.672,245.417,166.672"/>
							<polyline style="fill:#FFFFFF;" points="227.8,270.569 227.069,270.569 226.338,270.569 218.687,313.762 220.197,313.762 
								227.8,270.569 							"/>
							<path style="fill:#FFFFFF;" d="M310.743,314.84c-5.848,5.816-12.475,11.168-19.737,15.931
								c-7.313,4.796-15.257,8.987-23.678,12.449c-8.464,3.479-17.391,6.215-26.617,8.082c-9.251,1.873-18.78,2.868-28.414,2.868
								l-0.236,1.337c9.795,0,19.484-1.015,28.889-2.925c9.379-1.904,18.452-4.694,27.051-8.242
								c8.555-3.529,16.621-7.803,24.041-12.692c7.368-4.854,14.085-10.307,20.006-16.233L310.743,314.84"/>
							<polyline style="fill:#FFFFFF;" points="172.782,290.175 171.29,290.175 156.795,357.145 158.364,357.145 172.782,290.175 
															"/>
							<path style="fill:#FFFFFF;" d="M61.745,259.316h-1.458c-1.449,4.7-2.585,9.378-3.417,14.022
								c-0.837,4.678-1.366,9.321-1.592,13.914c-0.228,4.625-0.15,9.2,0.227,13.709c0.379,4.54,1.061,9.013,2.037,13.402
								l1.559-0.437c-0.975-4.354-1.658-8.789-2.042-13.291c-0.381-4.472-0.466-9.009-0.248-13.597
								c0.217-4.556,0.735-9.162,1.56-13.804C59.189,268.627,60.312,263.983,61.745,259.316"/>
							<polyline style="fill:#FFFFFF;" points="533.729,396.596 500.009,396.596 500.054,398.009 533.807,398.009 533.729,396.596 
															"/>
							<polyline style="fill:#FFFFFF;" points="381.252,453.002 303.544,453.002 303.386,454.538 381.175,454.538 381.252,453.002 
															"/>
							<polyline style="fill:#FFFFFF;" points="444.471,462.372 442.783,462.372 442.511,494.232 465.732,494.232 465.722,492.622 
								444.248,492.622 444.471,462.372 							"/>
							<polyline style="fill:#FFFFFF;" points="392.832,342.304 391.279,342.304 390.061,368.234 370.7,368.234 370.617,369.6 
								403.753,369.6 403.804,368.234 391.642,368.234 392.832,342.304 							"/>
							<polyline style="fill:#FFFFFF;" points="391.124,379.536 389.529,379.536 388.946,391.936 390.555,391.936 391.124,379.536 
															"/>
							<polyline style="fill:#FFFFFF;" points="522.984,433.1 521.328,433.1 523.533,481.807 525.244,481.807 522.984,433.1 							
								"/>
							<path style="fill:#FFFFFF;" d="M244.213,258.353h-1.448l-0.023,0.194c-0.247,1.486-0.863,2.905-1.768,4.199
								c-0.906,1.296-2.101,2.466-3.5,3.45c-1.402,0.985-3.009,1.784-4.736,2.336c-1.729,0.553-3.578,0.859-5.46,0.859
								c-0.059,0-0.12,0-0.181-0.001c-0.061,0-0.123-0.002-0.185-0.003c-0.062-0.001-0.124-0.003-0.186-0.005
								c-0.062-0.001-0.124-0.003-0.185-0.005l-0.208,1.178c0.061,0.002,0.123,0.003,0.185,0.005
								c0.062,0.002,0.125,0.003,0.187,0.005c0.062,0.001,0.124,0.002,0.185,0.003c0.062,0.001,0.122,0.001,0.181,0.001
								c2.087,0,4.136-0.34,6.052-0.954c1.914-0.614,3.693-1.5,5.246-2.594c1.549-1.092,2.871-2.389,3.873-3.825
								c0.999-1.433,1.68-3.004,1.951-4.649L244.213,258.353"/>
						</g>
					</g>
				</g>
			</g>
		</g>
	</g>
</g>
</svg>
