<?xml version="1.0" encoding="iso-8859-1"?>
<!-- Generator: Adobe Illustrator 16.0.0, SVG Export Plug-In . SVG Version: 6.00 Build 0)  -->
<!DOCTYPE svg PUBLIC "-//W3C//DTD SVG 1.1//EN" "http://www.w3.org/Graphics/SVG/1.1/DTD/svg11.dtd">
<svg version="1.1" id="Layer_2" xmlns="http://www.w3.org/2000/svg" xmlns:xlink="http://www.w3.org/1999/xlink" x="0px" y="0px"
	 width="910.886px" height="597.925px" viewBox="0 0 910.886 597.925" style="enable-background:new 0 0 910.886 597.925;"
	 xml:space="preserve">
<g id="Layer_3">
</g>
<g>
	<g>
		<g style="enable-background:new    ;">
			<defs>
				<polygon id="SVGID_1_" style="enable-background:new    ;" points="-104.406,600.169 70.88,92.057 840.008,92.057 
					1015.293,600.169 				"/>
			</defs>
			<clipPath id="SVGID_2_">
				<use xlink:href="#SVGID_1_"  style="overflow:visible;"/>
			</clipPath>
			<g style="clip-path:url(#SVGID_2_);">
				<g>
					<g>
						<g>
							<path style="fill:#FFFFFF;" d="M478.348,222.084c-1.181,0-2.303,0.185-3.32,0.52c-1.019,0.335-1.934,0.82-2.701,1.418
								c-0.767,0.6-1.386,1.314-1.811,2.108c-0.425,0.794-0.655,1.669-0.645,2.587v0.02l1.43-0.225
								c0.022-0.743,0.235-1.448,0.602-2.088s0.887-1.214,1.523-1.695s1.391-0.869,2.227-1.137c0.835-0.268,1.752-0.416,2.715-0.416
								c0.984,0,1.926,0.155,2.786,0.435c0.86,0.28,1.64,0.686,2.298,1.186c0.66,0.501,1.198,1.098,1.577,1.761
								c0.379,0.664,0.598,1.394,0.616,2.16c0.019,0.769-0.165,1.502-0.514,2.171c-0.349,0.669-0.862,1.272-1.502,1.78
								c-0.642,0.508-1.408,0.919-2.264,1.204c-0.856,0.285-1.8,0.442-2.793,0.442c-0.749,0-1.473-0.09-2.155-0.256
								s-1.323-0.408-1.904-0.714c-0.581-0.305-1.104-0.674-1.551-1.092c-0.446-0.418-0.816-0.886-1.095-1.39l-1.135,0.71
								c0.327,0.528,0.74,1.019,1.226,1.461s1.042,0.836,1.657,1.17c0.614,0.334,1.286,0.609,2.001,0.812
								c0.715,0.204,1.472,0.336,2.257,0.386L478,242.53h1.438l-0.135-7.128c1.107-0.07,2.153-0.304,3.097-0.671
								s1.784-0.866,2.483-1.465s1.256-1.299,1.633-2.068c0.377-0.768,0.573-1.605,0.551-2.48c-0.022-0.918-0.286-1.792-0.741-2.587
								c-0.454-0.794-1.1-1.508-1.89-2.108c-0.79-0.599-1.724-1.083-2.754-1.418C480.653,222.269,479.525,222.084,478.348,222.084"
								/>
							<path style="fill:#FFFFFF;" d="M431.695,265.653h-1.465l-0.161,8.242c-1.145,0.075-2.233,0.324-3.222,0.714
								c-0.99,0.391-1.881,0.924-2.632,1.565c-0.752,0.642-1.364,1.393-1.795,2.22c-0.431,0.828-0.68,1.732-0.704,2.678
								c-0.026,0.998,0.201,1.951,0.633,2.819c0.433,0.869,1.071,1.653,1.869,2.313c0.799,0.66,1.756,1.195,2.825,1.565
								c1.07,0.37,2.25,0.575,3.493,0.575c1.239,0,2.424-0.205,3.506-0.575c1.081-0.37,2.059-0.905,2.882-1.565
								c0.823-0.659,1.492-1.443,1.958-2.313c0.466-0.868,0.729-1.821,0.741-2.819c0-0.027,0-0.053,0-0.079c0-0.025,0-0.05,0-0.075
								c0-0.024,0-0.049-0.001-0.073c-0.001-0.025-0.002-0.049-0.004-0.075l-1.468,0.28v0.022c-0.011,0.833-0.231,1.628-0.621,2.352
								c-0.39,0.726-0.949,1.38-1.636,1.93c-0.688,0.551-1.504,0.998-2.407,1.306c-0.903,0.309-1.893,0.48-2.927,0.48
								c-1.037,0-2.022-0.171-2.915-0.48c-0.892-0.309-1.692-0.755-2.359-1.306c-0.667-0.55-1.201-1.205-1.563-1.93
								c-0.362-0.724-0.552-1.52-0.532-2.352c0.021-0.833,0.25-1.627,0.646-2.348c0.396-0.721,0.958-1.369,1.646-1.913
								c0.688-0.543,1.5-0.983,2.398-1.287s1.88-0.472,2.908-0.472c0.78,0,1.53,0.097,2.234,0.277
								c0.704,0.181,1.362,0.444,1.956,0.777c0.594,0.333,1.125,0.735,1.573,1.192c0.45,0.458,0.818,0.97,1.087,1.524l1.336-0.529
								c-0.309-0.607-0.718-1.172-1.209-1.681c-0.492-0.509-1.066-0.962-1.708-1.347c-0.641-0.384-1.349-0.7-2.106-0.933
								c-0.758-0.233-1.566-0.384-2.408-0.439L431.695,265.653"/>
							<path style="fill:#FFFFFF;" d="M557.23,264.428h-1.464l0.017,0.217c1.094,14.03,5.773,27.695,13.393,40.382
								c7.768,12.935,18.563,24.808,31.65,34.947c13.284,10.292,28.855,18.74,45.867,24.641c17.156,5.952,35.647,9.268,54.523,9.268
								c4.823,0,9.55-0.218,14.167-0.641c4.614-0.423,9.115-1.052,13.493-1.874c4.371-0.822,8.617-1.837,12.725-3.034
								c4.1-1.194,8.061-2.57,11.87-4.114l-0.88-1.241c-3.766,1.525-7.68,2.884-11.731,4.063c-4.059,1.182-8.253,2.184-12.571,2.995
								c-4.323,0.812-8.769,1.432-13.325,1.85c-4.559,0.417-9.226,0.631-13.987,0.631c-18.639,0-36.898-3.271-53.842-9.142
								c-16.801-5.822-32.185-14.16-45.313-24.318c-12.935-10.01-23.61-21.733-31.297-34.509
								c-7.542-12.533-12.182-26.036-13.278-39.903L557.23,264.428"/>
							<path style="fill:#FFFFFF;" d="M672.203,205.075h-1.388l8.363,47.679c-1.961,0.076-3.771,0.455-5.367,1.08
								c-1.599,0.626-2.984,1.5-4.093,2.563c-1.109,1.065-1.942,2.323-2.432,3.714c-0.49,1.395-0.637,2.926-0.373,4.534l0.018,0.104
								h1.464l-0.018-0.104c-0.247-1.497-0.103-2.921,0.37-4.213c0.473-1.291,1.271-2.451,2.333-3.424
								c1.061-0.972,2.384-1.757,3.907-2.3c1.521-0.542,3.245-0.842,5.107-0.842c0.463,0,0.925,0.019,1.384,0.056
								s0.915,0.091,1.367,0.162c0.452,0.071,0.898,0.159,1.34,0.262c0.44,0.103,0.875,0.221,1.301,0.354l0.598-0.978
								c-0.432-0.141-0.871-0.267-1.317-0.378c-0.445-0.111-0.896-0.208-1.354-0.289s-0.92-0.147-1.386-0.197
								s-0.936-0.085-1.407-0.104L672.203,205.075"/>
							<path style="fill:#FFFFFF;" d="M667.393,181.684c-10.45,0-20.361,1.158-29.567,3.316c-9.238,2.167-17.796,5.349-25.491,9.397
								c-7.746,4.075-14.64,9.039-20.48,14.744c-5.896,5.757-10.731,12.283-14.292,19.425l1.433,0.271
								c3.523-7.026,8.299-13.446,14.115-19.11c5.764-5.613,12.562-10.498,20.199-14.508c7.586-3.983,16.021-7.115,25.127-9.248
								c9.073-2.125,18.84-3.264,29.138-3.264L667.393,181.684"/>
							<polyline style="fill:#FFFFFF;" points="714.826,179.081 713.459,179.081 728.215,247.809 729.659,247.809 714.826,179.081 
															"/>
							<path style="fill:#FFFFFF;" d="M813.296,203.549l-1.024,0.553c4.321,4.309,8.387,8.805,12.162,13.472
								c3.804,4.702,7.315,9.581,10.5,14.618c3.211,5.078,6.092,10.321,8.605,15.71c2.535,5.436,4.698,11.022,6.451,16.743h1.464
								c-1.776-5.774-3.967-11.414-6.534-16.901c-2.545-5.439-5.461-10.731-8.71-15.856c-3.223-5.083-6.775-10.006-10.622-14.75
								C821.771,212.43,817.662,207.895,813.296,203.549"/>
							<path style="fill:#FFFFFF;" d="M245.417,166.672c-4.042,0-8.063,0.152-12.056,0.449c-3.994,0.297-7.961,0.739-11.891,1.32
								c-3.934,0.582-7.832,1.302-11.684,2.155c-3.858,0.854-7.672,1.842-11.431,2.957l0.602,0.84
								c3.699-1.088,7.451-2.053,11.246-2.888c3.79-0.834,7.625-1.539,11.493-2.108c3.865-0.569,7.767-1.002,11.694-1.293
								c3.926-0.291,7.879-0.44,11.852-0.44c15.863,0,30.63,2.38,43.826,6.706c13.291,4.357,25.075,10.718,34.805,18.67
								c9.858,8.057,17.66,17.789,22.78,28.774c5.212,11.183,7.667,23.708,6.663,37.122h1.457
								c1.001-13.571-1.496-26.24-6.781-37.547c-5.191-11.106-13.09-20.942-23.067-29.083c-9.845-8.034-21.764-14.459-35.204-18.861
								C276.379,169.075,261.451,166.672,245.417,166.672"/>
							<polyline style="fill:#FFFFFF;" points="227.8,270.569 227.069,270.569 226.338,270.569 216.868,324.031 218.39,324.031 
								227.8,270.569 							"/>
							<path style="fill:#FFFFFF;" d="M324.715,297.814c-5.251,8.011-11.862,15.502-19.583,22.251
								c-7.798,6.817-16.709,12.862-26.458,17.902c-9.821,5.079-20.462,9.123-31.624,11.903
								c-11.208,2.792-22.898,4.299-34.754,4.299l-0.236,1.337c12.024,0,23.882-1.528,35.248-4.362
								c11.32-2.821,22.109-6.926,32.066-12.079c9.881-5.115,18.912-11.248,26.813-18.165c7.82-6.847,14.514-14.445,19.826-22.571
								L324.715,297.814"/>
							<polyline style="fill:#FFFFFF;" points="175.727,276.497 174.25,276.497 156.795,357.145 158.364,357.145 175.727,276.497 
															"/>
							<path style="fill:#FFFFFF;" d="M61.745,259.316h-1.458c-1.786,5.794-3.097,11.555-3.947,17.259
								c-0.858,5.754-1.247,11.448-1.182,17.057c0.065,5.657,0.593,11.226,1.566,16.678c0.981,5.498,2.416,10.876,4.287,16.105
								l1.506-0.69c-1.856-5.174-3.281-10.493-4.256-15.933c-0.968-5.395-1.494-10.905-1.563-16.503
								c-0.069-5.551,0.312-11.188,1.156-16.884C58.69,270.759,59.982,265.055,61.745,259.316"/>
							<polyline style="fill:#FFFFFF;" points="533.729,396.596 492.77,396.596 492.822,398.597 494.43,398.597 494.413,398.009 
								533.807,398.009 533.729,396.596 							"/>
							<polyline style="fill:#FFFFFF;" points="398.838,453.002 303.544,453.002 303.386,454.538 398.779,454.538 398.838,453.002 
															"/>
							<polyline style="fill:#FFFFFF;" points="444.551,451.598 442.875,451.598 442.511,494.232 465.732,494.232 465.722,492.622 
								444.248,492.622 444.551,451.598 							"/>
							<polyline style="fill:#FFFFFF;" points="392.832,342.304 391.279,342.304 390.061,368.234 363.691,368.234 363.586,369.819 
								365.17,369.819 365.185,369.6 403.753,369.6 403.804,368.234 391.642,368.234 392.832,342.304 							"/>
							<polyline style="fill:#FFFFFF;" points="391.124,379.536 389.529,379.536 388.37,404.203 389.992,404.203 391.124,379.536 
															"/>
							<polyline style="fill:#FFFFFF;" points="522.492,422.489 520.849,422.489 523.533,481.807 525.244,481.807 522.492,422.489 
															"/>
							<path style="fill:#FFFFFF;" d="M244.213,258.353h-1.448l-0.023,0.194c-0.247,1.486-0.863,2.905-1.768,4.199
								c-0.906,1.296-2.101,2.466-3.5,3.45c-1.402,0.985-3.009,1.784-4.736,2.336c-1.729,0.553-3.578,0.859-5.46,0.859
								c-0.501,0-0.993-0.022-1.474-0.065s-0.95-0.106-1.406-0.189c-0.457-0.083-0.901-0.186-1.333-0.307
								c-0.431-0.121-0.848-0.261-1.25-0.417l-0.596,1.155c0.433,0.16,0.881,0.303,1.344,0.427c0.462,0.124,0.939,0.229,1.428,0.314
								c0.49,0.085,0.992,0.15,1.505,0.194c0.514,0.044,1.039,0.066,1.573,0.066c2.087,0,4.136-0.34,6.052-0.954
								c1.914-0.614,3.693-1.5,5.246-2.594c1.549-1.092,2.871-2.389,3.873-3.825c0.999-1.433,1.68-3.004,1.951-4.649
								L244.213,258.353"/>
						</g>
					</g>
				</g>
			</g>
		</g>
	</g>
</g>
</svg>
