<?xml version="1.0" encoding="iso-8859-1"?>
<!-- Generator: Adobe Illustrator 16.0.0, SVG Export Plug-In . SVG Version: 6.00 Build 0)  -->
<!DOCTYPE svg PUBLIC "-//W3C//DTD SVG 1.1//EN" "http://www.w3.org/Graphics/SVG/1.1/DTD/svg11.dtd">
<svg version="1.1" id="Layer_2" xmlns="http://www.w3.org/2000/svg" xmlns:xlink="http://www.w3.org/1999/xlink" x="0px" y="0px"
	 width="910.886px" height="597.925px" viewBox="0 0 910.886 597.925" style="enable-background:new 0 0 910.886 597.925;"
	 xml:space="preserve">
<g id="Layer_3">
</g>
<g>
	<g>
		<g style="enable-background:new    ;">
			<defs>
				<polygon id="SVGID_1_" style="enable-background:new    ;" points="-104.406,600.169 70.88,92.057 840.008,92.057 
					1015.293,600.169 				"/>
			</defs>
			<clipPath id="SVGID_2_">
				<use xlink:href="#SVGID_1_"  style="overflow:visible;"/>
			</clipPath>
			<g style="clip-path:url(#SVGID_2_);">
				<g>
					<g>
						<g>
							<path style="fill:#FFFFFF;" d="M478.348,222.084c-1.181,0-2.303,0.185-3.32,0.52c-1.019,0.335-1.934,0.82-2.701,1.418
								c-0.767,0.6-1.386,1.314-1.811,2.108c-0.425,0.794-0.655,1.669-0.645,2.587l0.001,0.139l1.423-0.093l-0.001-0.046
								c-0.01-0.766,0.182-1.496,0.536-2.16c0.354-0.663,0.869-1.26,1.51-1.761c0.64-0.5,1.403-0.906,2.254-1.186
								c0.851-0.279,1.787-0.435,2.773-0.435c0.984,0,1.926,0.155,2.786,0.435c0.86,0.28,1.64,0.686,2.298,1.186
								c0.66,0.501,1.198,1.098,1.577,1.761c0.379,0.664,0.598,1.394,0.616,2.16c0.019,0.769-0.165,1.502-0.514,2.171
								c-0.349,0.669-0.862,1.272-1.502,1.78c-0.642,0.508-1.408,0.919-2.264,1.204c-0.856,0.285-1.8,0.442-2.793,0.442
								c-0.909,0-1.782-0.132-2.588-0.372c-0.805-0.24-1.543-0.588-2.184-1.021c-0.64-0.433-1.182-0.95-1.597-1.529
								c-0.415-0.578-0.702-1.217-0.832-1.895l-1.414,0.126c0.144,0.771,0.456,1.502,0.908,2.167
								c0.452,0.666,1.044,1.268,1.744,1.781c0.7,0.514,1.51,0.938,2.397,1.251s1.853,0.514,2.865,0.579l0.172,9.667h1.441
								l-0.183-9.667c1.107-0.07,2.153-0.304,3.097-0.671s1.784-0.866,2.483-1.465s1.256-1.299,1.633-2.068
								c0.377-0.768,0.573-1.605,0.551-2.48c-0.022-0.918-0.286-1.792-0.741-2.587c-0.454-0.794-1.1-1.508-1.89-2.108
								c-0.79-0.599-1.724-1.083-2.754-1.418C480.653,222.269,479.525,222.084,478.348,222.084"/>
							<path style="fill:#FFFFFF;" d="M431.74,263.227h-1.462l-0.208,10.668c-1.145,0.075-2.233,0.324-3.222,0.714
								c-0.99,0.391-1.881,0.924-2.632,1.565c-0.752,0.642-1.364,1.393-1.795,2.22c-0.431,0.828-0.68,1.732-0.704,2.678
								c-0.026,0.998,0.201,1.951,0.633,2.819c0.433,0.869,1.071,1.653,1.869,2.313c0.799,0.66,1.756,1.195,2.825,1.565
								c1.07,0.37,2.25,0.575,3.493,0.575c1.239,0,2.424-0.205,3.506-0.575c1.081-0.37,2.059-0.905,2.882-1.565
								c0.823-0.659,1.492-1.443,1.958-2.313c0.466-0.868,0.729-1.821,0.741-2.819c0-0.052,0-0.104,0-0.155
								s-0.001-0.102-0.003-0.153c-0.002-0.051-0.004-0.101-0.007-0.151c-0.002-0.05-0.006-0.101-0.01-0.151l-1.467,0.237
								c0.004,0.03,0.007,0.061,0.009,0.091c0.002,0.031,0.003,0.062,0.004,0.092c0.001,0.031,0.001,0.062,0.001,0.094
								s0,0.063-0.001,0.096c-0.011,0.833-0.231,1.628-0.621,2.352c-0.39,0.726-0.949,1.38-1.636,1.93
								c-0.688,0.551-1.504,0.998-2.407,1.306c-0.903,0.309-1.893,0.48-2.927,0.48c-1.037,0-2.022-0.171-2.915-0.48
								c-0.892-0.309-1.692-0.755-2.359-1.306c-0.667-0.55-1.201-1.205-1.563-1.93c-0.362-0.724-0.552-1.52-0.532-2.352
								c0.021-0.833,0.25-1.627,0.646-2.348c0.396-0.721,0.958-1.369,1.646-1.913c0.688-0.543,1.5-0.983,2.398-1.287
								s1.88-0.472,2.908-0.472c0.886,0,1.734,0.125,2.519,0.356s1.506,0.566,2.14,0.985s1.18,0.923,1.612,1.49
								c0.433,0.567,0.751,1.197,0.931,1.87l1.432-0.279c-0.201-0.756-0.551-1.467-1.023-2.112
								c-0.472-0.644-1.066-1.222-1.758-1.714c-0.69-0.492-1.478-0.897-2.335-1.196s-1.787-0.491-2.761-0.557L431.74,263.227"/>
							<path style="fill:#FFFFFF;" d="M557.23,264.428h-1.464l0.017,0.217c1.094,14.03,5.773,27.695,13.393,40.382
								c7.768,12.935,18.563,24.808,31.65,34.947c13.284,10.292,28.855,18.74,45.867,24.641c17.156,5.952,35.647,9.268,54.523,9.268
								c9.636,0,18.878-0.866,27.629-2.509c8.73-1.639,16.953-4.047,24.575-7.134c7.589-3.073,14.569-6.813,20.857-11.124
								c6.249-4.285,11.805-9.128,16.59-14.437l-1.33-0.923c-4.729,5.242-10.219,10.025-16.394,14.256
								c-6.213,4.258-13.108,7.95-20.604,10.984c-7.53,3.048-15.651,5.427-24.274,7.045c-8.644,1.621-17.772,2.476-27.289,2.476
								c-18.639,0-36.898-3.271-53.842-9.142c-16.801-5.822-32.185-14.16-45.313-24.318c-12.935-10.01-23.61-21.733-31.297-34.509
								c-7.542-12.533-12.182-26.036-13.278-39.903L557.23,264.428"/>
							<path style="fill:#FFFFFF;" d="M670.594,195.956h-1.378l9.963,56.798c-1.961,0.076-3.771,0.455-5.367,1.08
								c-1.599,0.626-2.984,1.5-4.093,2.563c-1.109,1.065-1.942,2.323-2.432,3.714c-0.49,1.395-0.637,2.926-0.373,4.534l0.018,0.104
								h1.464l-0.018-0.104c-0.247-1.497-0.103-2.921,0.37-4.213c0.473-1.291,1.271-2.451,2.333-3.424
								c1.061-0.972,2.384-1.757,3.907-2.3c1.521-0.542,3.245-0.842,5.107-0.842c0.919,0,1.831,0.073,2.725,0.212
								c0.894,0.139,1.77,0.345,2.618,0.61c0.849,0.266,1.67,0.59,2.453,0.968s1.528,0.808,2.226,1.285l0.898-0.801
								c-0.729-0.497-1.505-0.948-2.318-1.348c-0.813-0.399-1.663-0.747-2.541-1.037s-1.784-0.522-2.71-0.691
								c-0.926-0.169-1.87-0.275-2.825-0.311L670.594,195.956"/>
							<path style="fill:#FFFFFF;" d="M667.393,181.684c-12.482,0-24.2,1.652-34.868,4.692c-10.722,3.055-20.431,7.525-28.81,13.157
								c-8.456,5.684-15.588,12.572-21.04,20.41c-5.522,7.938-9.338,16.874-11.057,26.54h1.479
								c1.715-9.512,5.49-18.305,10.942-26.117c5.385-7.714,12.421-14.494,20.76-20.088c8.263-5.543,17.836-9.944,28.404-12.951
								c10.518-2.992,22.067-4.619,34.37-4.619L667.393,181.684"/>
							<polyline style="fill:#FFFFFF;" points="714.826,179.081 713.459,179.081 731.324,262.292 732.785,262.292 714.826,179.081 
															"/>
							<path style="fill:#FFFFFF;" d="M802.198,193.36l-0.88,0.662c5.646,4.79,10.959,9.863,15.886,15.193
								c4.969,5.377,9.548,11.019,13.677,16.897c4.168,5.935,7.88,12.115,11.074,18.51c3.228,6.461,5.928,13.146,8.035,20.023h1.464
								c-2.136-6.945-4.872-13.695-8.142-20.22c-3.235-6.458-6.995-12.698-11.214-18.689c-4.179-5.934-8.813-11.628-13.839-17.054
								C813.277,203.305,807.904,198.188,802.198,193.36"/>
							<path style="fill:#FFFFFF;" d="M245.417,166.672c-8.182,0-16.289,0.625-24.236,1.814c-7.964,1.192-15.784,2.954-23.374,5.229
								c-7.619,2.284-15.02,5.088-22.112,8.357c-7.131,3.287-13.96,7.05-20.394,11.232l1.005,0.593
								c6.349-4.118,13.089-7.823,20.127-11.061c7-3.22,14.306-5.982,21.826-8.232c7.492-2.241,15.21-3.977,23.07-5.152
								c7.843-1.172,15.842-1.788,23.914-1.788c15.863,0,30.63,2.38,43.826,6.706c13.291,4.357,25.075,10.718,34.805,18.67
								c9.858,8.057,17.66,17.789,22.78,28.774c5.212,11.183,7.667,23.708,6.663,37.122h1.457
								c1.001-13.571-1.496-26.24-6.781-37.547c-5.191-11.106-13.09-20.942-23.067-29.083c-9.845-8.034-21.764-14.459-35.204-18.861
								C276.379,169.075,261.451,166.672,245.417,166.672"/>
							<polyline style="fill:#FFFFFF;" points="227.8,270.569 227.069,270.569 226.338,270.569 214.969,334.749 216.503,334.749 
								227.8,270.569 							"/>
							<path style="fill:#FFFFFF;" d="M335.751,278.624h-1.498c-3.568,10.256-9.312,20.03-16.828,28.958
								c-7.618,9.051-17.036,17.206-27.804,24.083c-10.878,6.947-23.092,12.562-36.144,16.45
								c-13.126,3.91-27.033,6.055-41.182,6.055l-0.236,1.337c14.378,0,28.51-2.186,41.845-6.171
								c13.259-3.962,25.66-9.682,36.698-16.757c10.924-7.002,20.469-15.304,28.177-24.512
								C326.384,298.985,332.178,289.047,335.751,278.624"/>
							<polyline style="fill:#FFFFFF;" points="178.967,261.45 177.507,261.45 156.795,357.145 158.364,357.145 178.967,261.45 
															"/>
							<path style="fill:#FFFFFF;" d="M61.745,259.316h-1.458c-2.149,6.971-3.61,13.894-4.41,20.727
								c-0.808,6.905-0.938,13.716-0.418,20.386c0.525,6.738,1.714,13.331,3.539,19.729c1.842,6.46,4.331,12.718,7.436,18.724
								l1.501-0.711c-3.083-5.952-5.556-12.152-7.39-18.552c-1.816-6.34-3.004-12.871-3.534-19.548
								c-0.524-6.611-0.404-13.36,0.387-20.205C58.181,273.094,59.622,266.229,61.745,259.316"/>
							<polyline style="fill:#FFFFFF;" points="392.832,342.304 391.279,342.304 390.061,368.234 363.691,368.234 363.113,377.001 
								364.705,377.001 365.185,369.6 403.753,369.6 403.804,368.234 391.642,368.234 392.832,342.304 							"/>
							<polyline style="fill:#FFFFFF;" points="533.729,396.596 492.77,396.596 492.997,405.252 494.611,405.252 494.413,398.009 
								533.807,398.009 533.729,396.596 							"/>
							<polyline style="fill:#FFFFFF;" points="417.358,453.002 303.544,453.002 303.386,454.538 417.319,454.538 417.358,453.002 
															"/>
							<polyline style="fill:#FFFFFF;" points="444.641,439.461 442.978,439.461 442.511,494.232 465.732,494.232 465.722,492.622 
								444.248,492.622 444.641,439.461 							"/>
							<polyline style="fill:#FFFFFF;" points="391.124,379.536 389.529,379.536 387.787,416.598 389.424,416.598 391.124,379.536 
															"/>
							<polyline style="fill:#FFFFFF;" points="521.965,411.138 520.335,411.138 523.533,481.807 525.244,481.807 521.965,411.138 
															"/>
							<path style="fill:#FFFFFF;" d="M244.213,258.353h-1.448l-0.023,0.194c-0.247,1.486-0.863,2.905-1.768,4.199
								c-0.906,1.296-2.101,2.466-3.5,3.45c-1.402,0.985-3.009,1.784-4.736,2.336c-1.729,0.553-3.578,0.859-5.46,0.859
								c-0.968,0-1.897-0.081-2.78-0.234s-1.719-0.379-2.499-0.669c-0.779-0.291-1.502-0.645-2.161-1.056
								c-0.658-0.411-1.251-0.878-1.771-1.393l-1.091,0.918c0.576,0.555,1.231,1.058,1.956,1.5c0.726,0.442,1.521,0.825,2.375,1.137
								c0.855,0.313,1.77,0.556,2.733,0.722c0.964,0.165,1.978,0.252,3.03,0.252c2.087,0,4.136-0.34,6.052-0.954
								c1.914-0.614,3.693-1.5,5.246-2.594c1.549-1.092,2.871-2.389,3.873-3.825c0.999-1.433,1.68-3.004,1.951-4.649
								L244.213,258.353"/>
						</g>
					</g>
				</g>
			</g>
		</g>
	</g>
</g>
</svg>
