<?xml version="1.0" encoding="iso-8859-1"?>
<!-- Generator: Adobe Illustrator 16.0.0, SVG Export Plug-In . SVG Version: 6.00 Build 0)  -->
<!DOCTYPE svg PUBLIC "-//W3C//DTD SVG 1.1//EN" "http://www.w3.org/Graphics/SVG/1.1/DTD/svg11.dtd">
<svg version="1.1" id="Layer_2" xmlns="http://www.w3.org/2000/svg" xmlns:xlink="http://www.w3.org/1999/xlink" x="0px" y="0px"
	 width="910.886px" height="597.925px" viewBox="0 0 910.886 597.925" style="enable-background:new 0 0 910.886 597.925;"
	 xml:space="preserve">
<g id="Layer_3">
</g>
<g>
	<g>
		<g style="enable-background:new    ;">
			<defs>
				<polygon id="SVGID_1_" style="enable-background:new    ;" points="-104.406,600.169 70.88,92.057 840.008,92.057 
					1015.293,600.169 				"/>
			</defs>
			<clipPath id="SVGID_2_">
				<use xlink:href="#SVGID_1_"  style="overflow:visible;"/>
			</clipPath>
			<g style="clip-path:url(#SVGID_2_);">
				<g>
					<g>
						<g>
							<path style="fill:#FFFFFF;" d="M478.348,222.084c-1.166,0-2.274,0.181-3.282,0.508c-1.009,0.327-1.917,0.801-2.682,1.388
								c-0.766,0.587-1.388,1.287-1.821,2.065c-0.434,0.779-0.68,1.638-0.693,2.541h1.433c0.012-0.751,0.217-1.465,0.579-2.114
								c0.361-0.647,0.879-1.229,1.517-1.718s1.395-0.882,2.234-1.154c0.841-0.272,1.764-0.423,2.735-0.423
								c0.984,0,1.926,0.155,2.786,0.435c0.86,0.28,1.64,0.686,2.298,1.186c0.66,0.501,1.198,1.098,1.577,1.761
								c0.379,0.664,0.598,1.394,0.616,2.16c0.019,0.769-0.165,1.502-0.514,2.171c-0.349,0.669-0.862,1.272-1.502,1.78
								c-0.642,0.508-1.408,0.919-2.264,1.204c-0.856,0.285-1.8,0.442-2.793,0.442c-0.98,0-1.917-0.153-2.773-0.43
								s-1.631-0.677-2.287-1.172c-0.655-0.495-1.191-1.083-1.572-1.737c-0.38-0.653-0.604-1.372-0.635-2.125h-1.433
								c0.032,0.86,0.272,1.681,0.686,2.434c0.413,0.754,0.998,1.439,1.716,2.026c0.719,0.587,1.57,1.075,2.517,1.434
								c0.946,0.359,1.987,0.589,3.083,0.659l0.221,12.379h1.444l-0.234-12.379c1.107-0.07,2.153-0.304,3.097-0.671
								s1.784-0.866,2.483-1.465s1.256-1.299,1.633-2.068c0.377-0.768,0.573-1.605,0.551-2.48c-0.022-0.918-0.286-1.792-0.741-2.587
								c-0.454-0.794-1.1-1.508-1.89-2.108c-0.79-0.599-1.724-1.083-2.754-1.418C480.653,222.269,479.525,222.084,478.348,222.084"
								/>
							<path style="fill:#FFFFFF;" d="M431.786,260.712h-1.459l-0.258,13.183c-1.145,0.075-2.233,0.324-3.222,0.714
								c-0.99,0.391-1.881,0.924-2.632,1.565c-0.752,0.642-1.364,1.393-1.795,2.22c-0.431,0.828-0.68,1.732-0.704,2.678
								c-0.026,0.998,0.201,1.951,0.633,2.819c0.433,0.869,1.071,1.653,1.869,2.313c0.799,0.66,1.756,1.195,2.825,1.565
								c1.07,0.37,2.25,0.575,3.493,0.575c1.239,0,2.424-0.205,3.506-0.575c1.081-0.37,2.059-0.905,2.882-1.565
								c0.823-0.659,1.492-1.443,1.958-2.313c0.466-0.868,0.729-1.821,0.741-2.819c0-0.025,0-0.05,0-0.074s0-0.048,0-0.072
								c0-0.024-0.001-0.048-0.002-0.071c0-0.023-0.002-0.046-0.004-0.07h-1.482c0.004,0.023,0.007,0.046,0.009,0.07
								c0.002,0.023,0.004,0.047,0.004,0.071c0.001,0.023,0.001,0.047,0.001,0.072c0,0.024,0,0.049,0,0.074
								c-0.011,0.833-0.231,1.628-0.621,2.352c-0.39,0.726-0.949,1.38-1.636,1.93c-0.688,0.551-1.504,0.998-2.407,1.306
								c-0.903,0.309-1.893,0.48-2.927,0.48c-1.037,0-2.022-0.171-2.915-0.48c-0.892-0.309-1.692-0.755-2.359-1.306
								c-0.667-0.55-1.201-1.205-1.563-1.93c-0.362-0.724-0.552-1.52-0.532-2.352c0.021-0.833,0.25-1.627,0.646-2.348
								c0.396-0.721,0.958-1.369,1.646-1.913c0.688-0.543,1.5-0.983,2.398-1.287s1.88-0.472,2.908-0.472
								c0.961,0,1.877,0.147,2.717,0.415c0.84,0.268,1.603,0.657,2.257,1.141c0.654,0.484,1.199,1.063,1.602,1.712
								c0.403,0.649,0.664,1.367,0.749,2.128h1.491c-0.083-0.874-0.359-1.703-0.795-2.46c-0.435-0.756-1.029-1.439-1.748-2.022
								c-0.717-0.583-1.559-1.065-2.49-1.42c-0.931-0.354-1.951-0.581-3.027-0.652L431.786,260.712"/>
							<path style="fill:#FFFFFF;" d="M557.23,264.428h-1.464l0.017,0.217c1.094,14.03,5.773,27.695,13.393,40.382
								c7.768,12.935,18.563,24.808,31.65,34.947c13.284,10.292,28.855,18.74,45.867,24.641c17.156,5.952,35.647,9.268,54.523,9.268
								c14.528,0,28.15-1.966,40.533-5.592c12.319-3.606,23.355-8.839,32.817-15.377c9.372-6.477,17.165-14.209,23.123-22.882
								c5.884-8.563,9.962-18.018,12.017-28.062l-1.5-0.481c-2.037,9.922-6.076,19.263-11.897,27.721
								c-5.895,8.566-13.6,16.204-22.864,22.601c-9.352,6.457-20.257,11.624-32.429,15.186c-12.233,3.58-25.689,5.521-40.04,5.521
								c-18.639,0-36.898-3.271-53.842-9.142c-16.801-5.822-32.185-14.16-45.313-24.318c-12.935-10.01-23.61-21.733-31.297-34.509
								c-7.542-12.533-12.182-26.036-13.278-39.903L557.23,264.428"/>
							<path style="fill:#FFFFFF;" d="M668.928,186.521h-1.367l11.618,66.232c-1.961,0.076-3.771,0.455-5.367,1.08
								c-1.599,0.626-2.984,1.5-4.093,2.563c-1.109,1.065-1.942,2.323-2.432,3.714c-0.49,1.395-0.637,2.926-0.373,4.534l0.018,0.104
								h1.464l-0.018-0.104c-0.247-1.497-0.103-2.921,0.37-4.213c0.473-1.291,1.271-2.451,2.333-3.424
								c1.061-0.972,2.384-1.757,3.907-2.3c1.521-0.542,3.245-0.842,5.107-0.842c1.458,0,2.896,0.184,4.273,0.524
								c1.379,0.34,2.698,0.838,3.919,1.465c1.222,0.627,2.345,1.384,3.328,2.244c0.985,0.861,1.832,1.824,2.499,2.863l1.31-0.382
								c-0.712-1.108-1.607-2.137-2.647-3.062c-1.039-0.923-2.222-1.742-3.509-2.43c-1.286-0.687-2.676-1.244-4.13-1.643
								s-2.974-0.641-4.52-0.7L668.928,186.521"/>
							<path style="fill:#FFFFFF;" d="M667.393,181.684c-14.332,0-27.663,2.18-39.556,6.14c-11.972,3.986-22.557,9.799-31.26,17.057
								c-8.808,7.344-15.729,16.201-20.208,26.18c-4.551,10.141-6.594,21.476-5.508,33.585c0.018,0.205,0.037,0.41,0.057,0.615
								c0.021,0.206,0.041,0.412,0.063,0.617c0.022,0.206,0.047,0.412,0.072,0.618s0.053,0.412,0.082,0.617h1.458
								c-0.027-0.206-0.054-0.411-0.078-0.617s-0.047-0.412-0.069-0.618c-0.021-0.206-0.043-0.412-0.063-0.617
								c-0.021-0.205-0.039-0.41-0.058-0.615c-1.086-11.952,0.918-23.142,5.399-33.155c4.41-9.855,11.235-18.604,19.925-25.86
								c8.589-7.171,19.037-12.916,30.857-16.855c11.744-3.914,24.91-6.069,39.065-6.069L667.393,181.684"/>
							<polyline style="fill:#FFFFFF;" points="714.826,179.081 713.459,179.081 734.682,277.931 736.16,277.931 714.826,179.081 
															"/>
							<path style="fill:#FFFFFF;" d="M790.028,183.842l-0.694,0.787c7.081,5.119,13.761,10.647,19.949,16.542
								c6.249,5.952,12.005,12.284,17.176,18.95c5.227,6.738,9.858,13.825,13.798,21.211c3.986,7.474,7.267,15.262,9.733,23.313
								h1.464c-2.502-8.134-5.827-16.002-9.867-23.553c-3.992-7.462-8.687-14.62-13.979-21.425
								c-5.237-6.732-11.065-13.125-17.392-19.133C803.951,194.584,797.192,189.005,790.028,183.842"/>
							<path style="fill:#FFFFFF;" d="M245.417,166.672c-12.384,0-24.606,1.432-36.376,4.093
								c-11.823,2.673-23.239,6.597-33.937,11.579c-10.787,5.023-20.881,11.139-29.944,18.155
								c-9.169,7.098-17.31,15.139-24.054,23.923l1.237,0.361c6.661-8.685,14.704-16.635,23.764-23.654
								c8.958-6.939,18.936-12.989,29.601-17.958c10.577-4.929,21.866-8.812,33.558-11.457c11.641-2.634,23.729-4.051,35.977-4.051
								c15.863,0,30.63,2.38,43.826,6.706c13.291,4.357,25.075,10.718,34.805,18.67c9.858,8.057,17.66,17.789,22.78,28.774
								c5.212,11.183,7.667,23.708,6.663,37.122h1.457c1.001-13.571-1.496-26.24-6.781-37.547
								c-5.191-11.106-13.09-20.942-23.067-29.083c-9.845-8.034-21.764-14.459-35.204-18.861
								C276.379,169.075,261.451,166.672,245.417,166.672"/>
							<polyline style="fill:#FFFFFF;" points="227.8,270.569 227.069,270.569 226.338,270.569 212.741,347.323 214.29,347.323 
								227.8,270.569 							"/>
							<path style="fill:#FFFFFF;" d="M339.771,258.353h-1.457c-0.013,0.208-0.026,0.416-0.04,0.624
								c-0.014,0.208-0.028,0.417-0.043,0.625c-0.016,0.208-0.032,0.417-0.049,0.627s-0.035,0.419-0.054,0.629
								c-1.106,12.104-5.303,23.859-12.015,34.743c-6.824,11.067-16.227,21.199-27.563,29.831
								c-11.483,8.745-24.896,15.908-39.511,20.904c-14.723,5.033-30.57,7.834-46.742,7.834l-0.236,1.337
								c16.403,0,32.477-2.843,47.408-7.953c14.821-5.071,28.42-12.342,40.059-21.216c11.488-8.759,21.013-19.037,27.92-30.261
								c6.792-11.036,11.032-22.952,12.14-35.219c0.019-0.21,0.037-0.42,0.054-0.629c0.017-0.209,0.033-0.418,0.048-0.627
								c0.015-0.208,0.029-0.417,0.042-0.625C339.746,258.769,339.758,258.561,339.771,258.353"/>
							<polyline style="fill:#FFFFFF;" points="182.229,246.298 180.786,246.298 156.795,357.145 158.364,357.145 182.229,246.298 
															"/>
							<path style="fill:#FFFFFF;" d="M61.745,259.316h-1.458c-2.522,8.182-4.097,16.297-4.765,24.278
								c-0.677,8.08-0.424,16.017,0.715,23.738c1.152,7.812,3.209,15.396,6.125,22.675c2.948,7.358,6.77,14.396,11.412,21.032
								l1.467-0.804c-4.614-6.573-8.414-13.546-11.347-20.837c-2.902-7.212-4.954-14.729-6.106-22.472
								c-1.14-7.653-1.401-15.522-0.74-23.534C57.701,275.48,59.253,267.432,61.745,259.316"/>
							<polyline style="fill:#FFFFFF;" points="392.832,342.304 391.279,342.304 390.061,368.234 363.691,368.234 362.9,380.226 
								369.034,380.226 369.119,378.84 364.586,378.84 365.185,369.6 403.753,369.6 403.804,368.234 391.642,368.234 
								392.832,342.304 							"/>
							<polyline style="fill:#FFFFFF;" points="533.729,396.596 492.77,396.596 493.098,409.074 499.279,409.074 499.235,407.64 
								494.678,407.64 494.413,398.009 533.807,398.009 533.729,396.596 							"/>
							<polyline style="fill:#FFFFFF;" points="436.964,453.002 303.544,453.002 303.386,454.538 436.945,454.538 436.964,453.002 
															"/>
							<polyline style="fill:#FFFFFF;" points="444.73,427.362 443.081,427.362 442.511,494.232 465.732,494.232 465.722,492.622 
								444.248,492.622 444.73,427.362 							"/>
							<polyline style="fill:#FFFFFF;" points="391.124,379.536 389.529,379.536 387.14,430.368 388.792,430.368 391.124,379.536 
															"/>
							<polyline style="fill:#FFFFFF;" points="521.836,408.356 520.209,408.356 523.533,481.807 525.244,481.807 521.836,408.356 
															"/>
							<path style="fill:#FFFFFF;" d="M244.213,258.353h-1.448l-0.023,0.194c-0.247,1.486-0.863,2.905-1.768,4.199
								c-0.906,1.296-2.101,2.466-3.5,3.45c-1.402,0.985-3.009,1.784-4.736,2.336c-1.729,0.553-3.578,0.859-5.46,0.859
								c-1.443,0-2.803-0.18-4.051-0.514c-1.247-0.333-2.381-0.82-3.373-1.433c-0.991-0.612-1.839-1.35-2.516-2.188
								c-0.676-0.836-1.181-1.77-1.486-2.777l-1.458,0.356c0.333,1.124,0.887,2.168,1.633,3.103
								c0.747,0.937,1.686,1.763,2.784,2.448c1.1,0.687,2.359,1.231,3.746,1.605c1.388,0.374,2.903,0.576,4.512,0.576
								c2.087,0,4.136-0.34,6.052-0.954c1.914-0.614,3.693-1.5,5.246-2.594c1.549-1.092,2.871-2.389,3.873-3.825
								c0.999-1.433,1.68-3.004,1.951-4.649L244.213,258.353"/>
						</g>
					</g>
				</g>
			</g>
		</g>
	</g>
</g>
</svg>
