<?xml version="1.0" encoding="iso-8859-1"?>
<!-- Generator: Adobe Illustrator 16.0.0, SVG Export Plug-In . SVG Version: 6.00 Build 0)  -->
<!DOCTYPE svg PUBLIC "-//W3C//DTD SVG 1.1//EN" "http://www.w3.org/Graphics/SVG/1.1/DTD/svg11.dtd">
<svg version="1.1" id="Layer_2" xmlns="http://www.w3.org/2000/svg" xmlns:xlink="http://www.w3.org/1999/xlink" x="0px" y="0px"
	 width="910.886px" height="597.925px" viewBox="0 0 910.886 597.925" style="enable-background:new 0 0 910.886 597.925;"
	 xml:space="preserve">
<g id="Layer_3">
</g>
<g>
	<g>
		<g style="enable-background:new    ;">
			<defs>
				<polygon id="SVGID_1_" style="enable-background:new    ;" points="-104.406,600.169 70.88,92.057 840.008,92.057 
					1015.293,600.169 				"/>
			</defs>
			<clipPath id="SVGID_2_">
				<use xlink:href="#SVGID_1_"  style="overflow:visible;"/>
			</clipPath>
			<g style="clip-path:url(#SVGID_2_);">
				<g>
					<g>
						<g>
							<path style="fill:#FFFFFF;" d="M478.572,234.314c-0.995,0-1.945-0.158-2.813-0.442c-0.866-0.284-1.648-0.696-2.308-1.204
								c-0.658-0.507-1.193-1.111-1.565-1.78c-0.373-0.668-0.583-1.402-0.593-2.171c-0.01-0.766,0.182-1.496,0.536-2.16
								c0.354-0.663,0.869-1.26,1.51-1.761c0.64-0.5,1.403-0.906,2.254-1.186c0.851-0.279,1.787-0.435,2.773-0.435
								c0.984,0,1.926,0.155,2.786,0.435c0.86,0.28,1.64,0.686,2.298,1.186c0.66,0.501,1.198,1.098,1.577,1.761
								c0.379,0.664,0.598,1.394,0.616,2.16c0.019,0.769-0.165,1.502-0.514,2.171c-0.349,0.669-0.862,1.272-1.502,1.78
								c-0.642,0.508-1.408,0.919-2.264,1.204C480.509,234.157,479.565,234.314,478.572,234.314 M478.348,222.084
								c-1.181,0-2.303,0.185-3.32,0.52c-1.019,0.335-1.934,0.82-2.701,1.418c-0.767,0.6-1.386,1.314-1.811,2.108
								c-0.425,0.794-0.655,1.669-0.645,2.587c0.01,0.875,0.237,1.712,0.642,2.48c0.405,0.769,0.988,1.469,1.708,2.068
								c0.721,0.6,1.579,1.099,2.535,1.465s2.009,0.601,3.117,0.671l0.215,12.073c-0.194,0.014-0.387,0.032-0.576,0.055
								s-0.378,0.051-0.563,0.083c-0.186,0.033-0.369,0.07-0.55,0.111c-0.182,0.042-0.36,0.088-0.537,0.139l1.037,0.934
								c0.155-0.036,0.312-0.067,0.47-0.093c0.157-0.027,0.316-0.049,0.478-0.066s0.323-0.03,0.488-0.039
								c0.164-0.009,0.331-0.013,0.5-0.013c0.061,0,0.121,0,0.182,0.001c0.061,0.001,0.121,0.002,0.181,0.005
								c0.061,0.002,0.12,0.006,0.18,0.011c0.06,0.004,0.118,0.01,0.177,0.017l-0.011-0.58l-0.011-0.565l-0.229-12.073
								c1.107-0.07,2.153-0.304,3.097-0.671s1.784-0.866,2.483-1.465s1.256-1.299,1.633-2.068c0.377-0.768,0.573-1.605,0.551-2.48
								c-0.022-0.918-0.286-1.792-0.741-2.587c-0.454-0.794-1.1-1.508-1.89-2.108c-0.79-0.599-1.724-1.083-2.754-1.418
								C480.653,222.269,479.525,222.084,478.348,222.084"/>
							<path style="fill:#FFFFFF;" d="M430.559,287.141c-1.037,0-2.022-0.171-2.915-0.48c-0.892-0.309-1.692-0.755-2.359-1.306
								c-0.667-0.55-1.201-1.205-1.563-1.93c-0.362-0.724-0.552-1.52-0.532-2.352c0.021-0.833,0.25-1.627,0.646-2.348
								c0.396-0.721,0.958-1.369,1.646-1.913c0.688-0.543,1.5-0.983,2.398-1.287s1.88-0.472,2.908-0.472
								c1.025,0,2,0.168,2.885,0.472c0.885,0.304,1.681,0.744,2.347,1.287c0.667,0.544,1.205,1.192,1.573,1.913
								c0.369,0.721,0.567,1.515,0.557,2.348c-0.011,0.833-0.231,1.628-0.621,2.352c-0.39,0.726-0.949,1.38-1.636,1.93
								c-0.688,0.551-1.504,0.998-2.407,1.306C432.583,286.97,431.593,287.141,430.559,287.141 M433.698,259.795
								c-0.207,0.063-0.417,0.118-0.63,0.167c-0.213,0.048-0.43,0.089-0.649,0.122c-0.22,0.033-0.442,0.058-0.667,0.075
								c-0.225,0.017-0.452,0.025-0.681,0.025c-0.05,0-0.1,0-0.149-0.001c-0.049-0.001-0.098-0.002-0.146-0.004
								s-0.095-0.005-0.142-0.008c-0.047-0.004-0.093-0.008-0.139-0.013l-0.073,0.583h-0.096l-0.257,13.155
								c-1.145,0.075-2.233,0.324-3.222,0.714c-0.99,0.391-1.881,0.924-2.632,1.565c-0.752,0.642-1.364,1.393-1.795,2.22
								c-0.431,0.828-0.68,1.732-0.704,2.678c-0.026,0.998,0.201,1.951,0.633,2.819c0.433,0.869,1.071,1.653,1.869,2.313
								c0.799,0.66,1.756,1.195,2.825,1.565c1.07,0.37,2.25,0.575,3.493,0.575c1.239,0,2.424-0.205,3.506-0.575
								c1.081-0.37,2.059-0.905,2.882-1.565c0.823-0.659,1.492-1.443,1.958-2.313c0.466-0.868,0.729-1.821,0.741-2.819
								c0.011-0.946-0.204-1.85-0.604-2.678c-0.4-0.827-0.984-1.578-1.712-2.22c-0.728-0.642-1.599-1.174-2.573-1.565
								c-0.974-0.391-2.05-0.64-3.19-0.714l0.232-12.578c0.221-0.016,0.44-0.037,0.657-0.064c0.216-0.027,0.43-0.06,0.641-0.1
								c0.211-0.039,0.419-0.084,0.624-0.136c0.205-0.051,0.406-0.109,0.604-0.174L433.698,259.795"/>
							<path style="fill:#FFFFFF;" d="M807.273,261.45h-1.469c0.085,0.265,0.168,0.529,0.249,0.794
								c0.081,0.265,0.161,0.53,0.239,0.796s0.154,0.533,0.23,0.8c0.075,0.268,0.149,0.536,0.223,0.805
								c3.782,13.868,3.894,27.37,0.762,39.903c-3.191,12.775-9.742,24.499-19.154,34.509
								c-9.553,10.158-22.002,18.496-36.754,24.318c-14.877,5.871-31.985,9.142-50.623,9.142c-18.639,0-36.898-3.271-53.842-9.142
								c-16.801-5.822-32.185-14.16-45.313-24.318c-12.935-10.01-23.61-21.733-31.297-34.509
								c-7.542-12.533-12.182-26.036-13.278-39.903l-0.017-0.217h-1.464l0.017,0.217c1.094,14.03,5.773,27.695,13.393,40.382
								c7.768,12.935,18.563,24.808,31.65,34.947c13.284,10.292,28.855,18.74,45.867,24.641c17.156,5.952,35.647,9.268,54.523,9.268
								c18.875,0,36.199-3.315,51.261-9.268c14.935-5.9,27.532-14.349,37.195-24.641c9.519-10.14,16.136-22.013,19.353-34.947
								c3.155-12.687,3.027-26.352-0.815-40.382c-0.073-0.27-0.148-0.538-0.225-0.805c-0.076-0.267-0.154-0.534-0.232-0.8
								s-0.158-0.532-0.237-0.796C807.436,261.979,807.354,261.714,807.273,261.45"/>
							<path style="fill:#FFFFFF;" d="M667.383,177.772h-1.356l0.687,3.917c-14.242,0.069-27.487,2.294-39.301,6.28
								c-11.892,4.013-22.402,9.834-31.043,17.085c-8.744,7.338-15.612,16.175-20.054,26.124
								c-4.513,10.11-6.536,21.403-5.454,33.467c0.176,1.965,0.432,3.921,0.766,5.867c0.335,1.952,0.748,3.892,1.236,5.819
								c0.49,1.933,1.056,3.853,1.695,5.756c0.641,1.909,1.355,3.802,2.142,5.677l1.439-0.253c-0.784-1.856-1.496-3.729-2.134-5.617
								c-0.637-1.883-1.199-3.781-1.687-5.692c-0.485-1.906-0.896-3.824-1.229-5.754c-0.332-1.924-0.588-3.858-0.764-5.802
								c-1.081-11.904,0.902-23.051,5.346-33.033c4.374-9.825,11.146-18.554,19.771-25.804c8.525-7.166,18.899-12.918,30.641-16.885
								c11.663-3.941,24.742-6.141,38.809-6.21l12.286,70.041c-1.961,0.076-3.771,0.455-5.367,1.08
								c-1.599,0.626-2.984,1.5-4.093,2.563c-1.109,1.065-1.942,2.323-2.432,3.714c-0.49,1.395-0.637,2.926-0.373,4.534l0.018,0.104
								h1.464l-0.018-0.104c-0.247-1.497-0.103-2.921,0.37-4.213c0.473-1.291,1.271-2.451,2.333-3.424
								c1.061-0.972,2.384-1.757,3.907-2.3c1.521-0.542,3.245-0.842,5.107-0.842s3.691,0.3,5.404,0.842
								c1.714,0.542,3.313,1.328,4.716,2.3c1.404,0.973,2.611,2.133,3.537,3.424c0.928,1.292,1.574,2.716,1.854,4.213h1.464
								c-0.302-1.608-0.987-3.139-1.969-4.534c-0.979-1.392-2.255-2.649-3.739-3.714c-1.483-1.064-3.176-1.938-4.994-2.563
								c-1.816-0.625-3.761-1.004-5.747-1.08L667.383,177.772"/>
							<polyline style="fill:#FFFFFF;" points="714.826,179.081 713.459,179.081 737.949,293.15 739.445,293.15 714.826,179.081 
															"/>
							<path style="fill:#FFFFFF;" d="M776.94,175.15l-0.616,0.806c8.62,5.288,16.774,11.144,24.334,17.5
								c7.641,6.423,14.686,13.368,20.996,20.765c6.387,7.487,12.031,15.447,16.783,23.81c4.815,8.475,8.72,17.372,11.553,26.615
								h1.464c-2.871-9.333-6.825-18.316-11.701-26.872c-4.811-8.441-10.522-16.476-16.984-24.031
								c-6.384-7.464-13.509-14.47-21.233-20.948C793.893,186.384,785.65,180.48,776.94,175.15"/>
							<path style="fill:#FFFFFF;" d="M245.417,166.672c-16.073,0-31.887,2.414-46.803,6.803
								c-15.026,4.421-29.241,10.875-41.938,18.943c-12.869,8.177-24.248,18.054-33.351,29.205
								c-9.269,11.354-16.214,24.073-19.955,37.694c-0.059,0.215-0.117,0.43-0.175,0.643c-0.057,0.214-0.114,0.427-0.169,0.64
								s-0.111,0.425-0.165,0.638s-0.106,0.425-0.158,0.637h1.46c0.049-0.212,0.101-0.425,0.153-0.637s0.106-0.425,0.161-0.638
								c0.055-0.213,0.111-0.426,0.168-0.64c0.057-0.213,0.115-0.428,0.174-0.643c3.682-13.463,10.534-26.039,19.688-37.268
								c8.991-11.03,20.237-20.804,32.959-28.896c12.555-7.985,26.613-14.375,41.476-18.752c14.755-4.346,30.399-6.737,46.299-6.737
								c15.863,0,30.63,2.38,43.826,6.706c13.291,4.357,25.075,10.718,34.805,18.67c9.858,8.057,17.66,17.789,22.78,28.774
								c5.212,11.183,7.667,23.708,6.663,37.122h1.457c1.001-13.571-1.496-26.24-6.781-37.547
								c-5.191-11.106-13.09-20.942-23.067-29.083c-9.845-8.034-21.764-14.459-35.204-18.861
								C276.379,169.075,261.451,166.672,245.417,166.672"/>
							<path style="fill:#FFFFFF;" d="M338.018,238.846l-1.399,0.363c0.41,1.703,0.751,3.43,1.024,5.182
								c0.272,1.757,0.475,3.537,0.605,5.34c0.13,1.808,0.187,3.639,0.168,5.492c-0.019,1.857-0.114,3.737-0.287,5.636
								c-1.102,12.055-5.269,23.763-11.932,34.608c-6.774,11.027-16.109,21.131-27.367,29.752
								c-11.403,8.731-24.727,15.901-39.252,20.93c-14.634,5.064-30.394,7.923-46.491,8.013l14.714-83.592h-0.73h-0.731
								l-15.615,88.144h1.561l0.566-3.214c16.328-0.09,32.315-2.991,47.157-8.132c14.731-5.103,28.24-12.379,39.8-21.24
								c11.409-8.747,20.865-18.996,27.723-30.181c6.744-10.999,10.954-22.868,12.057-35.088c0.174-1.93,0.269-3.841,0.285-5.729
								c0.017-1.884-0.044-3.746-0.18-5.585c-0.135-1.833-0.344-3.645-0.624-5.431C338.789,242.333,338.438,240.576,338.018,238.846
								"/>
							<polyline style="fill:#FFFFFF;" points="185.23,232.357 183.803,232.357 156.795,357.145 158.364,357.145 185.23,232.357 
															"/>
							<path style="fill:#FFFFFF;" d="M61.745,259.316h-1.458c-2.897,9.4-4.545,18.713-5.003,27.835
								c-0.465,9.25,0.292,18.297,2.205,27.025c1.938,8.845,5.059,17.354,9.289,25.405c4.281,8.148,9.69,15.816,16.143,22.878
								l1.364-0.971c-6.399-6.991-11.767-14.584-16.017-22.651c-4.2-7.973-7.303-16.398-9.233-25.158
								c-1.906-8.646-2.667-17.608-2.217-26.774C57.261,277.866,58.883,268.636,61.745,259.316"/>
							<polyline style="fill:#FFFFFF;" points="392.832,342.304 391.279,342.304 390.061,368.234 363.691,368.234 362.9,380.226 
								377.221,380.226 377.298,378.84 364.586,378.84 365.185,369.6 403.753,369.6 403.804,368.234 391.642,368.234 
								392.832,342.304 							"/>
							<polyline style="fill:#FFFFFF;" points="444.818,415.393 443.183,415.393 442.862,453.002 303.544,453.002 303.386,454.538 
								442.85,454.538 442.511,494.232 465.732,494.232 465.722,492.622 444.248,492.622 444.818,415.393 							"/>
							<polyline style="fill:#FFFFFF;" points="391.124,379.536 389.529,379.536 386.482,444.367 388.15,444.367 391.124,379.536 
															"/>
							<polyline style="fill:#FFFFFF;" points="520.934,388.893 519.328,388.893 519.677,396.596 492.77,396.596 493.098,409.074 
								507.869,409.074 507.816,407.64 494.678,407.64 494.413,398.009 533.807,398.009 533.729,396.596 521.291,396.596 
								520.934,388.893 							"/>
							<polyline style="fill:#FFFFFF;" points="521.836,408.356 520.209,408.356 523.533,481.807 525.244,481.807 521.836,408.356 
															"/>
							<path style="fill:#FFFFFF;" d="M215.822,257.82h-1.465c-0.016,0.059-0.031,0.118-0.047,0.179
								c-0.015,0.06-0.03,0.121-0.045,0.182c-0.015,0.061-0.029,0.123-0.042,0.184s-0.026,0.122-0.038,0.183
								c-0.31,1.645-0.183,3.216,0.311,4.649c0.495,1.437,1.36,2.733,2.525,3.825c1.167,1.093,2.634,1.98,4.333,2.594
								c1.7,0.614,3.629,0.954,5.716,0.954c2.087,0,4.136-0.34,6.052-0.954c1.914-0.614,3.693-1.5,5.246-2.594
								c1.549-1.092,2.871-2.389,3.873-3.825c0.999-1.433,1.68-3.004,1.951-4.649l0.023-0.194h-1.448l-0.023,0.194
								c-0.247,1.486-0.863,2.905-1.768,4.199c-0.906,1.296-2.101,2.466-3.5,3.45c-1.402,0.985-3.009,1.784-4.736,2.336
								c-1.729,0.553-3.578,0.859-5.46,0.859s-3.624-0.306-5.157-0.859c-1.532-0.553-2.857-1.351-3.911-2.336
								c-1.052-0.984-1.833-2.154-2.282-3.45c-0.447-1.294-0.563-2.713-0.285-4.199c0.012-0.061,0.023-0.122,0.036-0.183
								s0.026-0.123,0.041-0.184c0.015-0.061,0.031-0.122,0.047-0.182C215.784,257.938,215.803,257.879,215.822,257.82"/>
						</g>
					</g>
				</g>
			</g>
		</g>
	</g>
</g>
</svg>
