<?xml version="1.0" encoding="iso-8859-1"?>
<!-- Generator: Adobe Illustrator 16.0.0, SVG Export Plug-In . SVG Version: 6.00 Build 0)  -->
<!DOCTYPE svg PUBLIC "-//W3C//DTD SVG 1.1//EN" "http://www.w3.org/Graphics/SVG/1.1/DTD/svg11.dtd">
<svg version="1.1" id="Layer_2" xmlns="http://www.w3.org/2000/svg" xmlns:xlink="http://www.w3.org/1999/xlink" x="0px" y="0px"
	 width="910.886px" height="597.925px" viewBox="0 0 910.886 597.925" style="enable-background:new 0 0 910.886 597.925;"
	 xml:space="preserve">
<g id="Layer_3">
</g>
<g>
	<g>
		<g style="enable-background:new    ;">
			<defs>
				<polygon id="SVGID_1_" style="enable-background:new    ;" points="-104.406,600.169 70.88,92.057 840.008,92.057 
					1015.293,600.169 				"/>
			</defs>
			<clipPath id="SVGID_2_">
				<use xlink:href="#SVGID_1_"  style="overflow:visible;"/>
			</clipPath>
			<g style="clip-path:url(#SVGID_2_);">
				<g>
					<g>
						<g>
							<path style="fill:#FFFFFF;" d="M478.572,234.314c-0.995,0-1.945-0.158-2.813-0.442c-0.866-0.284-1.648-0.696-2.308-1.204
								c-0.658-0.507-1.193-1.111-1.565-1.78c-0.373-0.668-0.583-1.402-0.593-2.171c-0.01-0.766,0.182-1.496,0.536-2.16
								c0.354-0.663,0.869-1.26,1.51-1.761c0.64-0.5,1.403-0.906,2.254-1.186c0.851-0.279,1.787-0.435,2.773-0.435
								c0.984,0,1.926,0.155,2.786,0.435c0.86,0.28,1.64,0.686,2.298,1.186c0.66,0.501,1.198,1.098,1.577,1.761
								c0.379,0.664,0.598,1.394,0.616,2.16c0.019,0.769-0.165,1.502-0.514,2.171c-0.349,0.669-0.862,1.272-1.502,1.78
								c-0.642,0.508-1.408,0.919-2.264,1.204C480.509,234.157,479.565,234.314,478.572,234.314 M478.348,222.084
								c-1.181,0-2.303,0.185-3.32,0.52c-1.019,0.335-1.934,0.82-2.701,1.418c-0.767,0.6-1.386,1.314-1.811,2.108
								c-0.425,0.794-0.655,1.669-0.645,2.587c0.01,0.875,0.237,1.712,0.642,2.48c0.405,0.769,0.988,1.469,1.708,2.068
								c0.721,0.6,1.579,1.099,2.535,1.465s2.009,0.601,3.117,0.671l0.215,12.073c-0.521,0.034-1.027,0.104-1.517,0.208
								c-0.49,0.103-0.962,0.239-1.413,0.406c-0.451,0.166-0.882,0.362-1.287,0.584c-0.404,0.223-0.785,0.473-1.137,0.746
								l1.111,0.752c0.323-0.246,0.676-0.468,1.052-0.663s0.777-0.362,1.198-0.499s0.862-0.242,1.32-0.314s0.932-0.109,1.419-0.109
								c0.061,0,0.121,0,0.182,0.001c0.061,0.001,0.121,0.002,0.181,0.005c0.061,0.002,0.12,0.006,0.18,0.011
								c0.06,0.004,0.118,0.01,0.177,0.017l-0.011-0.58l-0.011-0.565l-0.229-12.073c1.107-0.07,2.153-0.304,3.097-0.671
								s1.784-0.866,2.483-1.465s1.256-1.299,1.633-2.068c0.377-0.768,0.573-1.605,0.551-2.48c-0.022-0.918-0.286-1.792-0.741-2.587
								c-0.454-0.794-1.1-1.508-1.89-2.108c-0.79-0.599-1.724-1.083-2.754-1.418C480.653,222.269,479.525,222.084,478.348,222.084"
								/>
							<path style="fill:#FFFFFF;" d="M430.559,287.141c-1.037,0-2.022-0.171-2.915-0.48c-0.892-0.309-1.692-0.755-2.359-1.306
								c-0.667-0.55-1.201-1.205-1.563-1.93c-0.362-0.724-0.552-1.52-0.532-2.352c0.021-0.833,0.25-1.627,0.646-2.348
								c0.396-0.721,0.958-1.369,1.646-1.913c0.688-0.543,1.5-0.983,2.398-1.287s1.88-0.472,2.908-0.472
								c1.025,0,2,0.168,2.885,0.472c0.885,0.304,1.681,0.744,2.347,1.287c0.667,0.544,1.205,1.192,1.573,1.913
								c0.369,0.721,0.567,1.515,0.557,2.348c-0.011,0.833-0.231,1.628-0.621,2.352c-0.39,0.726-0.949,1.38-1.636,1.93
								c-0.688,0.551-1.504,0.998-2.407,1.306C432.583,286.97,431.593,287.141,430.559,287.141 M436.498,258.284
								c-0.336,0.291-0.709,0.555-1.115,0.788c-0.405,0.232-0.842,0.434-1.303,0.599c-0.461,0.165-0.947,0.293-1.451,0.38
								c-0.504,0.087-1.025,0.133-1.558,0.133c-0.05,0-0.1,0-0.149-0.001c-0.049-0.001-0.098-0.002-0.146-0.004
								s-0.095-0.005-0.142-0.008c-0.047-0.004-0.093-0.008-0.139-0.013l-0.073,0.583h-0.096l-0.257,13.155
								c-1.145,0.075-2.233,0.324-3.222,0.714c-0.99,0.391-1.881,0.924-2.632,1.565c-0.752,0.642-1.364,1.393-1.795,2.22
								c-0.431,0.828-0.68,1.732-0.704,2.678c-0.026,0.998,0.201,1.951,0.633,2.819c0.433,0.869,1.071,1.653,1.869,2.313
								c0.799,0.66,1.756,1.195,2.825,1.565c1.07,0.37,2.25,0.575,3.493,0.575c1.239,0,2.424-0.205,3.506-0.575
								c1.081-0.37,2.059-0.905,2.882-1.565c0.823-0.659,1.492-1.443,1.958-2.313c0.466-0.868,0.729-1.821,0.741-2.819
								c0.011-0.946-0.204-1.85-0.604-2.678c-0.4-0.827-0.984-1.578-1.712-2.22c-0.728-0.642-1.599-1.174-2.573-1.565
								c-0.974-0.391-2.05-0.64-3.19-0.714l0.232-12.578c0.554-0.036,1.094-0.114,1.615-0.228c0.521-0.115,1.024-0.266,1.504-0.451
								c0.479-0.185,0.935-0.402,1.361-0.649s0.825-0.523,1.189-0.825L436.498,258.284"/>
							<path style="fill:#FFFFFF;" d="M788.353,226.896l-1.261,0.35c2.271,2.799,4.396,5.68,6.367,8.636
								c1.98,2.971,3.804,6.018,5.457,9.134c1.662,3.132,3.153,6.334,4.461,9.599c1.313,3.282,2.441,6.628,3.369,10.031
								c3.782,13.868,3.894,27.37,0.762,39.903c-3.191,12.775-9.742,24.499-19.154,34.509
								c-9.553,10.158-22.002,18.496-36.754,24.318c-14.877,5.871-31.985,9.142-50.623,9.142c-18.639,0-36.898-3.271-53.842-9.142
								c-16.801-5.822-32.185-14.16-45.313-24.318c-12.935-10.01-23.61-21.733-31.297-34.509
								c-7.542-12.533-12.182-26.036-13.278-39.903l-0.017-0.217h-1.464l0.017,0.217c1.094,14.03,5.773,27.695,13.393,40.382
								c7.768,12.935,18.563,24.808,31.65,34.947c13.284,10.292,28.855,18.74,45.867,24.641c17.156,5.952,35.647,9.268,54.523,9.268
								c18.875,0,36.199-3.315,51.261-9.268c14.935-5.9,27.532-14.349,37.195-24.641c9.519-10.14,16.136-22.013,19.353-34.947
								c3.155-12.687,3.027-26.352-0.815-40.382c-0.941-3.436-2.084-6.813-3.413-10.126c-1.323-3.296-2.831-6.527-4.511-9.688
								c-1.671-3.145-3.513-6.22-5.512-9.218C792.785,232.629,790.641,229.722,788.353,226.896"/>
							<path style="fill:#FFFFFF;" d="M665.912,169.442h-1.348l2.148,12.247c-14.242,0.069-27.487,2.294-39.301,6.28
								c-11.892,4.013-22.402,9.834-31.043,17.085c-8.744,7.338-15.612,16.175-20.054,26.124
								c-4.513,10.11-6.536,21.403-5.454,33.467c0.318,3.552,0.897,7.076,1.724,10.559c0.831,3.501,1.912,6.961,3.229,10.366
								c1.323,3.422,2.884,6.788,4.668,10.083c1.793,3.313,3.812,6.554,6.04,9.71l1.21-0.662c-2.188-3.105-4.169-6.294-5.932-9.552
								c-1.753-3.243-3.287-6.554-4.589-9.92c-1.295-3.349-2.359-6.752-3.18-10.197c-0.814-3.426-1.388-6.893-1.705-10.387
								c-1.081-11.904,0.902-23.051,5.346-33.033c4.374-9.825,11.146-18.554,19.771-25.804c8.525-7.166,18.899-12.918,30.641-16.885
								c11.663-3.941,24.742-6.141,38.809-6.21l12.286,70.041c-1.961,0.076-3.771,0.455-5.367,1.08
								c-1.599,0.626-2.984,1.5-4.093,2.563c-1.109,1.065-1.942,2.323-2.432,3.714c-0.49,1.395-0.637,2.926-0.373,4.534l0.018,0.104
								h1.464l-0.018-0.104c-0.247-1.497-0.103-2.921,0.37-4.213c0.473-1.291,1.271-2.451,2.333-3.424
								c1.061-0.972,2.384-1.757,3.907-2.3c1.521-0.542,3.245-0.842,5.107-0.842s3.691,0.3,5.404,0.842
								c1.714,0.542,3.313,1.328,4.716,2.3c1.404,0.973,2.611,2.133,3.537,3.424c0.928,1.292,1.574,2.716,1.854,4.213
								c0.07,0.378,0.116,0.751,0.138,1.12c0.021,0.369,0.019,0.732-0.008,1.09c-0.025,0.357-0.075,0.709-0.147,1.053
								c-0.072,0.345-0.168,0.682-0.284,1.011l1.438,0.451c0.128-0.364,0.232-0.737,0.312-1.118s0.134-0.769,0.162-1.164
								c0.028-0.395,0.031-0.796,0.008-1.204c-0.024-0.407-0.075-0.82-0.153-1.238c-0.302-1.608-0.987-3.139-1.969-4.534
								c-0.979-1.392-2.255-2.649-3.739-3.714c-1.483-1.064-3.176-1.938-4.994-2.563c-1.816-0.625-3.761-1.004-5.747-1.08
								L665.912,169.442"/>
							<polyline style="fill:#FFFFFF;" points="714.826,179.081 713.459,179.081 741.117,307.906 742.631,307.906 714.826,179.081 
															"/>
							<path style="fill:#FFFFFF;" d="M764.15,167.915l-0.502,0.85c10.096,5.285,19.678,11.312,28.572,17.987
								c8.992,6.75,17.3,14.176,24.731,22.184c7.528,8.114,14.172,16.839,19.721,26.075c5.633,9.374,10.146,19.288,13.317,29.635
								h1.464c-3.212-10.443-7.783-20.45-13.483-29.912c-5.616-9.321-12.338-18.126-19.952-26.313
								c-7.515-8.079-15.914-15.57-25.003-22.376C784.028,179.314,774.347,173.239,764.15,167.915"/>
							<path style="fill:#FFFFFF;" d="M245.417,166.672c-16.073,0-31.887,2.414-46.803,6.803
								c-15.026,4.421-29.241,10.875-41.938,18.943c-12.869,8.177-24.248,18.054-33.351,29.205
								c-9.269,11.354-16.214,24.073-19.955,37.694c-0.94,3.426-1.658,6.83-2.157,10.204c-0.502,3.392-0.785,6.753-0.853,10.074
								c-0.068,3.338,0.079,6.635,0.436,9.881c0.359,3.262,0.929,6.472,1.705,9.621l1.51-0.501c-0.766-3.109-1.332-6.279-1.69-9.499
								c-0.356-3.204-0.507-6.458-0.444-9.753c0.062-3.278,0.335-6.596,0.826-9.946c0.488-3.333,1.192-6.695,2.118-10.081
								c3.682-13.463,10.534-26.039,19.688-37.268c8.991-11.03,20.237-20.804,32.959-28.896
								c12.555-7.985,26.613-14.375,41.476-18.752c14.755-4.346,30.399-6.737,46.299-6.737c15.863,0,30.63,2.38,43.826,6.706
								c13.291,4.357,25.075,10.718,34.805,18.67c9.858,8.057,17.66,17.789,22.78,28.774c5.212,11.183,7.667,23.708,6.663,37.122
								h1.457c1.001-13.571-1.496-26.24-6.781-37.547c-5.191-11.106-13.09-20.942-23.067-29.083
								c-9.845-8.034-21.764-14.459-35.204-18.861C276.379,169.075,261.451,166.672,245.417,166.672"/>
							<path style="fill:#FFFFFF;" d="M331.533,222.358l-1.271,0.576c1.538,2.776,2.875,5.654,3.997,8.624
								c1.127,2.984,2.037,6.062,2.715,9.224c0.682,3.178,1.129,6.442,1.327,9.782c0.199,3.357,0.146,6.792-0.173,10.294
								c-1.102,12.055-5.269,23.763-11.932,34.608c-6.774,11.027-16.109,21.131-27.367,29.752
								c-11.403,8.731-24.727,15.901-39.252,20.93c-14.634,5.064-30.394,7.923-46.491,8.013l14.714-83.592h-0.73h-0.731
								L208.82,369.46h1.573l2.458-13.961c16.328-0.09,32.315-2.991,47.157-8.132c14.731-5.103,28.24-12.379,39.8-21.24
								c11.409-8.747,20.865-18.996,27.723-30.181c6.744-10.999,10.954-22.868,12.057-35.088c0.321-3.557,0.37-7.047,0.162-10.457
								c-0.206-3.393-0.666-6.708-1.364-9.935c-0.694-3.21-1.625-6.335-2.775-9.363C334.465,228.09,333.101,225.172,331.533,222.358
								"/>
							<polyline style="fill:#FFFFFF;" points="188.058,219.226 186.646,219.226 156.795,357.145 158.364,357.145 188.058,219.226 
															"/>
							<path style="fill:#FFFFFF;" d="M61.745,259.316h-1.458c-3.244,10.524-4.92,20.938-5.117,31.097
								c-0.2,10.317,1.127,20.36,3.885,29.968c2.798,9.746,7.065,19.03,12.691,27.679c5.698,8.759,12.778,16.849,21.116,24.089
								l1.226-1.1c-8.253-7.172-15.265-15.182-20.912-23.854c-5.576-8.563-9.808-17.753-12.588-27.401
								c-2.74-9.513-4.065-19.456-3.878-29.673C56.894,280.06,58.543,269.743,61.745,259.316"/>
							<polyline style="fill:#FFFFFF;" points="392.832,342.304 391.279,342.304 390.061,368.234 363.691,368.234 362.9,380.226 
								384.873,380.226 384.943,378.84 364.586,378.84 365.185,369.6 403.753,369.6 403.804,368.234 391.642,368.234 
								392.832,342.304 							"/>
							<polyline style="fill:#FFFFFF;" points="473.793,453.002 465.453,453.002 465.464,454.538 473.813,454.538 473.793,453.002 
															"/>
							<polyline style="fill:#FFFFFF;" points="391.124,379.536 389.529,379.536 386.076,453.002 303.544,453.002 303.386,454.538 
								386.004,454.538 385.908,456.577 387.59,456.577 387.684,454.538 442.85,454.538 442.511,494.232 465.732,494.232 
								465.722,492.622 444.248,492.622 444.808,416.852 457.11,416.852 457.108,415.393 443.183,415.393 442.862,453.002 
								387.754,453.002 391.124,379.536 							"/>
							<polyline style="fill:#FFFFFF;" points="520.471,378.914 518.876,378.914 519.677,396.596 492.77,396.596 493.098,409.074 
								515.581,409.074 515.521,407.64 494.678,407.64 494.413,398.009 533.807,398.009 533.729,396.596 521.291,396.596 
								520.471,378.914 							"/>
							<polyline style="fill:#FFFFFF;" points="521.836,408.356 520.209,408.356 523.533,481.807 525.244,481.807 521.836,408.356 
															"/>
							<path style="fill:#FFFFFF;" d="M216.167,254.025c-0.246,0.348-0.473,0.704-0.682,1.067c-0.208,0.364-0.396,0.735-0.564,1.113
								s-0.313,0.763-0.437,1.153c-0.123,0.391-0.224,0.788-0.299,1.189c-0.31,1.645-0.183,3.216,0.311,4.649
								c0.495,1.437,1.36,2.733,2.525,3.825c1.167,1.093,2.634,1.98,4.333,2.594c1.7,0.614,3.629,0.954,5.716,0.954
								c2.087,0,4.136-0.34,6.052-0.954c1.914-0.614,3.693-1.5,5.246-2.594c1.549-1.092,2.871-2.389,3.873-3.825
								c0.999-1.433,1.68-3.004,1.951-4.649l0.023-0.194h-1.448l-0.023,0.194c-0.247,1.486-0.863,2.905-1.768,4.199
								c-0.906,1.296-2.101,2.466-3.5,3.45c-1.402,0.985-3.009,1.784-4.736,2.336c-1.729,0.553-3.578,0.859-5.46,0.859
								s-3.624-0.306-5.157-0.859c-1.532-0.553-2.857-1.351-3.911-2.336c-1.052-0.984-1.833-2.154-2.282-3.45
								c-0.447-1.294-0.563-2.713-0.285-4.199c0.068-0.363,0.158-0.723,0.27-1.077c0.111-0.354,0.243-0.704,0.395-1.047
								c0.152-0.343,0.323-0.68,0.513-1.01c0.19-0.33,0.399-0.653,0.625-0.968L216.167,254.025"/>
						</g>
					</g>
				</g>
			</g>
		</g>
	</g>
</g>
</svg>
