<?xml version="1.0" encoding="iso-8859-1"?>
<!-- Generator: Adobe Illustrator 16.0.0, SVG Export Plug-In . SVG Version: 6.00 Build 0)  -->
<!DOCTYPE svg PUBLIC "-//W3C//DTD SVG 1.1//EN" "http://www.w3.org/Graphics/SVG/1.1/DTD/svg11.dtd">
<svg version="1.1" id="Layer_2" xmlns="http://www.w3.org/2000/svg" xmlns:xlink="http://www.w3.org/1999/xlink" x="0px" y="0px"
	 width="910.886px" height="597.925px" viewBox="0 0 910.886 597.925" style="enable-background:new 0 0 910.886 597.925;"
	 xml:space="preserve">
<g id="Layer_3">
</g>
<g>
	<g>
		<g style="enable-background:new    ;">
			<defs>
				<polygon id="SVGID_1_" style="enable-background:new    ;" points="-104.406,600.169 70.88,92.057 840.008,92.057 
					1015.293,600.169 				"/>
			</defs>
			<clipPath id="SVGID_2_">
				<use xlink:href="#SVGID_1_"  style="overflow:visible;"/>
			</clipPath>
			<g style="clip-path:url(#SVGID_2_);">
				<g>
					<g>
						<g>
							<path style="fill:#FFFFFF;" d="M478.572,234.314c-0.995,0-1.945-0.158-2.813-0.442c-0.866-0.284-1.648-0.696-2.308-1.204
								c-0.658-0.507-1.193-1.111-1.565-1.78c-0.373-0.668-0.583-1.402-0.593-2.171c-0.01-0.766,0.182-1.496,0.536-2.16
								c0.354-0.663,0.869-1.26,1.51-1.761c0.64-0.5,1.403-0.906,2.254-1.186c0.851-0.279,1.787-0.435,2.773-0.435
								c0.984,0,1.926,0.155,2.786,0.435c0.86,0.28,1.64,0.686,2.298,1.186c0.66,0.501,1.198,1.098,1.577,1.761
								c0.379,0.664,0.598,1.394,0.616,2.16c0.019,0.769-0.165,1.502-0.514,2.171c-0.349,0.669-0.862,1.272-1.502,1.78
								c-0.642,0.508-1.408,0.919-2.264,1.204C480.509,234.157,479.565,234.314,478.572,234.314 M478.348,222.084
								c-1.181,0-2.303,0.185-3.32,0.52c-1.019,0.335-1.934,0.82-2.701,1.418c-0.767,0.6-1.386,1.314-1.811,2.108
								c-0.425,0.794-0.655,1.669-0.645,2.587c0.01,0.875,0.237,1.712,0.642,2.48c0.405,0.769,0.988,1.469,1.708,2.068
								c0.721,0.6,1.579,1.099,2.535,1.465s2.009,0.601,3.117,0.671l0.215,12.073c-0.924,0.06-1.808,0.234-2.626,0.505
								c-0.819,0.271-1.575,0.641-2.242,1.088c-0.669,0.448-1.25,0.976-1.721,1.564c-0.471,0.589-0.831,1.24-1.058,1.935h1.511
								c0.231-0.578,0.575-1.116,1.012-1.598c0.436-0.481,0.964-0.907,1.564-1.26c0.6-0.354,1.271-0.634,1.996-0.827
								c0.725-0.192,1.501-0.297,2.311-0.297c0.061,0,0.121,0,0.182,0.001c0.061,0.001,0.121,0.002,0.181,0.005
								c0.061,0.002,0.12,0.006,0.18,0.011c0.06,0.004,0.118,0.01,0.177,0.017l-0.011-0.58l-0.011-0.565l-0.229-12.073
								c1.107-0.07,2.153-0.304,3.097-0.671s1.784-0.866,2.483-1.465s1.256-1.299,1.633-2.068c0.377-0.768,0.573-1.605,0.551-2.48
								c-0.022-0.918-0.286-1.792-0.741-2.587c-0.454-0.794-1.1-1.508-1.89-2.108c-0.79-0.599-1.724-1.083-2.754-1.418
								C480.653,222.269,479.525,222.084,478.348,222.084"/>
							<path style="fill:#FFFFFF;" d="M430.559,287.141c-1.037,0-2.022-0.171-2.915-0.48c-0.892-0.309-1.692-0.755-2.359-1.306
								c-0.667-0.55-1.201-1.205-1.563-1.93c-0.362-0.724-0.552-1.52-0.532-2.352c0.021-0.833,0.25-1.627,0.646-2.348
								c0.396-0.721,0.958-1.369,1.646-1.913c0.688-0.543,1.5-0.983,2.398-1.287s1.88-0.472,2.908-0.472
								c1.025,0,2,0.168,2.885,0.472c0.885,0.304,1.681,0.744,2.347,1.287c0.667,0.544,1.205,1.192,1.573,1.913
								c0.369,0.721,0.567,1.515,0.557,2.348c-0.011,0.833-0.231,1.628-0.621,2.352c-0.39,0.726-0.949,1.38-1.636,1.93
								c-0.688,0.551-1.504,0.998-2.407,1.306C432.583,286.97,431.593,287.141,430.559,287.141 M439.866,255.292h-1.479
								c-0.148,0.69-0.452,1.34-0.88,1.928c-0.429,0.588-0.983,1.113-1.632,1.553c-0.65,0.439-1.396,0.792-2.206,1.035
								s-1.687,0.376-2.597,0.376c-0.05,0-0.1,0-0.149-0.001c-0.049-0.001-0.098-0.002-0.146-0.004s-0.095-0.005-0.142-0.008
								c-0.047-0.004-0.093-0.008-0.139-0.013l-0.073,0.583h-0.096l-0.257,13.155c-1.145,0.075-2.233,0.324-3.222,0.714
								c-0.99,0.391-1.881,0.924-2.632,1.565c-0.752,0.642-1.364,1.393-1.795,2.22c-0.431,0.828-0.68,1.732-0.704,2.678
								c-0.026,0.998,0.201,1.951,0.633,2.819c0.433,0.869,1.071,1.653,1.869,2.313c0.799,0.66,1.756,1.195,2.825,1.565
								c1.07,0.37,2.25,0.575,3.493,0.575c1.239,0,2.424-0.205,3.506-0.575c1.081-0.37,2.059-0.905,2.882-1.565
								c0.823-0.659,1.492-1.443,1.958-2.313c0.466-0.868,0.729-1.821,0.741-2.819c0.011-0.946-0.204-1.85-0.604-2.678
								c-0.4-0.827-0.984-1.578-1.712-2.22c-0.728-0.642-1.599-1.174-2.573-1.565c-0.974-0.391-2.05-0.64-3.19-0.714l0.232-12.578
								c1.031-0.067,2.015-0.277,2.921-0.603c0.905-0.326,1.732-0.769,2.449-1.304c0.716-0.535,1.322-1.162,1.786-1.856
								C439.395,256.859,439.717,256.098,439.866,255.292"/>
							<path style="fill:#FFFFFF;" d="M760.479,201.098l-0.767,0.772c5.653,3.987,10.967,8.319,15.865,12.954
								c4.936,4.669,9.454,9.65,13.477,14.9c4.056,5.294,7.61,10.865,10.579,16.67c2.995,5.858,5.396,11.958,7.113,18.251
								c3.782,13.868,3.894,27.37,0.762,39.903c-3.191,12.775-9.742,24.499-19.154,34.509
								c-9.553,10.158-22.002,18.496-36.754,24.318c-14.877,5.871-31.985,9.142-50.623,9.142c-18.639,0-36.898-3.271-53.842-9.142
								c-16.801-5.822-32.185-14.16-45.313-24.318c-12.935-10.01-23.61-21.733-31.297-34.509
								c-7.542-12.533-12.182-26.036-13.278-39.903l-0.017-0.217h-1.464l0.017,0.217c1.094,14.03,5.773,27.695,13.393,40.382
								c7.768,12.935,18.563,24.808,31.65,34.947c13.284,10.292,28.855,18.74,45.867,24.641c17.156,5.952,35.647,9.268,54.523,9.268
								c18.875,0,36.199-3.315,51.261-9.268c14.935-5.9,27.532-14.349,37.195-24.641c9.519-10.14,16.136-22.013,19.353-34.947
								c3.155-12.687,3.027-26.352-0.815-40.382c-1.747-6.375-4.186-12.553-7.229-18.485c-3.014-5.877-6.621-11.518-10.737-16.877
								c-4.082-5.314-8.666-10.355-13.673-15.08C771.602,209.514,766.213,205.132,760.479,201.098"/>
							<path style="fill:#FFFFFF;" d="M664.644,162.252h-1.34l3.409,19.438c-14.242,0.069-27.487,2.294-39.301,6.28
								c-11.892,4.013-22.402,9.834-31.043,17.085c-8.744,7.338-15.612,16.175-20.054,26.124
								c-4.513,10.11-6.536,21.403-5.454,33.467c0.457,5.102,1.453,10.145,2.945,15.092c1.505,4.985,3.514,9.871,5.984,14.618
								c2.488,4.781,5.444,9.42,8.823,13.875c3.401,4.485,7.229,8.781,11.437,12.846l1.104-0.792
								c-4.15-4.007-7.927-8.241-11.283-12.662c-3.334-4.391-6.252-8.963-8.71-13.677c-2.44-4.68-4.426-9.497-5.914-14.413
								c-1.478-4.879-2.464-9.853-2.921-14.886c-1.081-11.904,0.902-23.051,5.346-33.033c4.374-9.825,11.146-18.554,19.771-25.804
								c8.525-7.166,18.899-12.918,30.641-16.885c11.663-3.941,24.742-6.141,38.809-6.21l12.286,70.041
								c-1.961,0.076-3.771,0.455-5.367,1.08c-1.599,0.626-2.984,1.5-4.093,2.563c-1.109,1.065-1.942,2.323-2.432,3.714
								c-0.49,1.395-0.637,2.926-0.373,4.534l0.018,0.104h1.464l-0.018-0.104c-0.247-1.497-0.103-2.921,0.37-4.213
								c0.473-1.291,1.271-2.451,2.333-3.424c1.061-0.972,2.384-1.757,3.907-2.3c1.521-0.542,3.245-0.842,5.107-0.842
								s3.691,0.3,5.404,0.842c1.714,0.542,3.313,1.328,4.716,2.3c1.404,0.973,2.611,2.133,3.537,3.424
								c0.928,1.292,1.574,2.716,1.854,4.213c0.134,0.719,0.177,1.422,0.136,2.103c-0.042,0.682-0.168,1.341-0.371,1.972
								c-0.204,0.632-0.485,1.235-0.838,1.803c-0.353,0.568-0.775,1.102-1.263,1.593l1.313,0.708
								c0.526-0.542,0.981-1.128,1.359-1.753c0.378-0.624,0.678-1.286,0.895-1.978c0.216-0.691,0.348-1.413,0.389-2.157
								c0.041-0.744-0.009-1.51-0.155-2.292c-0.302-1.608-0.987-3.139-1.969-4.534c-0.979-1.392-2.255-2.649-3.739-3.714
								c-1.483-1.064-3.176-1.938-4.994-2.563c-1.816-0.625-3.761-1.004-5.747-1.08L664.644,162.252"/>
							<polyline style="fill:#FFFFFF;" points="714.826,179.081 713.459,179.081 744.056,321.594 745.584,321.594 714.826,179.081 
															"/>
							<path style="fill:#FFFFFF;" d="M752.3,162.164l-0.584,0.794c11.458,5.147,22.374,11.219,32.52,18.093
								c10.263,6.953,19.765,14.746,28.259,23.253c8.614,8.626,16.21,18.006,22.518,28.008c6.41,10.165,11.502,20.989,14.979,32.333
								h1.464c-3.517-11.434-8.662-22.345-15.136-32.591c-6.37-10.082-14.038-19.537-22.729-28.231
								c-8.57-8.573-18.155-16.427-28.505-23.434C774.854,173.464,763.85,167.347,752.3,162.164"/>
							<path style="fill:#FFFFFF;" d="M245.417,166.672c-16.073,0-31.887,2.414-46.803,6.803
								c-15.026,4.421-29.241,10.875-41.938,18.943c-12.869,8.177-24.248,18.054-33.351,29.205
								c-9.269,11.354-16.214,24.073-19.955,37.694c-1.769,6.442-2.746,12.807-2.972,19.037c-0.229,6.29,0.308,12.437,1.565,18.38
								c1.269,5.998,3.27,11.782,5.957,17.288c2.709,5.552,6.112,10.815,10.157,15.723l1.29-0.965
								c-3.991-4.841-7.349-10.032-10.022-15.506c-2.652-5.431-4.628-11.134-5.883-17.048c-1.244-5.861-1.777-11.924-1.557-18.128
								c0.218-6.145,1.176-12.424,2.914-18.78c3.682-13.463,10.534-26.039,19.688-37.268c8.991-11.03,20.237-20.804,32.959-28.896
								c12.555-7.985,26.613-14.375,41.476-18.752c14.755-4.346,30.399-6.737,46.299-6.737c15.863,0,30.63,2.38,43.826,6.706
								c13.291,4.357,25.075,10.718,34.805,18.67c9.858,8.057,17.66,17.789,22.78,28.774c5.212,11.183,7.667,23.708,6.663,37.122
								h1.457c1.001-13.571-1.496-26.24-6.781-37.547c-5.191-11.106-13.09-20.942-23.067-29.083
								c-9.845-8.034-21.764-14.459-35.204-18.861C276.379,169.075,261.451,166.672,245.417,166.672"/>
							<path style="fill:#FFFFFF;" d="M321.853,208.968l-1.059,0.788c3.087,3.402,5.817,7.042,8.151,10.891
								c2.348,3.873,4.296,7.96,5.803,12.232c1.517,4.302,2.587,8.795,3.167,13.449c0.583,4.688,0.67,9.542,0.214,14.531
								c-1.102,12.055-5.269,23.763-11.932,34.608c-6.774,11.027-16.109,21.131-27.367,29.752
								c-11.403,8.731-24.727,15.901-39.252,20.93c-14.634,5.064-30.394,7.923-46.491,8.013l14.714-83.592h-0.73h-0.731
								l-19.346,109.208h1.585l4.273-24.277c16.328-0.09,32.315-2.991,47.157-8.132c14.731-5.103,28.24-12.379,39.8-21.24
								c11.409-8.747,20.865-18.996,27.723-30.181c6.744-10.999,10.954-22.868,12.057-35.088c0.458-5.07,0.362-10.002-0.241-14.766
								c-0.598-4.728-1.695-9.292-3.248-13.66c-1.542-4.339-3.533-8.488-5.93-12.418C327.786,216.109,325,212.417,321.853,208.968"
								/>
							<polyline style="fill:#FFFFFF;" points="190.634,207.261 189.235,207.261 156.795,357.145 158.364,357.145 190.634,207.261 
															"/>
							<path style="fill:#FFFFFF;" d="M61.745,259.316h-1.458c-3.577,11.605-5.249,23.077-5.131,34.218
								c0.12,11.333,2.09,22.309,5.78,32.71c3.748,10.563,9.262,20.515,16.392,29.619c7.225,9.227,16.09,17.559,26.415,24.752
								l1.153-1.17c-10.226-7.125-19.009-15.375-26.17-24.509c-7.068-9.015-12.54-18.866-16.263-29.326
								c-3.667-10.3-5.631-21.169-5.763-32.394C56.571,282.181,58.213,270.816,61.745,259.316"/>
							<polyline style="fill:#FFFFFF;" points="489.842,453.002 465.453,453.002 465.464,454.538 489.877,454.538 489.842,453.002 
															"/>
							<polyline style="fill:#FFFFFF;" points="392.832,342.304 391.279,342.304 390.061,368.234 363.691,368.234 362.9,380.226 
								389.497,380.226 386.076,453.002 303.544,453.002 303.386,454.538 386.004,454.538 385.33,468.869 387.026,468.869 
								387.684,454.538 442.85,454.538 442.511,494.232 465.732,494.232 465.722,492.622 444.248,492.622 444.808,416.852 
								465.208,416.852 465.213,417.675 466.852,417.675 466.833,415.393 443.183,415.393 442.862,453.002 387.754,453.002 
								391.092,380.226 392.21,380.226 392.272,378.84 364.586,378.84 365.185,369.6 403.753,369.6 403.804,368.234 
								391.642,368.234 392.832,342.304 							"/>
							<polyline style="fill:#FFFFFF;" points="520.053,369.918 518.469,369.918 519.677,396.596 492.77,396.596 493.098,409.074 
								520.241,409.074 523.533,481.807 525.244,481.807 521.869,409.074 523.146,409.074 523.078,407.64 494.678,407.64 
								494.413,398.009 533.807,398.009 533.729,396.596 521.291,396.596 520.053,369.918 							"/>
							<path style="fill:#FFFFFF;" d="M219.859,250.375c-0.737,0.528-1.423,1.104-2.045,1.72c-0.624,0.616-1.184,1.273-1.671,1.963
								c-0.488,0.69-0.902,1.414-1.231,2.164c-0.33,0.751-0.575,1.528-0.726,2.324c-0.31,1.645-0.183,3.216,0.311,4.649
								c0.495,1.437,1.36,2.733,2.525,3.825c1.167,1.093,2.634,1.98,4.333,2.594c1.7,0.614,3.629,0.954,5.716,0.954
								c2.087,0,4.136-0.34,6.052-0.954c1.914-0.614,3.693-1.5,5.246-2.594c1.549-1.092,2.871-2.389,3.873-3.825
								c0.999-1.433,1.68-3.004,1.951-4.649l0.023-0.194h-1.448l-0.023,0.194c-0.247,1.486-0.863,2.905-1.768,4.199
								c-0.906,1.296-2.101,2.466-3.5,3.45c-1.402,0.985-3.009,1.784-4.736,2.336c-1.729,0.553-3.578,0.859-5.46,0.859
								s-3.624-0.306-5.157-0.859c-1.532-0.553-2.857-1.351-3.911-2.336c-1.052-0.984-1.833-2.154-2.282-3.45
								c-0.447-1.294-0.563-2.713-0.285-4.199c0.134-0.717,0.354-1.417,0.65-2.094c0.296-0.676,0.668-1.33,1.107-1.954
								c0.439-0.623,0.945-1.217,1.508-1.774c0.563-0.557,1.184-1.078,1.854-1.555L219.859,250.375"/>
						</g>
					</g>
				</g>
			</g>
		</g>
	</g>
</g>
</svg>
