<?xml version="1.0" encoding="iso-8859-1"?>
<!-- Generator: Adobe Illustrator 16.0.0, SVG Export Plug-In . SVG Version: 6.00 Build 0)  -->
<!DOCTYPE svg PUBLIC "-//W3C//DTD SVG 1.1//EN" "http://www.w3.org/Graphics/SVG/1.1/DTD/svg11.dtd">
<svg version="1.1" id="Layer_2" xmlns="http://www.w3.org/2000/svg" xmlns:xlink="http://www.w3.org/1999/xlink" x="0px" y="0px"
	 width="910.886px" height="597.925px" viewBox="0 0 910.886 597.925" style="enable-background:new 0 0 910.886 597.925;"
	 xml:space="preserve">
<g id="Layer_3">
</g>
<g>
	<g>
		<g style="enable-background:new    ;">
			<defs>
				<polygon id="SVGID_1_" style="enable-background:new    ;" points="-103.585,599.557 71.197,92.353 839.69,92.353 
					1014.473,599.557 				"/>
			</defs>
			<clipPath id="SVGID_2_">
				<use xlink:href="#SVGID_1_"  style="overflow:visible;"/>
			</clipPath>
			<g style="clip-path:url(#SVGID_2_);">
				<g>
					<g>
						<g>
							<path style="fill:#FFFFFF;" d="M430.559,287.142c-1.037,0-2.022-0.171-2.915-0.48c-0.892-0.309-1.692-0.755-2.359-1.306
								c-0.667-0.55-1.201-1.205-1.563-1.93c-0.362-0.725-0.552-1.52-0.532-2.352c0.021-0.833,0.25-1.627,0.646-2.348
								c0.396-0.721,0.958-1.369,1.646-1.913c0.688-0.544,1.5-0.983,2.399-1.287c0.897-0.304,1.88-0.472,2.907-0.472
								c1.025,0,2,0.168,2.885,0.472c0.885,0.304,1.681,0.743,2.347,1.287c0.667,0.544,1.205,1.192,1.573,1.913
								c0.369,0.721,0.568,1.515,0.557,2.348c-0.011,0.833-0.231,1.627-0.621,2.352c-0.39,0.726-0.949,1.38-1.636,1.93
								c-0.688,0.551-1.504,0.998-2.407,1.306C432.583,286.971,431.593,287.142,430.559,287.142 M438.759,250.821l-1.24,0.609
								c0.162,0.213,0.306,0.435,0.429,0.665c0.124,0.23,0.228,0.469,0.312,0.714c0.083,0.246,0.146,0.498,0.188,0.756
								c0.042,0.258,0.061,0.522,0.057,0.791c-0.011,0.801-0.227,1.564-0.608,2.261c-0.381,0.697-0.929,1.325-1.602,1.854
								s-1.472,0.957-2.356,1.253s-1.854,0.46-2.867,0.46c-0.05,0-0.1,0-0.149-0.001c-0.049-0.001-0.098-0.002-0.146-0.004
								c-0.048-0.002-0.095-0.005-0.142-0.008c-0.047-0.004-0.093-0.008-0.139-0.013l-0.073,0.583h-0.096l-0.257,13.155
								c-1.145,0.075-2.232,0.324-3.222,0.714c-0.989,0.391-1.88,0.924-2.632,1.565c-0.752,0.642-1.365,1.393-1.795,2.22
								c-0.431,0.828-0.68,1.732-0.704,2.678c-0.026,0.998,0.201,1.951,0.633,2.819c0.433,0.869,1.071,1.653,1.869,2.313
								c0.799,0.66,1.756,1.195,2.825,1.565c1.069,0.371,2.25,0.575,3.493,0.575c1.239,0,2.424-0.205,3.506-0.575
								c1.081-0.37,2.059-0.905,2.882-1.565c0.822-0.659,1.492-1.443,1.958-2.313c0.466-0.868,0.729-1.821,0.741-2.819
								c0.011-0.946-0.204-1.85-0.604-2.678c-0.4-0.827-0.984-1.578-1.712-2.22c-0.728-0.642-1.599-1.174-2.573-1.565
								c-0.974-0.391-2.05-0.64-3.19-0.714l0.232-12.578c1.131-0.073,2.206-0.316,3.182-0.699c0.975-0.382,1.852-0.901,2.588-1.526
								c0.735-0.625,1.331-1.353,1.745-2.154c0.413-0.8,0.646-1.671,0.657-2.583c0.004-0.322-0.021-0.639-0.071-0.95
								s-0.128-0.616-0.229-0.913c-0.102-0.296-0.228-0.585-0.376-0.865C439.122,251.35,438.95,251.08,438.759,250.821"/>
							<path style="fill:#FFFFFF;" d="M478.572,234.315c-0.995,0-1.945-0.157-2.813-0.442c-0.866-0.285-1.648-0.696-2.308-1.204
								c-0.658-0.508-1.193-1.111-1.565-1.78c-0.373-0.668-0.583-1.402-0.593-2.171c-0.01-0.766,0.182-1.496,0.535-2.16
								c0.354-0.663,0.87-1.259,1.511-1.761c0.64-0.5,1.403-0.906,2.254-1.186s1.787-0.435,2.773-0.435
								c0.984,0,1.926,0.155,2.786,0.435s1.64,0.685,2.298,1.186c0.66,0.501,1.198,1.098,1.577,1.761
								c0.379,0.664,0.598,1.394,0.616,2.16c0.019,0.769-0.165,1.502-0.514,2.171c-0.349,0.669-0.862,1.272-1.503,1.78
								s-1.407,0.919-2.263,1.204C480.509,234.158,479.565,234.315,478.572,234.315 M478.348,222.085
								c-1.181,0-2.303,0.186-3.32,0.52c-1.019,0.335-1.934,0.82-2.701,1.419c-0.767,0.6-1.386,1.314-1.811,2.108
								c-0.425,0.795-0.655,1.669-0.645,2.587c0.01,0.875,0.237,1.712,0.642,2.48c0.405,0.769,0.987,1.469,1.708,2.068
								c0.721,0.6,1.579,1.099,2.535,1.465c0.956,0.367,2.008,0.601,3.117,0.671l0.215,12.072c-1.117,0.072-2.172,0.311-3.126,0.686
								c-0.955,0.375-1.809,0.886-2.522,1.501c-0.714,0.616-1.287,1.335-1.68,2.128c-0.393,0.793-0.604,1.659-0.594,2.565
								c0.004,0.306,0.032,0.608,0.083,0.904c0.052,0.296,0.127,0.586,0.225,0.869c0.097,0.283,0.218,0.559,0.359,0.826
								c0.142,0.268,0.305,0.526,0.488,0.775l1.187-0.643c-0.14-0.204-0.265-0.415-0.373-0.633c-0.109-0.217-0.201-0.441-0.277-0.67
								c-0.075-0.229-0.133-0.463-0.174-0.702c-0.04-0.238-0.062-0.481-0.065-0.727c-0.01-0.798,0.186-1.558,0.547-2.249
								c0.36-0.69,0.887-1.312,1.54-1.833c0.652-0.521,1.433-0.943,2.3-1.235c0.868-0.291,1.823-0.452,2.83-0.452
								c0.061,0,0.121,0,0.182,0.001s0.121,0.003,0.181,0.005c0.061,0.002,0.12,0.006,0.18,0.011c0.06,0.004,0.118,0.01,0.177,0.017
								l-0.011-0.58l-0.011-0.565l-0.229-12.072c1.107-0.07,2.153-0.304,3.097-0.671c0.943-0.366,1.784-0.865,2.483-1.465
								c0.699-0.599,1.256-1.299,1.633-2.068c0.377-0.768,0.573-1.605,0.551-2.48c-0.022-0.918-0.286-1.792-0.741-2.587
								c-0.454-0.794-1.1-1.508-1.891-2.108c-0.789-0.599-1.723-1.084-2.753-1.419C480.652,222.271,479.525,222.085,478.348,222.085
								"/>
							<path style="fill:#FFFFFF;" d="M728.951,183.887l-0.58,0.854c9.365,3.849,18.277,8.515,26.533,13.878
								c8.328,5.411,16.006,11.544,22.815,18.28c6.884,6.809,12.893,14.246,17.791,22.184c4.961,8.04,8.79,16.605,11.235,25.564
								c3.781,13.867,3.893,27.37,0.761,39.903c-3.192,12.774-9.742,24.499-19.154,34.508
								c-9.553,10.159-22.001,18.496-36.754,24.318c-14.877,5.872-31.985,9.143-50.623,9.143c-18.639,0-36.897-3.271-53.841-9.143
								c-16.802-5.822-32.185-14.159-45.313-24.318c-12.935-10.009-23.61-21.733-31.297-34.508
								c-7.542-12.533-12.182-26.036-13.278-39.903l-0.017-0.217h-1.464l0.017,0.217c1.094,14.03,5.773,27.694,13.393,40.382
								c7.768,12.934,18.563,24.808,31.65,34.946c13.284,10.292,28.855,18.74,45.866,24.642c17.157,5.951,35.647,9.267,54.523,9.267
								c18.875,0,36.199-3.315,51.261-9.267c14.935-5.901,27.533-14.35,37.195-24.642c9.519-10.139,16.137-22.013,19.353-34.946
								c3.155-12.688,3.027-26.352-0.815-40.382c-2.481-9.057-6.36-17.716-11.382-25.842c-4.958-8.023-11.036-15.539-17.997-22.419
								c-6.885-6.806-14.646-13.003-23.064-18.472C747.422,192.493,738.416,187.778,728.951,183.887"/>
							<path style="fill:#FFFFFF;" d="M663.469,155.606h-1.332l4.576,26.084c-14.243,0.069-27.487,2.293-39.301,6.28
								c-11.892,4.013-22.403,9.834-31.043,17.085c-8.744,7.338-15.612,16.175-20.054,26.124
								c-4.514,10.11-6.536,21.403-5.454,33.467c0.582,6.494,2.035,12.891,4.275,19.116c2.262,6.285,5.324,12.388,9.098,18.231
								c3.808,5.894,8.336,11.517,13.489,16.782c5.194,5.308,11.018,10.247,17.37,14.73l0.748-1.086
								c-6.244-4.419-11.969-9.283-17.074-14.507c-5.066-5.185-9.519-10.717-13.264-16.517c-3.713-5.749-6.727-11.754-8.955-17.938
								c-2.207-6.125-3.643-12.421-4.223-18.813c-1.081-11.904,0.902-23.051,5.346-33.033c4.373-9.825,11.146-18.554,19.771-25.804
								c8.524-7.166,18.899-12.919,30.64-16.886c11.664-3.94,24.743-6.141,38.81-6.21l12.286,70.041
								c-1.961,0.076-3.771,0.455-5.368,1.08c-1.598,0.626-2.983,1.5-4.092,2.563c-1.11,1.065-1.942,2.323-2.433,3.714
								c-0.49,1.395-0.637,2.926-0.372,4.534l0.017,0.104h1.464l-0.018-0.104c-0.247-1.497-0.102-2.921,0.371-4.213
								c0.472-1.291,1.271-2.451,2.332-3.424c1.061-0.972,2.384-1.757,3.907-2.3c1.522-0.542,3.245-0.842,5.108-0.842
								c1.862,0,3.69,0.3,5.403,0.842c1.714,0.542,3.313,1.328,4.716,2.3c1.404,0.973,2.611,2.133,3.538,3.424
								c0.928,1.292,1.573,2.716,1.853,4.213c0.184,0.983,0.196,1.938,0.057,2.847c-0.141,0.91-0.434,1.774-0.862,2.576
								c-0.43,0.802-0.995,1.542-1.679,2.2c-0.684,0.659-1.484,1.238-2.387,1.718l1.208,0.859c0.959-0.54,1.81-1.182,2.533-1.909
								c0.724-0.726,1.319-1.535,1.771-2.411c0.45-0.874,0.756-1.814,0.899-2.801c0.143-0.985,0.124-2.019-0.076-3.081
								c-0.302-1.608-0.987-3.139-1.968-4.534c-0.98-1.392-2.255-2.649-3.74-3.714c-1.482-1.064-3.175-1.938-4.994-2.563
								c-1.816-0.625-3.76-1.004-5.747-1.08L663.469,155.606"/>
							<polyline style="fill:#FFFFFF;" points="714.825,179.083 713.459,179.083 746.787,334.321 748.33,334.321 714.825,179.083 
															"/>
							<path style="fill:#FFFFFF;" d="M741.681,157.708l-0.47,0.847c12.635,4.918,24.713,10.941,35.956,17.914
								c11.376,7.055,21.935,15.105,31.371,23.996c9.576,9.022,18.022,18.933,25.006,29.57
								c7.104,10.821,12.708,22.417,16.445,34.611h1.464c-3.781-12.293-9.446-23.984-16.622-34.894
								c-7.054-10.723-15.581-20.714-25.245-29.808c-9.523-8.961-20.175-17.075-31.649-24.185
								C766.598,168.733,754.419,162.665,741.681,157.708"/>
							<path style="fill:#FFFFFF;" d="M245.417,166.673c-16.073,0-31.887,2.414-46.803,6.803
								c-15.026,4.421-29.241,10.875-41.938,18.943c-12.869,8.176-24.248,18.054-33.351,29.205
								c-9.269,11.354-16.213,24.073-19.954,37.694c-2.503,9.117-3.419,18.079-2.867,26.718c0.559,8.754,2.625,17.166,6.068,25.053
								c3.484,7.98,8.371,15.41,14.516,22.096c6.206,6.753,13.68,12.731,22.258,17.738l1.087-1.123
								c-8.479-4.941-15.87-10.842-22.01-17.508c-6.08-6.601-10.919-13.936-14.372-21.817c-3.413-7.789-5.467-16.098-6.032-24.748
								c-0.557-8.537,0.337-17.395,2.802-26.408c3.682-13.463,10.535-26.039,19.688-37.268c8.992-11.03,20.238-20.803,32.96-28.896
								c12.555-7.985,26.613-14.375,41.476-18.752c14.754-4.345,30.398-6.736,46.298-6.736c15.863,0,30.63,2.38,43.826,6.706
								c13.292,4.357,25.075,10.718,34.805,18.67c9.858,8.057,17.66,17.789,22.78,28.774c5.212,11.183,7.667,23.708,6.663,37.122
								h1.458c1.001-13.571-1.496-26.24-6.781-37.547c-5.19-11.106-13.09-20.942-23.066-29.083
								c-9.845-8.034-21.764-14.459-35.204-18.861C276.38,169.076,261.451,166.673,245.417,166.673"/>
							<path style="fill:#FFFFFF;" d="M310.734,198.891l-0.878,0.882c4.785,3.62,9.067,7.66,12.768,12.064
								c3.728,4.436,6.871,9.246,9.347,14.373c2.497,5.169,4.317,10.666,5.375,16.43c1.067,5.817,1.358,11.911,0.782,18.219
								c-1.102,12.055-5.269,23.763-11.932,34.608c-6.775,11.027-16.109,21.131-27.367,29.751
								c-11.404,8.732-24.727,15.902-39.252,20.93c-14.634,5.064-30.394,7.924-46.49,8.014l14.679-83.395h-1.461l-20.947,118.243
								h1.595l5.898-33.511c16.329-0.09,32.315-2.991,47.157-8.133c14.731-5.103,28.24-12.379,39.8-21.24
								c11.409-8.746,20.865-18.995,27.723-30.18c6.743-10.998,10.954-22.868,12.057-35.087c0.578-6.408,0.272-12.597-0.823-18.503
								c-1.085-5.851-2.948-11.429-5.497-16.673c-2.527-5.201-5.733-10.078-9.532-14.573
								C319.965,206.647,315.605,202.555,310.734,198.891"/>
							<polyline style="fill:#FFFFFF;" points="192.868,196.885 191.481,196.885 156.796,357.145 158.365,357.145 192.868,196.885 
															"/>
							<path style="fill:#FFFFFF;" d="M61.746,259.317h-1.458c-3.832,12.432-5.477,24.71-5.079,36.592
								c0.405,12.1,2.929,23.769,7.407,34.739c4.553,11.151,11.114,21.554,19.495,30.92c8.495,9.494,18.832,17.891,30.782,24.89
								l1.066-1.23c-11.836-6.929-22.076-15.24-30.496-24.638c-8.307-9.271-14.815-19.569-19.335-30.61
								c-4.447-10.863-6.959-22.42-7.375-34.405C56.346,283.804,57.962,271.638,61.746,259.317"/>
							<polyline style="fill:#FFFFFF;" points="503.98,453.002 465.453,453.002 465.463,454.538 504.031,454.538 503.98,453.002 
															"/>
							<polyline style="fill:#FFFFFF;" points="392.832,342.304 391.28,342.304 390.061,368.234 363.691,368.234 362.9,380.226 
								389.497,380.226 386.076,453.002 303.544,453.002 303.386,454.538 386.004,454.538 384.827,479.575 386.535,479.575 
								387.684,454.538 442.85,454.538 442.511,494.232 465.732,494.232 465.722,492.622 444.248,492.622 444.808,416.852 
								465.208,416.852 465.273,426.484 466.921,426.484 466.833,415.393 443.183,415.393 442.862,453.002 387.754,453.002 
								391.092,380.226 397.656,380.226 397.713,378.84 364.586,378.84 365.185,369.6 403.753,369.6 403.804,368.234 
								391.643,368.234 392.832,342.304 							"/>
							<polyline style="fill:#FFFFFF;" points="519.675,361.781 518.101,361.781 519.676,396.597 492.77,396.597 493.098,409.075 
								520.241,409.075 523.533,481.807 525.243,481.807 521.869,409.075 529.348,409.075 529.273,407.64 494.677,407.64 
								494.413,398.009 533.807,398.009 533.729,396.597 521.29,396.597 519.675,361.781 							"/>
							<path style="fill:#FFFFFF;" d="M223.266,248.437c-1.168,0.515-2.268,1.135-3.273,1.842c-1.006,0.708-1.919,1.504-2.711,2.369
								c-0.793,0.866-1.465,1.803-1.99,2.791c-0.525,0.99-0.903,2.032-1.105,3.108c-0.31,1.645-0.184,3.216,0.311,4.649
								c0.495,1.437,1.359,2.733,2.524,3.825c1.167,1.093,2.634,1.98,4.333,2.594c1.7,0.614,3.629,0.954,5.716,0.954
								c2.087,0,4.136-0.34,6.051-0.954c1.914-0.614,3.694-1.5,5.246-2.594c1.549-1.092,2.871-2.389,3.873-3.825
								c0.999-1.433,1.68-3.004,1.951-4.649l0.023-0.194h-1.448l-0.023,0.194c-0.247,1.486-0.863,2.905-1.768,4.199
								c-0.906,1.296-2.101,2.466-3.5,3.45c-1.402,0.985-3.009,1.784-4.736,2.336c-1.729,0.553-3.577,0.859-5.46,0.859
								c-1.883,0-3.624-0.306-5.158-0.859c-1.532-0.553-2.857-1.351-3.911-2.336c-1.053-0.984-1.834-2.154-2.282-3.45
								c-0.447-1.294-0.563-2.713-0.284-4.199c0.183-0.978,0.526-1.925,1.005-2.824c0.479-0.898,1.092-1.749,1.816-2.535
								c0.723-0.786,1.557-1.507,2.478-2.147c0.919-0.64,1.925-1.2,2.993-1.663L223.266,248.437"/>
						</g>
					</g>
				</g>
			</g>
		</g>
	</g>
</g>
</svg>
