<?xml version="1.0" encoding="iso-8859-1"?>
<!-- Generator: Adobe Illustrator 16.0.0, SVG Export Plug-In . SVG Version: 6.00 Build 0)  -->
<!DOCTYPE svg PUBLIC "-//W3C//DTD SVG 1.1//EN" "http://www.w3.org/Graphics/SVG/1.1/DTD/svg11.dtd">
<svg version="1.1" id="Layer_2" xmlns="http://www.w3.org/2000/svg" xmlns:xlink="http://www.w3.org/1999/xlink" x="0px" y="0px"
	 width="910.886px" height="597.925px" viewBox="0 0 910.886 597.925" style="enable-background:new 0 0 910.886 597.925;"
	 xml:space="preserve">
<g id="Layer_3">
</g>
<g>
	<g>
		<g style="enable-background:new    ;">
			<defs>
				<polygon id="SVGID_1_" style="enable-background:new    ;" points="-104.406,600.169 70.88,92.057 840.008,92.057 
					1015.293,600.169 				"/>
			</defs>
			<clipPath id="SVGID_2_">
				<use xlink:href="#SVGID_1_"  style="overflow:visible;"/>
			</clipPath>
			<g style="clip-path:url(#SVGID_2_);">
				<g>
					<g>
						<g>
							<path style="fill:#FFFFFF;" d="M430.559,287.141c-1.037,0-2.022-0.171-2.915-0.48c-0.892-0.309-1.692-0.755-2.359-1.306
								c-0.667-0.55-1.201-1.205-1.563-1.93c-0.362-0.724-0.552-1.52-0.532-2.352c0.021-0.833,0.25-1.627,0.646-2.348
								c0.396-0.721,0.958-1.369,1.646-1.913c0.688-0.543,1.5-0.983,2.398-1.287s1.88-0.472,2.908-0.472
								c1.025,0,2,0.168,2.885,0.472c0.885,0.304,1.681,0.744,2.347,1.287c0.667,0.544,1.205,1.192,1.573,1.913
								c0.369,0.721,0.567,1.515,0.557,2.348c-0.011,0.833-0.231,1.628-0.621,2.352c-0.39,0.726-0.949,1.38-1.636,1.93
								c-0.688,0.551-1.504,0.998-2.407,1.306C432.583,286.97,431.593,287.141,430.559,287.141 M434.255,247.863l-0.623,1.036
								c0.715,0.191,1.379,0.469,1.972,0.817c0.594,0.349,1.116,0.768,1.548,1.243c0.433,0.475,0.774,1.006,1.006,1.577
								c0.232,0.572,0.354,1.183,0.345,1.82c-0.011,0.8-0.227,1.564-0.608,2.261c-0.381,0.697-0.929,1.325-1.602,1.854
								c-0.673,0.529-1.472,0.958-2.356,1.254s-1.854,0.46-2.867,0.46c-0.05,0-0.1,0-0.149-0.001
								c-0.049-0.001-0.098-0.002-0.146-0.004s-0.095-0.005-0.142-0.008c-0.047-0.004-0.093-0.008-0.139-0.013l-0.073,0.583h-0.096
								l-0.257,13.155c-1.145,0.075-2.233,0.324-3.222,0.714c-0.99,0.391-1.881,0.924-2.632,1.565
								c-0.752,0.642-1.364,1.393-1.795,2.22c-0.431,0.828-0.68,1.732-0.704,2.678c-0.026,0.998,0.201,1.951,0.633,2.819
								c0.433,0.869,1.071,1.653,1.869,2.313c0.799,0.66,1.756,1.195,2.825,1.565c1.07,0.37,2.25,0.575,3.493,0.575
								c1.239,0,2.424-0.205,3.506-0.575c1.081-0.37,2.059-0.905,2.882-1.565c0.823-0.659,1.492-1.443,1.958-2.313
								c0.466-0.868,0.729-1.821,0.741-2.819c0.011-0.946-0.204-1.85-0.604-2.678c-0.4-0.827-0.984-1.578-1.712-2.22
								c-0.728-0.642-1.599-1.174-2.573-1.565c-0.974-0.391-2.05-0.64-3.19-0.714l0.232-12.578c1.131-0.073,2.206-0.317,3.182-0.699
								c0.975-0.382,1.852-0.902,2.588-1.526c0.735-0.625,1.331-1.353,1.745-2.154c0.413-0.8,0.646-1.672,0.657-2.583
								c0.009-0.748-0.133-1.469-0.404-2.144c-0.271-0.674-0.669-1.303-1.174-1.868c-0.504-0.564-1.114-1.065-1.808-1.485
								C435.869,248.44,435.093,248.102,434.255,247.863"/>
							<path style="fill:#FFFFFF;" d="M478.572,234.314c-0.995,0-1.945-0.158-2.813-0.442c-0.866-0.284-1.648-0.696-2.308-1.204
								c-0.658-0.507-1.193-1.111-1.565-1.78c-0.373-0.668-0.583-1.402-0.593-2.171c-0.01-0.766,0.182-1.496,0.536-2.16
								c0.354-0.663,0.869-1.26,1.51-1.761c0.64-0.5,1.403-0.906,2.254-1.186c0.851-0.279,1.787-0.435,2.773-0.435
								c0.984,0,1.926,0.155,2.786,0.435c0.86,0.28,1.64,0.686,2.298,1.186c0.66,0.501,1.198,1.098,1.577,1.761
								c0.379,0.664,0.598,1.394,0.616,2.16c0.019,0.769-0.165,1.502-0.514,2.171c-0.349,0.669-0.862,1.272-1.502,1.78
								c-0.642,0.508-1.408,0.919-2.264,1.204C480.509,234.157,479.565,234.314,478.572,234.314 M478.348,222.084
								c-1.181,0-2.303,0.185-3.32,0.52c-1.019,0.335-1.934,0.82-2.701,1.418c-0.767,0.6-1.386,1.314-1.811,2.108
								c-0.425,0.794-0.655,1.669-0.645,2.587c0.01,0.875,0.237,1.712,0.642,2.48c0.405,0.769,0.988,1.469,1.708,2.068
								c0.721,0.6,1.579,1.099,2.535,1.465s2.009,0.601,3.117,0.671l0.215,12.073c-1.117,0.071-2.172,0.311-3.126,0.686
								c-0.955,0.375-1.809,0.886-2.522,1.501s-1.287,1.335-1.68,2.128c-0.393,0.793-0.604,1.659-0.594,2.565
								c0.009,0.735,0.161,1.445,0.437,2.112c0.276,0.667,0.675,1.292,1.176,1.858c0.502,0.565,1.105,1.071,1.79,1.499
								c0.685,0.428,1.451,0.779,2.276,1.034l0.69-1.028c-0.711-0.203-1.371-0.49-1.964-0.846c-0.592-0.355-1.114-0.78-1.55-1.257
								c-0.435-0.477-0.781-1.007-1.021-1.574c-0.24-0.567-0.373-1.171-0.381-1.798c-0.011-0.798,0.185-1.558,0.546-2.249
								c0.36-0.69,0.887-1.312,1.54-1.833c0.652-0.521,1.433-0.943,2.3-1.235c0.868-0.291,1.823-0.452,2.83-0.452
								c0.061,0,0.121,0,0.182,0.001c0.061,0.001,0.121,0.002,0.181,0.005c0.061,0.002,0.12,0.006,0.18,0.011
								c0.06,0.004,0.118,0.01,0.177,0.017l-0.011-0.58l-0.011-0.565l-0.229-12.073c1.107-0.07,2.153-0.304,3.097-0.671
								s1.784-0.866,2.483-1.465s1.256-1.299,1.633-2.068c0.377-0.768,0.573-1.605,0.551-2.48c-0.022-0.918-0.286-1.792-0.741-2.587
								c-0.454-0.794-1.1-1.508-1.89-2.108c-0.79-0.599-1.724-1.083-2.754-1.418C480.653,222.269,479.525,222.084,478.348,222.084"
								/>
							<path style="fill:#FFFFFF;" d="M699.365,174.774l-0.106,1c1.209,0.253,2.412,0.52,3.611,0.8
								c1.199,0.281,2.394,0.574,3.583,0.881c1.19,0.307,2.376,0.626,3.557,0.958c1.181,0.333,2.356,0.677,3.528,1.034
								l35.68,166.191h1.556l-35.771-165.739c10.873,3.42,21.284,7.917,30.959,13.325c9.761,5.457,18.802,11.857,26.823,19.033
								c8.116,7.261,15.209,15.335,20.955,24.047c5.826,8.835,10.279,18.344,13.007,28.341c3.782,13.868,3.894,27.37,0.762,39.903
								c-3.191,12.775-9.742,24.499-19.154,34.509c-9.553,10.158-22.002,18.496-36.754,24.318
								c-14.877,5.871-31.985,9.142-50.623,9.142c-18.639,0-36.898-3.271-53.842-9.142c-16.801-5.822-32.185-14.16-45.313-24.318
								c-12.935-10.01-23.61-21.733-31.297-34.509c-7.542-12.533-12.182-26.036-13.278-39.903l-0.017-0.217h-1.464l0.017,0.217
								c1.094,14.03,5.773,27.695,13.393,40.382c7.768,12.935,18.563,24.808,31.65,34.947c13.284,10.292,28.855,18.74,45.867,24.641
								c17.156,5.952,35.647,9.268,54.523,9.268c18.875,0,36.199-3.315,51.261-9.268c14.935-5.9,27.532-14.349,37.195-24.641
								c9.519-10.14,16.136-22.013,19.353-34.947c3.155-12.687,3.027-26.352-0.815-40.382c-3.099-11.312-8.38-22.004-15.346-31.816
								c-6.858-9.661-15.368-18.493-25.074-26.25c-9.586-7.661-20.371-14.3-31.942-19.682
								C724.379,181.563,712.092,177.443,699.365,174.774"/>
							<path style="fill:#FFFFFF;" d="M662.469,149.937h-1.325l5.569,31.753c-14.242,0.069-27.487,2.294-39.301,6.28
								c-11.892,4.013-22.402,9.834-31.043,17.085c-8.744,7.338-15.612,16.175-20.054,26.124
								c-4.513,10.11-6.536,21.403-5.454,33.467c0.691,7.71,2.61,15.284,5.616,22.592c3.039,7.391,7.187,14.503,12.291,21.201
								c5.156,6.766,11.281,13.098,18.212,18.854c6.99,5.805,14.788,11.012,23.216,15.475l0.665-1.124
								c-8.308-4.399-15.994-9.531-22.885-15.25c-6.834-5.672-12.874-11.911-17.96-18.578c-5.035-6.601-9.129-13.61-12.131-20.895
								c-2.97-7.205-4.87-14.672-5.56-22.274c-1.081-11.904,0.902-23.051,5.346-33.033c4.374-9.825,11.146-18.554,19.771-25.804
								c8.525-7.166,18.899-12.918,30.641-16.885c11.663-3.941,24.742-6.141,38.809-6.21l12.286,70.041
								c-1.961,0.076-3.771,0.455-5.367,1.08c-1.599,0.626-2.984,1.5-4.093,2.563c-1.109,1.065-1.942,2.323-2.432,3.714
								c-0.49,1.395-0.637,2.926-0.373,4.534l0.018,0.104h1.464l-0.018-0.104c-0.247-1.497-0.103-2.921,0.37-4.213
								c0.473-1.291,1.271-2.451,2.333-3.424c1.061-0.972,2.384-1.757,3.907-2.3c1.521-0.542,3.245-0.842,5.107-0.842
								s3.691,0.3,5.404,0.842c1.714,0.542,3.313,1.328,4.716,2.3c1.404,0.973,2.611,2.133,3.537,3.424
								c0.928,1.292,1.574,2.716,1.854,4.213c0.235,1.264,0.19,2.48-0.099,3.614c-0.29,1.136-0.825,2.188-1.567,3.119
								c-0.743,0.933-1.695,1.746-2.816,2.401c-1.122,0.656-2.414,1.154-3.838,1.458l1.06,1.031c1.506-0.37,2.869-0.941,4.051-1.675
								c1.182-0.733,2.181-1.629,2.959-2.65c0.777-1.019,1.335-2.163,1.633-3.393c0.298-1.228,0.338-2.542,0.082-3.906
								c-0.302-1.608-0.987-3.139-1.969-4.534c-0.979-1.392-2.255-2.649-3.739-3.714c-1.483-1.064-3.176-1.938-4.994-2.563
								c-1.816-0.625-3.761-1.004-5.747-1.08L662.469,149.937"/>
							<path style="fill:#FFFFFF;" d="M731.491,154.013l-0.405,0.872c13.754,4.611,26.944,10.512,39.244,17.517
								c12.445,7.088,24.023,15.333,34.373,24.549c10.509,9.356,19.783,19.743,27.423,30.961
								c7.778,11.424,13.882,23.739,17.864,36.734h1.464c-4.029-13.099-10.197-25.515-18.054-37.032
								c-7.715-11.308-17.076-21.777-27.68-31.209c-10.442-9.288-22.12-17.598-34.67-24.741
								C758.65,164.604,745.354,158.659,731.491,154.013"/>
							<path style="fill:#FFFFFF;" d="M299.196,191.521l-0.788,0.916c6.494,3.511,12.359,7.663,17.469,12.362
								c5.149,4.736,9.542,10.036,13.044,15.805c3.534,5.824,6.166,12.134,7.752,18.833c1.603,6.771,2.139,13.946,1.456,21.422
								c-1.102,12.055-5.269,23.763-11.932,34.608c-6.774,11.027-16.109,21.131-27.367,29.752
								c-11.403,8.731-24.727,15.901-39.252,20.93c-14.634,5.064-30.394,7.923-46.491,8.013l14.679-83.395h-1.461l-22.425,126.586
								h1.605l7.367-41.854c16.328-0.09,32.315-2.991,47.157-8.132c14.731-5.103,28.24-12.379,39.8-21.24
								c11.409-8.747,20.865-18.996,27.723-30.181c6.744-10.999,10.954-22.868,12.057-35.088c0.685-7.586,0.131-14.864-1.505-21.729
								c-1.619-6.792-4.298-13.188-7.894-19.088c-3.561-5.845-8.026-11.212-13.256-16.007
								C311.742,199.276,305.788,195.074,299.196,191.521"/>
							<path style="fill:#FFFFFF;" d="M245.417,166.672c-16.073,0-31.887,2.414-46.803,6.803
								c-15.026,4.421-29.241,10.875-41.938,18.943c-12.869,8.177-24.248,18.054-33.351,29.205
								c-9.269,11.354-16.214,24.073-19.955,37.694c-3.133,11.411-3.78,22.579-2.174,33.17c1.632,10.765,5.586,20.911,11.598,30.076
								c6.094,9.292,14.284,17.546,24.263,24.38c10.08,6.902,21.94,12.325,35.228,15.883l0.77-1.279
								c-1.271-0.34-2.529-0.696-3.773-1.071c-1.244-0.373-2.475-0.765-3.691-1.172c-1.216-0.408-2.417-0.832-3.605-1.272
								c-1.187-0.439-2.359-0.896-3.516-1.368l36.301-168.609h-1.377l-36.364,168.015c-10.582-4.469-19.909-10.262-27.746-17.107
								c-7.759-6.777-14.032-14.566-18.612-23.1c-4.522-8.427-7.383-17.56-8.398-27.147c-1-9.45-0.207-19.327,2.547-29.397
								c3.682-13.463,10.534-26.039,19.688-37.268c8.991-11.03,20.237-20.804,32.959-28.896
								c12.555-7.985,26.613-14.375,41.476-18.752c14.755-4.346,30.399-6.737,46.299-6.737c15.863,0,30.63,2.38,43.826,6.706
								c13.291,4.357,25.075,10.718,34.805,18.67c9.858,8.057,17.66,17.789,22.78,28.774c5.212,11.183,7.667,23.708,6.663,37.122
								h1.457c1.001-13.571-1.496-26.24-6.781-37.547c-5.191-11.106-13.09-20.942-23.067-29.083
								c-9.845-8.034-21.764-14.459-35.204-18.861C276.379,169.075,261.451,166.672,245.417,166.672"/>
							<path style="fill:#FFFFFF;" d="M61.745,259.316h-1.458c-4.086,13.255-5.686,26.334-4.974,38.943
								c0.725,12.854,3.851,25.196,9.177,36.699c5.418,11.701,13.098,22.5,22.801,32.045c9.838,9.678,21.719,18.029,35.356,24.687
								l1.012-1.274c-13.512-6.587-25.288-14.851-35.042-24.429c-9.622-9.449-17.241-20.141-22.622-31.727
								c-5.291-11.392-8.402-23.616-9.135-36.351C56.14,285.416,57.71,272.455,61.745,259.316"/>
							<polyline style="fill:#FFFFFF;" points="519.367,355.146 517.801,355.146 519.677,396.596 492.77,396.596 493.098,409.074 
								520.241,409.074 523.533,481.807 525.244,481.807 521.869,409.074 534.856,409.074 534.777,407.64 494.678,407.64 
								494.413,398.009 533.807,398.009 533.729,396.596 521.291,396.596 519.367,355.146 							"/>
							<polyline style="fill:#FFFFFF;" points="517.336,453.002 465.453,453.002 465.464,454.538 517.4,454.538 517.336,453.002 
															"/>
							<polyline style="fill:#FFFFFF;" points="392.832,342.304 391.279,342.304 390.061,368.234 363.691,368.234 362.9,380.226 
								389.497,380.226 386.076,453.002 303.544,453.002 303.386,454.538 386.004,454.538 384.373,489.229 386.092,489.229 
								387.684,454.538 442.85,454.538 442.511,494.232 465.732,494.232 465.722,492.622 444.248,492.622 444.808,416.852 
								465.208,416.852 465.326,434.3 466.983,434.3 466.833,415.393 443.183,415.393 442.862,453.002 387.754,453.002 
								391.092,380.226 403.884,380.226 403.936,378.84 364.586,378.84 365.185,369.6 403.753,369.6 403.804,368.234 
								391.642,368.234 392.832,342.304 							"/>
							<path style="fill:#FFFFFF;" d="M227.476,247.114c-1.659,0.327-3.252,0.859-4.725,1.559c-1.475,0.701-2.83,1.57-4.01,2.571
								c-1.183,1.002-2.19,2.136-2.968,3.364c-0.779,1.23-1.326,2.556-1.587,3.938c-0.31,1.645-0.183,3.216,0.311,4.649
								c0.495,1.437,1.36,2.733,2.525,3.825c1.167,1.093,2.634,1.98,4.333,2.594c1.7,0.614,3.629,0.954,5.716,0.954
								c2.087,0,4.136-0.34,6.052-0.954c1.914-0.614,3.693-1.5,5.246-2.594c1.549-1.092,2.871-2.389,3.873-3.825
								c0.999-1.433,1.68-3.004,1.951-4.649l0.023-0.194h-1.448l-0.023,0.194c-0.247,1.486-0.863,2.905-1.768,4.199
								c-0.906,1.296-2.101,2.466-3.5,3.45c-1.402,0.985-3.009,1.784-4.736,2.336c-1.729,0.553-3.578,0.859-5.46,0.859
								s-3.624-0.306-5.157-0.859c-1.532-0.553-2.857-1.351-3.911-2.336c-1.052-0.984-1.833-2.154-2.282-3.45
								c-0.447-1.294-0.563-2.713-0.285-4.199c0.234-1.253,0.731-2.454,1.438-3.57c0.706-1.113,1.622-2.141,2.696-3.048
								c1.073-0.906,2.306-1.691,3.647-2.323c1.339-0.631,2.788-1.107,4.296-1.396L227.476,247.114"/>
						</g>
					</g>
				</g>
			</g>
		</g>
	</g>
</g>
</svg>
