<?xml version="1.0" encoding="iso-8859-1"?>
<!-- Generator: Adobe Illustrator 16.0.0, SVG Export Plug-In . SVG Version: 6.00 Build 0)  -->
<!DOCTYPE svg PUBLIC "-//W3C//DTD SVG 1.1//EN" "http://www.w3.org/Graphics/SVG/1.1/DTD/svg11.dtd">
<svg version="1.1" id="Layer_2" xmlns="http://www.w3.org/2000/svg" xmlns:xlink="http://www.w3.org/1999/xlink" x="0px" y="0px"
	 width="910.886px" height="597.925px" viewBox="0 0 910.886 597.925" style="enable-background:new 0 0 910.886 597.925;"
	 xml:space="preserve">
<g id="Layer_3">
</g>
<g>
	<g>
		<g style="enable-background:new    ;">
			<defs>
				<polygon id="SVGID_1_" style="enable-background:new    ;" points="-104.406,600.169 70.88,92.057 840.008,92.057 
					1015.293,600.169 				"/>
			</defs>
			<clipPath id="SVGID_2_">
				<use xlink:href="#SVGID_1_"  style="overflow:visible;"/>
			</clipPath>
			<g style="clip-path:url(#SVGID_2_);">
				<g>
					<g>
						<g>
							<path style="fill:#FFFFFF;" d="M430.559,287.141c-1.037,0-2.022-0.171-2.915-0.48c-0.892-0.309-1.692-0.755-2.359-1.306
								c-0.667-0.55-1.201-1.205-1.563-1.93c-0.362-0.724-0.552-1.52-0.532-2.352c0.021-0.833,0.25-1.627,0.646-2.348
								c0.396-0.721,0.958-1.369,1.646-1.913c0.688-0.543,1.5-0.983,2.398-1.287s1.88-0.472,2.908-0.472
								c1.025,0,2,0.168,2.885,0.472c0.885,0.304,1.681,0.744,2.347,1.287c0.667,0.544,1.205,1.192,1.573,1.913
								c0.369,0.721,0.567,1.515,0.557,2.348c-0.011,0.833-0.231,1.628-0.621,2.352c-0.39,0.726-0.949,1.38-1.636,1.93
								c-0.688,0.551-1.504,0.998-2.407,1.306C432.583,286.97,431.593,287.141,430.559,287.141 M432.052,246.298h-1.443
								l-0.023,1.177l-0.011,0.565l-0.011,0.58c0.061-0.007,0.121-0.012,0.182-0.017c0.061-0.005,0.122-0.008,0.182-0.011
								c0.061-0.003,0.122-0.004,0.182-0.005c0.061-0.001,0.121-0.001,0.182-0.001c1.004,0,1.959,0.161,2.826,0.452
								c0.868,0.292,1.647,0.713,2.3,1.235c0.654,0.522,1.181,1.143,1.542,1.833c0.361,0.691,0.556,1.451,0.546,2.249
								c-0.011,0.8-0.227,1.564-0.608,2.261c-0.381,0.697-0.929,1.325-1.602,1.854c-0.673,0.529-1.472,0.958-2.356,1.254
								s-1.854,0.46-2.867,0.46c-0.05,0-0.1,0-0.149-0.001c-0.049-0.001-0.098-0.002-0.146-0.004s-0.095-0.005-0.142-0.008
								c-0.047-0.004-0.093-0.008-0.139-0.013l-0.064,0.583h-0.104l-0.257,13.155c-1.145,0.075-2.233,0.324-3.222,0.714
								c-0.99,0.391-1.881,0.924-2.632,1.565c-0.752,0.642-1.364,1.393-1.795,2.22c-0.431,0.828-0.68,1.732-0.704,2.678
								c-0.026,0.998,0.201,1.951,0.633,2.819c0.433,0.869,1.071,1.653,1.869,2.313c0.799,0.66,1.756,1.195,2.825,1.565
								c1.07,0.37,2.25,0.575,3.493,0.575c1.239,0,2.424-0.205,3.506-0.575c1.081-0.37,2.059-0.905,2.882-1.565
								c0.823-0.659,1.492-1.443,1.958-2.313c0.466-0.868,0.729-1.821,0.741-2.819c0.011-0.946-0.204-1.85-0.604-2.678
								c-0.4-0.827-0.984-1.578-1.712-2.22c-0.728-0.642-1.599-1.174-2.573-1.565c-0.974-0.391-2.05-0.64-3.19-0.714l0.232-12.578
								c1.131-0.073,2.206-0.317,3.182-0.699c0.975-0.382,1.852-0.902,2.588-1.526c0.735-0.625,1.331-1.353,1.745-2.154
								c0.413-0.8,0.646-1.672,0.657-2.583c0.011-0.906-0.2-1.772-0.592-2.565c-0.392-0.792-0.965-1.513-1.678-2.128
								c-0.713-0.615-1.566-1.126-2.521-1.501c-0.954-0.375-2.009-0.614-3.125-0.686L432.052,246.298"/>
							<path style="fill:#FFFFFF;" d="M478.572,234.314c-0.995,0-1.945-0.158-2.813-0.442c-0.866-0.284-1.648-0.696-2.308-1.204
								c-0.658-0.507-1.193-1.111-1.565-1.78c-0.373-0.668-0.583-1.402-0.593-2.171c-0.01-0.766,0.182-1.496,0.536-2.16
								c0.354-0.663,0.869-1.26,1.51-1.761c0.64-0.5,1.403-0.906,2.254-1.186c0.851-0.279,1.787-0.435,2.773-0.435
								c0.984,0,1.926,0.155,2.786,0.435c0.86,0.28,1.64,0.686,2.298,1.186c0.66,0.501,1.198,1.098,1.577,1.761
								c0.379,0.664,0.598,1.394,0.616,2.16c0.019,0.769-0.165,1.502-0.514,2.171c-0.349,0.669-0.862,1.272-1.502,1.78
								c-0.642,0.508-1.408,0.919-2.264,1.204C480.509,234.157,479.565,234.314,478.572,234.314 M478.348,222.084
								c-1.181,0-2.303,0.185-3.32,0.52c-1.019,0.335-1.934,0.82-2.701,1.418c-0.767,0.6-1.386,1.314-1.811,2.108
								c-0.425,0.794-0.655,1.669-0.645,2.587c0.01,0.875,0.237,1.712,0.642,2.48c0.405,0.769,0.988,1.469,1.708,2.068
								c0.721,0.6,1.579,1.099,2.535,1.465s2.009,0.601,3.117,0.671l0.215,12.073c-1.117,0.071-2.172,0.311-3.126,0.686
								c-0.955,0.375-1.809,0.886-2.522,1.501s-1.287,1.335-1.68,2.128c-0.393,0.793-0.604,1.659-0.594,2.565
								c0.011,0.911,0.243,1.783,0.656,2.583c0.413,0.801,1.008,1.53,1.743,2.154c0.736,0.625,1.612,1.145,2.588,1.526
								s2.05,0.626,3.182,0.699l0.017,0.968h1.462l-0.019-0.968l-0.011-0.577l-0.012-0.591c-0.059,0.007-0.118,0.013-0.178,0.018
								c-0.06,0.004-0.12,0.008-0.181,0.01s-0.121,0.004-0.183,0.005c-0.061,0.001-0.122,0.001-0.184,0.001
								c-1.015,0-1.985-0.164-2.87-0.46c-0.884-0.296-1.683-0.725-2.355-1.254c-0.672-0.528-1.218-1.157-1.599-1.854
								c-0.38-0.696-0.595-1.46-0.604-2.261c-0.011-0.798,0.185-1.558,0.546-2.249c0.36-0.69,0.887-1.312,1.54-1.833
								c0.652-0.521,1.433-0.943,2.3-1.235c0.868-0.291,1.823-0.452,2.83-0.452c0.061,0,0.121,0,0.182,0.001
								c0.061,0.001,0.121,0.002,0.181,0.005c0.061,0.002,0.12,0.006,0.18,0.011c0.06,0.004,0.118,0.01,0.177,0.017l-0.011-0.58
								l-0.011-0.565l-0.229-12.073c1.107-0.07,2.153-0.304,3.097-0.671s1.784-0.866,2.483-1.465s1.256-1.299,1.633-2.068
								c0.377-0.768,0.573-1.605,0.551-2.48c-0.022-0.918-0.286-1.792-0.741-2.587c-0.454-0.794-1.1-1.508-1.89-2.108
								c-0.79-0.599-1.724-1.083-2.754-1.418C480.653,222.269,479.525,222.084,478.348,222.084"/>
							<path style="fill:#FFFFFF;" d="M671.797,171.365l0.184,1.012c3.567,0.139,7.117,0.396,10.64,0.768
								c3.525,0.372,7.026,0.857,10.495,1.452c3.473,0.595,6.914,1.3,10.316,2.108c3.408,0.809,6.779,1.723,10.104,2.736
								l37.735,175.763h1.566l-37.836-175.305c10.873,3.422,21.284,7.92,30.959,13.328c9.762,5.457,18.803,11.857,26.824,19.033
								c8.115,7.26,15.208,15.333,20.954,24.045c5.826,8.834,10.279,18.343,13.007,28.34c3.782,13.868,3.894,27.37,0.762,39.903
								c-3.191,12.775-9.742,24.499-19.154,34.509c-9.553,10.158-22.002,18.496-36.754,24.318
								c-14.877,5.871-31.985,9.142-50.623,9.142c-18.639,0-36.898-3.271-53.842-9.142c-16.801-5.822-32.185-14.16-45.313-24.318
								c-12.935-10.01-23.61-21.733-31.297-34.509c-7.542-12.533-12.182-26.036-13.278-39.903l-0.017-0.217h-1.464l0.017,0.217
								c1.094,14.03,5.773,27.695,13.393,40.382c7.768,12.935,18.563,24.808,31.65,34.947c13.284,10.292,28.855,18.74,45.867,24.641
								c17.156,5.952,35.647,9.268,54.523,9.268c18.875,0,36.199-3.315,51.261-9.268c14.935-5.9,27.532-14.349,37.195-24.641
								c9.519-10.14,16.136-22.013,19.353-34.947c3.155-12.687,3.027-26.352-0.815-40.382c-3.644-13.296-10.3-25.738-19.168-36.903
								c-8.712-10.969-19.591-20.746-31.914-28.937c-12.16-8.083-25.787-14.663-40.233-19.355
								C702.561,174.793,687.332,171.965,671.797,171.365"/>
							<path style="fill:#FFFFFF;" d="M661.571,144.852h-1.32l6.462,36.838c-14.242,0.069-27.487,2.294-39.301,6.28
								c-11.892,4.013-22.402,9.834-31.043,17.085c-8.744,7.338-15.612,16.175-20.054,26.124
								c-4.513,10.11-6.536,21.403-5.454,33.467c0.782,8.732,3.14,17.288,6.866,25.481c3.772,8.296,8.944,16.21,15.292,23.54
								c6.418,7.411,14.026,14.213,22.582,20.193c8.632,6.033,18.207,11.217,28.459,15.335l0.44-1.215
								c-10.102-4.063-19.535-9.174-28.04-15.12c-8.432-5.895-15.93-12.597-22.257-19.899c-6.259-7.224-11.36-15.022-15.086-23.198
								c-3.679-8.076-6.011-16.509-6.792-25.117c-1.081-11.904,0.902-23.051,5.346-33.033c4.374-9.825,11.146-18.554,19.771-25.804
								c8.525-7.166,18.899-12.918,30.641-16.885c11.663-3.941,24.742-6.141,38.809-6.21l12.286,70.041
								c-1.961,0.076-3.771,0.455-5.367,1.08c-1.599,0.626-2.984,1.5-4.093,2.563c-1.109,1.065-1.942,2.323-2.432,3.714
								c-0.49,1.395-0.637,2.926-0.373,4.534l0.018,0.104h1.464l-0.018-0.104c-0.247-1.497-0.103-2.921,0.37-4.213
								c0.473-1.291,1.271-2.451,2.333-3.424c1.061-0.972,2.384-1.757,3.907-2.3c1.521-0.542,3.245-0.842,5.107-0.842
								s3.691,0.3,5.404,0.842c1.714,0.542,3.313,1.328,4.716,2.3c1.404,0.973,2.611,2.133,3.537,3.424
								c0.928,1.292,1.574,2.716,1.854,4.213c0.269,1.44,0.173,2.82-0.234,4.085c-0.407,1.268-1.127,2.419-2.102,3.403
								c-0.977,0.985-2.21,1.8-3.644,2.391c-1.435,0.592-3.068,0.959-4.846,1.048l0.209,1.182c1.979-0.089,3.803-0.49,5.403-1.142
								c1.6-0.652,2.977-1.554,4.067-2.646c1.089-1.09,1.893-2.37,2.348-3.779c0.455-1.406,0.563-2.939,0.262-4.541
								c-0.302-1.608-0.987-3.139-1.969-4.534c-0.979-1.392-2.255-2.649-3.739-3.714c-1.483-1.064-3.176-1.938-4.994-2.563
								c-1.816-0.625-3.761-1.004-5.747-1.08L661.571,144.852"/>
							<path style="fill:#FFFFFF;" d="M723.018,151.36l-0.393,0.874c14.671,4.285,28.782,10.028,41.96,17.013
								c13.334,7.068,25.767,15.438,36.884,24.893c11.293,9.604,21.269,20.362,29.463,32.046
								c8.351,11.907,14.875,24.809,19.059,38.459h1.464c-4.231-13.755-10.821-26.757-19.25-38.757
								c-8.271-11.774-18.333-22.615-29.722-32.294c-11.21-9.528-23.744-17.962-37.183-25.086
								C752.02,161.468,737.8,155.68,723.018,151.36"/>
							<path style="fill:#FFFFFF;" d="M288.24,186.447l-0.731,0.938c8.071,3.171,15.413,7.222,21.848,12.016
								c6.486,4.832,12.068,10.43,16.555,16.658c4.533,6.292,7.957,13.238,10.066,20.696c2.134,7.548,2.925,15.633,2.151,24.103
								c-1.102,12.055-5.269,23.763-11.932,34.608c-6.774,11.027-16.109,21.131-27.367,29.752
								c-11.403,8.731-24.727,15.901-39.252,20.93c-14.634,5.064-30.394,7.923-46.491,8.013l14.679-83.395h-1.461l-23.787,134.271
								h1.614l8.72-49.538c16.328-0.09,32.315-2.991,47.157-8.132c14.731-5.103,28.24-12.379,39.8-21.24
								c11.409-8.747,20.865-18.996,27.723-30.181c6.744-10.999,10.954-22.868,12.057-35.088c0.775-8.583-0.036-16.774-2.207-24.419
								c-2.146-7.554-5.622-14.587-10.22-20.957c-4.551-6.305-10.211-11.973-16.785-16.866
								C303.854,193.763,296.416,189.661,288.24,186.447"/>
							<path style="fill:#FFFFFF;" d="M245.417,166.672c-16.073,0-31.887,2.414-46.803,6.803
								c-15.026,4.421-29.241,10.875-41.938,18.943c-12.869,8.177-24.248,18.054-33.351,29.205
								c-9.269,11.354-16.214,24.073-19.955,37.694c-3.697,13.462-3.931,26.583-1.093,38.815
								c2.892,12.463,8.965,23.963,17.77,33.897c8.936,10.083,20.641,18.503,34.579,24.63c14.063,6.182,30.304,9.986,48.092,10.8
								l0.249-1.369c-4.082-0.188-8.083-0.535-11.996-1.036c-3.91-0.5-7.73-1.152-11.454-1.95
								c-3.719-0.796-7.339-1.736-10.853-2.813c-3.508-1.074-6.91-2.284-10.198-3.621l37.933-176.186h-1.368l-38.002,175.584
								c-10.582-4.469-19.909-10.262-27.746-17.107c-7.759-6.777-14.032-14.566-18.612-23.1c-4.522-8.427-7.383-17.56-8.398-27.147
								c-1-9.45-0.207-19.327,2.547-29.397c3.682-13.463,10.534-26.039,19.688-37.268c8.991-11.03,20.237-20.804,32.959-28.896
								c12.555-7.985,26.613-14.375,41.476-18.752c14.755-4.346,30.399-6.737,46.299-6.737c15.863,0,30.63,2.38,43.826,6.706
								c13.291,4.357,25.075,10.718,34.805,18.67c9.858,8.057,17.66,17.789,22.78,28.774c5.212,11.183,7.667,23.708,6.663,37.122
								h1.457c1.001-13.571-1.496-26.24-6.781-37.547c-5.191-11.106-13.09-20.942-23.067-29.083
								c-9.845-8.034-21.764-14.459-35.204-18.861C276.379,169.075,261.451,166.672,245.417,166.672"/>
							<path style="fill:#FFFFFF;" d="M61.745,259.316h-1.458c-4.3,13.949-5.846,27.704-4.844,40.92
								c1.023,13.485,4.698,26.381,10.79,38.306c6.201,12.137,14.885,23.227,25.77,32.855c11.037,9.765,24.287,17.983,39.406,24.229
								l0.979-1.289c-14.986-6.179-28.124-14.311-39.072-23.976c-10.798-9.532-19.418-20.512-25.579-32.532
								c-6.054-11.811-9.714-24.587-10.745-37.95C55.981,286.782,57.498,273.147,61.745,259.316"/>
							<polyline style="fill:#FFFFFF;" points="519.092,349.195 517.531,349.195 519.677,396.596 492.77,396.596 493.098,409.074 
								520.241,409.074 522.229,453.002 465.453,453.002 465.464,454.538 522.299,454.538 523.533,481.807 525.244,481.807 
								523.979,454.538 527.973,454.538 527.896,453.002 523.907,453.002 521.869,409.074 539.459,409.074 539.374,407.64 
								494.678,407.64 494.413,398.009 533.807,398.009 533.729,396.596 521.291,396.596 519.092,349.195 							"/>
							<polyline style="fill:#FFFFFF;" points="392.832,342.304 391.279,342.304 390.061,368.234 363.691,368.234 362.9,380.226 
								389.497,380.226 386.076,453.002 303.544,453.002 303.386,454.538 386.004,454.538 383.617,505.307 385.355,505.307 
								387.684,454.538 442.85,454.538 442.511,494.232 465.732,494.232 465.722,492.622 444.248,492.622 444.808,416.852 
								465.208,416.852 465.374,441.385 467.039,441.385 466.833,415.393 443.183,415.393 442.862,453.002 387.754,453.002 
								391.092,380.226 408.27,380.226 408.316,378.84 364.586,378.84 365.185,369.6 403.753,369.6 403.804,368.234 
								391.642,368.234 392.832,342.304 							"/>
							<path style="fill:#FFFFFF;" d="M230.435,246.761c-1.969,0.085-3.892,0.468-5.688,1.094c-1.798,0.626-3.469,1.495-4.932,2.549
								c-1.466,1.056-2.723,2.3-3.688,3.674c-0.968,1.377-1.643,2.886-1.941,4.469c-0.31,1.645-0.183,3.216,0.311,4.649
								c0.495,1.437,1.36,2.733,2.525,3.825c1.167,1.093,2.634,1.98,4.333,2.594c1.7,0.614,3.629,0.954,5.716,0.954
								c2.087,0,4.136-0.34,6.052-0.954c1.914-0.614,3.693-1.5,5.246-2.594c1.549-1.092,2.871-2.389,3.873-3.825
								c0.999-1.433,1.68-3.004,1.951-4.649l0.023-0.194h-1.448l-0.023,0.194c-0.247,1.486-0.863,2.905-1.768,4.199
								c-0.906,1.296-2.101,2.466-3.5,3.45c-1.402,0.985-3.009,1.784-4.736,2.336c-1.729,0.553-3.578,0.859-5.46,0.859
								s-3.624-0.306-5.157-0.859c-1.532-0.553-2.857-1.351-3.911-2.336c-1.052-0.984-1.833-2.154-2.282-3.45
								c-0.447-1.294-0.563-2.713-0.285-4.199c0.274-1.462,0.904-2.854,1.809-4.12c0.903-1.264,2.08-2.403,3.45-3.363
								c1.369-0.959,2.93-1.74,4.606-2.288c1.675-0.547,3.465-0.863,5.291-0.892L230.435,246.761"/>
						</g>
					</g>
				</g>
			</g>
		</g>
	</g>
</g>
</svg>
