<?xml version="1.0" encoding="iso-8859-1"?>
<!-- Generator: Adobe Illustrator 16.0.0, SVG Export Plug-In . SVG Version: 6.00 Build 0)  -->
<!DOCTYPE svg PUBLIC "-//W3C//DTD SVG 1.1//EN" "http://www.w3.org/Graphics/SVG/1.1/DTD/svg11.dtd">
<svg version="1.1" id="Layer_2" xmlns="http://www.w3.org/2000/svg" xmlns:xlink="http://www.w3.org/1999/xlink" x="0px" y="0px"
	 width="910.886px" height="597.925px" viewBox="0 0 910.886 597.925" style="enable-background:new 0 0 910.886 597.925;"
	 xml:space="preserve">
<g id="Layer_3">
</g>
<g>
	<g>
		<g style="enable-background:new    ;">
			<defs>
				<polygon id="SVGID_1_" style="enable-background:new    ;" points="-104.406,600.169 70.88,92.057 840.008,92.057 
					1015.293,600.169 				"/>
			</defs>
			<clipPath id="SVGID_2_">
				<use xlink:href="#SVGID_1_"  style="overflow:visible;"/>
			</clipPath>
			<g style="clip-path:url(#SVGID_2_);">
				<g>
					<g>
						<g>
							<path style="fill:#FFFFFF;" d="M430.559,287.141c-1.037,0-2.022-0.171-2.915-0.48c-0.892-0.309-1.692-0.755-2.359-1.306
								c-0.667-0.55-1.201-1.205-1.563-1.93c-0.362-0.724-0.552-1.52-0.532-2.352c0.021-0.833,0.25-1.627,0.646-2.348
								c0.396-0.721,0.958-1.369,1.646-1.913c0.688-0.543,1.5-0.983,2.398-1.287s1.88-0.472,2.908-0.472
								c1.025,0,2,0.168,2.885,0.472c0.885,0.304,1.681,0.744,2.347,1.287c0.667,0.544,1.205,1.192,1.573,1.913
								c0.369,0.721,0.567,1.515,0.557,2.348c-0.011,0.833-0.231,1.628-0.621,2.352c-0.39,0.726-0.949,1.38-1.636,1.93
								c-0.688,0.551-1.504,0.998-2.407,1.306C432.583,286.97,431.593,287.141,430.559,287.141 M432.107,243.281h-1.439
								l-0.082,4.194c-1.005,0.064-1.965,0.264-2.851,0.575c-0.887,0.311-1.699,0.733-2.409,1.245s-1.317,1.113-1.792,1.78
								c-0.475,0.667-0.816,1.402-0.995,2.18h1.477c0.177-0.665,0.499-1.289,0.938-1.851c0.438-0.563,0.993-1.063,1.636-1.48
								c0.643-0.417,1.375-0.751,2.167-0.982c0.792-0.23,1.646-0.355,2.533-0.355c1.004,0,1.959,0.161,2.826,0.452
								c0.868,0.292,1.647,0.713,2.3,1.235c0.654,0.522,1.181,1.143,1.542,1.833c0.361,0.691,0.556,1.451,0.546,2.249
								c-0.011,0.8-0.227,1.564-0.608,2.261c-0.381,0.697-0.929,1.325-1.602,1.854c-0.673,0.529-1.472,0.958-2.356,1.254
								s-1.854,0.46-2.867,0.46c-0.05,0-0.1,0-0.149-0.001c-0.049-0.001-0.098-0.002-0.146-0.004s-0.095-0.005-0.142-0.008
								c-0.047-0.004-0.093-0.008-0.139-0.013l-0.064,0.583h-0.104l-0.257,13.155c-1.145,0.075-2.233,0.324-3.222,0.714
								c-0.99,0.391-1.881,0.924-2.632,1.565c-0.752,0.642-1.364,1.393-1.795,2.22c-0.431,0.828-0.68,1.732-0.704,2.678
								c-0.026,0.998,0.201,1.951,0.633,2.819c0.433,0.869,1.071,1.653,1.869,2.313c0.799,0.66,1.756,1.195,2.825,1.565
								c1.07,0.37,2.25,0.575,3.493,0.575c1.239,0,2.424-0.205,3.506-0.575c1.081-0.37,2.059-0.905,2.882-1.565
								c0.823-0.659,1.492-1.443,1.958-2.313c0.466-0.868,0.729-1.821,0.741-2.819c0.011-0.946-0.204-1.85-0.604-2.678
								c-0.4-0.827-0.984-1.578-1.712-2.22c-0.728-0.642-1.599-1.174-2.573-1.565c-0.974-0.391-2.05-0.64-3.19-0.714l0.232-12.578
								c1.131-0.073,2.206-0.317,3.182-0.699c0.975-0.382,1.852-0.902,2.588-1.526c0.735-0.625,1.331-1.353,1.745-2.154
								c0.413-0.8,0.646-1.672,0.657-2.583c0.011-0.906-0.2-1.772-0.592-2.565c-0.392-0.792-0.965-1.513-1.678-2.128
								c-0.713-0.615-1.566-1.126-2.521-1.501c-0.954-0.375-2.009-0.614-3.125-0.686L432.107,243.281"/>
							<path style="fill:#FFFFFF;" d="M478.572,234.314c-0.995,0-1.945-0.158-2.813-0.442c-0.866-0.284-1.648-0.696-2.308-1.204
								c-0.658-0.507-1.193-1.111-1.565-1.78c-0.373-0.668-0.583-1.402-0.593-2.171c-0.01-0.766,0.182-1.496,0.536-2.16
								c0.354-0.663,0.869-1.26,1.51-1.761c0.64-0.5,1.403-0.906,2.254-1.186c0.851-0.279,1.787-0.435,2.773-0.435
								c0.984,0,1.926,0.155,2.786,0.435c0.86,0.28,1.64,0.686,2.298,1.186c0.66,0.501,1.198,1.098,1.577,1.761
								c0.379,0.664,0.598,1.394,0.616,2.16c0.019,0.769-0.165,1.502-0.514,2.171c-0.349,0.669-0.862,1.272-1.502,1.78
								c-0.642,0.508-1.408,0.919-2.264,1.204C480.509,234.157,479.565,234.314,478.572,234.314 M478.348,222.084
								c-1.181,0-2.303,0.185-3.32,0.52c-1.019,0.335-1.934,0.82-2.701,1.418c-0.767,0.6-1.386,1.314-1.811,2.108
								c-0.425,0.794-0.655,1.669-0.645,2.587c0.01,0.875,0.237,1.712,0.642,2.48c0.405,0.769,0.988,1.469,1.708,2.068
								c0.721,0.6,1.579,1.099,2.535,1.465s2.009,0.601,3.117,0.671l0.215,12.073c-1.117,0.071-2.172,0.311-3.126,0.686
								c-0.955,0.375-1.809,0.886-2.522,1.501s-1.287,1.335-1.68,2.128c-0.393,0.793-0.604,1.659-0.594,2.565
								c0.011,0.911,0.243,1.783,0.656,2.583c0.413,0.801,1.008,1.53,1.743,2.154c0.736,0.625,1.612,1.145,2.588,1.526
								s2.05,0.626,3.182,0.699l0.072,4.07h1.465l-0.077-4.07c1.02-0.066,1.986-0.271,2.872-0.589
								c0.885-0.319,1.688-0.751,2.38-1.275c0.692-0.523,1.274-1.137,1.717-1.816c0.442-0.679,0.746-1.425,0.884-2.213h-1.48
								c-0.143,0.675-0.434,1.309-0.846,1.881c-0.413,0.573-0.947,1.084-1.576,1.511s-1.354,0.769-2.146,1.004
								c-0.792,0.236-1.651,0.365-2.552,0.365c-1.015,0-1.985-0.164-2.87-0.46c-0.884-0.296-1.683-0.725-2.355-1.254
								c-0.672-0.528-1.218-1.157-1.599-1.854c-0.38-0.696-0.595-1.46-0.604-2.261c-0.011-0.798,0.185-1.558,0.546-2.249
								c0.36-0.69,0.887-1.312,1.54-1.833c0.652-0.521,1.433-0.943,2.3-1.235c0.868-0.291,1.823-0.452,2.83-0.452
								c0.061,0,0.121,0,0.182,0.001c0.061,0.001,0.121,0.002,0.181,0.005c0.061,0.002,0.12,0.006,0.18,0.011
								c0.06,0.004,0.118,0.01,0.177,0.017l-0.011-0.58l-0.011-0.565l-0.229-12.073c1.107-0.07,2.153-0.304,3.097-0.671
								s1.784-0.866,2.483-1.465s1.256-1.299,1.633-2.068c0.377-0.768,0.573-1.605,0.551-2.48c-0.022-0.918-0.286-1.792-0.741-2.587
								c-0.454-0.794-1.1-1.508-1.89-2.108c-0.79-0.599-1.724-1.083-2.754-1.418C480.653,222.269,479.525,222.084,478.348,222.084"
								/>
							<path style="fill:#FFFFFF;" d="M754.357,362.241L715,179.886c10.872,3.422,21.284,7.92,30.959,13.33
								c9.762,5.458,18.803,11.859,26.824,19.037c8.116,7.262,15.209,15.337,20.955,24.05c5.827,8.835,10.28,18.345,13.008,28.342
								c2.77,10.155,3.57,20.115,2.57,29.645c-1.016,9.67-3.884,18.881-8.42,27.381c-4.595,8.608-10.891,16.467-18.68,23.305
								C774.35,351.885,764.983,357.73,754.357,362.241 M660.841,140.712h-1.315l0.726,4.139l4.631,26.399
								c-1.424,0.006-2.839,0.031-4.244,0.074c-1.406,0.042-2.803,0.104-4.188,0.184c-1.387,0.08-2.763,0.178-4.129,0.295
								c-1.365,0.117-2.721,0.252-4.064,0.405l0.443,0.983c1.326-0.149,2.661-0.281,4.006-0.395
								c1.344-0.114,2.698-0.209,4.062-0.288s2.735-0.138,4.118-0.18c1.382-0.042,2.773-0.066,4.174-0.072l1.654,9.433
								c-14.242,0.069-27.487,2.294-39.301,6.28c-11.892,4.013-22.402,9.834-31.043,17.085
								c-8.744,7.338-15.612,16.175-20.054,26.124c-4.513,10.11-6.536,21.403-5.454,33.467c0.873,9.738,3.704,19.257,8.207,28.297
								c4.565,9.165,10.843,17.823,18.519,25.692c7.767,7.963,16.947,15.098,27.195,21.112
								c10.341,6.068,21.732,10.975,33.801,14.423l0.468-1.215c-11.919-3.391-23.172-8.222-33.387-14.201
								c-10.127-5.927-19.199-12.962-26.878-20.815c-7.591-7.763-13.8-16.306-18.32-25.353c-4.459-8.924-7.267-18.323-8.14-27.94
								c-1.081-11.904,0.902-23.051,5.346-33.033c4.374-9.825,11.146-18.554,19.771-25.804c8.525-7.166,18.899-12.918,30.641-16.885
								c11.663-3.941,24.742-6.141,38.809-6.21l12.286,70.041c-1.961,0.076-3.771,0.455-5.367,1.08
								c-1.599,0.626-2.984,1.5-4.093,2.563c-1.109,1.065-1.942,2.323-2.432,3.714c-0.49,1.395-0.637,2.926-0.373,4.534l0.018,0.104
								h1.464l-0.018-0.104c-0.247-1.497-0.103-2.921,0.37-4.213c0.473-1.291,1.271-2.451,2.333-3.424
								c1.061-0.972,2.384-1.757,3.907-2.3c1.521-0.542,3.245-0.842,5.107-0.842s3.691,0.3,5.404,0.842
								c1.714,0.542,3.313,1.328,4.716,2.3c1.404,0.973,2.611,2.133,3.537,3.424c0.928,1.292,1.574,2.716,1.854,4.213
								c0.279,1.497,0.164,2.928-0.284,4.233c-0.45,1.308-1.233,2.489-2.29,3.483c-1.058,0.996-2.388,1.804-3.928,2.362
								c-1.541,0.56-3.291,0.869-5.186,0.869c-0.179,0-0.358-0.003-0.537-0.009s-0.357-0.015-0.536-0.026
								c-0.178-0.012-0.355-0.026-0.533-0.042s-0.354-0.036-0.53-0.057l0.21,1.203c0.176,0.02,0.353,0.037,0.529,0.052
								c0.178,0.015,0.355,0.028,0.534,0.038c0.178,0.01,0.356,0.018,0.535,0.023c0.179,0.005,0.358,0.008,0.538,0.008
								c2.097,0,4.035-0.344,5.742-0.964c1.706-0.62,3.18-1.516,4.353-2.621c1.17-1.103,2.038-2.412,2.535-3.862
								c0.496-1.447,0.623-3.032,0.312-4.69c-0.302-1.608-0.987-3.139-1.969-4.534c-0.979-1.392-2.255-2.649-3.739-3.714
								c-1.483-1.064-3.176-1.938-4.994-2.563c-1.816-0.625-3.761-1.004-5.747-1.08l-14.212-80.497
								c4.052,0.017,8.082,0.188,12.083,0.506c4.002,0.319,7.977,0.786,11.912,1.393c3.939,0.607,7.842,1.356,11.697,2.238
								c3.861,0.883,7.677,1.901,11.435,3.047l39.373,183.393c-3.781,1.547-7.714,2.926-11.787,4.123
								c-4.08,1.199-8.299,2.217-12.644,3.041c-4.351,0.824-8.826,1.455-13.414,1.879c-4.59,0.424-9.291,0.642-14.088,0.642
								c-18.639,0-36.898-3.271-53.842-9.142c-16.801-5.822-32.185-14.16-45.313-24.318c-12.935-10.01-23.61-21.733-31.297-34.509
								c-7.542-12.533-12.182-26.036-13.278-39.903l-0.017-0.217h-1.464l0.017,0.217c1.094,14.03,5.773,27.695,13.393,40.382
								c7.768,12.935,18.563,24.808,31.65,34.947c13.284,10.292,28.855,18.74,45.867,24.641c17.156,5.952,35.647,9.268,54.523,9.268
								c18.875,0,36.199-3.315,51.261-9.268c14.935-5.9,27.532-14.349,37.195-24.641c9.519-10.14,16.136-22.013,19.353-34.947
								c3.155-12.687,3.027-26.352-0.815-40.382c-3.75-13.687-10.694-26.469-19.958-37.886
								c-9.098-11.211-20.468-21.15-33.326-29.387c-12.688-8.128-26.891-14.643-41.908-19.126
								c-14.906-4.45-30.714-6.928-46.785-6.996l-4.661-26.399l-0.286-1.62l-0.169-0.957L660.841,140.712"/>
							<path style="fill:#FFFFFF;" d="M715,149.166l-0.065,0.963c15.495,3.936,30.438,9.494,44.411,16.426
								c14.139,7.015,27.35,15.469,39.168,25.119c12.008,9.806,22.625,20.883,31.327,32.976
								c8.874,12.332,15.785,25.757,20.149,39.997h1.464c-4.42-14.369-11.414-27.917-20.39-40.36
								c-8.801-12.2-19.533-23.375-31.668-33.263c-11.94-9.73-25.285-18.254-39.563-25.321
								C745.725,158.716,730.639,153.122,715,149.166"/>
							<path style="fill:#FFFFFF;" d="M157.024,356.084c-10.581-4.471-19.908-10.266-27.745-17.113
								c-7.758-6.779-14.031-14.57-18.611-23.105c-4.522-8.427-7.382-17.562-8.397-27.15c-1-9.451-0.207-19.328,2.548-29.399
								c2.711-9.915,7.141-19.346,12.939-28.108c5.718-8.642,12.779-16.65,20.859-23.854c7.987-7.119,16.989-13.469,26.711-18.883
								c9.635-5.366,20.005-9.83,30.835-13.225L157.024,356.084 M245.417,166.672c-16.073,0-31.887,2.414-46.803,6.803
								c-15.026,4.421-29.241,10.875-41.938,18.943c-12.869,8.177-24.248,18.054-33.351,29.205
								c-9.269,11.354-16.214,24.073-19.955,37.694c-3.808,13.868-3.943,27.373-0.829,39.916
								c3.174,12.786,9.712,24.528,19.12,34.566c9.549,10.189,22.004,18.569,36.772,24.449c14.896,5.931,32.033,9.274,50.714,9.366
								l-7.821,44.148h1.621l7.772-44.156c1.698-0.008,3.394-0.042,5.085-0.103c1.691-0.061,3.379-0.146,5.063-0.259
								s3.363-0.25,5.037-0.414s3.344-0.354,5.008-0.569l-0.01-1.342c-1.641,0.211-3.289,0.397-4.942,0.559
								c-1.654,0.162-3.313,0.298-4.978,0.409c-1.665,0.111-3.333,0.198-5.004,0.259c-1.671,0.062-3.346,0.097-5.021,0.106
								l1.893-10.753c16.328-0.09,32.315-2.991,47.157-8.132c14.731-5.103,28.24-12.379,39.8-21.24
								c11.409-8.747,20.865-18.996,27.723-30.181c6.744-10.999,10.954-22.868,12.057-35.088c0.858-9.507-0.229-18.533-2.957-26.871
								c-2.691-8.229-6.985-15.804-12.6-22.532c-5.554-6.655-12.414-12.498-20.322-17.341c-7.846-4.805-16.749-8.641-26.474-11.321
								l-0.619,0.964c9.605,2.646,18.397,6.436,26.144,11.183c7.808,4.785,14.578,10.559,20.058,17.134
								c5.538,6.646,9.771,14.129,12.42,22.256c2.684,8.234,3.748,17.145,2.89,26.529c-1.102,12.055-5.269,23.763-11.932,34.608
								c-6.774,11.027-16.109,21.131-27.367,29.752c-11.403,8.731-24.727,15.901-39.252,20.93
								c-14.634,5.064-30.394,7.923-46.491,8.013l14.679-83.395h-1.461l-16.916,95.485c-4.702-0.021-9.308-0.253-13.807-0.684
								c-4.496-0.43-8.882-1.058-13.147-1.873c-4.26-0.814-8.397-1.814-12.399-2.991c-3.996-1.174-7.855-2.522-11.569-4.034
								l39.155-181.865c3.796-1.153,7.65-2.177,11.552-3.063c3.895-0.885,7.839-1.633,11.82-2.237
								c3.977-0.604,7.994-1.064,12.039-1.374c4.043-0.309,8.116-0.468,12.21-0.468c15.863,0,30.63,2.38,43.826,6.706
								c13.291,4.357,25.075,10.718,34.805,18.67c9.858,8.057,17.66,17.789,22.78,28.774c5.212,11.183,7.667,23.708,6.663,37.122
								h1.457c1.001-13.571-1.496-26.24-6.781-37.547c-5.191-11.106-13.09-20.942-23.067-29.083
								c-9.845-8.034-21.764-14.459-35.204-18.861C276.379,169.075,261.451,166.672,245.417,166.672"/>
							<path style="fill:#FFFFFF;" d="M61.745,259.316h-1.458c-4.493,14.577-5.979,28.941-4.691,42.701
								c1.315,14.051,5.52,27.438,12.344,39.722c6.949,12.509,16.587,23.826,28.585,33.479
								c12.167,9.788,26.697,17.814,43.188,23.592l0.96-1.321c-16.354-5.705-30.77-13.641-42.844-23.324
								c-11.909-9.551-21.481-20.755-28.389-33.143c-6.784-12.167-10.973-25.432-12.296-39.359
								C55.849,288.021,57.304,273.776,61.745,259.316"/>
							<polyline style="fill:#FFFFFF;" points="518.835,343.665 517.281,343.665 519.677,396.596 492.77,396.596 493.098,409.074 
								520.241,409.074 522.229,453.002 465.453,453.002 465.464,454.538 522.299,454.538 523.533,481.807 525.244,481.807 
								523.979,454.538 538.112,454.538 538.026,453.002 523.907,453.002 521.869,409.074 543.895,409.074 543.806,407.64 
								494.678,407.64 494.413,398.009 533.807,398.009 533.729,396.596 521.291,396.596 518.835,343.665 							"/>
							<polyline style="fill:#FFFFFF;" points="392.832,342.304 391.279,342.304 390.061,368.234 363.691,368.234 362.9,380.226 
								389.497,380.226 386.076,453.002 303.544,453.002 303.386,454.538 386.004,454.538 383.617,505.307 385.355,505.307 
								387.684,454.538 442.85,454.538 442.511,494.232 465.732,494.232 465.722,492.622 444.248,492.622 444.808,416.852 
								465.208,416.852 465.422,448.467 467.096,448.467 466.833,415.393 443.183,415.393 442.862,453.002 387.754,453.002 
								391.092,380.226 412.846,380.226 412.888,378.84 364.586,378.84 365.185,369.6 403.753,369.6 403.804,368.234 
								391.642,368.234 392.832,342.304 							"/>
							<path style="fill:#FFFFFF;" d="M231.277,246.74c-2.049,0-4.062,0.329-5.947,0.922c-1.888,0.594-3.65,1.455-5.196,2.519
								c-1.548,1.066-2.879,2.337-3.901,3.75c-1.024,1.417-1.738,2.977-2.047,4.616c-0.31,1.645-0.183,3.216,0.311,4.649
								c0.495,1.437,1.36,2.733,2.525,3.825c1.167,1.093,2.634,1.98,4.333,2.594c1.7,0.614,3.629,0.954,5.716,0.954
								c2.087,0,4.136-0.34,6.052-0.954c1.914-0.614,3.693-1.5,5.246-2.594c1.549-1.092,2.871-2.389,3.873-3.825
								c0.999-1.433,1.68-3.004,1.951-4.649l0.023-0.194h-1.448l-0.023,0.194c-0.247,1.486-0.863,2.905-1.768,4.199
								c-0.906,1.296-2.101,2.466-3.5,3.45c-1.402,0.985-3.009,1.784-4.736,2.336c-1.729,0.553-3.578,0.859-5.46,0.859
								s-3.624-0.306-5.157-0.859c-1.532-0.553-2.857-1.351-3.911-2.336c-1.052-0.984-1.833-2.154-2.282-3.45
								c-0.447-1.294-0.563-2.713-0.285-4.199c0.278-1.482,0.921-2.893,1.845-4.172c0.922-1.277,2.124-2.426,3.521-3.389
								c1.396-0.962,2.988-1.739,4.693-2.276c1.704-0.536,3.523-0.833,5.375-0.833c0.201,0,0.4,0.003,0.597,0.01
								c0.197,0.007,0.392,0.018,0.585,0.031s0.385,0.03,0.576,0.051c0.19,0.021,0.379,0.044,0.567,0.072l0.201-1.151
								c-0.188-0.023-0.377-0.045-0.567-0.063s-0.382-0.034-0.576-0.047s-0.388-0.022-0.585-0.029S231.479,246.74,231.277,246.74"/>
						</g>
					</g>
				</g>
			</g>
		</g>
	</g>
</g>
</svg>
