<?xml version="1.0" encoding="iso-8859-1"?>
<!-- Generator: Adobe Illustrator 16.0.0, SVG Export Plug-In . SVG Version: 6.00 Build 0)  -->
<!DOCTYPE svg PUBLIC "-//W3C//DTD SVG 1.1//EN" "http://www.w3.org/Graphics/SVG/1.1/DTD/svg11.dtd">
<svg version="1.1" id="Layer_2" xmlns="http://www.w3.org/2000/svg" xmlns:xlink="http://www.w3.org/1999/xlink" x="0px" y="0px"
	 width="910.886px" height="597.925px" viewBox="0 0 910.886 597.925" style="enable-background:new 0 0 910.886 597.925;"
	 xml:space="preserve">
<g id="Layer_3">
</g>
<g>
	<g>
		<g style="enable-background:new    ;">
			<defs>
				<polygon id="SVGID_1_" style="enable-background:new    ;" points="-104.406,600.169 70.88,92.057 840.008,92.057 
					1015.293,600.169 				"/>
			</defs>
			<clipPath id="SVGID_2_">
				<use xlink:href="#SVGID_1_"  style="overflow:visible;"/>
			</clipPath>
			<g style="clip-path:url(#SVGID_2_);">
				<g>
					<g>
						<g>
							<path style="fill:#FFFFFF;" d="M430.559,287.141c-1.037,0-2.022-0.171-2.915-0.48c-0.892-0.309-1.692-0.755-2.359-1.306
								c-0.667-0.55-1.201-1.205-1.563-1.93c-0.362-0.724-0.552-1.52-0.532-2.352c0.021-0.833,0.25-1.627,0.646-2.348
								c0.396-0.721,0.958-1.369,1.646-1.913c0.688-0.543,1.5-0.983,2.398-1.287s1.88-0.472,2.908-0.472
								c1.025,0,2,0.168,2.885,0.472c0.885,0.304,1.681,0.744,2.347,1.287c0.667,0.544,1.205,1.192,1.573,1.913
								c0.369,0.721,0.567,1.515,0.557,2.348c-0.011,0.833-0.231,1.628-0.621,2.352c-0.39,0.726-0.949,1.38-1.636,1.93
								c-0.688,0.551-1.504,0.998-2.407,1.306C432.583,286.97,431.593,287.141,430.559,287.141 M432.147,241.093h-1.437
								l-0.125,6.382c-1.122,0.071-2.187,0.311-3.156,0.686c-0.969,0.375-1.842,0.886-2.578,1.501
								c-0.736,0.615-1.336,1.335-1.757,2.128c-0.421,0.793-0.665,1.659-0.688,2.565c-0.009,0.351,0.015,0.696,0.069,1.033
								c0.055,0.337,0.14,0.666,0.253,0.984c0.114,0.319,0.256,0.628,0.425,0.925c0.169,0.297,0.365,0.583,0.585,0.854l1.134-0.761
								c-0.169-0.22-0.319-0.449-0.449-0.687c-0.13-0.238-0.239-0.485-0.327-0.739c-0.087-0.255-0.153-0.517-0.195-0.785
								c-0.042-0.269-0.06-0.544-0.053-0.824c0.02-0.798,0.244-1.558,0.631-2.249c0.387-0.69,0.938-1.312,1.612-1.833
								c0.673-0.521,1.47-0.943,2.349-1.235c0.879-0.291,1.842-0.452,2.848-0.452c1.004,0,1.959,0.161,2.826,0.452
								c0.868,0.292,1.647,0.713,2.3,1.235c0.654,0.522,1.181,1.143,1.542,1.833c0.361,0.691,0.556,1.451,0.546,2.249
								c-0.011,0.8-0.227,1.564-0.608,2.261c-0.381,0.697-0.929,1.325-1.602,1.854c-0.673,0.529-1.472,0.958-2.356,1.254
								s-1.854,0.46-2.867,0.46c-0.05,0-0.1,0-0.149-0.001c-0.049-0.001-0.098-0.002-0.146-0.004s-0.095-0.005-0.142-0.008
								c-0.047-0.004-0.093-0.008-0.139-0.013l-0.064,0.583h-0.104l-0.257,13.155c-1.145,0.075-2.233,0.324-3.222,0.714
								c-0.99,0.391-1.881,0.924-2.632,1.565c-0.752,0.642-1.364,1.393-1.795,2.22c-0.431,0.828-0.68,1.732-0.704,2.678
								c-0.026,0.998,0.201,1.951,0.633,2.819c0.433,0.869,1.071,1.653,1.869,2.313c0.799,0.66,1.756,1.195,2.825,1.565
								c1.07,0.37,2.25,0.575,3.493,0.575c1.239,0,2.424-0.205,3.506-0.575c1.081-0.37,2.059-0.905,2.882-1.565
								c0.823-0.659,1.492-1.443,1.958-2.313c0.466-0.868,0.729-1.821,0.741-2.819c0.011-0.946-0.204-1.85-0.604-2.678
								c-0.4-0.827-0.984-1.578-1.712-2.22c-0.728-0.642-1.599-1.174-2.573-1.565c-0.974-0.391-2.05-0.64-3.19-0.714l0.232-12.578
								c1.131-0.073,2.206-0.317,3.182-0.699c0.975-0.382,1.852-0.902,2.588-1.526c0.735-0.625,1.331-1.353,1.745-2.154
								c0.413-0.8,0.646-1.672,0.657-2.583c0.011-0.906-0.2-1.772-0.592-2.565c-0.392-0.792-0.965-1.513-1.678-2.128
								c-0.713-0.615-1.566-1.126-2.521-1.501c-0.954-0.375-2.009-0.614-3.125-0.686L432.147,241.093"/>
							<path style="fill:#FFFFFF;" d="M478.572,234.314c-0.995,0-1.945-0.158-2.813-0.442c-0.866-0.284-1.648-0.696-2.308-1.204
								c-0.658-0.507-1.193-1.111-1.565-1.78c-0.373-0.668-0.583-1.402-0.593-2.171c-0.01-0.766,0.182-1.496,0.536-2.16
								c0.354-0.663,0.869-1.26,1.51-1.761c0.64-0.5,1.403-0.906,2.254-1.186c0.851-0.279,1.787-0.435,2.773-0.435
								c0.984,0,1.926,0.155,2.786,0.435c0.86,0.28,1.64,0.686,2.298,1.186c0.66,0.501,1.198,1.098,1.577,1.761
								c0.379,0.664,0.598,1.394,0.616,2.16c0.019,0.769-0.165,1.502-0.514,2.171c-0.349,0.669-0.862,1.272-1.502,1.78
								c-0.642,0.508-1.408,0.919-2.264,1.204C480.509,234.157,479.565,234.314,478.572,234.314 M478.348,222.084
								c-1.181,0-2.303,0.185-3.32,0.52c-1.019,0.335-1.934,0.82-2.701,1.418c-0.767,0.6-1.386,1.314-1.811,2.108
								c-0.425,0.794-0.655,1.669-0.645,2.587c0.01,0.875,0.237,1.712,0.642,2.48c0.405,0.769,0.988,1.469,1.708,2.068
								c0.721,0.6,1.579,1.099,2.535,1.465s2.009,0.601,3.117,0.671l0.215,12.073c-1.117,0.071-2.172,0.311-3.126,0.686
								c-0.955,0.375-1.809,0.886-2.522,1.501s-1.287,1.335-1.68,2.128c-0.393,0.793-0.604,1.659-0.594,2.565
								c0.011,0.911,0.243,1.783,0.656,2.583c0.413,0.801,1.008,1.53,1.743,2.154c0.736,0.625,1.612,1.145,2.588,1.526
								s2.05,0.626,3.182,0.699l0.115,6.448h1.467l-0.122-6.448c1.131-0.073,2.198-0.317,3.161-0.699
								c0.962-0.382,1.82-0.902,2.533-1.526s1.281-1.353,1.666-2.154c0.384-0.8,0.583-1.672,0.561-2.583
								c-0.009-0.348-0.05-0.69-0.122-1.024c-0.071-0.334-0.173-0.662-0.303-0.979c-0.131-0.317-0.288-0.625-0.473-0.921
								c-0.184-0.296-0.395-0.58-0.628-0.851l-0.95,0.925c0.156,0.21,0.298,0.429,0.421,0.655c0.124,0.226,0.229,0.458,0.316,0.696
								c0.087,0.239,0.155,0.483,0.204,0.733c0.048,0.25,0.075,0.506,0.082,0.766c0.02,0.8-0.168,1.564-0.523,2.261
								c-0.355,0.697-0.88,1.325-1.532,1.854c-0.654,0.529-1.437,0.958-2.31,1.254c-0.874,0.296-1.837,0.46-2.851,0.46
								c-1.015,0-1.985-0.164-2.87-0.46c-0.884-0.296-1.683-0.725-2.355-1.254c-0.672-0.528-1.218-1.157-1.599-1.854
								c-0.38-0.696-0.595-1.46-0.604-2.261c-0.011-0.798,0.185-1.558,0.546-2.249c0.36-0.69,0.887-1.312,1.54-1.833
								c0.652-0.521,1.433-0.943,2.3-1.235c0.868-0.291,1.823-0.452,2.83-0.452c0.061,0,0.121,0,0.182,0.001
								c0.061,0.001,0.121,0.002,0.181,0.005c0.061,0.002,0.12,0.006,0.18,0.011c0.06,0.004,0.118,0.01,0.177,0.017l-0.011-0.58
								l-0.011-0.565l-0.229-12.073c1.107-0.07,2.153-0.304,3.097-0.671s1.784-0.866,2.483-1.465s1.256-1.299,1.633-2.068
								c0.377-0.768,0.573-1.605,0.551-2.48c-0.022-0.918-0.286-1.792-0.741-2.587c-0.454-0.794-1.1-1.508-1.89-2.108
								c-0.79-0.599-1.724-1.083-2.754-1.418C480.653,222.269,479.525,222.084,478.348,222.084"/>
							<path style="fill:#FFFFFF;" d="M754.357,362.241L715,179.886c10.872,3.422,21.284,7.92,30.959,13.33
								c9.762,5.458,18.803,11.859,26.824,19.037c8.116,7.262,15.209,15.337,20.955,24.05c5.827,8.835,10.28,18.345,13.008,28.342
								c2.77,10.155,3.57,20.115,2.57,29.645c-1.016,9.67-3.884,18.881-8.42,27.381c-4.595,8.608-10.891,16.467-18.68,23.305
								C774.35,351.885,764.983,357.73,754.357,362.241 M660.122,136.643h-1.311l0.714,4.07l0.726,4.139l4.631,26.399
								c-3.303,0.014-6.556,0.129-9.757,0.343c-3.202,0.213-6.353,0.525-9.446,0.932c-3.096,0.407-6.136,0.908-9.116,1.501
								c-2.983,0.593-5.908,1.278-8.769,2.051l0.743,0.905c2.817-0.756,5.698-1.426,8.637-2.007c2.936-0.58,5.93-1.071,8.979-1.47
								c3.047-0.398,6.148-0.705,9.301-0.915c3.151-0.21,6.354-0.325,9.604-0.34l1.655,9.439
								c-14.242,0.069-27.487,2.294-39.301,6.28c-11.892,4.013-22.402,9.834-31.043,17.085
								c-8.744,7.338-15.612,16.175-20.054,26.124c-4.513,10.11-6.536,21.403-5.454,33.467c0.943,10.53,4.177,20.804,9.336,30.492
								c5.237,9.833,12.448,19.041,21.235,27.27c8.896,8.331,19.379,15.632,31.008,21.53c11.73,5.949,24.575,10.446,38.05,13.119
								l0.173-1.302c-13.285-2.631-25.953-7.062-37.522-12.923c-11.471-5.812-21.814-13.007-30.596-21.218
								c-8.674-8.112-15.797-17.192-20.973-26.889c-5.102-9.555-8.303-19.69-9.246-30.08c-1.081-11.904,0.902-23.051,5.346-33.033
								c4.374-9.825,11.146-18.554,19.771-25.804c8.525-7.166,18.899-12.918,30.641-16.885c11.663-3.941,24.742-6.141,38.809-6.21
								l12.286,70.041c-1.961,0.076-3.771,0.455-5.367,1.08c-1.599,0.626-2.984,1.5-4.093,2.563
								c-1.109,1.065-1.942,2.323-2.432,3.714c-0.49,1.395-0.637,2.926-0.373,4.534l0.018,0.104h1.464l-0.018-0.104
								c-0.247-1.497-0.103-2.921,0.37-4.213c0.473-1.291,1.271-2.451,2.333-3.424c1.061-0.972,2.384-1.757,3.907-2.3
								c1.521-0.542,3.245-0.842,5.107-0.842s3.691,0.3,5.404,0.842c1.714,0.542,3.313,1.328,4.716,2.3
								c1.404,0.973,2.611,2.133,3.537,3.424c0.928,1.292,1.574,2.716,1.854,4.213c0.279,1.497,0.164,2.928-0.284,4.233
								c-0.45,1.308-1.233,2.489-2.29,3.483c-1.058,0.996-2.388,1.804-3.928,2.362c-1.541,0.56-3.291,0.869-5.186,0.869
								c-0.439,0-0.878-0.017-1.313-0.05s-0.866-0.083-1.293-0.147c-0.428-0.064-0.851-0.145-1.269-0.24s-0.83-0.206-1.235-0.33
								l-0.134,1.174c0.433,0.126,0.873,0.238,1.319,0.335s0.899,0.179,1.355,0.246c0.457,0.066,0.918,0.117,1.382,0.151
								c0.463,0.034,0.93,0.051,1.396,0.051c2.097,0,4.035-0.344,5.742-0.964c1.706-0.62,3.18-1.516,4.353-2.621
								c1.17-1.103,2.038-2.412,2.535-3.862c0.496-1.447,0.623-3.032,0.312-4.69c-0.302-1.608-0.987-3.139-1.969-4.534
								c-0.979-1.392-2.255-2.649-3.739-3.714c-1.483-1.064-3.176-1.938-4.994-2.563c-1.816-0.625-3.761-1.004-5.747-1.08
								l-14.212-80.497c4.052,0.017,8.082,0.188,12.083,0.506c4.002,0.319,7.977,0.786,11.912,1.393
								c3.939,0.607,7.842,1.356,11.697,2.238c3.861,0.883,7.677,1.901,11.435,3.047l39.373,183.393
								c-3.781,1.547-7.714,2.926-11.787,4.123c-4.08,1.199-8.299,2.217-12.644,3.041c-4.351,0.824-8.826,1.455-13.414,1.879
								c-4.59,0.424-9.291,0.642-14.088,0.642c-18.639,0-36.898-3.271-53.842-9.142c-16.801-5.822-32.185-14.16-45.313-24.318
								c-12.935-10.01-23.61-21.733-31.297-34.509c-7.542-12.533-12.182-26.036-13.278-39.903l-0.017-0.217h-1.464l0.017,0.217
								c1.094,14.03,5.773,27.695,13.393,40.382c7.768,12.935,18.563,24.808,31.65,34.947c13.284,10.292,28.855,18.74,45.867,24.641
								c17.156,5.952,35.647,9.268,54.523,9.268c4.797,0,9.499-0.216,14.092-0.635c4.59-0.419,9.069-1.041,13.426-1.856
								c4.352-0.814,8.577-1.82,12.667-3.006c4.083-1.184,8.028-2.547,11.825-4.077l1.685,7.848h1.586l-1.821-8.439
								c10.853-4.542,20.421-10.456,28.46-17.459c7.957-6.933,14.392-14.91,19.087-23.656c4.636-8.634,7.567-17.996,8.605-27.827
								c1.023-9.685,0.208-19.809-2.618-30.129c-3.75-13.687-10.694-26.469-19.958-37.886c-9.098-11.211-20.468-21.15-33.326-29.387
								c-12.688-8.128-26.891-14.643-41.908-19.126c-14.906-4.45-30.714-6.928-46.785-6.996l-4.661-26.399l-0.286-1.62l-0.169-0.957
								l-0.275-1.562L660.122,136.643"/>
							<path style="fill:#FFFFFF;" d="M707.97,147.499l-0.217,0.919c16.255,3.568,31.971,8.918,46.687,15.773
								c14.887,6.936,28.825,15.446,41.3,25.259c12.68,9.974,23.899,21.334,33.079,33.796c9.368,12.716,16.643,26.62,21.172,41.399
								h1.464c-4.583-14.9-11.936-28.919-21.396-41.739c-9.271-12.562-20.595-24.013-33.388-34.066
								c-12.584-9.889-26.642-18.465-41.65-25.453C740.186,156.481,724.348,151.091,707.97,147.499"/>
							<path style="fill:#FFFFFF;" d="M157.024,356.084c-10.581-4.471-19.908-10.266-27.745-17.113
								c-7.758-6.779-14.031-14.57-18.611-23.105c-4.522-8.427-7.382-17.562-8.397-27.15c-1-9.451-0.207-19.328,2.548-29.399
								c2.711-9.915,7.141-19.346,12.939-28.108c5.718-8.642,12.779-16.65,20.859-23.854c7.987-7.119,16.989-13.469,26.711-18.883
								c9.635-5.366,20.005-9.83,30.835-13.225L157.024,356.084 M245.417,166.672c-4.086,0-8.152,0.156-12.188,0.46
								c-4.038,0.305-8.048,0.758-12.019,1.353c-3.976,0.595-7.915,1.332-11.806,2.203c-3.897,0.873-7.749,1.881-11.544,3.017
								l1.312-6.095h-1.354l-1.415,6.536c-11.017,3.406-21.569,7.903-31.377,13.323c-9.896,5.469-19.064,11.894-27.2,19.106
								c-8.232,7.298-15.428,15.42-21.258,24.191c-5.913,8.895-10.431,18.474-13.198,28.55c-3.808,13.868-3.943,27.373-0.829,39.916
								c3.174,12.786,9.712,24.528,19.12,34.566c9.549,10.189,22.004,18.569,36.772,24.449c14.896,5.931,32.033,9.274,50.714,9.366
								l-8.792,49.632h1.627l8.736-49.632c3.88-0.019,7.747-0.177,11.591-0.47c3.842-0.293,7.661-0.721,11.447-1.276
								c3.783-0.557,7.533-1.24,11.239-2.047c3.703-0.805,7.361-1.732,10.968-2.775l-0.599-1.203
								c-3.542,1.019-7.134,1.925-10.768,2.711c-3.639,0.787-7.318,1.454-11.031,1.996c-3.716,0.542-7.463,0.959-11.234,1.244
								c-3.772,0.286-7.566,0.441-11.374,0.459l1.893-10.753c16.328-0.09,32.315-2.991,47.157-8.132
								c14.731-5.103,28.24-12.379,39.8-21.24c11.409-8.747,20.865-18.996,27.723-30.181c6.744-10.999,10.954-22.868,12.057-35.088
								c0.93-10.298-0.424-20.032-3.672-28.939c-3.203-8.783-8.256-16.783-14.802-23.755c-6.474-6.894-14.428-12.805-23.541-17.495
								c-9.044-4.653-19.264-8.123-30.371-10.167l-0.523,0.984c10.974,2.014,21.071,5.439,30.005,10.036
								c9.002,4.633,16.857,10.473,23.247,17.286c6.462,6.889,11.446,14.793,14.601,23.47c3.199,8.798,4.526,18.411,3.597,28.579
								c-1.102,12.055-5.269,23.763-11.932,34.608c-6.774,11.027-16.109,21.131-27.367,29.752
								c-11.403,8.731-24.727,15.901-39.252,20.93c-14.634,5.064-30.394,7.923-46.491,8.013l14.679-83.395h-1.461l-16.916,95.485
								c-4.702-0.021-9.308-0.253-13.807-0.684c-4.496-0.43-8.882-1.058-13.147-1.873c-4.26-0.814-8.397-1.814-12.399-2.991
								c-3.996-1.174-7.855-2.522-11.569-4.034l39.155-181.865c3.796-1.153,7.65-2.177,11.552-3.063
								c3.895-0.885,7.839-1.633,11.82-2.237c3.977-0.604,7.994-1.064,12.039-1.374c4.043-0.309,8.116-0.468,12.21-0.468
								c15.863,0,30.63,2.38,43.826,6.706c13.291,4.357,25.075,10.718,34.805,18.67c9.858,8.057,17.66,17.789,22.78,28.774
								c5.212,11.183,7.667,23.708,6.663,37.122h1.457c1.001-13.571-1.496-26.24-6.781-37.547
								c-5.191-11.106-13.09-20.942-23.067-29.083c-9.845-8.034-21.764-14.459-35.204-18.861
								C276.379,169.075,261.451,166.672,245.417,166.672"/>
							<path style="fill:#FFFFFF;" d="M61.745,259.316h-1.458c-4.661,15.122-6.086,30.014-4.535,44.238
								c1.585,14.536,6.273,28.337,13.758,40.91c7.626,12.81,18.123,24.292,31.117,33.917c13.175,9.76,28.842,17.556,46.54,22.846
								l0.827-1.359c-17.541-5.229-33.072-12.939-46.137-22.597c-12.887-9.525-23.302-20.892-30.873-33.575
								c-7.434-12.452-12.097-26.123-13.685-40.526C55.745,289.073,57.141,274.311,61.745,259.316"/>
							<polyline style="fill:#FFFFFF;" points="518.602,338.648 517.054,338.648 519.677,396.596 492.77,396.596 493.098,409.074 
								520.241,409.074 522.229,453.002 467.131,453.002 466.833,415.393 443.183,415.393 442.862,453.002 387.754,453.002 
								391.092,380.226 416.762,380.226 416.8,378.84 364.586,378.84 365.185,369.6 403.753,369.6 403.804,368.234 391.642,368.234 
								392.832,342.304 391.279,342.304 390.061,368.234 363.691,368.234 362.9,380.226 389.497,380.226 386.076,453.002 
								303.544,453.002 303.386,454.538 386.004,454.538 383.306,511.938 385.051,511.938 387.684,454.538 442.85,454.538 
								442.511,494.232 465.732,494.232 465.722,492.622 444.248,492.622 444.808,416.852 465.208,416.852 465.464,454.538 
								466.309,454.538 467.144,454.538 522.299,454.538 523.533,481.807 525.244,481.807 523.979,454.538 546.391,454.538 
								546.296,453.002 523.907,453.002 521.869,409.074 548.028,409.074 547.936,407.64 494.678,407.64 494.413,398.009 
								533.807,398.009 533.729,396.596 521.291,396.596 518.602,338.648 							"/>
							<path style="fill:#FFFFFF;" d="M231.277,246.74c-2.049,0-4.062,0.329-5.947,0.922c-1.888,0.594-3.65,1.455-5.196,2.519
								c-1.548,1.066-2.879,2.337-3.901,3.75c-1.024,1.417-1.738,2.977-2.047,4.616c-0.31,1.645-0.183,3.216,0.311,4.649
								c0.495,1.437,1.36,2.733,2.525,3.825c1.167,1.093,2.634,1.98,4.333,2.594c1.7,0.614,3.629,0.954,5.716,0.954
								c2.087,0,4.136-0.34,6.052-0.954c1.914-0.614,3.693-1.5,5.246-2.594c1.549-1.092,2.871-2.389,3.873-3.825
								c0.999-1.433,1.68-3.004,1.951-4.649l0.023-0.194h-1.448l-0.023,0.194c-0.247,1.486-0.863,2.905-1.768,4.199
								c-0.906,1.296-2.101,2.466-3.5,3.45c-1.402,0.985-3.009,1.784-4.736,2.336c-1.729,0.553-3.578,0.859-5.46,0.859
								s-3.624-0.306-5.157-0.859c-1.532-0.553-2.857-1.351-3.911-2.336c-1.052-0.984-1.833-2.154-2.282-3.45
								c-0.447-1.294-0.563-2.713-0.285-4.199c0.278-1.482,0.921-2.893,1.845-4.172c0.922-1.277,2.124-2.426,3.521-3.389
								c1.396-0.962,2.988-1.739,4.693-2.276c1.704-0.536,3.523-0.833,5.375-0.833c0.404,0,0.803,0.014,1.194,0.042
								c0.391,0.028,0.775,0.069,1.151,0.124s0.744,0.123,1.104,0.203c0.36,0.08,0.71,0.174,1.051,0.279l0.924-0.995
								c-0.393-0.127-0.798-0.241-1.214-0.339c-0.416-0.098-0.843-0.181-1.28-0.247c-0.437-0.067-0.883-0.118-1.338-0.152
								S231.749,246.74,231.277,246.74"/>
						</g>
					</g>
				</g>
			</g>
		</g>
	</g>
</g>
</svg>
