<?xml version="1.0" encoding="iso-8859-1"?>
<!-- Generator: Adobe Illustrator 16.0.0, SVG Export Plug-In . SVG Version: 6.00 Build 0)  -->
<!DOCTYPE svg PUBLIC "-//W3C//DTD SVG 1.1//EN" "http://www.w3.org/Graphics/SVG/1.1/DTD/svg11.dtd">
<svg version="1.1" id="Layer_2" xmlns="http://www.w3.org/2000/svg" xmlns:xlink="http://www.w3.org/1999/xlink" x="0px" y="0px"
	 width="910.886px" height="597.925px" viewBox="0 0 910.886 597.925" style="enable-background:new 0 0 910.886 597.925;"
	 xml:space="preserve">
<g>
	<g>
		<g style="enable-background:new    ;">
			<defs>
				<polygon id="SVGID_1_" style="enable-background:new    ;" points="-104.406,600.169 70.88,92.057 840.008,92.057 
					1015.293,600.169 				"/>
			</defs>
			<clipPath id="SVGID_2_">
				<use xlink:href="#SVGID_1_"  style="overflow:visible;"/>
			</clipPath>
			<g style="clip-path:url(#SVGID_2_);">
				<g>
					<g>
						<g>
							<path style="fill:#FFFFFF;" d="M430.559,287.141c-1.037,0-2.022-0.171-2.915-0.48c-0.892-0.309-1.692-0.755-2.359-1.306
								c-0.667-0.55-1.201-1.205-1.563-1.93c-0.362-0.724-0.552-1.52-0.532-2.352c0.021-0.833,0.25-1.627,0.646-2.348
								c0.396-0.721,0.958-1.369,1.646-1.913c0.688-0.543,1.5-0.983,2.398-1.287s1.88-0.472,2.908-0.472
								c1.025,0,2,0.168,2.885,0.472c0.885,0.304,1.681,0.744,2.347,1.287c0.667,0.544,1.205,1.192,1.573,1.913
								c0.369,0.721,0.567,1.515,0.557,2.348c-0.011,0.833-0.231,1.628-0.621,2.352c-0.39,0.726-0.949,1.38-1.636,1.93
								c-0.688,0.551-1.504,0.998-2.407,1.306C432.583,286.97,431.593,287.141,430.559,287.141 M431.071,260.184
								c-1.016,0-1.98-0.164-2.855-0.46c-0.874-0.296-1.657-0.725-2.311-1.254c-0.653-0.528-1.177-1.157-1.532-1.854
								c-0.355-0.696-0.542-1.46-0.522-2.261c0.02-0.798,0.244-1.558,0.631-2.249c0.387-0.69,0.938-1.312,1.612-1.833
								c0.673-0.521,1.47-0.943,2.349-1.235c0.879-0.291,1.842-0.452,2.848-0.452c1.004,0,1.959,0.161,2.826,0.452
								c0.868,0.292,1.647,0.713,2.3,1.235c0.654,0.522,1.181,1.143,1.542,1.833c0.361,0.691,0.556,1.451,0.546,2.249
								c-0.011,0.8-0.227,1.564-0.608,2.261c-0.381,0.697-0.929,1.325-1.602,1.854c-0.673,0.529-1.472,0.958-2.356,1.254
								S432.084,260.184,431.071,260.184 M432.232,236.492h-1.432l-0.215,10.983c-1.122,0.071-2.187,0.311-3.156,0.686
								c-0.969,0.375-1.842,0.886-2.578,1.501c-0.736,0.615-1.336,1.335-1.757,2.128c-0.421,0.793-0.665,1.659-0.688,2.565
								c-0.023,0.911,0.175,1.783,0.558,2.583c0.383,0.801,0.95,1.53,1.661,2.154c0.712,0.625,1.568,1.145,2.53,1.526
								c0.962,0.382,2.028,0.626,3.159,0.699l-0.246,12.578c-1.145,0.075-2.233,0.324-3.222,0.714
								c-0.99,0.391-1.881,0.924-2.632,1.565c-0.752,0.642-1.364,1.393-1.795,2.22c-0.431,0.828-0.68,1.732-0.704,2.678
								c-0.026,0.998,0.201,1.951,0.633,2.819c0.433,0.869,1.071,1.653,1.869,2.313c0.799,0.66,1.756,1.195,2.825,1.565
								c1.07,0.37,2.25,0.575,3.493,0.575c1.239,0,2.424-0.205,3.506-0.575c1.081-0.37,2.059-0.905,2.882-1.565
								c0.823-0.659,1.492-1.443,1.958-2.313c0.466-0.868,0.729-1.821,0.741-2.819c0.011-0.946-0.204-1.85-0.604-2.678
								c-0.4-0.827-0.984-1.578-1.712-2.22c-0.728-0.642-1.599-1.174-2.573-1.565c-0.974-0.391-2.05-0.64-3.19-0.714l0.232-12.578
								c1.131-0.073,2.206-0.317,3.182-0.699c0.975-0.382,1.852-0.902,2.588-1.526c0.735-0.625,1.331-1.353,1.745-2.154
								c0.413-0.8,0.646-1.672,0.657-2.583c0.011-0.906-0.2-1.772-0.592-2.565c-0.392-0.792-0.965-1.513-1.678-2.128
								c-0.713-0.615-1.566-1.126-2.521-1.501c-0.954-0.375-2.009-0.614-3.125-0.686L432.232,236.492"/>
							<path style="fill:#FFFFFF;" d="M479.048,260.184c-1.015,0-1.985-0.164-2.87-0.46c-0.884-0.296-1.683-0.725-2.355-1.254
								c-0.672-0.528-1.218-1.157-1.599-1.854c-0.38-0.696-0.595-1.46-0.604-2.261c-0.011-0.798,0.185-1.558,0.546-2.249
								c0.36-0.69,0.887-1.312,1.54-1.833c0.652-0.521,1.433-0.943,2.3-1.235c0.868-0.291,1.823-0.452,2.83-0.452
								c1.004,0,1.965,0.161,2.843,0.452c0.878,0.292,1.674,0.713,2.346,1.235c0.673,0.522,1.224,1.143,1.61,1.833
								c0.387,0.691,0.61,1.451,0.63,2.249c0.02,0.8-0.168,1.564-0.523,2.261c-0.355,0.697-0.88,1.325-1.532,1.854
								c-0.654,0.529-1.437,0.958-2.31,1.254C481.024,260.02,480.062,260.184,479.048,260.184 M478.572,234.314
								c-0.995,0-1.945-0.158-2.813-0.442c-0.866-0.284-1.648-0.696-2.308-1.204c-0.658-0.507-1.193-1.111-1.565-1.78
								c-0.373-0.668-0.583-1.402-0.593-2.171c-0.01-0.766,0.182-1.496,0.536-2.16c0.354-0.663,0.869-1.26,1.51-1.761
								c0.64-0.5,1.403-0.906,2.254-1.186c0.851-0.279,1.787-0.435,2.773-0.435c0.984,0,1.926,0.155,2.786,0.435
								c0.86,0.28,1.64,0.686,2.298,1.186c0.66,0.501,1.198,1.098,1.577,1.761c0.379,0.664,0.598,1.394,0.616,2.16
								c0.019,0.769-0.165,1.502-0.514,2.171c-0.349,0.669-0.862,1.272-1.502,1.78c-0.642,0.508-1.408,0.919-2.264,1.204
								C480.509,234.157,479.565,234.314,478.572,234.314 M478.348,222.084c-1.181,0-2.303,0.185-3.32,0.52
								c-1.019,0.335-1.934,0.82-2.701,1.418c-0.767,0.6-1.386,1.314-1.811,2.108c-0.425,0.794-0.655,1.669-0.645,2.587
								c0.01,0.875,0.237,1.712,0.642,2.48c0.405,0.769,0.988,1.469,1.708,2.068c0.721,0.6,1.579,1.099,2.535,1.465
								s2.009,0.601,3.117,0.671l0.215,12.073c-1.117,0.071-2.172,0.311-3.126,0.686c-0.955,0.375-1.809,0.886-2.522,1.501
								s-1.287,1.335-1.68,2.128c-0.393,0.793-0.604,1.659-0.594,2.565c0.011,0.911,0.243,1.783,0.656,2.583
								c0.413,0.801,1.008,1.53,1.743,2.154c0.736,0.625,1.612,1.145,2.588,1.526s2.05,0.626,3.182,0.699l0.198,11.111h1.473
								l-0.211-11.111c1.131-0.073,2.198-0.317,3.161-0.699c0.962-0.382,1.82-0.902,2.533-1.526s1.281-1.353,1.666-2.154
								c0.384-0.8,0.583-1.672,0.561-2.583c-0.023-0.906-0.267-1.772-0.688-2.565c-0.422-0.792-1.021-1.513-1.759-2.128
								c-0.736-0.615-1.61-1.126-2.58-1.501c-0.969-0.375-2.034-0.614-3.156-0.686l-0.229-12.073
								c1.107-0.07,2.153-0.304,3.097-0.671s1.784-0.866,2.483-1.465s1.256-1.299,1.633-2.068c0.377-0.768,0.573-1.605,0.551-2.48
								c-0.022-0.918-0.286-1.792-0.741-2.587c-0.454-0.794-1.1-1.508-1.89-2.108c-0.79-0.599-1.724-1.083-2.754-1.418
								C480.653,222.269,479.525,222.084,478.348,222.084"/>
							<path style="fill:#FFFFFF;" d="M754.357,362.241L715,179.886c10.872,3.422,21.284,7.92,30.959,13.33
								c9.762,5.458,18.803,11.859,26.824,19.037c8.116,7.262,15.209,15.337,20.955,24.05c5.827,8.835,10.28,18.345,13.008,28.342
								c2.77,10.155,3.57,20.115,2.57,29.645c-1.016,9.67-3.884,18.881-8.42,27.381c-4.595,8.608-10.891,16.467-18.68,23.305
								C774.35,351.885,764.983,357.73,754.357,362.241 M659.043,130.531h-1.304l1.786,10.181l0.726,4.139l4.632,26.405
								c-6.424,0.027-12.665,0.439-18.692,1.208c-6.034,0.771-11.862,1.899-17.451,3.358c-5.603,1.463-10.972,3.261-16.072,5.366
								c-5.118,2.113-9.973,4.538-14.526,7.248l1.037,0.75c4.498-2.669,9.292-5.057,14.346-7.139
								c5.037-2.074,10.337-3.846,15.866-5.288c5.517-1.438,11.269-2.552,17.225-3.311c5.948-0.758,12.105-1.166,18.444-1.192
								l1.654,9.433c-14.242,0.069-27.487,2.294-39.301,6.28c-11.892,4.013-22.402,9.834-31.043,17.085
								c-8.744,7.338-15.612,16.175-20.054,26.124c-4.513,10.11-6.536,21.403-5.454,33.467c1.063,11.868,5.035,23.409,11.395,34.151
								c6.465,10.92,15.379,20.982,26.163,29.677c10.925,8.807,23.722,16.17,37.738,21.555c14.127,5.428,29.41,8.814,45.129,9.637
								l-0.229-1.347c-15.488-0.82-30.545-4.163-44.464-9.514c-13.812-5.31-26.422-12.565-37.191-21.243
								c-10.633-8.567-19.426-18.484-25.807-29.246c-6.279-10.589-10.206-21.968-11.269-33.67
								c-1.081-11.904,0.902-23.051,5.346-33.033c4.374-9.825,11.146-18.554,19.771-25.804c8.525-7.166,18.899-12.918,30.641-16.885
								c11.663-3.941,24.742-6.141,38.809-6.21l12.286,70.041c-1.961,0.076-3.771,0.455-5.367,1.08
								c-1.599,0.626-2.984,1.5-4.093,2.563c-1.109,1.065-1.942,2.323-2.432,3.714c-0.49,1.395-0.637,2.926-0.373,4.534l0.018,0.104
								h1.464l-0.018-0.104c-0.247-1.497-0.103-2.921,0.37-4.213c0.473-1.291,1.271-2.451,2.333-3.424
								c1.061-0.972,2.384-1.757,3.907-2.3c1.521-0.542,3.245-0.842,5.107-0.842s3.691,0.3,5.404,0.842
								c1.714,0.542,3.313,1.328,4.716,2.3c1.404,0.973,2.611,2.133,3.537,3.424c0.928,1.292,1.574,2.716,1.854,4.213
								c0.279,1.497,0.164,2.928-0.284,4.233c-0.45,1.308-1.233,2.489-2.29,3.483c-1.058,0.996-2.388,1.804-3.928,2.362
								c-1.541,0.56-3.291,0.869-5.186,0.869c-0.763,0-1.518-0.05-2.261-0.146s-1.475-0.24-2.189-0.426
								c-0.714-0.186-1.41-0.414-2.086-0.681c-0.676-0.267-1.329-0.573-1.957-0.913l-0.623,1.008
								c0.688,0.368,1.405,0.698,2.147,0.987c0.742,0.29,1.509,0.537,2.295,0.738c0.785,0.202,1.589,0.357,2.405,0.462
								c0.815,0.105,1.644,0.16,2.479,0.16c2.097,0,4.035-0.344,5.742-0.964c1.706-0.62,3.18-1.516,4.353-2.621
								c1.17-1.103,2.038-2.412,2.535-3.862c0.496-1.447,0.623-3.032,0.312-4.69c-0.302-1.608-0.987-3.139-1.969-4.534
								c-0.979-1.392-2.255-2.649-3.739-3.714c-1.483-1.064-3.176-1.938-4.994-2.563c-1.816-0.625-3.761-1.004-5.747-1.08
								l-14.212-80.497c4.052,0.017,8.082,0.188,12.083,0.506c4.002,0.319,7.977,0.786,11.912,1.393
								c3.939,0.607,7.842,1.356,11.697,2.238c3.861,0.883,7.677,1.901,11.435,3.047l39.373,183.393
								c-3.781,1.547-7.714,2.926-11.787,4.123c-4.08,1.199-8.299,2.217-12.644,3.041c-4.351,0.824-8.826,1.455-13.414,1.879
								c-4.59,0.424-9.291,0.642-14.088,0.642c-18.639,0-36.898-3.271-53.842-9.142c-16.801-5.822-32.185-14.16-45.313-24.318
								c-12.935-10.01-23.61-21.733-31.297-34.509c-7.542-12.533-12.182-26.036-13.278-39.903l-0.017-0.217h-1.464l0.017,0.217
								c1.094,14.03,5.773,27.695,13.393,40.382c7.768,12.935,18.563,24.808,31.65,34.947c13.284,10.292,28.855,18.74,45.867,24.641
								c17.156,5.952,35.647,9.268,54.523,9.268c4.797,0,9.499-0.216,14.092-0.635c4.59-0.419,9.069-1.041,13.426-1.856
								c4.352-0.814,8.577-1.82,12.667-3.006c4.083-1.184,8.028-2.547,11.825-4.077l4.552,21.203h1.602l-4.704-21.795
								c10.853-4.542,20.421-10.456,28.46-17.459c7.957-6.933,14.392-14.91,19.087-23.656c4.636-8.634,7.567-17.996,8.605-27.827
								c1.023-9.685,0.208-19.809-2.618-30.129c-3.75-13.687-10.694-26.469-19.958-37.886c-9.098-11.211-20.468-21.15-33.326-29.387
								c-12.688-8.128-26.891-14.643-41.908-19.126c-14.906-4.45-30.714-6.928-46.785-6.996l-4.661-26.399l-0.286-1.62l-0.169-0.957
								l-0.275-1.562L659.043,130.531"/>
							<path style="fill:#FFFFFF;" d="M696.764,145.33l-0.125,0.939c17.407,2.905,34.307,7.861,50.164,14.536
								c16.038,6.751,31.105,15.302,44.601,25.329c13.724,10.196,25.888,21.967,35.816,34.979
								c10.141,13.29,17.986,27.923,22.771,43.533h1.464c-4.841-15.737-12.77-30.491-23.011-43.89
								c-10.024-13.116-22.302-24.982-36.146-35.259c-13.613-10.104-28.807-18.722-44.976-25.524
								C731.336,153.247,714.304,148.255,696.764,145.33"/>
							<path style="fill:#FFFFFF;" d="M157.024,356.084c-10.581-4.471-19.908-10.266-27.745-17.113
								c-7.758-6.779-14.031-14.57-18.611-23.105c-4.522-8.427-7.382-17.562-8.397-27.15c-1-9.451-0.207-19.328,2.548-29.399
								c2.711-9.915,7.141-19.346,12.939-28.108c5.718-8.642,12.779-16.65,20.859-23.854c7.987-7.119,16.989-13.469,26.711-18.883
								c9.635-5.366,20.005-9.83,30.835-13.225L157.024,356.084 M201.181,158.271h-1.343l-3.436,15.874
								c-11.017,3.406-21.569,7.903-31.377,13.323c-9.896,5.469-19.064,11.894-27.2,19.106c-8.232,7.298-15.428,15.42-21.258,24.191
								c-5.913,8.895-10.431,18.474-13.198,28.55c-3.808,13.868-3.943,27.373-0.829,39.916c3.174,12.786,9.712,24.528,19.12,34.566
								c9.549,10.189,22.004,18.569,36.772,24.449c14.896,5.931,32.033,9.274,50.714,9.366l-10.498,59.261h1.638l10.433-59.269
								c7.5-0.037,14.945-0.597,22.273-1.638c7.317-1.04,14.509-2.559,21.514-4.514c6.985-1.949,13.776-4.33,20.316-7.099
								c6.514-2.758,12.771-5.896,18.717-9.373l-0.816-1.041c-5.87,3.426-12.048,6.519-18.479,9.237
								c-6.457,2.729-13.161,5.075-20.057,6.998c-6.916,1.928-14.014,3.426-21.239,4.451c-7.235,1.027-14.585,1.58-21.99,1.616
								l1.892-10.745c16.328-0.09,32.315-2.991,47.157-8.132c14.731-5.103,28.24-12.379,39.8-21.24
								c11.409-8.747,20.865-18.996,27.723-30.181c6.744-10.999,10.954-22.868,12.057-35.088c1.046-11.586-0.798-22.46-4.981-32.249
								c-4.118-9.638-10.516-18.253-18.695-25.499c-8.083-7.161-17.94-13.014-29.126-17.22c-11.108-4.177-23.586-6.75-37.04-7.371
								l-0.175,1.024c13.274,0.618,25.585,3.166,36.544,7.295c11.034,4.158,20.755,9.942,28.724,17.017
								c8.062,7.157,14.364,15.665,18.415,25.179c4.114,9.662,5.92,20.392,4.875,31.823c-1.102,12.055-5.269,23.763-11.932,34.608
								c-6.774,11.027-16.109,21.131-27.367,29.752c-11.403,8.731-24.727,15.901-39.252,20.93
								c-14.634,5.064-30.394,7.923-46.491,8.013l14.679-83.395h-1.461l-16.916,95.485c-4.702-0.021-9.308-0.253-13.807-0.684
								c-4.496-0.43-8.882-1.058-13.147-1.873c-4.26-0.814-8.397-1.814-12.399-2.991c-3.996-1.174-7.855-2.522-11.569-4.034
								l39.155-181.865c3.796-1.153,7.65-2.177,11.552-3.063c3.895-0.885,7.839-1.633,11.82-2.237
								c3.977-0.604,7.994-1.064,12.039-1.374c4.043-0.309,8.116-0.468,12.21-0.468c15.863,0,30.63,2.38,43.826,6.706
								c13.291,4.357,25.075,10.718,34.805,18.67c9.858,8.057,17.66,17.789,22.78,28.774c5.212,11.183,7.667,23.708,6.663,37.122
								h1.457c1.001-13.571-1.496-26.24-6.781-37.547c-5.191-11.106-13.09-20.942-23.067-29.083
								c-9.845-8.034-21.764-14.459-35.204-18.861c-13.342-4.369-28.271-6.772-44.305-6.772c-4.086,0-8.152,0.156-12.188,0.46
								c-4.038,0.305-8.048,0.758-12.019,1.353c-3.976,0.595-7.915,1.332-11.806,2.203c-3.897,0.873-7.749,1.881-11.544,3.017
								L201.181,158.271"/>
							<path style="fill:#FFFFFF;" d="M61.745,259.316h-1.458c-4.936,16.014-6.242,31.77-4.229,46.746
								c2.059,15.322,7.586,29.783,16.213,42.794c8.793,13.263,20.765,24.955,35.456,34.444
								c14.893,9.619,32.48,16.911,52.194,21.237l0.594-1.417c-19.518-4.283-36.932-11.499-51.682-21.019
								c-14.552-9.392-26.415-20.964-35.133-34.091c-8.555-12.882-14.043-27.2-16.098-42.376
								C55.593,290.8,56.871,275.188,61.745,259.316"/>
							<polyline style="fill:#FFFFFF;" points="518.264,331.359 516.725,331.359 519.677,396.596 492.77,396.596 493.098,409.074 
								520.241,409.074 522.229,453.002 467.131,453.002 466.833,415.393 443.183,415.393 442.862,453.002 387.754,453.002 
								391.092,380.226 417.689,380.226 417.851,374.204 416.272,374.204 416.142,378.84 364.586,378.84 365.185,369.6 
								403.753,369.6 403.804,368.234 391.642,368.234 392.832,342.304 391.279,342.304 390.061,368.234 363.691,368.234 
								362.9,380.226 389.497,380.226 386.076,453.002 303.544,453.002 303.386,454.538 386.004,454.538 382.534,528.353 
								384.298,528.353 387.684,454.538 442.85,454.538 442.511,494.232 465.732,494.232 465.722,492.622 444.248,492.622 
								444.808,416.852 465.208,416.852 465.52,462.763 467.208,462.763 467.144,454.538 522.299,454.538 523.533,481.807 
								525.244,481.807 523.979,454.538 561.088,454.538 560.979,453.002 523.907,453.002 521.869,409.074 549.023,409.074 
								548.637,403.164 547.025,403.164 547.313,407.64 494.678,407.64 494.413,398.009 533.807,398.009 533.729,396.596 
								521.291,396.596 518.264,331.359 							"/>
							<path style="fill:#FFFFFF;" d="M231.277,246.74c-2.049,0-4.062,0.329-5.947,0.922c-1.888,0.594-3.65,1.455-5.196,2.519
								c-1.548,1.066-2.879,2.337-3.901,3.75c-1.024,1.417-1.738,2.977-2.047,4.616c-0.31,1.645-0.183,3.216,0.311,4.649
								c0.495,1.437,1.36,2.733,2.525,3.825c1.167,1.093,2.634,1.98,4.333,2.594c1.7,0.614,3.629,0.954,5.716,0.954
								c2.087,0,4.136-0.34,6.052-0.954c1.914-0.614,3.693-1.5,5.246-2.594c1.549-1.092,2.871-2.389,3.873-3.825
								c0.999-1.433,1.68-3.004,1.951-4.649l0.023-0.194h-1.448l-0.023,0.194c-0.247,1.486-0.863,2.905-1.768,4.199
								c-0.906,1.296-2.101,2.466-3.5,3.45c-1.402,0.985-3.009,1.784-4.736,2.336c-1.729,0.553-3.578,0.859-5.46,0.859
								s-3.624-0.306-5.157-0.859c-1.532-0.553-2.857-1.351-3.911-2.336c-1.052-0.984-1.833-2.154-2.282-3.45
								c-0.447-1.294-0.563-2.713-0.285-4.199c0.278-1.482,0.921-2.893,1.845-4.172c0.922-1.277,2.124-2.426,3.521-3.389
								c1.396-0.962,2.988-1.739,4.693-2.276c1.704-0.536,3.523-0.833,5.375-0.833c0.755,0,1.488,0.049,2.193,0.143
								c0.706,0.095,1.385,0.235,2.032,0.417c0.647,0.182,1.262,0.406,1.84,0.669c0.579,0.263,1.12,0.564,1.619,0.901l1.146-0.833
								c-0.563-0.384-1.171-0.728-1.821-1.028c-0.649-0.3-1.339-0.556-2.064-0.764s-1.487-0.368-2.279-0.476
								C232.95,246.796,232.126,246.74,231.277,246.74"/>
						</g>
					</g>
				</g>
			</g>
		</g>
	</g>
</g>
</svg>
