<?xml version="1.0" encoding="iso-8859-1"?>
<!-- Generator: Adobe Illustrator 16.0.0, SVG Export Plug-In . SVG Version: 6.00 Build 0)  -->
<!DOCTYPE svg PUBLIC "-//W3C//DTD SVG 1.1//EN" "http://www.w3.org/Graphics/SVG/1.1/DTD/svg11.dtd">
<svg version="1.1" id="Layer_2" xmlns="http://www.w3.org/2000/svg" xmlns:xlink="http://www.w3.org/1999/xlink" x="0px" y="0px"
	 width="910.886px" height="597.925px" viewBox="0 0 910.886 597.925" style="enable-background:new 0 0 910.886 597.925;"
	 xml:space="preserve">
<g>
	<g>
		<g style="enable-background:new    ;">
			<defs>
				<polygon id="SVGID_1_" style="enable-background:new    ;" points="-104.406,600.169 70.88,92.057 840.008,92.057 
					1015.293,600.169 				"/>
			</defs>
			<clipPath id="SVGID_2_">
				<use xlink:href="#SVGID_1_"  style="overflow:visible;"/>
			</clipPath>
			<g style="clip-path:url(#SVGID_2_);">
				<g>
					<g>
						<g>
							<path style="fill:#FFFFFF;" d="M430.559,287.141c-1.037,0-2.022-0.171-2.915-0.48c-0.892-0.309-1.692-0.755-2.359-1.306
								c-0.667-0.55-1.201-1.205-1.563-1.93c-0.362-0.724-0.552-1.52-0.532-2.352c0.021-0.833,0.25-1.627,0.646-2.348
								c0.396-0.721,0.958-1.369,1.646-1.913c0.688-0.543,1.5-0.983,2.398-1.287s1.88-0.472,2.908-0.472
								c1.025,0,2,0.168,2.885,0.472c0.885,0.304,1.681,0.744,2.347,1.287c0.667,0.544,1.205,1.192,1.573,1.913
								c0.369,0.721,0.567,1.515,0.557,2.348c-0.011,0.833-0.231,1.628-0.621,2.352c-0.39,0.726-0.949,1.38-1.636,1.93
								c-0.688,0.551-1.504,0.998-2.407,1.306C432.583,286.97,431.593,287.141,430.559,287.141 M431.071,260.184
								c-1.016,0-1.98-0.164-2.855-0.46c-0.874-0.296-1.657-0.725-2.311-1.254c-0.653-0.528-1.177-1.157-1.532-1.854
								c-0.355-0.696-0.542-1.46-0.522-2.261c0.02-0.798,0.244-1.558,0.631-2.249c0.387-0.69,0.938-1.312,1.612-1.833
								c0.673-0.521,1.47-0.943,2.349-1.235c0.879-0.291,1.842-0.452,2.848-0.452c1.004,0,1.959,0.161,2.826,0.452
								c0.868,0.292,1.647,0.713,2.3,1.235c0.654,0.522,1.181,1.143,1.542,1.833c0.361,0.691,0.556,1.451,0.546,2.249
								c-0.011,0.8-0.227,1.564-0.608,2.261c-0.381,0.697-0.929,1.325-1.602,1.854c-0.673,0.529-1.472,0.958-2.356,1.254
								S432.084,260.184,431.071,260.184 M429.914,234.154l-0.579,1.048c0.117,0.023,0.237,0.045,0.358,0.065
								c0.121,0.02,0.244,0.039,0.369,0.055s0.25,0.032,0.377,0.045c0.127,0.014,0.255,0.025,0.383,0.035l-0.236,12.073
								c-1.122,0.071-2.187,0.311-3.156,0.686c-0.969,0.375-1.842,0.886-2.578,1.501c-0.736,0.615-1.336,1.335-1.757,2.128
								c-0.421,0.793-0.665,1.659-0.688,2.565c-0.023,0.911,0.175,1.783,0.558,2.583c0.383,0.801,0.95,1.53,1.661,2.154
								c0.712,0.625,1.568,1.145,2.53,1.526c0.962,0.382,2.028,0.626,3.159,0.699l-0.246,12.578
								c-1.145,0.075-2.233,0.324-3.222,0.714c-0.99,0.391-1.881,0.924-2.632,1.565c-0.752,0.642-1.364,1.393-1.795,2.22
								c-0.431,0.828-0.68,1.732-0.704,2.678c-0.026,0.998,0.201,1.951,0.633,2.819c0.433,0.869,1.071,1.653,1.869,2.313
								c0.799,0.66,1.756,1.195,2.825,1.565c1.07,0.37,2.25,0.575,3.493,0.575c1.239,0,2.424-0.205,3.506-0.575
								c1.081-0.37,2.059-0.905,2.882-1.565c0.823-0.659,1.492-1.443,1.958-2.313c0.466-0.868,0.729-1.821,0.741-2.819
								c0.011-0.946-0.204-1.85-0.604-2.678c-0.4-0.827-0.984-1.578-1.712-2.22c-0.728-0.642-1.599-1.174-2.573-1.565
								c-0.974-0.391-2.05-0.64-3.19-0.714l0.232-12.578c1.131-0.073,2.206-0.317,3.182-0.699c0.975-0.382,1.852-0.902,2.588-1.526
								c0.735-0.625,1.331-1.353,1.745-2.154c0.413-0.8,0.646-1.672,0.657-2.583c0.011-0.906-0.2-1.772-0.592-2.565
								c-0.392-0.792-0.965-1.513-1.678-2.128c-0.713-0.615-1.566-1.126-2.521-1.501c-0.954-0.375-2.009-0.614-3.125-0.686
								l0.222-12.073l0.01-0.554l0.011-0.567c-0.058,0.005-0.117,0.009-0.176,0.014c-0.06,0.004-0.12,0.007-0.18,0.01
								s-0.12,0.005-0.179,0.007s-0.118,0.002-0.176,0.002c-0.141,0-0.281-0.003-0.42-0.01c-0.139-0.006-0.277-0.017-0.414-0.03
								s-0.273-0.03-0.409-0.05S430.048,234.181,429.914,234.154"/>
							<path style="fill:#FFFFFF;" d="M479.048,260.184c-1.015,0-1.985-0.164-2.87-0.46c-0.884-0.296-1.683-0.725-2.355-1.254
								c-0.672-0.528-1.218-1.157-1.599-1.854c-0.38-0.696-0.595-1.46-0.604-2.261c-0.011-0.798,0.185-1.558,0.546-2.249
								c0.36-0.69,0.887-1.312,1.54-1.833c0.652-0.521,1.433-0.943,2.3-1.235c0.868-0.291,1.823-0.452,2.83-0.452
								c1.004,0,1.965,0.161,2.843,0.452c0.878,0.292,1.674,0.713,2.346,1.235c0.673,0.522,1.224,1.143,1.61,1.833
								c0.387,0.691,0.61,1.451,0.63,2.249c0.02,0.8-0.168,1.564-0.523,2.261c-0.355,0.697-0.88,1.325-1.532,1.854
								c-0.654,0.529-1.437,0.958-2.31,1.254C481.024,260.02,480.062,260.184,479.048,260.184 M478.572,234.314
								c-0.995,0-1.945-0.158-2.813-0.442c-0.866-0.284-1.648-0.696-2.308-1.204c-0.658-0.507-1.193-1.111-1.565-1.78
								c-0.373-0.668-0.583-1.402-0.593-2.171c-0.01-0.766,0.182-1.496,0.536-2.16c0.354-0.663,0.869-1.26,1.51-1.761
								c0.64-0.5,1.403-0.906,2.254-1.186c0.851-0.279,1.787-0.435,2.773-0.435c0.984,0,1.926,0.155,2.786,0.435
								c0.86,0.28,1.64,0.686,2.298,1.186c0.66,0.501,1.198,1.098,1.577,1.761c0.379,0.664,0.598,1.394,0.616,2.16
								c0.019,0.769-0.165,1.502-0.514,2.171c-0.349,0.669-0.862,1.272-1.502,1.78c-0.642,0.508-1.408,0.919-2.264,1.204
								C480.509,234.157,479.565,234.314,478.572,234.314 M478.348,222.084c-1.181,0-2.303,0.185-3.32,0.52
								c-1.019,0.335-1.934,0.82-2.701,1.418c-0.767,0.6-1.386,1.314-1.811,2.108c-0.425,0.794-0.655,1.669-0.645,2.587
								c0.01,0.875,0.237,1.712,0.642,2.48c0.405,0.769,0.988,1.469,1.708,2.068c0.721,0.6,1.579,1.099,2.535,1.465
								s2.009,0.601,3.117,0.671l0.215,12.073c-1.117,0.071-2.172,0.311-3.126,0.686c-0.955,0.375-1.809,0.886-2.522,1.501
								s-1.287,1.335-1.68,2.128c-0.393,0.793-0.604,1.659-0.594,2.565c0.011,0.911,0.243,1.783,0.656,2.583
								c0.413,0.801,1.008,1.53,1.743,2.154c0.736,0.625,1.612,1.145,2.588,1.526s2.05,0.626,3.182,0.699l0.224,12.578l0.011,0.589
								l0.011,0.604c0.06-0.007,0.12-0.013,0.182-0.018c0.062-0.005,0.124-0.008,0.186-0.011c0.063-0.002,0.125-0.004,0.188-0.005
								c0.063-0.001,0.125-0.001,0.188-0.001c0.121,0,0.243,0.002,0.364,0.008c0.121,0.005,0.242,0.013,0.363,0.022
								c0.12,0.01,0.24,0.021,0.359,0.036s0.237,0.03,0.355,0.047l0.526-1.115c-0.103-0.019-0.205-0.037-0.31-0.054
								c-0.104-0.017-0.208-0.032-0.313-0.045c-0.104-0.013-0.21-0.025-0.316-0.034c-0.105-0.01-0.212-0.017-0.318-0.022
								l-0.238-12.578c1.131-0.073,2.198-0.317,3.161-0.699c0.962-0.382,1.82-0.902,2.533-1.526s1.281-1.353,1.666-2.154
								c0.384-0.8,0.583-1.672,0.561-2.583c-0.023-0.906-0.267-1.772-0.688-2.565c-0.422-0.792-1.021-1.513-1.759-2.128
								c-0.736-0.615-1.61-1.126-2.58-1.501c-0.969-0.375-2.034-0.614-3.156-0.686l-0.229-12.073
								c1.107-0.07,2.153-0.304,3.097-0.671s1.784-0.866,2.483-1.465s1.256-1.299,1.633-2.068c0.377-0.768,0.573-1.605,0.551-2.48
								c-0.022-0.918-0.286-1.792-0.741-2.587c-0.454-0.794-1.1-1.508-1.89-2.108c-0.79-0.599-1.724-1.083-2.754-1.418
								C480.653,222.269,479.525,222.084,478.348,222.084"/>
							<path style="fill:#FFFFFF;" d="M754.357,362.241L715,179.886c10.872,3.422,21.284,7.92,30.959,13.33
								c9.762,5.458,18.803,11.859,26.824,19.037c8.116,7.262,15.209,15.337,20.955,24.05c5.827,8.835,10.28,18.345,13.008,28.342
								c2.77,10.155,3.57,20.115,2.57,29.645c-1.016,9.67-3.884,18.881-8.42,27.381c-4.595,8.608-10.891,16.467-18.68,23.305
								C774.35,351.885,764.983,357.73,754.357,362.241 M658.177,125.624h-1.298l2.646,15.088l0.726,4.139l4.631,26.399
								c-8.876,0.038-17.403,0.811-25.502,2.245c-8.118,1.437-15.825,3.541-23.033,6.239c-7.24,2.71-13.993,6.026-20.165,9.877
								c-6.211,3.875-11.845,8.299-16.801,13.202l1.113,0.691c4.9-4.851,10.472-9.23,16.613-13.066
								c6.104-3.813,12.781-7.095,19.943-9.779c7.129-2.672,14.752-4.756,22.782-6.179c8.011-1.42,16.445-2.187,25.226-2.224
								l1.654,9.433c-14.242,0.069-27.487,2.294-39.301,6.28c-11.892,4.013-22.402,9.834-31.043,17.085
								c-8.744,7.338-15.612,16.175-20.054,26.124c-4.513,10.11-6.536,21.403-5.454,33.467c1.106,12.34,5.355,24.327,12.164,35.429
								c6.925,11.291,16.475,21.632,27.996,30.443c11.673,8.928,25.312,16.244,40.177,21.347
								c14.977,5.141,31.099,8.002,47.552,8.002c0.705,0,1.41-0.005,2.112-0.016c0.703-0.01,1.403-0.025,2.102-0.046
								s1.395-0.047,2.087-0.078c0.693-0.031,1.383-0.068,2.07-0.111l-0.244-1.337c-0.686,0.042-1.375,0.079-2.067,0.11
								s-1.388,0.058-2.085,0.078s-1.397,0.036-2.1,0.046c-0.702,0.011-1.405,0.016-2.111,0.016c-16.22,0-32.115-2.819-46.882-7.885
								c-14.659-5.028-28.111-12.237-39.628-21.036c-11.369-8.687-20.797-18.881-27.639-30.015
								c-6.729-10.949-10.934-22.773-12.039-34.947c-1.081-11.904,0.902-23.051,5.346-33.033
								c4.374-9.825,11.146-18.554,19.771-25.804c8.525-7.166,18.899-12.918,30.641-16.885c11.663-3.941,24.742-6.141,38.809-6.21
								l12.286,70.041c-1.961,0.076-3.771,0.455-5.367,1.08c-1.599,0.626-2.984,1.5-4.093,2.563
								c-1.109,1.065-1.942,2.323-2.432,3.714c-0.49,1.395-0.637,2.926-0.373,4.534l0.018,0.104h1.464l-0.018-0.104
								c-0.247-1.497-0.103-2.921,0.37-4.213c0.473-1.291,1.271-2.451,2.333-3.424c1.061-0.972,2.384-1.757,3.907-2.3
								c1.521-0.542,3.245-0.842,5.107-0.842s3.691,0.3,5.404,0.842c1.714,0.542,3.313,1.328,4.716,2.3
								c1.404,0.973,2.611,2.133,3.537,3.424c0.928,1.292,1.574,2.716,1.854,4.213c0.279,1.497,0.164,2.928-0.284,4.233
								c-0.45,1.308-1.233,2.489-2.29,3.483c-1.058,0.996-2.388,1.804-3.928,2.362c-1.541,0.56-3.291,0.869-5.186,0.869
								c-1.041,0-2.071-0.094-3.078-0.272c-1.006-0.178-1.987-0.441-2.929-0.777s-1.844-0.747-2.691-1.221
								c-0.848-0.474-1.642-1.011-2.367-1.602l-0.861,0.856c0.799,0.643,1.67,1.227,2.6,1.742c0.931,0.515,1.92,0.96,2.951,1.325
								c1.033,0.365,2.108,0.65,3.211,0.843s2.232,0.295,3.375,0.295c2.097,0,4.035-0.344,5.742-0.964
								c1.706-0.62,3.18-1.516,4.353-2.621c1.17-1.103,2.038-2.412,2.535-3.862c0.496-1.447,0.623-3.032,0.312-4.69
								c-0.302-1.608-0.987-3.139-1.969-4.534c-0.979-1.392-2.255-2.649-3.739-3.714c-1.483-1.064-3.176-1.938-4.994-2.563
								c-1.816-0.625-3.761-1.004-5.747-1.08l-14.212-80.497c4.052,0.017,8.082,0.188,12.083,0.506
								c4.002,0.319,7.977,0.786,11.912,1.393c3.939,0.607,7.842,1.356,11.697,2.238c3.861,0.883,7.677,1.901,11.435,3.047
								l39.373,183.393c-3.781,1.547-7.714,2.926-11.787,4.123c-4.08,1.199-8.299,2.217-12.644,3.041
								c-4.351,0.824-8.826,1.455-13.414,1.879c-4.59,0.424-9.291,0.642-14.088,0.642c-18.639,0-36.898-3.271-53.842-9.142
								c-16.801-5.822-32.185-14.16-45.313-24.318c-12.935-10.01-23.61-21.733-31.297-34.509
								c-7.542-12.533-12.182-26.036-13.278-39.903l-0.017-0.217h-1.464l0.017,0.217c1.094,14.03,5.773,27.695,13.393,40.382
								c7.768,12.935,18.563,24.808,31.65,34.947c13.284,10.292,28.855,18.74,45.867,24.641c17.156,5.952,35.647,9.268,54.523,9.268
								c4.797,0,9.499-0.216,14.092-0.635c4.59-0.419,9.069-1.041,13.426-1.856c4.352-0.814,8.577-1.82,12.667-3.006
								c4.083-1.184,8.028-2.547,11.825-4.077l6.924,32.253h1.614l-7.089-32.845c10.853-4.542,20.421-10.456,28.46-17.459
								c7.957-6.933,14.392-14.91,19.087-23.656c4.636-8.634,7.567-17.996,8.605-27.827c1.023-9.685,0.208-19.809-2.618-30.129
								c-3.75-13.687-10.694-26.469-19.958-37.886c-9.098-11.211-20.468-21.15-33.326-29.387
								c-12.688-8.128-26.891-14.643-41.908-19.126c-14.906-4.45-30.714-6.928-46.785-6.996l-4.661-26.399l-0.286-1.62l-0.169-0.957
								l-0.275-1.562L658.177,125.624"/>
							<path style="fill:#FFFFFF;" d="M687.344,143.955l-0.011,0.949c18.355,2.27,36.237,6.832,53.047,13.306
								c16.997,6.546,33.009,15.091,47.363,25.265c14.602,10.349,27.565,22.441,38.128,35.895
								c10.795,13.751,19.126,28.983,24.119,45.276h1.464c-5.055-16.431-13.475-31.791-24.38-45.657
								c-10.667-13.563-23.754-25.752-38.487-36.183c-14.482-10.254-30.633-18.863-47.771-25.457
								C723.867,150.828,705.842,146.235,687.344,143.955"/>
							<path style="fill:#FFFFFF;" d="M157.024,356.084c-10.581-4.471-19.908-10.266-27.745-17.113
								c-7.758-6.779-14.031-14.57-18.611-23.105c-4.522-8.427-7.382-17.562-8.397-27.15c-1-9.451-0.207-19.328,2.548-29.399
								c2.711-9.915,7.141-19.346,12.939-28.108c5.718-8.642,12.779-16.65,20.859-23.854c7.987-7.119,16.989-13.469,26.711-18.883
								c9.635-5.366,20.005-9.83,30.835-13.225L157.024,356.084 M202.802,150.744h-1.334l-5.065,23.401
								c-11.017,3.406-21.569,7.903-31.377,13.323c-9.896,5.469-19.064,11.894-27.2,19.106c-8.232,7.298-15.428,15.42-21.258,24.191
								c-5.913,8.895-10.431,18.474-13.198,28.55c-3.808,13.868-3.943,27.373-0.829,39.916c3.174,12.786,9.712,24.528,19.12,34.566
								c9.549,10.189,22.004,18.569,36.772,24.449c14.896,5.931,32.033,9.274,50.714,9.366l-11.844,66.856h1.647l11.768-66.856
								c10.39-0.053,20.67-1.108,30.677-3.057c9.979-1.943,19.661-4.769,28.892-8.359c9.183-3.573,17.898-7.896,26.001-12.853
								c8.044-4.921,15.47-10.456,22.143-16.49l-1.152-0.775c-6.592,5.949-13.927,11.407-21.87,16.258
								c-8,4.886-16.604,9.147-25.668,12.668c-9.11,3.54-18.666,6.323-28.513,8.237c-9.875,1.92-20.019,2.959-30.27,3.01
								l1.893-10.753c16.328-0.09,32.315-2.991,47.157-8.132c14.731-5.103,28.24-12.379,39.8-21.24
								c11.409-8.747,20.865-18.996,27.723-30.181c6.744-10.999,10.954-22.868,12.057-35.088
								c1.086-12.037-0.947-23.305-5.481-33.387c-4.462-9.921-11.363-18.728-20.144-26.03c-8.677-7.216-19.232-12.997-31.171-16.961
								c-11.86-3.938-25.156-6.106-39.451-6.106c-0.618,0-1.234,0.004-1.85,0.011c-0.616,0.008-1.231,0.02-1.847,0.035
								s-1.23,0.035-1.845,0.059c-0.615,0.024-1.23,0.052-1.845,0.083l-0.185,1.012c0.616-0.032,1.231-0.06,1.848-0.084
								c0.616-0.023,1.232-0.043,1.849-0.059c0.616-0.016,1.232-0.027,1.849-0.035s1.232-0.012,1.848-0.012
								c14.119,0,27.25,2.144,38.961,6.036c11.788,3.918,22.207,9.632,30.77,16.763c8.664,7.215,15.467,15.915,19.862,25.714
								c4.465,9.956,6.459,21.079,5.373,32.959c-1.102,12.055-5.269,23.763-11.932,34.608
								c-6.774,11.027-16.109,21.131-27.367,29.752c-11.403,8.731-24.727,15.901-39.252,20.93
								c-14.634,5.064-30.394,7.923-46.491,8.013l14.679-83.395h-1.461l-16.916,95.485c-4.702-0.021-9.308-0.253-13.807-0.684
								c-4.496-0.43-8.882-1.058-13.147-1.873c-4.26-0.814-8.397-1.814-12.399-2.991c-3.996-1.174-7.855-2.522-11.569-4.034
								l39.155-181.865c3.796-1.153,7.65-2.177,11.552-3.063c3.895-0.885,7.839-1.633,11.82-2.237
								c3.977-0.604,7.994-1.064,12.039-1.374c4.043-0.309,8.116-0.468,12.21-0.468c15.863,0,30.63,2.38,43.826,6.706
								c13.291,4.357,25.075,10.718,34.805,18.67c9.858,8.057,17.66,17.789,22.78,28.774c5.212,11.183,7.667,23.708,6.663,37.122
								h1.457c1.001-13.571-1.496-26.24-6.781-37.547c-5.191-11.106-13.09-20.942-23.067-29.083
								c-9.845-8.034-21.764-14.459-35.204-18.861c-13.342-4.369-28.271-6.772-44.305-6.772c-4.086,0-8.152,0.156-12.188,0.46
								c-4.038,0.305-8.048,0.758-12.019,1.353c-3.976,0.595-7.915,1.332-11.806,2.203c-3.897,0.873-7.749,1.881-11.544,3.017
								L202.802,150.744"/>
							<path style="fill:#FFFFFF;" d="M61.745,259.316h-1.458c-5.144,16.688-6.346,33.095-3.958,48.632
								c2.445,15.908,8.646,30.85,18.18,44.156c9.723,13.569,22.859,25.365,38.88,34.67c16.235,9.429,35.311,16.229,56.564,19.684
								l0.575-1.412c-21.054-3.419-39.953-10.146-56.042-19.476c-15.879-9.208-28.904-20.884-38.55-34.317
								c-9.461-13.176-15.622-27.974-18.062-43.733C55.491,292.125,56.664,275.861,61.745,259.316"/>
							<polyline style="fill:#FFFFFF;" points="517.993,325.525 516.46,325.525 519.677,396.596 492.77,396.596 493.098,409.074 
								520.241,409.074 522.229,453.002 467.131,453.002 466.833,415.393 443.183,415.393 442.862,453.002 387.754,453.002 
								391.092,380.226 417.689,380.226 417.966,369.934 416.392,369.934 416.142,378.84 364.586,378.84 365.185,369.6 
								403.753,369.6 403.804,368.234 391.642,368.234 392.832,342.304 391.279,342.304 390.061,368.234 363.691,368.234 
								362.9,380.226 389.497,380.226 386.076,453.002 303.544,453.002 303.386,454.538 386.004,454.538 382.369,531.863 
								384.137,531.863 387.684,454.538 442.85,454.538 442.511,494.232 465.732,494.232 465.722,492.622 444.248,492.622 
								444.808,416.852 465.208,416.852 465.569,470.11 467.267,470.11 467.144,454.538 522.299,454.538 523.533,481.807 
								525.244,481.807 523.979,454.538 572.133,454.538 572.012,453.002 523.907,453.002 521.869,409.074 549.023,409.074 
								548.332,398.494 546.725,398.494 547.313,407.64 494.678,407.64 494.413,398.009 533.807,398.009 533.729,396.596 
								521.291,396.596 517.993,325.525 							"/>
							<path style="fill:#FFFFFF;" d="M231.277,246.74c-2.049,0-4.062,0.329-5.947,0.922c-1.888,0.594-3.65,1.455-5.196,2.519
								c-1.548,1.066-2.879,2.337-3.901,3.75c-1.024,1.417-1.738,2.977-2.047,4.616c-0.31,1.645-0.183,3.216,0.311,4.649
								c0.495,1.437,1.36,2.733,2.525,3.825c1.167,1.093,2.634,1.98,4.333,2.594c1.7,0.614,3.629,0.954,5.716,0.954
								c2.087,0,4.136-0.34,6.052-0.954c1.914-0.614,3.693-1.5,5.246-2.594c1.549-1.092,2.871-2.389,3.873-3.825
								c0.999-1.433,1.68-3.004,1.951-4.649l0.023-0.194h-1.448l-0.023,0.194c-0.247,1.486-0.863,2.905-1.768,4.199
								c-0.906,1.296-2.101,2.466-3.5,3.45c-1.402,0.985-3.009,1.784-4.736,2.336c-1.729,0.553-3.578,0.859-5.46,0.859
								s-3.624-0.306-5.157-0.859c-1.532-0.553-2.857-1.351-3.911-2.336c-1.052-0.984-1.833-2.154-2.282-3.45
								c-0.447-1.294-0.563-2.713-0.285-4.199c0.278-1.482,0.921-2.893,1.845-4.172c0.922-1.277,2.124-2.426,3.521-3.389
								c1.396-0.962,2.988-1.739,4.693-2.276c1.704-0.536,3.523-0.833,5.375-0.833c1.036,0,2.029,0.093,2.967,0.269
								s1.822,0.435,2.641,0.767s1.572,0.738,2.248,1.208c0.676,0.47,1.275,1.003,1.786,1.591l1.319-0.672
								c-0.573-0.657-1.244-1.254-2-1.781c-0.755-0.526-1.596-0.981-2.51-1.354c-0.913-0.373-1.898-0.664-2.944-0.862
								C233.537,246.845,232.431,246.74,231.277,246.74"/>
						</g>
					</g>
				</g>
			</g>
		</g>
	</g>
</g>
</svg>
