<?xml version="1.0" encoding="iso-8859-1"?>
<!-- Generator: Adobe Illustrator 16.0.0, SVG Export Plug-In . SVG Version: 6.00 Build 0)  -->
<!DOCTYPE svg PUBLIC "-//W3C//DTD SVG 1.1//EN" "http://www.w3.org/Graphics/SVG/1.1/DTD/svg11.dtd">
<svg version="1.1" id="Layer_2" xmlns="http://www.w3.org/2000/svg" xmlns:xlink="http://www.w3.org/1999/xlink" x="0px" y="0px"
	 width="910.886px" height="597.925px" viewBox="0 0 910.886 597.925" style="enable-background:new 0 0 910.886 597.925;"
	 xml:space="preserve">
<g>
	<g>
		<g style="enable-background:new    ;">
			<defs>
				<polygon id="SVGID_1_" style="enable-background:new    ;" points="-104.406,600.169 70.88,92.057 840.008,92.057 
					1015.293,600.169 				"/>
			</defs>
			<clipPath id="SVGID_2_">
				<use xlink:href="#SVGID_1_"  style="overflow:visible;"/>
			</clipPath>
			<g style="clip-path:url(#SVGID_2_);">
				<g>
					<g>
						<g>
							<path style="fill:#FFFFFF;" d="M479.048,260.184c-1.015,0-1.985-0.164-2.87-0.46c-0.884-0.296-1.683-0.725-2.355-1.254
								c-0.672-0.528-1.218-1.157-1.599-1.854c-0.38-0.696-0.595-1.46-0.604-2.261c-0.011-0.798,0.185-1.558,0.546-2.249
								c0.36-0.69,0.887-1.312,1.54-1.833c0.652-0.521,1.433-0.943,2.3-1.235c0.868-0.291,1.823-0.452,2.83-0.452
								c1.004,0,1.965,0.161,2.843,0.452c0.878,0.292,1.674,0.713,2.346,1.235c0.673,0.522,1.224,1.143,1.61,1.833
								c0.387,0.691,0.61,1.451,0.63,2.249c0.02,0.8-0.168,1.564-0.523,2.261c-0.355,0.697-0.88,1.325-1.532,1.854
								c-0.654,0.529-1.437,0.958-2.31,1.254C481.024,260.02,480.062,260.184,479.048,260.184 M478.572,234.314
								c-0.995,0-1.945-0.158-2.813-0.442c-0.866-0.284-1.648-0.696-2.308-1.204c-0.658-0.507-1.193-1.111-1.565-1.78
								c-0.373-0.668-0.583-1.402-0.593-2.171c-0.01-0.766,0.182-1.496,0.536-2.16c0.354-0.663,0.869-1.26,1.51-1.761
								c0.64-0.5,1.403-0.906,2.254-1.186c0.851-0.279,1.787-0.435,2.773-0.435c0.984,0,1.926,0.155,2.786,0.435
								c0.86,0.28,1.64,0.686,2.298,1.186c0.66,0.501,1.198,1.098,1.577,1.761c0.379,0.664,0.598,1.394,0.616,2.16
								c0.019,0.769-0.165,1.502-0.514,2.171c-0.349,0.669-0.862,1.272-1.502,1.78c-0.642,0.508-1.408,0.919-2.264,1.204
								C480.509,234.157,479.565,234.314,478.572,234.314 M478.348,222.084c-1.181,0-2.303,0.185-3.32,0.52
								c-1.019,0.335-1.934,0.82-2.701,1.418c-0.767,0.6-1.386,1.314-1.811,2.108c-0.425,0.794-0.655,1.669-0.645,2.587
								c0.01,0.875,0.237,1.712,0.642,2.48c0.405,0.769,0.988,1.469,1.708,2.068c0.721,0.6,1.579,1.099,2.535,1.465
								s2.009,0.601,3.117,0.671l0.215,12.073c-1.117,0.071-2.172,0.311-3.126,0.686c-0.955,0.375-1.809,0.886-2.522,1.501
								s-1.287,1.335-1.68,2.128c-0.393,0.793-0.604,1.659-0.594,2.565c0.011,0.911,0.243,1.783,0.656,2.583
								c0.413,0.801,1.008,1.53,1.743,2.154c0.736,0.625,1.612,1.145,2.588,1.526s2.05,0.626,3.182,0.699l0.224,12.578l0.011,0.589
								l0.011,0.604c0.06-0.007,0.12-0.013,0.182-0.018c0.062-0.005,0.124-0.008,0.186-0.011c0.063-0.002,0.125-0.004,0.188-0.005
								c0.063-0.001,0.125-0.001,0.188-0.001c1.024,0,2.006,0.168,2.901,0.472c0.897,0.304,1.709,0.744,2.396,1.287
								c0.688,0.544,1.249,1.192,1.645,1.913c0.396,0.721,0.624,1.515,0.645,2.348c0.021,0.833-0.171,1.628-0.533,2.352
								c-0.362,0.726-0.897,1.38-1.563,1.93c-0.667,0.551-1.467,0.998-2.357,1.306c-0.892,0.309-1.875,0.48-2.91,0.48
								c-1.036,0-2.027-0.171-2.931-0.48c-0.902-0.309-1.718-0.755-2.405-1.306c-0.686-0.55-1.244-1.205-1.633-1.93
								c-0.388-0.724-0.607-1.52-0.618-2.352c-0.002-0.125,0.001-0.25,0.009-0.374s0.02-0.246,0.036-0.367
								c0.017-0.122,0.039-0.242,0.065-0.361c0.026-0.119,0.058-0.236,0.094-0.353h-1.517c-0.03,0.118-0.056,0.237-0.077,0.357
								c-0.022,0.12-0.04,0.241-0.055,0.362c-0.014,0.121-0.024,0.243-0.03,0.366c-0.007,0.123-0.01,0.246-0.008,0.37
								c0.011,0.948,0.248,1.855,0.67,2.688c0.422,0.833,1.03,1.593,1.78,2.243c0.752,0.651,1.646,1.192,2.643,1.59
								s2.094,0.652,3.249,0.729l0.363,20.37h1.514l-0.387-20.37c1.155-0.076,2.244-0.331,3.228-0.729
								c0.982-0.398,1.858-0.939,2.586-1.59c0.728-0.65,1.308-1.41,1.699-2.243c0.392-0.833,0.596-1.74,0.571-2.688
								c-0.023-0.946-0.272-1.85-0.704-2.678c-0.431-0.827-1.044-1.578-1.797-2.22c-0.752-0.642-1.644-1.174-2.634-1.565
								c-0.989-0.391-2.077-0.64-3.223-0.714l-0.238-12.578c1.131-0.073,2.198-0.317,3.161-0.699
								c0.962-0.382,1.82-0.902,2.533-1.526s1.281-1.353,1.666-2.154c0.384-0.8,0.583-1.672,0.561-2.583
								c-0.023-0.906-0.267-1.772-0.688-2.565c-0.422-0.792-1.021-1.513-1.759-2.128c-0.736-0.615-1.61-1.126-2.58-1.501
								c-0.969-0.375-2.034-0.614-3.156-0.686l-0.229-12.073c1.107-0.07,2.153-0.304,3.097-0.671s1.784-0.866,2.483-1.465
								s1.256-1.299,1.633-2.068c0.377-0.768,0.573-1.605,0.551-2.48c-0.022-0.918-0.286-1.792-0.741-2.587
								c-0.454-0.794-1.1-1.508-1.89-2.108c-0.79-0.599-1.724-1.083-2.754-1.418C480.653,222.269,479.525,222.084,478.348,222.084"
								/>
							<path style="fill:#FFFFFF;" d="M430.559,287.141c-1.037,0-2.022-0.171-2.915-0.48c-0.892-0.309-1.692-0.755-2.359-1.306
								c-0.667-0.55-1.201-1.205-1.563-1.93c-0.362-0.724-0.552-1.52-0.532-2.352c0.021-0.833,0.25-1.627,0.646-2.348
								c0.396-0.721,0.958-1.369,1.646-1.913c0.688-0.543,1.5-0.983,2.398-1.287s1.88-0.472,2.908-0.472
								c1.025,0,2,0.168,2.885,0.472c0.885,0.304,1.681,0.744,2.347,1.287c0.667,0.544,1.205,1.192,1.573,1.913
								c0.369,0.721,0.567,1.515,0.557,2.348c-0.011,0.833-0.231,1.628-0.621,2.352c-0.39,0.726-0.949,1.38-1.636,1.93
								c-0.688,0.551-1.504,0.998-2.407,1.306C432.583,286.97,431.593,287.141,430.559,287.141 M431.071,260.184
								c-1.016,0-1.98-0.164-2.855-0.46c-0.874-0.296-1.657-0.725-2.311-1.254c-0.653-0.528-1.177-1.157-1.532-1.854
								c-0.355-0.696-0.542-1.46-0.522-2.261c0.02-0.798,0.244-1.558,0.631-2.249c0.387-0.69,0.938-1.312,1.612-1.833
								c0.673-0.521,1.47-0.943,2.349-1.235c0.879-0.291,1.842-0.452,2.848-0.452c1.004,0,1.959,0.161,2.826,0.452
								c0.868,0.292,1.647,0.713,2.3,1.235c0.654,0.522,1.181,1.143,1.542,1.833c0.361,0.691,0.556,1.451,0.546,2.249
								c-0.011,0.8-0.227,1.564-0.608,2.261c-0.381,0.697-0.929,1.325-1.602,1.854c-0.673,0.529-1.472,0.958-2.356,1.254
								S432.084,260.184,431.071,260.184 M432.833,203.893h-1.395l-0.356,18.218c-1.099,0.068-2.143,0.297-3.092,0.656
								c-0.95,0.359-1.805,0.849-2.526,1.439c-0.721,0.59-1.308,1.282-1.721,2.043c-0.413,0.762-0.651,1.596-0.673,2.469
								c-0.023,0.875,0.172,1.712,0.548,2.48c0.375,0.769,0.931,1.469,1.628,2.068c0.698,0.6,1.538,1.099,2.479,1.465
								c0.943,0.367,1.988,0.601,3.096,0.671l-0.236,12.073c-1.122,0.071-2.187,0.311-3.156,0.686
								c-0.969,0.375-1.842,0.886-2.578,1.501c-0.736,0.615-1.336,1.335-1.757,2.128c-0.421,0.793-0.665,1.659-0.688,2.565
								c-0.023,0.911,0.175,1.783,0.558,2.583c0.383,0.801,0.95,1.53,1.661,2.154c0.712,0.625,1.568,1.145,2.53,1.526
								c0.962,0.382,2.028,0.626,3.159,0.699l-0.246,12.578c-1.145,0.075-2.233,0.324-3.222,0.714
								c-0.99,0.391-1.881,0.924-2.632,1.565c-0.752,0.642-1.364,1.393-1.795,2.22c-0.431,0.828-0.68,1.732-0.704,2.678
								c-0.026,0.998,0.201,1.951,0.633,2.819c0.433,0.869,1.071,1.653,1.869,2.313c0.799,0.66,1.756,1.195,2.825,1.565
								c1.07,0.37,2.25,0.575,3.493,0.575c1.239,0,2.424-0.205,3.506-0.575c1.081-0.37,2.059-0.905,2.882-1.565
								c0.823-0.659,1.492-1.443,1.958-2.313c0.466-0.868,0.729-1.821,0.741-2.819c0.011-0.946-0.204-1.85-0.604-2.678
								c-0.4-0.827-0.984-1.578-1.712-2.22c-0.728-0.642-1.599-1.174-2.573-1.565c-0.974-0.391-2.05-0.64-3.19-0.714l0.232-12.578
								c1.131-0.073,2.206-0.317,3.182-0.699c0.975-0.382,1.852-0.902,2.588-1.526c0.735-0.625,1.331-1.353,1.745-2.154
								c0.413-0.8,0.646-1.672,0.657-2.583c0.011-0.906-0.2-1.772-0.592-2.565c-0.392-0.792-0.965-1.513-1.678-2.128
								c-0.713-0.615-1.566-1.126-2.521-1.501c-0.954-0.375-2.009-0.614-3.125-0.686l0.222-12.073l0.01-0.554l0.011-0.567
								c-0.058,0.005-0.117,0.009-0.176,0.014c-0.06,0.004-0.12,0.007-0.18,0.01s-0.12,0.005-0.179,0.007s-0.118,0.002-0.176,0.002
								c-0.995,0-1.94-0.158-2.797-0.442c-0.856-0.284-1.624-0.696-2.265-1.204c-0.64-0.507-1.154-1.111-1.502-1.78
								c-0.348-0.668-0.531-1.402-0.512-2.171c0.019-0.766,0.238-1.496,0.618-2.16c0.379-0.663,0.918-1.26,1.579-1.761
								c0.66-0.5,1.44-0.906,2.302-1.186c0.861-0.279,1.805-0.435,2.791-0.435c0.984,0,1.92,0.155,2.77,0.435
								c0.85,0.28,1.614,0.686,2.254,1.186c0.641,0.501,1.157,1.098,1.511,1.761c0.354,0.664,0.545,1.394,0.535,2.16
								c0,0.049-0.002,0.099-0.004,0.147s-0.005,0.098-0.008,0.146c-0.004,0.049-0.009,0.097-0.015,0.145
								c-0.006,0.048-0.014,0.096-0.023,0.145h1.424c0.007-0.048,0.013-0.096,0.018-0.145c0.005-0.048,0.009-0.096,0.012-0.145
								c0.003-0.048,0.006-0.097,0.008-0.146c0.001-0.049,0.002-0.098,0.003-0.147c0.01-0.874-0.196-1.707-0.581-2.469
								c-0.384-0.761-0.946-1.453-1.645-2.043c-0.699-0.59-1.536-1.08-2.471-1.439c-0.935-0.359-1.969-0.588-3.063-0.656
								L432.833,203.893"/>
							<path style="fill:#FFFFFF;" d="M754.357,362.241L715,179.886c10.872,3.422,21.284,7.92,30.959,13.33
								c9.762,5.458,18.803,11.859,26.824,19.037c8.116,7.262,15.209,15.337,20.955,24.05c5.827,8.835,10.28,18.345,13.008,28.342
								c2.77,10.155,3.57,20.115,2.57,29.645c-1.016,9.67-3.884,18.881-8.42,27.381c-4.595,8.608-10.891,16.467-18.68,23.305
								C774.35,351.885,764.983,357.73,754.357,362.241 M656.713,117.336h-1.288l4.101,23.376l0.726,4.139l4.632,26.405
								c-13.028,0.054-25.314,1.695-36.605,4.686c-11.347,3.006-21.739,7.391-30.892,12.928
								c-9.236,5.589-17.246,12.374-23.709,20.131c-6.546,7.856-11.525,16.734-14.587,26.4l1.42,0.281
								c3.017-9.551,7.932-18.325,14.396-26.09c6.384-7.669,14.297-14.378,23.426-19.905c9.046-5.478,19.319-9.815,30.537-12.791
								c11.163-2.96,23.31-4.585,36.19-4.641l1.654,9.433c-14.242,0.069-27.487,2.294-39.301,6.28
								c-11.892,4.013-22.402,9.834-31.043,17.085c-8.744,7.338-15.612,16.175-20.054,26.124
								c-4.513,10.11-6.536,21.403-5.454,33.467c1.106,12.34,5.355,24.327,12.164,35.429c6.925,11.291,16.475,21.632,27.996,30.443
								c11.673,8.928,25.312,16.244,40.177,21.347c14.977,5.141,31.099,8.002,47.552,8.002c3.062,0,6.084-0.096,9.064-0.288
								c2.979-0.191,5.915-0.479,8.805-0.863c2.888-0.383,5.729-0.862,8.521-1.438c2.789-0.575,5.528-1.245,8.214-2.011l-0.672-1.28
								c-2.655,0.752-5.361,1.412-8.117,1.979c-2.758,0.567-5.563,1.041-8.414,1.421c-2.854,0.38-5.751,0.665-8.691,0.856
								c-2.941,0.19-5.924,0.286-8.945,0.286c-16.22,0-32.115-2.819-46.882-7.885c-14.659-5.028-28.111-12.237-39.628-21.036
								c-11.369-8.687-20.797-18.881-27.639-30.015c-6.729-10.949-10.934-22.773-12.039-34.947
								c-1.081-11.904,0.902-23.051,5.346-33.033c4.374-9.825,11.146-18.554,19.771-25.804c8.525-7.166,18.899-12.918,30.641-16.885
								c11.663-3.941,24.742-6.141,38.809-6.21l12.286,70.041c-1.961,0.076-3.771,0.455-5.367,1.08
								c-1.599,0.626-2.984,1.5-4.093,2.563c-1.109,1.065-1.942,2.323-2.432,3.714c-0.49,1.395-0.637,2.926-0.373,4.534l0.018,0.104
								h1.464l-0.018-0.104c-0.247-1.497-0.103-2.921,0.37-4.213c0.473-1.291,1.271-2.451,2.333-3.424
								c1.061-0.972,2.384-1.757,3.907-2.3c1.521-0.542,3.245-0.842,5.107-0.842s3.691,0.3,5.404,0.842
								c1.714,0.542,3.313,1.328,4.716,2.3c1.404,0.973,2.611,2.133,3.537,3.424c0.928,1.292,1.574,2.716,1.854,4.213
								c0.279,1.497,0.164,2.928-0.284,4.233c-0.45,1.308-1.233,2.489-2.29,3.483c-1.058,0.996-2.388,1.804-3.928,2.362
								c-1.541,0.56-3.291,0.869-5.186,0.869c-1.326,0-2.636-0.152-3.899-0.437c-1.263-0.284-2.479-0.699-3.619-1.225
								c-1.14-0.525-2.202-1.161-3.16-1.885c-0.956-0.724-1.808-1.536-2.524-2.416l-1.15,0.593c0.79,0.969,1.729,1.863,2.785,2.659
								c1.058,0.797,2.23,1.496,3.488,2.073c1.259,0.578,2.601,1.035,3.993,1.347c1.393,0.313,2.836,0.48,4.297,0.48
								c2.097,0,4.035-0.344,5.742-0.964c1.706-0.62,3.18-1.516,4.353-2.621c1.17-1.103,2.038-2.412,2.535-3.862
								c0.496-1.447,0.623-3.032,0.312-4.69c-0.302-1.608-0.987-3.139-1.969-4.534c-0.979-1.392-2.255-2.649-3.739-3.714
								c-1.483-1.064-3.176-1.938-4.994-2.563c-1.816-0.625-3.761-1.004-5.747-1.08l-14.212-80.497
								c4.052,0.017,8.082,0.188,12.083,0.506c4.002,0.319,7.977,0.786,11.912,1.393c3.939,0.607,7.842,1.356,11.697,2.238
								c3.861,0.883,7.677,1.901,11.435,3.047l39.373,183.393c-3.781,1.547-7.714,2.926-11.787,4.123
								c-4.08,1.199-8.299,2.217-12.644,3.041c-4.351,0.824-8.826,1.455-13.414,1.879c-4.59,0.424-9.291,0.642-14.088,0.642
								c-18.639,0-36.898-3.271-53.842-9.142c-16.801-5.822-32.185-14.16-45.313-24.318c-12.935-10.01-23.61-21.733-31.297-34.509
								c-7.542-12.533-12.182-26.036-13.278-39.903l-0.017-0.217h-1.464l0.017,0.217c1.094,14.03,5.773,27.695,13.393,40.382
								c7.768,12.935,18.563,24.808,31.65,34.947c13.284,10.292,28.855,18.74,45.867,24.641c17.156,5.952,35.647,9.268,54.523,9.268
								c4.797,0,9.499-0.216,14.092-0.635c4.59-0.419,9.069-1.041,13.426-1.856c4.352-0.814,8.577-1.82,12.667-3.006
								c4.083-1.184,8.028-2.547,11.825-4.077l10.844,50.508h1.635l-11.029-51.1c10.853-4.542,20.421-10.456,28.46-17.459
								c7.957-6.933,14.392-14.91,19.087-23.656c4.636-8.634,7.567-17.996,8.605-27.827c1.023-9.685,0.208-19.809-2.618-30.129
								c-3.75-13.687-10.694-26.469-19.958-37.886c-9.098-11.211-20.468-21.15-33.326-29.387
								c-12.688-8.128-26.891-14.643-41.908-19.126c-14.906-4.45-30.714-6.928-46.785-6.996l-4.661-26.399l-0.286-1.62l-0.169-0.957
								l-0.275-1.562L656.713,117.336"/>
							<path style="fill:#FFFFFF;" d="M672.012,142.589l0.09,0.958c19.868,1.057,39.338,4.842,57.698,10.883
								c18.551,6.103,36.114,14.555,51.884,24.909c16.047,10.535,30.338,23.104,41.951,37.246
								c11.885,14.473,21.023,30.662,26.355,48.061h1.464c-5.397-17.546-14.633-33.872-26.635-48.463
								c-11.726-14.256-26.148-26.924-42.336-37.54c-15.906-10.432-33.616-18.948-52.318-25.095
								C711.656,147.463,692.033,143.652,672.012,142.589"/>
							<path style="fill:#FFFFFF;" d="M157.024,356.084c-10.581-4.471-19.908-10.266-27.745-17.113
								c-7.758-6.779-14.031-14.57-18.611-23.105c-4.522-8.427-7.382-17.562-8.397-27.15c-1-9.451-0.207-19.328,2.548-29.399
								c2.711-9.915,7.141-19.346,12.939-28.108c5.718-8.642,12.779-16.65,20.859-23.854c7.987-7.119,16.989-13.469,26.711-18.883
								c9.635-5.366,20.005-9.83,30.835-13.225L157.024,356.084 M205.506,138.182h-1.32l-7.784,35.964
								c-11.017,3.406-21.569,7.903-31.377,13.323c-9.896,5.469-19.064,11.894-27.2,19.106c-8.232,7.298-15.428,15.42-21.258,24.191
								c-5.913,8.895-10.431,18.474-13.198,28.55c-3.808,13.868-3.943,27.373-0.829,39.916c3.174,12.786,9.712,24.528,19.12,34.566
								c9.549,10.189,22.004,18.569,36.772,24.449c14.896,5.931,32.033,9.274,50.714,9.366l-14.325,80.862h1.663l14.233-80.862
								c15.881-0.079,31.486-2.501,46.242-6.862c14.663-4.334,28.405-10.559,40.701-18.253c12.159-7.609,22.85-16.623,31.606-26.63
								c8.627-9.859,15.349-20.652,19.748-31.992h-1.521c-4.389,11.169-11.059,21.795-19.598,31.499
								c-8.666,9.847-19.23,18.713-31.232,26.195c-12.135,7.565-25.687,13.683-40.141,17.941c-14.543,4.284-29.92,6.663-45.564,6.74
								l1.893-10.753c16.328-0.09,32.315-2.991,47.157-8.132c14.731-5.103,28.24-12.379,39.8-21.24
								c11.409-8.747,20.865-18.996,27.723-30.181c6.744-10.999,10.954-22.868,12.057-35.088
								c1.086-12.037-0.947-23.305-5.481-33.387c-4.462-9.921-11.363-18.728-20.144-26.03c-8.677-7.216-19.232-12.997-31.171-16.961
								c-11.86-3.938-25.156-6.106-39.451-6.106c-2.687,0-5.367,0.074-8.039,0.222c-2.673,0.147-5.339,0.37-7.996,0.666
								c-2.659,0.296-5.31,0.667-7.951,1.112c-2.644,0.445-5.279,0.966-7.904,1.561l0.361,0.932
								c2.582-0.581,5.172-1.089,7.771-1.524c2.598-0.435,5.204-0.797,7.818-1.087c2.612-0.29,5.233-0.507,7.861-0.652
								c2.626-0.145,5.261-0.217,7.9-0.217c14.119,0,27.25,2.144,38.961,6.036c11.788,3.918,22.207,9.632,30.77,16.763
								c8.664,7.215,15.467,15.915,19.862,25.714c4.465,9.956,6.459,21.079,5.373,32.959c-1.102,12.055-5.269,23.763-11.932,34.608
								c-6.774,11.027-16.109,21.131-27.367,29.752c-11.403,8.731-24.727,15.901-39.252,20.93
								c-14.634,5.064-30.394,7.923-46.491,8.013l14.679-83.395h-1.461l-16.916,95.485c-4.702-0.021-9.308-0.253-13.807-0.684
								c-4.496-0.43-8.882-1.058-13.147-1.873c-4.26-0.814-8.397-1.814-12.399-2.991c-3.996-1.174-7.855-2.522-11.569-4.034
								l39.155-181.865c3.796-1.153,7.65-2.177,11.552-3.063c3.895-0.885,7.839-1.633,11.82-2.237
								c3.977-0.604,7.994-1.064,12.039-1.374c4.043-0.309,8.116-0.468,12.21-0.468c15.863,0,30.63,2.38,43.826,6.706
								c13.291,4.357,25.075,10.718,34.805,18.67c9.858,8.057,17.66,17.789,22.78,28.774c5.212,11.183,7.667,23.708,6.663,37.122
								h1.457c1.001-13.571-1.496-26.24-6.781-37.547c-5.191-11.106-13.09-20.942-23.067-29.083
								c-9.845-8.034-21.764-14.459-35.204-18.861c-13.342-4.369-28.271-6.772-44.305-6.772c-4.086,0-8.152,0.156-12.188,0.46
								c-4.038,0.305-8.048,0.758-12.019,1.353c-3.976,0.595-7.915,1.332-11.806,2.203c-3.897,0.873-7.749,1.881-11.544,3.017
								L205.506,138.182"/>
							<path style="fill:#FFFFFF;" d="M61.745,259.316h-1.458c-5.521,17.91-6.502,35.495-3.38,52.024
								c3.202,16.949,10.706,32.72,21.979,46.479c11.504,14.041,26.857,25.896,45.38,34.678
								c18.756,8.892,40.59,14.551,64.645,16.109l0.269-1.442c-23.807-1.556-45.418-7.163-63.985-15.965
								c-18.338-8.694-33.544-20.429-44.942-34.325c-11.173-13.622-18.617-29.235-21.804-46.019
								C55.34,294.485,56.295,277.063,61.745,259.316"/>
							<polyline style="fill:#FFFFFF;" points="517.529,315.527 516.008,315.527 519.677,396.596 492.77,396.596 493.098,409.074 
								520.241,409.074 522.229,453.002 467.131,453.002 466.833,415.393 443.183,415.393 442.862,453.002 387.754,453.002 
								391.092,380.226 417.689,380.226 418.012,368.234 409.591,368.234 409.546,369.6 416.401,369.6 416.142,378.84 
								364.586,378.84 365.185,369.6 403.753,369.6 403.804,368.234 391.642,368.234 392.832,342.304 391.279,342.304 
								390.061,368.234 363.691,368.234 362.9,380.226 389.497,380.226 386.076,453.002 303.544,453.002 303.386,454.538 
								386.004,454.538 381.612,547.971 383.398,547.971 387.684,454.538 442.85,454.538 442.511,494.232 465.732,494.232 
								465.722,492.622 444.248,492.622 444.808,416.852 465.208,416.852 465.659,483.442 467.372,483.442 467.144,454.538 
								522.299,454.538 523.533,481.807 525.244,481.807 523.979,454.538 592.282,454.538 592.141,453.002 523.907,453.002 
								521.869,409.074 549.023,409.074 548.207,396.596 540.814,396.596 540.899,398.009 546.693,398.009 547.313,407.64 
								494.678,407.64 494.413,398.009 533.807,398.009 533.729,396.596 521.291,396.596 517.529,315.527 							"/>
							<path style="fill:#FFFFFF;" d="M231.277,246.74c-2.049,0-4.062,0.329-5.947,0.922c-1.888,0.594-3.65,1.455-5.196,2.519
								c-1.548,1.066-2.879,2.337-3.901,3.75c-1.024,1.417-1.738,2.977-2.047,4.616c-0.31,1.645-0.183,3.216,0.311,4.649
								c0.495,1.437,1.36,2.733,2.525,3.825c1.167,1.093,2.634,1.98,4.333,2.594c1.7,0.614,3.629,0.954,5.716,0.954
								c2.087,0,4.136-0.34,6.052-0.954c1.914-0.614,3.693-1.5,5.246-2.594c1.549-1.092,2.871-2.389,3.873-3.825
								c0.999-1.433,1.68-3.004,1.951-4.649l0.023-0.194h-1.448l-0.023,0.194c-0.247,1.486-0.863,2.905-1.768,4.199
								c-0.906,1.296-2.101,2.466-3.5,3.45c-1.402,0.985-3.009,1.784-4.736,2.336c-1.729,0.553-3.578,0.859-5.46,0.859
								s-3.624-0.306-5.157-0.859c-1.532-0.553-2.857-1.351-3.911-2.336c-1.052-0.984-1.833-2.154-2.282-3.45
								c-0.447-1.294-0.563-2.713-0.285-4.199c0.278-1.482,0.921-2.893,1.845-4.172c0.922-1.277,2.124-2.426,3.521-3.389
								c1.396-0.962,2.988-1.739,4.693-2.276c1.704-0.536,3.523-0.833,5.375-0.833c1.375,0,2.674,0.163,3.87,0.467
								c1.197,0.304,2.292,0.748,3.261,1.31c0.969,0.562,1.812,1.241,2.501,2.015c0.691,0.774,1.229,1.644,1.589,2.584l1.417-0.468
								c-0.403-1.039-1.003-2-1.771-2.855c-0.767-0.854-1.701-1.605-2.775-2.226c-1.073-0.62-2.286-1.111-3.611-1.447
								C234.235,246.921,232.799,246.74,231.277,246.74"/>
						</g>
					</g>
				</g>
			</g>
		</g>
	</g>
</g>
</svg>
