<?xml version="1.0" encoding="iso-8859-1"?>
<!-- Generator: Adobe Illustrator 16.0.0, SVG Export Plug-In . SVG Version: 6.00 Build 0)  -->
<!DOCTYPE svg PUBLIC "-//W3C//DTD SVG 1.1//EN" "http://www.w3.org/Graphics/SVG/1.1/DTD/svg11.dtd">
<svg version="1.1" id="Layer_2" xmlns="http://www.w3.org/2000/svg" xmlns:xlink="http://www.w3.org/1999/xlink" x="0px" y="0px"
	 width="910.886px" height="597.925px" viewBox="0 0 910.886 597.925" style="enable-background:new 0 0 910.886 597.925;"
	 xml:space="preserve">
<g>
	<g>
		<g style="enable-background:new    ;">
			<defs>
				<polygon id="SVGID_1_" style="enable-background:new    ;" points="-104.406,600.169 70.88,92.057 840.008,92.057 
					1015.293,600.169 				"/>
			</defs>
			<clipPath id="SVGID_2_">
				<use xlink:href="#SVGID_1_"  style="overflow:visible;"/>
			</clipPath>
			<g style="clip-path:url(#SVGID_2_);">
				<g>
					<g>
						<g>
							<path style="fill:#FFFFFF;" d="M430.55,287.141c-1.035,0-2.018-0.171-2.909-0.48c-0.891-0.309-1.69-0.755-2.357-1.306
								c-0.666-0.55-1.2-1.205-1.563-1.93c-0.362-0.724-0.552-1.52-0.532-2.352c0.021-0.832,0.25-1.624,0.646-2.344
								c0.396-0.719,0.958-1.367,1.646-1.911c0.687-0.543,1.5-0.983,2.396-1.287c0.896-0.304,1.877-0.471,2.902-0.471
								c1.027,0,2.003,0.167,2.89,0.471c0.887,0.304,1.683,0.743,2.35,1.287c0.667,0.544,1.205,1.191,1.574,1.911
								c0.369,0.72,0.567,1.513,0.557,2.344c-0.011,0.833-0.231,1.628-0.621,2.352c-0.39,0.726-0.949,1.38-1.637,1.93
								c-0.688,0.551-1.505,0.998-2.409,1.306C432.578,286.97,431.586,287.141,430.55,287.141 M431.062,260.184
								c-1.013,0-1.977-0.164-2.85-0.46c-0.873-0.296-1.656-0.724-2.309-1.253c-0.652-0.528-1.176-1.156-1.531-1.852
								c-0.354-0.695-0.542-1.458-0.521-2.257c0.02-0.8,0.244-1.561,0.631-2.252c0.387-0.69,0.938-1.312,1.611-1.833
								c0.672-0.521,1.468-0.942,2.346-1.233s1.839-0.452,2.843-0.452c1.006,0,1.963,0.161,2.831,0.452s1.649,0.712,2.302,1.233
								c0.654,0.521,1.181,1.143,1.542,1.833c0.362,0.691,0.557,1.452,0.546,2.252c-0.011,0.799-0.227,1.562-0.608,2.257
								c-0.382,0.696-0.93,1.324-1.603,1.852c-0.674,0.529-1.474,0.957-2.359,1.253C433.048,260.02,432.078,260.184,431.062,260.184
								 M433.038,192.799h-1.382l-0.574,29.318c-1.097,0.068-2.14,0.297-3.089,0.656c-0.949,0.359-1.804,0.849-2.525,1.438
								c-0.722,0.59-1.31,1.28-1.723,2.041c-0.414,0.761-0.652,1.593-0.674,2.465c-0.023,0.875,0.173,1.711,0.549,2.478
								c0.376,0.768,0.933,1.466,1.631,2.064c0.698,0.599,1.538,1.096,2.48,1.462c0.942,0.367,1.986,0.601,3.092,0.673
								l-0.237,12.086c-1.12,0.073-2.184,0.313-3.153,0.687s-1.843,0.884-2.581,1.498c-0.738,0.615-1.339,1.333-1.762,2.126
								c-0.423,0.793-0.667,1.661-0.691,2.57c-0.023,0.909,0.177,1.779,0.561,2.578c0.385,0.799,0.953,1.527,1.667,2.149
								c0.713,0.624,1.571,1.142,2.533,1.523s2.028,0.625,3.157,0.698l-0.247,12.591c-1.143,0.077-2.229,0.326-3.219,0.717
								s-1.882,0.922-2.635,1.563c-0.754,0.641-1.368,1.39-1.8,2.216c-0.433,0.827-0.683,1.729-0.707,2.676
								c-0.026,0.998,0.201,1.951,0.634,2.82c0.434,0.87,1.073,1.655,1.872,2.315c0.799,0.661,1.757,1.197,2.825,1.567
								c1.069,0.371,2.248,0.576,3.489,0.576c1.243,0,2.431-0.206,3.515-0.576c1.083-0.371,2.061-0.906,2.884-1.567
								c0.823-0.661,1.491-1.445,1.957-2.315c0.465-0.869,0.728-1.822,0.74-2.82c0.011-0.946-0.204-1.849-0.604-2.676
								c-0.4-0.826-0.984-1.575-1.713-2.216c-0.728-0.64-1.599-1.172-2.573-1.563c-0.974-0.391-2.051-0.64-3.19-0.717l0.232-12.591
								c1.131-0.073,2.206-0.316,3.182-0.698c0.975-0.381,1.852-0.9,2.588-1.523c0.735-0.623,1.331-1.35,1.745-2.149
								c0.413-0.798,0.646-1.668,0.657-2.578c0.011-0.908-0.2-1.774-0.592-2.567c-0.392-0.792-0.964-1.511-1.678-2.126
								c-0.713-0.614-1.567-1.125-2.521-1.5c-0.954-0.375-2.009-0.615-3.125-0.688l0.223-12.079l0.01-0.554l0.011-0.567
								c-0.058,0.005-0.117,0.009-0.176,0.014c-0.06,0.004-0.12,0.007-0.18,0.01s-0.12,0.005-0.179,0.007s-0.118,0.002-0.176,0.002
								c-0.995,0-1.94-0.158-2.797-0.442c-0.856-0.284-1.624-0.696-2.265-1.204c-0.64-0.507-1.154-1.111-1.502-1.78
								c-0.348-0.668-0.531-1.402-0.512-2.171c0.019-0.766,0.238-1.496,0.618-2.16c0.379-0.663,0.918-1.26,1.579-1.761
								c0.66-0.5,1.44-0.906,2.302-1.186c0.861-0.279,1.805-0.435,2.791-0.435c0.984,0,1.92,0.155,2.77,0.435
								c0.85,0.28,1.614,0.686,2.254,1.186c0.641,0.501,1.157,1.098,1.511,1.761c0.354,0.664,0.545,1.394,0.535,2.16
								c-0.009,0.688-0.18,1.348-0.484,1.958c-0.304,0.611-0.743,1.171-1.286,1.66c-0.544,0.489-1.193,0.906-1.918,1.229
								c-0.726,0.323-1.527,0.551-2.376,0.663l-0.295,1.154c1.081-0.092,2.105-0.339,3.035-0.713
								c0.929-0.374,1.762-0.873,2.461-1.468c0.698-0.595,1.263-1.286,1.655-2.044c0.392-0.757,0.612-1.58,0.623-2.439
								c0.01-0.872-0.196-1.704-0.581-2.465c-0.384-0.761-0.946-1.451-1.645-2.041c-0.699-0.589-1.536-1.079-2.471-1.438
								c-0.935-0.359-1.969-0.588-3.063-0.656L433.038,192.799"/>
							<path style="fill:#FFFFFF;" d="M479.048,260.184c-1.015,0-1.985-0.164-2.871-0.46c-0.886-0.296-1.685-0.724-2.358-1.253
								c-0.673-0.528-1.221-1.156-1.602-1.852c-0.381-0.695-0.597-1.458-0.606-2.257c-0.011-0.8,0.186-1.561,0.547-2.252
								c0.362-0.69,0.89-1.312,1.544-1.833c0.653-0.521,1.434-0.942,2.303-1.233c0.868-0.291,1.825-0.452,2.831-0.452
								c1.004,0,1.965,0.161,2.843,0.452s1.674,0.712,2.346,1.233c0.673,0.521,1.224,1.143,1.61,1.833
								c0.387,0.691,0.61,1.452,0.63,2.252c0.02,0.799-0.168,1.562-0.523,2.257c-0.355,0.696-0.879,1.324-1.532,1.852
								c-0.654,0.529-1.437,0.957-2.31,1.253C481.024,260.02,480.062,260.184,479.048,260.184 M478.572,234.314
								c-0.995,0-1.946-0.158-2.813-0.442c-0.867-0.284-1.65-0.695-2.311-1.203c-0.659-0.507-1.195-1.11-1.569-1.778
								c-0.373-0.668-0.584-1.4-0.593-2.167c-0.01-0.768,0.182-1.499,0.536-2.164c0.354-0.664,0.872-1.261,1.514-1.763
								c0.641-0.501,1.405-0.906,2.257-1.186c0.851-0.28,1.788-0.435,2.774-0.435c0.984,0,1.926,0.155,2.786,0.435
								s1.64,0.685,2.299,1.186c0.659,0.502,1.197,1.099,1.576,1.763c0.379,0.665,0.598,1.396,0.616,2.164
								c0.019,0.767-0.165,1.5-0.514,2.167s-0.862,1.271-1.502,1.778c-0.642,0.507-1.408,0.918-2.264,1.203
								C480.509,234.157,479.565,234.314,478.572,234.314 M478.348,222.091c-1.181,0-2.302,0.185-3.32,0.519s-1.934,0.818-2.7,1.417
								c-0.768,0.599-1.387,1.313-1.812,2.107c-0.425,0.795-0.655,1.67-0.645,2.59c0.01,0.873,0.237,1.708,0.642,2.475
								c0.405,0.768,0.988,1.466,1.708,2.064c0.721,0.599,1.579,1.097,2.535,1.462c0.955,0.366,2.008,0.6,3.117,0.67l0.215,12.086
								c-1.116,0.073-2.172,0.313-3.126,0.688c-0.955,0.375-1.809,0.885-2.522,1.5c-0.714,0.615-1.287,1.334-1.679,2.126
								c-0.394,0.793-0.604,1.659-0.595,2.567c0.011,0.909,0.243,1.779,0.656,2.578c0.413,0.799,1.008,1.527,1.743,2.149
								c0.736,0.624,1.612,1.142,2.588,1.523s2.05,0.625,3.182,0.698l0.224,12.584l0.011,0.589l0.011,0.604
								c0.06-0.007,0.12-0.013,0.182-0.018c0.062-0.005,0.124-0.008,0.186-0.011c0.063-0.002,0.125-0.004,0.188-0.005
								c0.063-0.001,0.125-0.001,0.188-0.001c1.024,0,2.006,0.168,2.901,0.472c0.897,0.304,1.709,0.744,2.396,1.287
								c0.688,0.544,1.249,1.192,1.645,1.913c0.396,0.721,0.624,1.515,0.645,2.348c0.021,0.833-0.171,1.628-0.533,2.352
								c-0.362,0.726-0.897,1.38-1.563,1.93c-0.667,0.551-1.467,0.998-2.357,1.306c-0.892,0.309-1.875,0.48-2.91,0.48
								c-1.036,0-2.027-0.171-2.931-0.48c-0.902-0.309-1.718-0.755-2.405-1.306c-0.686-0.55-1.244-1.205-1.633-1.93
								c-0.388-0.724-0.607-1.52-0.618-2.352c-0.01-0.766,0.157-1.497,0.469-2.169c0.312-0.672,0.769-1.285,1.341-1.814
								c0.571-0.529,1.258-0.975,2.029-1.313c0.771-0.338,1.627-0.568,2.537-0.666l-0.285-1.165
								c-1.079,0.124-2.094,0.404-3.009,0.811s-1.73,0.941-2.41,1.573c-0.68,0.632-1.223,1.363-1.595,2.163
								c-0.371,0.801-0.57,1.671-0.56,2.582c0.011,0.948,0.248,1.855,0.67,2.688c0.422,0.833,1.03,1.593,1.78,2.243
								c0.752,0.651,1.646,1.192,2.643,1.59s2.094,0.652,3.249,0.729l0.604,33.851h1.529l-0.643-33.851
								c1.155-0.076,2.244-0.331,3.228-0.729c0.982-0.398,1.858-0.939,2.586-1.59c0.728-0.65,1.308-1.41,1.699-2.243
								c0.392-0.833,0.596-1.74,0.571-2.688c-0.023-0.946-0.272-1.85-0.704-2.678c-0.431-0.827-1.044-1.578-1.797-2.22
								c-0.752-0.642-1.644-1.174-2.634-1.565c-0.989-0.391-2.077-0.64-3.223-0.714l-0.238-12.584
								c1.129-0.073,2.194-0.316,3.157-0.698c0.962-0.381,1.82-0.9,2.534-1.523c0.713-0.623,1.282-1.35,1.667-2.149
								c0.385-0.798,0.585-1.668,0.563-2.578c-0.022-0.908-0.267-1.774-0.689-2.567c-0.423-0.792-1.023-1.511-1.761-2.126
								c-0.737-0.614-1.611-1.125-2.58-1.5s-2.033-0.615-3.153-0.688l-0.229-12.086c1.105-0.07,2.15-0.304,3.094-0.67
								c0.942-0.366,1.783-0.864,2.483-1.462c0.699-0.598,1.258-1.296,1.635-2.064c0.377-0.767,0.574-1.602,0.553-2.475
								c-0.023-0.919-0.287-1.795-0.742-2.59c-0.454-0.794-1.1-1.508-1.89-2.107c-0.79-0.599-1.723-1.083-2.754-1.417
								C480.653,222.275,479.525,222.091,478.348,222.091"/>
							<path style="fill:#FFFFFF;" d="M754.357,362.241L715,179.886c10.872,3.422,21.284,7.92,30.959,13.33
								c9.762,5.458,18.803,11.859,26.824,19.037c8.116,7.262,15.209,15.337,20.955,24.05c5.827,8.835,10.28,18.345,13.008,28.342
								c2.77,10.155,3.57,20.115,2.57,29.645c-1.016,9.67-3.884,18.881-8.42,27.381c-4.595,8.608-10.891,16.467-18.68,23.305
								C774.35,351.885,764.983,357.73,754.357,362.241 M656.186,114.349H654.9l4.625,26.364l0.726,4.139l4.631,26.399
								c-14.47,0.062-28.029,2.082-40.328,5.737c-12.374,3.678-23.539,9.032-33.098,15.754
								c-9.665,6.798-17.731,15.027-23.748,24.377c-6.109,9.493-10.129,20.175-11.555,31.719h1.446
								c1.425-11.39,5.405-21.931,11.446-31.299c5.951-9.229,13.923-17.352,23.473-24.063c9.445-6.638,20.477-11.925,32.701-15.556
								c12.15-3.61,25.546-5.604,39.839-5.664l1.654,9.433c-14.242,0.069-27.487,2.294-39.301,6.28
								c-11.892,4.013-22.402,9.834-31.043,17.085c-8.744,7.338-15.612,16.175-20.054,26.124
								c-4.513,10.11-6.536,21.403-5.454,33.467c1.106,12.34,5.355,24.327,12.164,35.429c6.925,11.291,16.475,21.632,27.996,30.443
								c11.673,8.928,25.312,16.244,40.177,21.347c14.977,5.141,31.099,8.002,47.552,8.002c3.971,0,7.874-0.162,11.705-0.484
								c3.828-0.323,7.583-0.806,11.258-1.448c3.671-0.642,7.26-1.442,10.762-2.4c3.498-0.956,6.906-2.069,10.221-3.338l-0.985-1.18
								c-3.265,1.24-6.618,2.329-10.058,3.266c-3.444,0.938-6.973,1.722-10.579,2.352c-3.61,0.629-7.3,1.104-11.061,1.42
								c-3.763,0.316-7.598,0.476-11.499,0.476c-16.22,0-32.115-2.819-46.882-7.885c-14.659-5.028-28.111-12.237-39.628-21.036
								c-11.369-8.687-20.797-18.881-27.639-30.015c-6.729-10.949-10.934-22.773-12.039-34.947
								c-1.081-11.904,0.902-23.051,5.346-33.033c4.374-9.825,11.146-18.554,19.771-25.804c8.525-7.166,18.899-12.918,30.641-16.885
								c11.663-3.941,24.742-6.141,38.809-6.21l12.286,70.041c-1.961,0.076-3.771,0.455-5.367,1.08
								c-1.599,0.626-2.984,1.5-4.093,2.563c-1.109,1.065-1.942,2.323-2.432,3.714c-0.49,1.395-0.637,2.926-0.373,4.534l0.018,0.104
								h1.464l-0.018-0.104c-0.247-1.497-0.103-2.921,0.37-4.213c0.473-1.291,1.271-2.451,2.333-3.424
								c1.061-0.972,2.384-1.757,3.907-2.3c1.521-0.542,3.245-0.842,5.107-0.842s3.691,0.3,5.404,0.842
								c1.714,0.542,3.313,1.328,4.716,2.3c1.404,0.973,2.611,2.133,3.537,3.424c0.928,1.292,1.574,2.716,1.854,4.213
								c0.279,1.497,0.164,2.928-0.284,4.233c-0.45,1.308-1.233,2.489-2.29,3.483c-1.058,0.996-2.388,1.804-3.928,2.362
								c-1.541,0.56-3.291,0.869-5.186,0.869c-1.566,0-3.111-0.213-4.583-0.604c-1.472-0.392-2.871-0.961-4.148-1.673
								c-1.276-0.712-2.432-1.567-3.416-2.53c-0.983-0.962-1.797-2.032-2.393-3.175l-1.393,0.239
								c0.649,1.277,1.545,2.473,2.633,3.549c1.089,1.078,2.37,2.035,3.788,2.832c1.42,0.798,2.977,1.436,4.615,1.874
								c1.64,0.439,3.36,0.678,5.106,0.678c2.097,0,4.035-0.344,5.742-0.964c1.706-0.62,3.18-1.516,4.353-2.621
								c1.17-1.103,2.038-2.412,2.535-3.862c0.496-1.447,0.623-3.032,0.312-4.69c-0.302-1.608-0.987-3.139-1.969-4.534
								c-0.979-1.392-2.255-2.649-3.739-3.714c-1.483-1.064-3.176-1.938-4.994-2.563c-1.816-0.625-3.761-1.004-5.747-1.08
								l-14.212-80.497c4.052,0.017,8.082,0.188,12.083,0.506c4.002,0.319,7.977,0.786,11.912,1.393
								c3.939,0.607,7.842,1.356,11.697,2.238c3.861,0.883,7.677,1.901,11.435,3.047l39.373,183.393
								c-3.781,1.547-7.714,2.926-11.787,4.123c-4.08,1.199-8.299,2.217-12.644,3.041c-4.351,0.824-8.826,1.455-13.414,1.879
								c-4.59,0.424-9.291,0.642-14.088,0.642c-18.639,0-36.898-3.271-53.842-9.142c-16.801-5.822-32.185-14.16-45.313-24.318
								c-12.935-10.01-23.61-21.733-31.297-34.509c-7.542-12.533-12.182-26.036-13.278-39.903l-0.017-0.217h-1.464l0.017,0.217
								c1.094,14.03,5.773,27.695,13.393,40.382c7.768,12.935,18.563,24.808,31.65,34.947c13.284,10.292,28.855,18.74,45.867,24.641
								c17.156,5.952,35.647,9.268,54.523,9.268c4.797,0,9.499-0.216,14.092-0.635c4.59-0.419,9.069-1.041,13.426-1.856
								c4.352-0.814,8.577-1.82,12.667-3.006c4.083-1.184,8.028-2.547,11.825-4.077l12.693,59.124h1.645l-12.889-59.716
								c10.853-4.542,20.421-10.456,28.46-17.459c7.957-6.933,14.392-14.91,19.087-23.656c4.636-8.634,7.567-17.996,8.605-27.827
								c1.023-9.685,0.208-19.809-2.618-30.129c-3.75-13.687-10.694-26.469-19.958-37.886c-9.098-11.211-20.468-21.15-33.326-29.387
								c-12.688-8.128-26.891-14.643-41.908-19.126c-14.906-4.45-30.714-6.928-46.785-6.996l-4.661-26.399l-0.286-1.62l-0.169-0.957
								l-0.275-1.562L656.186,114.349"/>
							<path style="fill:#FFFFFF;" d="M666.447,142.366l0.302,0.963c20.389,0.58,40.411,4.053,59.314,9.91
								c19.093,5.917,37.201,14.313,53.472,24.711c16.557,10.581,31.318,23.305,43.307,37.678
								c12.272,14.716,21.699,31.235,27.148,49.017h1.464c-5.521-17.946-15.056-34.616-27.461-49.46
								c-12.115-14.497-27.027-27.326-43.745-37.99c-16.426-10.478-34.702-18.935-53.968-24.887
								C707.208,146.416,687.011,142.931,666.447,142.366"/>
							<path style="fill:#FFFFFF;" d="M157.024,356.084c-10.581-4.471-19.908-10.266-27.745-17.113
								c-7.758-6.779-14.031-14.57-18.611-23.105c-4.522-8.427-7.382-17.562-8.397-27.15c-1-9.451-0.207-19.328,2.548-29.399
								c2.711-9.915,7.141-19.346,12.939-28.108c5.718-8.642,12.779-16.65,20.859-23.854c7.987-7.119,16.989-13.469,26.711-18.883
								c9.635-5.366,20.005-9.83,30.835-13.225L157.024,356.084 M206.515,133.497H205.2l-8.798,40.648
								c-11.017,3.406-21.569,7.903-31.377,13.323c-9.896,5.469-19.064,11.894-27.2,19.106c-8.232,7.298-15.428,15.42-21.258,24.191
								c-5.913,8.895-10.431,18.474-13.198,28.55c-3.808,13.868-3.943,27.373-0.829,39.916c3.174,12.786,9.712,24.528,19.12,34.566
								c9.549,10.189,22.004,18.569,36.772,24.449c14.896,5.931,32.033,9.274,50.714,9.366l-15.409,86.98h1.669l15.311-86.98
								c16.941-0.084,33.566-2.833,49.176-7.757c15.5-4.89,29.904-11.892,42.582-20.496c12.52-8.497,23.296-18.516,31.773-29.561
								c8.339-10.864,14.425-22.686,17.766-35.003h-1.484c-3.339,12.151-9.38,23.808-17.638,34.517
								c-8.392,10.885-19.046,20.755-31.412,29.124c-12.52,8.473-26.736,15.366-42.027,20.179
								c-15.398,4.847-31.792,7.553-48.497,7.636l1.893-10.753c16.328-0.09,32.315-2.991,47.157-8.132
								c14.731-5.103,28.24-12.379,39.8-21.24c11.409-8.747,20.865-18.996,27.723-30.181c6.744-10.999,10.954-22.868,12.057-35.088
								c1.086-12.037-0.947-23.305-5.481-33.387c-4.462-9.921-11.363-18.728-20.144-26.03c-8.677-7.216-19.232-12.997-31.171-16.961
								c-11.86-3.938-25.156-6.106-39.451-6.106c-3.345,0-6.68,0.115-10.003,0.344c-3.325,0.23-6.638,0.574-9.938,1.033
								c-3.303,0.459-6.593,1.034-9.869,1.723c-3.28,0.69-6.546,1.496-9.797,2.417l0.488,0.892c3.194-0.899,6.405-1.687,9.63-2.361
								c3.221-0.674,6.458-1.236,9.706-1.686c3.246-0.45,6.504-0.787,9.773-1.012c3.267-0.225,6.545-0.338,9.832-0.338
								c14.119,0,27.25,2.144,38.961,6.036c11.788,3.918,22.207,9.632,30.77,16.763c8.664,7.215,15.467,15.915,19.862,25.714
								c4.465,9.956,6.459,21.079,5.373,32.959c-1.102,12.055-5.269,23.763-11.932,34.608
								c-6.774,11.027-16.109,21.131-27.367,29.752c-11.403,8.731-24.727,15.901-39.252,20.93
								c-14.634,5.064-30.394,7.923-46.491,8.013l14.679-83.395h-1.461l-16.916,95.485c-4.702-0.021-9.308-0.253-13.807-0.684
								c-4.496-0.43-8.882-1.058-13.147-1.873c-4.26-0.814-8.397-1.814-12.399-2.991c-3.996-1.174-7.855-2.522-11.569-4.034
								l39.155-181.865c3.796-1.153,7.65-2.177,11.552-3.063c3.895-0.885,7.839-1.633,11.82-2.237
								c3.977-0.604,7.994-1.064,12.039-1.374c4.043-0.309,8.116-0.468,12.21-0.468c15.863,0,30.63,2.38,43.826,6.706
								c13.291,4.357,25.075,10.718,34.805,18.67c9.858,8.057,17.66,17.789,22.78,28.774c5.212,11.183,7.667,23.708,6.663,37.122
								h1.457c1.001-13.571-1.496-26.24-6.781-37.547c-5.191-11.106-13.09-20.942-23.067-29.083
								c-9.845-8.034-21.764-14.459-35.204-18.861c-13.342-4.369-28.271-6.772-44.305-6.772c-4.086,0-8.152,0.156-12.188,0.46
								c-4.038,0.305-8.048,0.758-12.019,1.353c-3.976,0.595-7.915,1.332-11.806,2.203c-3.897,0.873-7.749,1.881-11.544,3.017
								L206.515,133.497"/>
							<path style="fill:#FFFFFF;" d="M61.745,259.316h-1.458c-5.648,18.325-6.544,36.311-3.154,53.173
								c3.479,17.298,11.452,33.34,23.348,47.231c12.14,14.177,28.279,26.015,47.679,34.562
								c19.637,8.651,42.423,13.846,67.425,14.663l0.39-1.452c-24.773-0.798-47.354-5.93-66.818-14.485
								c-19.231-8.454-35.236-20.169-47.282-34.203c-11.806-13.754-19.729-29.643-23.196-46.781
								C55.298,295.314,56.165,277.486,61.745,259.316"/>
							<polyline style="fill:#FFFFFF;" points="517.38,312.301 515.861,312.301 519.677,396.596 492.77,396.596 493.098,409.074 
								520.241,409.074 522.229,453.002 467.131,453.002 466.833,415.393 443.183,415.393 442.862,453.002 387.754,453.002 
								391.092,380.226 417.689,380.226 418.012,368.234 407.621,368.234 407.574,369.6 416.401,369.6 416.142,378.84 
								364.586,378.84 365.185,369.6 403.753,369.6 403.804,368.234 391.642,368.234 392.832,342.304 391.279,342.304 
								390.061,368.234 363.691,368.234 362.9,380.226 389.497,380.226 386.076,453.002 303.544,453.002 303.386,454.538 
								386.004,454.538 381.334,553.865 383.127,553.865 387.684,454.538 442.85,454.538 442.511,494.232 465.732,494.232 
								465.722,492.622 444.248,492.622 444.808,416.852 465.208,416.852 465.69,488.042 467.408,488.042 467.144,454.538 
								522.299,454.538 523.533,481.807 525.244,481.807 523.979,454.538 600.391,454.538 600.239,453.002 523.907,453.002 
								521.869,409.074 549.023,409.074 548.207,396.596 537.585,396.596 537.667,398.009 546.693,398.009 547.313,407.64 
								494.678,407.64 494.413,398.009 533.807,398.009 533.729,396.596 521.291,396.596 517.38,312.301 							"/>
							<path style="fill:#FFFFFF;" d="M231.277,246.74c-2.049,0-4.062,0.329-5.947,0.922c-1.888,0.594-3.65,1.455-5.196,2.519
								c-1.548,1.066-2.879,2.337-3.901,3.75c-1.024,1.417-1.738,2.977-2.047,4.616c-0.31,1.645-0.183,3.216,0.311,4.649
								c0.495,1.437,1.36,2.733,2.525,3.825c1.167,1.093,2.634,1.98,4.333,2.594c1.7,0.614,3.629,0.954,5.716,0.954
								c2.087,0,4.136-0.34,6.052-0.954c1.914-0.614,3.693-1.5,5.246-2.594c1.549-1.092,2.871-2.389,3.873-3.825
								c0.999-1.433,1.68-3.004,1.951-4.649l0.023-0.194h-1.448l-0.023,0.194c-0.247,1.486-0.863,2.905-1.768,4.199
								c-0.906,1.296-2.101,2.466-3.5,3.45c-1.402,0.985-3.009,1.784-4.736,2.336c-1.729,0.553-3.578,0.859-5.46,0.859
								s-3.624-0.306-5.157-0.859c-1.532-0.553-2.857-1.351-3.911-2.336c-1.052-0.984-1.833-2.154-2.282-3.45
								c-0.447-1.294-0.563-2.713-0.285-4.199c0.278-1.482,0.921-2.893,1.845-4.172c0.922-1.277,2.124-2.426,3.521-3.389
								c1.396-0.962,2.988-1.739,4.693-2.276c1.704-0.536,3.523-0.833,5.375-0.833c1.51,0,2.927,0.197,4.219,0.561
								c1.293,0.364,2.461,0.895,3.471,1.561c1.011,0.667,1.864,1.471,2.524,2.381c0.661,0.911,1.13,1.929,1.372,3.022l1.426-0.414
								c-0.275-1.201-0.799-2.318-1.535-3.317c-0.734-0.998-1.679-1.879-2.797-2.61c-1.116-0.729-2.406-1.311-3.832-1.708
								C234.501,246.956,232.939,246.74,231.277,246.74"/>
						</g>
					</g>
				</g>
			</g>
		</g>
	</g>
</g>
</svg>
