<?xml version="1.0" encoding="iso-8859-1"?>
<!-- Generator: Adobe Illustrator 16.0.0, SVG Export Plug-In . SVG Version: 6.00 Build 0)  -->
<!DOCTYPE svg PUBLIC "-//W3C//DTD SVG 1.1//EN" "http://www.w3.org/Graphics/SVG/1.1/DTD/svg11.dtd">
<svg version="1.1" id="Layer_2" xmlns="http://www.w3.org/2000/svg" xmlns:xlink="http://www.w3.org/1999/xlink" x="0px" y="0px"
	 width="910.886px" height="597.925px" viewBox="0 0 910.886 597.925" style="enable-background:new 0 0 910.886 597.925;"
	 xml:space="preserve">
<g>
	<g>
		<g style="enable-background:new    ;">
			<defs>
				<polygon id="SVGID_1_" style="enable-background:new    ;" points="-104.406,600.169 70.88,92.057 840.008,92.057 
					1015.293,600.169 				"/>
			</defs>
			<clipPath id="SVGID_2_">
				<use xlink:href="#SVGID_1_"  style="overflow:visible;"/>
			</clipPath>
			<g style="clip-path:url(#SVGID_2_);">
				<g>
					<g>
						<g>
							<path style="fill:#FFFFFF;" d="M479.544,287.141c-1.036,0-2.027-0.171-2.932-0.48c-0.904-0.309-1.721-0.755-2.408-1.306
								c-0.688-0.55-1.246-1.205-1.636-1.93c-0.39-0.724-0.609-1.52-0.62-2.352c-0.011-0.832,0.189-1.624,0.559-2.344
								c0.368-0.719,0.907-1.367,1.574-1.911c0.668-0.543,1.465-0.983,2.351-1.287c0.887-0.304,1.863-0.471,2.891-0.471
								c1.024,0,2.006,0.167,2.902,0.471s1.708,0.743,2.395,1.287c0.688,0.544,1.25,1.191,1.645,1.911
								c0.396,0.72,0.624,1.513,0.645,2.344c0.021,0.833-0.171,1.628-0.533,2.352c-0.362,0.726-0.897,1.38-1.563,1.93
								c-0.667,0.551-1.467,0.998-2.357,1.306C481.563,286.97,480.579,287.141,479.544,287.141 M479.048,260.184
								c-1.015,0-1.985-0.164-2.871-0.46c-0.886-0.296-1.685-0.724-2.358-1.253c-0.673-0.528-1.221-1.156-1.602-1.852
								c-0.381-0.695-0.597-1.458-0.606-2.257c-0.011-0.8,0.186-1.561,0.547-2.252c0.362-0.69,0.89-1.312,1.544-1.833
								c0.653-0.521,1.434-0.942,2.303-1.233c0.868-0.291,1.825-0.452,2.831-0.452c1.004,0,1.965,0.161,2.843,0.452
								s1.674,0.712,2.346,1.233c0.673,0.521,1.224,1.143,1.61,1.833c0.387,0.691,0.61,1.452,0.63,2.252
								c0.02,0.799-0.168,1.562-0.523,2.257c-0.355,0.696-0.879,1.324-1.532,1.852c-0.654,0.529-1.437,0.957-2.31,1.253
								C481.024,260.02,480.062,260.184,479.048,260.184 M478.572,234.314c-0.995,0-1.946-0.158-2.813-0.442
								c-0.867-0.284-1.65-0.695-2.311-1.203c-0.659-0.507-1.195-1.11-1.569-1.778c-0.373-0.668-0.584-1.4-0.593-2.167
								c-0.01-0.768,0.182-1.499,0.536-2.164c0.354-0.664,0.872-1.261,1.514-1.763c0.641-0.501,1.405-0.906,2.257-1.186
								c0.851-0.28,1.788-0.435,2.774-0.435c0.984,0,1.926,0.155,2.786,0.435s1.64,0.685,2.299,1.186
								c0.659,0.502,1.197,1.099,1.576,1.763c0.379,0.665,0.598,1.396,0.616,2.164c0.019,0.767-0.165,1.5-0.514,2.167
								s-0.862,1.271-1.502,1.778c-0.642,0.507-1.408,0.918-2.264,1.203C480.509,234.157,479.565,234.314,478.572,234.314
								 M478.348,222.091c-1.181,0-2.302,0.185-3.32,0.519s-1.934,0.818-2.7,1.417c-0.768,0.599-1.387,1.313-1.812,2.107
								c-0.425,0.795-0.655,1.67-0.645,2.59c0.01,0.873,0.237,1.708,0.642,2.475c0.405,0.768,0.988,1.466,1.708,2.064
								c0.721,0.599,1.579,1.097,2.535,1.462c0.955,0.366,2.008,0.6,3.117,0.67l0.215,12.086c-1.116,0.073-2.172,0.313-3.126,0.688
								c-0.955,0.375-1.809,0.885-2.522,1.5c-0.714,0.615-1.287,1.334-1.679,2.126c-0.394,0.793-0.604,1.659-0.595,2.567
								c0.011,0.909,0.243,1.779,0.656,2.578c0.413,0.799,1.008,1.527,1.743,2.149c0.736,0.624,1.612,1.142,2.588,1.523
								s2.05,0.625,3.182,0.698l0.225,12.591c-1.141,0.077-2.218,0.326-3.191,0.717c-0.975,0.391-1.847,0.922-2.574,1.563
								c-0.729,0.641-1.313,1.39-1.714,2.216c-0.4,0.827-0.616,1.729-0.605,2.676c0.011,0.948,0.248,1.854,0.67,2.687
								c0.422,0.833,1.03,1.592,1.78,2.242c0.752,0.65,1.646,1.192,2.643,1.59c0.996,0.399,2.094,0.654,3.249,0.732l0.662,37.172
								h1.533l-0.705-37.172c1.152-0.078,2.241-0.333,3.224-0.732c0.982-0.398,1.858-0.939,2.587-1.59
								c0.728-0.65,1.309-1.408,1.701-2.242c0.392-0.832,0.597-1.739,0.572-2.687c-0.023-0.946-0.273-1.849-0.705-2.676
								c-0.432-0.826-1.045-1.575-1.799-2.216c-0.752-0.64-1.645-1.172-2.635-1.563c-0.988-0.391-2.075-0.64-3.219-0.717
								l-0.238-12.591c1.129-0.073,2.194-0.316,3.157-0.698c0.962-0.381,1.82-0.9,2.534-1.523c0.713-0.623,1.282-1.35,1.667-2.149
								c0.385-0.798,0.585-1.668,0.563-2.578c-0.022-0.908-0.267-1.774-0.689-2.567c-0.423-0.792-1.023-1.511-1.761-2.126
								c-0.737-0.614-1.611-1.125-2.58-1.5s-2.033-0.615-3.153-0.688l-0.229-12.086c1.105-0.07,2.15-0.304,3.094-0.67
								c0.942-0.366,1.783-0.864,2.483-1.462c0.699-0.598,1.258-1.296,1.635-2.064c0.377-0.767,0.574-1.602,0.553-2.475
								c-0.023-0.919-0.287-1.795-0.742-2.59c-0.454-0.794-1.1-1.508-1.89-2.107c-0.79-0.599-1.723-1.083-2.754-1.417
								C480.653,222.275,479.525,222.091,478.348,222.091"/>
							<path style="fill:#FFFFFF;" d="M430.55,287.141c-1.035,0-2.018-0.171-2.909-0.48c-0.891-0.309-1.69-0.755-2.357-1.306
								c-0.666-0.55-1.2-1.205-1.563-1.93c-0.362-0.724-0.552-1.52-0.532-2.352c0.021-0.832,0.25-1.624,0.646-2.344
								c0.396-0.719,0.958-1.367,1.646-1.911c0.687-0.543,1.5-0.983,2.396-1.287c0.896-0.304,1.877-0.471,2.902-0.471
								c1.027,0,2.003,0.167,2.89,0.471c0.887,0.304,1.683,0.743,2.35,1.287c0.667,0.544,1.205,1.191,1.574,1.911
								c0.369,0.72,0.567,1.513,0.557,2.344c-0.011,0.833-0.231,1.628-0.621,2.352c-0.39,0.726-0.949,1.38-1.637,1.93
								c-0.688,0.551-1.505,0.998-2.409,1.306C432.578,286.97,431.586,287.141,430.55,287.141 M431.062,260.184
								c-1.013,0-1.977-0.164-2.85-0.46c-0.873-0.296-1.656-0.724-2.309-1.253c-0.652-0.528-1.176-1.156-1.531-1.852
								c-0.354-0.695-0.542-1.458-0.521-2.257c0.02-0.8,0.244-1.561,0.631-2.252c0.387-0.69,0.938-1.312,1.611-1.833
								c0.672-0.521,1.468-0.942,2.346-1.233s1.839-0.452,2.843-0.452c1.006,0,1.963,0.161,2.831,0.452s1.649,0.712,2.302,1.233
								c0.654,0.521,1.181,1.143,1.542,1.833c0.362,0.691,0.557,1.452,0.546,2.252c-0.011,0.799-0.227,1.562-0.608,2.257
								c-0.382,0.696-0.93,1.324-1.603,1.852c-0.674,0.529-1.474,0.957-2.359,1.253C433.048,260.02,432.078,260.184,431.062,260.184
								 M431.554,234.314c-0.993,0-1.937-0.158-2.792-0.442c-0.855-0.284-1.623-0.695-2.263-1.203
								c-0.64-0.507-1.153-1.11-1.501-1.778s-0.531-1.4-0.513-2.167c0.019-0.768,0.238-1.499,0.618-2.164
								c0.379-0.664,0.918-1.261,1.578-1.763c0.659-0.501,1.438-0.906,2.299-1.186s1.802-0.435,2.787-0.435
								c0.986,0,1.923,0.155,2.774,0.435s1.616,0.685,2.256,1.186c0.641,0.502,1.158,1.099,1.512,1.763
								c0.354,0.665,0.546,1.396,0.536,2.164c-0.01,0.767-0.222,1.5-0.595,2.167c-0.374,0.668-0.911,1.271-1.57,1.778
								c-0.66,0.507-1.444,0.918-2.311,1.203C433.5,234.157,432.549,234.314,431.554,234.314 M433.089,190.005h-1.379l-0.628,32.111
								c-1.097,0.068-2.141,0.297-3.09,0.657c-0.95,0.359-1.807,0.849-2.529,1.438c-0.723,0.591-1.312,1.282-1.726,2.043
								c-0.415,0.763-0.654,1.596-0.676,2.469c-0.022,0.873,0.174,1.708,0.551,2.475c0.377,0.768,0.935,1.466,1.633,2.064
								c0.7,0.599,1.541,1.097,2.483,1.462c0.943,0.366,1.988,0.6,3.094,0.67l-0.237,12.086c-1.12,0.073-2.184,0.313-3.153,0.687
								s-1.843,0.884-2.581,1.498c-0.738,0.615-1.339,1.333-1.762,2.126c-0.423,0.793-0.667,1.661-0.691,2.57
								c-0.023,0.909,0.177,1.779,0.561,2.578c0.385,0.799,0.953,1.527,1.667,2.149c0.713,0.624,1.571,1.142,2.533,1.523
								s2.028,0.625,3.157,0.698l-0.247,12.591c-1.143,0.077-2.229,0.326-3.219,0.717s-1.882,0.922-2.635,1.563
								c-0.754,0.641-1.368,1.39-1.8,2.216c-0.433,0.827-0.683,1.729-0.707,2.676c-0.026,0.998,0.201,1.951,0.634,2.82
								c0.434,0.87,1.073,1.655,1.872,2.315c0.799,0.661,1.757,1.197,2.825,1.567c1.069,0.371,2.248,0.576,3.489,0.576
								c1.243,0,2.431-0.206,3.515-0.576c1.083-0.371,2.061-0.906,2.884-1.567c0.823-0.661,1.491-1.445,1.957-2.315
								c0.465-0.869,0.728-1.822,0.74-2.82c0.011-0.946-0.204-1.849-0.604-2.676c-0.4-0.826-0.984-1.575-1.713-2.216
								c-0.728-0.64-1.599-1.172-2.573-1.563c-0.974-0.391-2.051-0.64-3.19-0.717l0.232-12.591c1.131-0.073,2.206-0.316,3.182-0.698
								c0.975-0.381,1.852-0.9,2.588-1.523c0.735-0.623,1.331-1.35,1.745-2.149c0.413-0.798,0.646-1.668,0.657-2.578
								c0.011-0.908-0.2-1.774-0.592-2.567c-0.392-0.792-0.964-1.511-1.678-2.126c-0.713-0.614-1.567-1.125-2.521-1.5
								c-0.954-0.375-2.009-0.615-3.125-0.688l0.223-12.086c1.108-0.072,2.161-0.306,3.117-0.672
								c0.956-0.366,1.814-0.864,2.536-1.462c0.72-0.598,1.303-1.295,1.709-2.063c0.405-0.766,0.633-1.601,0.643-2.474
								c0.011-0.874-0.196-1.706-0.581-2.468c-0.384-0.761-0.946-1.451-1.646-2.041c-0.699-0.59-1.535-1.079-2.471-1.438
								c-0.935-0.359-1.969-0.589-3.063-0.66L433.089,190.005"/>
							<path style="fill:#FFFFFF;" d="M754.357,362.241L715,179.886c10.872,3.422,21.284,7.92,30.959,13.33
								c9.762,5.458,18.803,11.859,26.824,19.037c8.116,7.262,15.209,15.337,20.955,24.05c5.827,8.835,10.28,18.345,13.008,28.342
								c2.77,10.155,3.57,20.115,2.57,29.645c-1.016,9.67-3.884,18.881-8.42,27.381c-4.595,8.608-10.891,16.467-18.68,23.305
								C774.35,351.885,764.983,357.73,754.357,362.241 M656.074,113.716h-1.284l4.735,26.996l0.726,4.139l4.631,26.399
								c-14.838,0.063-28.72,2.186-41.267,6.02c-12.628,3.859-23.977,9.475-33.614,16.515c-9.751,7.123-17.797,15.738-23.649,25.512
								c-5.946,9.93-9.65,21.09-10.565,33.127h1.45c0.912-11.88,4.575-22.898,10.451-32.703c5.785-9.652,13.735-18.162,23.37-25.199
								c9.524-6.957,20.739-12.505,33.219-16.318c12.399-3.789,26.119-5.887,40.782-5.948l1.654,9.433
								c-14.242,0.069-27.487,2.294-39.301,6.28c-11.892,4.013-22.402,9.834-31.043,17.085
								c-8.744,7.338-15.612,16.175-20.054,26.124c-4.513,10.11-6.536,21.403-5.454,33.467c1.106,12.34,5.355,24.327,12.164,35.429
								c6.925,11.291,16.475,21.632,27.996,30.443c11.673,8.928,25.312,16.244,40.177,21.347
								c14.977,5.141,31.099,8.002,47.552,8.002c4.229,0,8.383-0.184,12.452-0.55c4.067-0.365,8.05-0.913,11.94-1.642
								c3.887-0.728,7.68-1.635,11.371-2.72c3.687-1.083,7.271-2.344,10.747-3.779l-1.004-1.17
								c-3.426,1.407-6.955,2.643-10.583,3.705c-3.633,1.064-7.362,1.954-11.184,2.668c-3.825,0.714-7.739,1.251-11.737,1.61
								c-4,0.358-8.081,0.539-12.239,0.539c-16.22,0-32.115-2.819-46.882-7.885c-14.659-5.028-28.111-12.237-39.628-21.036
								c-11.369-8.687-20.797-18.881-27.639-30.015c-6.729-10.949-10.934-22.773-12.039-34.947
								c-1.081-11.904,0.902-23.051,5.346-33.033c4.374-9.825,11.146-18.554,19.771-25.804c8.525-7.166,18.899-12.918,30.641-16.885
								c11.663-3.941,24.742-6.141,38.809-6.21l12.286,70.041c-1.961,0.076-3.771,0.455-5.367,1.08
								c-1.599,0.626-2.984,1.5-4.093,2.563c-1.109,1.065-1.942,2.323-2.432,3.714c-0.49,1.395-0.637,2.926-0.373,4.534l0.018,0.104
								h1.464l-0.018-0.104c-0.247-1.497-0.103-2.921,0.37-4.213c0.473-1.291,1.271-2.451,2.333-3.424
								c1.061-0.972,2.384-1.757,3.907-2.3c1.521-0.542,3.245-0.842,5.107-0.842s3.691,0.3,5.404,0.842
								c1.714,0.542,3.313,1.328,4.716,2.3c1.404,0.973,2.611,2.133,3.537,3.424c0.928,1.292,1.574,2.716,1.854,4.213
								c0.279,1.497,0.164,2.928-0.284,4.233c-0.45,1.308-1.233,2.489-2.29,3.483c-1.058,0.996-2.388,1.804-3.928,2.362
								c-1.541,0.56-3.291,0.869-5.186,0.869c-1.655,0-3.285-0.237-4.831-0.67c-1.545-0.433-3.006-1.063-4.324-1.848
								c-1.317-0.784-2.492-1.724-3.469-2.777c-0.975-1.053-1.751-2.219-2.273-3.458l-1.428,0.182
								c0.574,1.379,1.433,2.678,2.514,3.851c1.082,1.174,2.387,2.222,3.85,3.098c1.465,0.876,3.087,1.58,4.804,2.064
								c1.719,0.484,3.529,0.75,5.368,0.75c2.097,0,4.035-0.344,5.742-0.964c1.706-0.62,3.18-1.516,4.353-2.621
								c1.17-1.103,2.038-2.412,2.535-3.862c0.496-1.447,0.623-3.032,0.312-4.69c-0.302-1.608-0.987-3.139-1.969-4.534
								c-0.979-1.392-2.255-2.649-3.739-3.714c-1.483-1.064-3.176-1.938-4.994-2.563c-1.816-0.625-3.761-1.004-5.747-1.08
								l-14.212-80.497c4.052,0.017,8.082,0.188,12.083,0.506c4.002,0.319,7.977,0.786,11.912,1.393
								c3.939,0.607,7.842,1.356,11.697,2.238c3.861,0.883,7.677,1.901,11.435,3.047l39.373,183.393
								c-3.781,1.547-7.714,2.926-11.787,4.123c-4.08,1.199-8.299,2.217-12.644,3.041c-4.351,0.824-8.826,1.455-13.414,1.879
								c-4.59,0.424-9.291,0.642-14.088,0.642c-18.639,0-36.898-3.271-53.842-9.142c-16.801-5.822-32.185-14.16-45.313-24.318
								c-12.935-10.01-23.61-21.733-31.297-34.509c-7.542-12.533-12.182-26.036-13.278-39.903l-0.017-0.217h-1.464l0.017,0.217
								c1.094,14.03,5.773,27.695,13.393,40.382c7.768,12.935,18.563,24.808,31.65,34.947c13.284,10.292,28.855,18.74,45.867,24.641
								c17.156,5.952,35.647,9.268,54.523,9.268c4.797,0,9.499-0.216,14.092-0.635c4.59-0.419,9.069-1.041,13.426-1.856
								c4.352-0.814,8.577-1.82,12.667-3.006c4.083-1.184,8.028-2.547,11.825-4.077l12.693,59.124h1.645l-12.889-59.716
								c10.853-4.542,20.421-10.456,28.46-17.459c7.957-6.933,14.392-14.91,19.087-23.656c4.636-8.634,7.567-17.996,8.605-27.827
								c1.023-9.685,0.208-19.809-2.618-30.129c-3.75-13.687-10.694-26.469-19.958-37.886c-9.098-11.211-20.468-21.15-33.326-29.387
								c-12.688-8.128-26.891-14.643-41.908-19.126c-14.906-4.45-30.714-6.928-46.785-6.996l-4.661-26.399l-0.286-1.62l-0.169-0.957
								l-0.275-1.562L656.074,113.716"/>
							<path style="fill:#FFFFFF;" d="M665.22,142.332l0.172,0.958c20.521,0.456,40.682,3.848,59.723,9.657
								c19.23,5.867,37.478,14.249,53.874,24.657c16.686,10.592,31.568,23.354,43.651,37.785
								c12.372,14.776,21.871,31.379,27.351,49.257h1.464c-5.548-18.035-15.149-34.779-27.644-49.679
								c-12.201-14.549-27.222-27.412-44.056-38.085c-16.54-10.486-34.942-18.929-54.332-24.836
								C706.227,146.196,685.902,142.784,665.22,142.332"/>
							<path style="fill:#FFFFFF;" d="M157.024,356.084c-10.581-4.471-19.908-10.266-27.745-17.113
								c-7.758-6.779-14.031-14.57-18.611-23.105c-4.522-8.427-7.382-17.562-8.397-27.15c-1-9.451-0.207-19.328,2.548-29.399
								c2.711-9.915,7.141-19.346,12.939-28.108c5.718-8.642,12.779-16.65,20.859-23.854c7.987-7.119,16.989-13.469,26.711-18.883
								c9.635-5.366,20.005-9.83,30.835-13.225L157.024,356.084 M206.662,132.814h-1.314l-8.945,41.331
								c-11.017,3.406-21.569,7.903-31.377,13.323c-9.896,5.469-19.064,11.894-27.2,19.106c-8.232,7.298-15.428,15.42-21.258,24.191
								c-5.913,8.895-10.431,18.474-13.198,28.55c-3.808,13.868-3.943,27.373-0.829,39.916c3.174,12.786,9.712,24.528,19.12,34.566
								c9.549,10.189,22.004,18.569,36.772,24.449c14.896,5.931,32.033,9.274,50.714,9.366l-15.409,86.98h1.669l15.311-86.98
								c17.368-0.086,34.402-2.974,50.352-8.133c15.832-5.121,30.492-12.448,43.305-21.429
								c12.646-8.863,23.429-19.295,31.754-30.762c8.184-11.272,13.965-23.507,16.818-36.213h-1.462
								c-2.855,12.54-8.596,24.611-16.701,35.729c-8.243,11.307-18.905,21.59-31.398,30.325
								c-12.656,8.849-27.128,16.065-42.752,21.11c-15.738,5.082-32.542,7.926-49.676,8.011l1.893-10.753
								c16.328-0.09,32.315-2.991,47.157-8.132c14.731-5.103,28.24-12.379,39.8-21.24c11.409-8.747,20.865-18.996,27.723-30.181
								c6.744-10.999,10.954-22.868,12.057-35.088c1.086-12.037-0.947-23.305-5.481-33.387c-4.462-9.921-11.363-18.728-20.144-26.03
								c-8.677-7.216-19.232-12.997-31.171-16.961c-11.86-3.938-25.156-6.106-39.451-6.106c-3.56,0-7.107,0.13-10.641,0.39
								c-3.535,0.26-7.056,0.649-10.563,1.169c-3.509,0.52-7.004,1.169-10.482,1.949c-3.482,0.781-6.95,1.692-10.399,2.734
								l0.469,0.899c3.392-1.022,6.804-1.916,10.234-2.683c3.425-0.766,6.868-1.404,10.325-1.915
								c3.455-0.51,6.924-0.894,10.405-1.149c3.48-0.256,6.972-0.384,10.474-0.384c14.119,0,27.25,2.144,38.961,6.036
								c11.788,3.918,22.207,9.632,30.77,16.763c8.664,7.215,15.467,15.915,19.862,25.714c4.465,9.956,6.459,21.079,5.373,32.959
								c-1.102,12.055-5.269,23.763-11.932,34.608c-6.774,11.027-16.109,21.131-27.367,29.752
								c-11.403,8.731-24.727,15.901-39.252,20.93c-14.634,5.064-30.394,7.923-46.491,8.013l14.679-83.395h-1.461l-16.916,95.485
								c-4.702-0.021-9.308-0.253-13.807-0.684c-4.496-0.43-8.882-1.058-13.147-1.873c-4.26-0.814-8.397-1.814-12.399-2.991
								c-3.996-1.174-7.855-2.522-11.569-4.034l39.155-181.865c3.796-1.153,7.65-2.177,11.552-3.063
								c3.895-0.885,7.839-1.633,11.82-2.237c3.977-0.604,7.994-1.064,12.039-1.374c4.043-0.309,8.116-0.468,12.21-0.468
								c15.863,0,30.63,2.38,43.826,6.706c13.291,4.357,25.075,10.718,34.805,18.67c9.858,8.057,17.66,17.789,22.78,28.774
								c5.212,11.183,7.667,23.708,6.663,37.122h1.457c1.001-13.571-1.496-26.24-6.781-37.547
								c-5.191-11.106-13.09-20.942-23.067-29.083c-9.845-8.034-21.764-14.459-35.204-18.861
								c-13.342-4.369-28.271-6.772-44.305-6.772c-4.086,0-8.152,0.156-12.188,0.46c-4.038,0.305-8.048,0.758-12.019,1.353
								c-3.976,0.595-7.915,1.332-11.806,2.203c-3.897,0.873-7.749,1.881-11.544,3.017L206.662,132.814"/>
							<path style="fill:#FFFFFF;" d="M61.745,259.316h-1.458c-5.677,18.416-6.553,36.489-3.104,53.423
								c3.54,17.374,11.617,33.474,23.651,47.392c12.281,14.204,28.594,26.036,48.188,34.527
								c19.832,8.594,42.827,13.682,68.037,14.33l0.261-1.443c-24.961-0.645-47.732-5.681-67.373-14.186
								c-19.407-8.404-35.571-20.114-47.746-34.174c-11.932-13.779-19.95-29.723-23.475-46.931
								C55.291,295.479,56.139,277.57,61.745,259.316"/>
							<polyline style="fill:#FFFFFF;" points="517.326,311.158 515.81,311.158 519.677,396.596 492.77,396.596 493.098,409.074 
								520.241,409.074 522.229,453.002 467.131,453.002 466.833,415.393 443.183,415.393 442.862,453.002 387.754,453.002 
								391.092,380.226 417.689,380.226 418.012,368.234 405.878,368.234 405.83,369.6 416.401,369.6 416.142,378.84 
								364.586,378.84 365.185,369.6 403.753,369.6 403.804,368.234 391.642,368.234 392.832,342.304 391.279,342.304 
								390.061,368.234 363.691,368.234 362.9,380.226 389.497,380.226 386.076,453.002 303.544,453.002 303.386,454.538 
								386.004,454.538 381.257,555.524 383.051,555.524 387.684,454.538 442.85,454.538 442.511,494.232 465.732,494.232 
								465.722,492.622 444.248,492.622 444.808,416.852 465.208,416.852 465.698,489.093 467.417,489.093 467.144,454.538 
								522.299,454.538 523.533,481.807 525.244,481.807 523.979,454.538 600.391,454.538 600.239,453.002 523.907,453.002 
								521.869,409.074 549.023,409.074 548.207,396.596 536.484,396.596 536.564,398.009 546.693,398.009 547.313,407.64 
								494.678,407.64 494.413,398.009 533.807,398.009 533.729,396.596 521.291,396.596 517.326,311.158 							"/>
							<path style="fill:#FFFFFF;" d="M231.277,246.74c-2.049,0-4.062,0.329-5.947,0.922c-1.888,0.594-3.65,1.455-5.196,2.519
								c-1.548,1.066-2.879,2.337-3.901,3.75c-1.024,1.417-1.738,2.977-2.047,4.616c-0.31,1.645-0.183,3.216,0.311,4.649
								c0.495,1.437,1.36,2.733,2.525,3.825c1.167,1.093,2.634,1.98,4.333,2.594c1.7,0.614,3.629,0.954,5.716,0.954
								c2.087,0,4.136-0.34,6.052-0.954c1.914-0.614,3.693-1.5,5.246-2.594c1.549-1.092,2.871-2.389,3.873-3.825
								c0.999-1.433,1.68-3.004,1.951-4.649l0.023-0.194h-1.448l-0.023,0.194c-0.247,1.486-0.863,2.905-1.768,4.199
								c-0.906,1.296-2.101,2.466-3.5,3.45c-1.402,0.985-3.009,1.784-4.736,2.336c-1.729,0.553-3.578,0.859-5.46,0.859
								s-3.624-0.306-5.157-0.859c-1.532-0.553-2.857-1.351-3.911-2.336c-1.052-0.984-1.833-2.154-2.282-3.45
								c-0.447-1.294-0.563-2.713-0.285-4.199c0.278-1.482,0.921-2.893,1.845-4.172c0.922-1.277,2.124-2.426,3.521-3.389
								c1.396-0.962,2.988-1.739,4.693-2.276c1.704-0.536,3.523-0.833,5.375-0.833c1.59,0,3.078,0.218,4.425,0.619
								c1.348,0.401,2.556,0.986,3.584,1.718c1.029,0.732,1.879,1.613,2.51,2.606c0.631,0.995,1.043,2.102,1.194,3.286l1.46-0.249
								c-0.168-1.313-0.624-2.54-1.324-3.642c-0.698-1.1-1.64-2.076-2.78-2.887c-1.138-0.811-2.476-1.458-3.969-1.902
								C234.687,246.982,233.039,246.74,231.277,246.74"/>
						</g>
					</g>
				</g>
			</g>
		</g>
	</g>
</g>
</svg>
