<?xml version="1.0" encoding="iso-8859-1"?>
<!-- Generator: Adobe Illustrator 16.0.0, SVG Export Plug-In . SVG Version: 6.00 Build 0)  -->
<!DOCTYPE svg PUBLIC "-//W3C//DTD SVG 1.1//EN" "http://www.w3.org/Graphics/SVG/1.1/DTD/svg11.dtd">
<svg version="1.1" id="Layer_2" xmlns="http://www.w3.org/2000/svg" xmlns:xlink="http://www.w3.org/1999/xlink" x="0px" y="0px"
	 width="910.886px" height="597.925px" viewBox="0 0 910.886 597.925" style="enable-background:new 0 0 910.886 597.925;"
	 xml:space="preserve">
<g>
	<g>
		<g style="enable-background:new    ;">
			<defs>
				<polygon id="SVGID_1_" style="enable-background:new    ;" points="-103.585,599.557 71.197,92.353 839.69,92.353 
					1014.473,599.557 				"/>
			</defs>
			<clipPath id="SVGID_2_">
				<use xlink:href="#SVGID_1_"  style="overflow:visible;"/>
			</clipPath>
			<g style="clip-path:url(#SVGID_2_);">
				<g>
					<g>
						<g>
							<path style="fill:#FFFFFF;" d="M479.544,287.142c-1.036,0-2.027-0.171-2.932-0.48c-0.904-0.309-1.721-0.755-2.408-1.306
								c-0.688-0.55-1.246-1.205-1.636-1.93c-0.39-0.725-0.609-1.52-0.62-2.352c-0.011-0.832,0.189-1.624,0.559-2.344
								c0.368-0.719,0.907-1.367,1.574-1.911c0.668-0.543,1.465-0.983,2.351-1.287c0.887-0.304,1.863-0.472,2.891-0.472
								c1.024,0,2.006,0.168,2.902,0.472s1.708,0.743,2.395,1.287c0.688,0.543,1.25,1.191,1.645,1.911
								c0.396,0.72,0.624,1.513,0.645,2.344c0.02,0.833-0.171,1.627-0.533,2.352c-0.362,0.726-0.897,1.38-1.563,1.93
								c-0.667,0.551-1.467,0.998-2.357,1.306C481.563,286.971,480.579,287.142,479.544,287.142 M479.048,260.185
								c-1.015,0-1.985-0.164-2.871-0.46c-0.886-0.296-1.685-0.724-2.358-1.253c-0.673-0.528-1.221-1.156-1.602-1.852
								c-0.381-0.695-0.597-1.458-0.606-2.257c-0.011-0.8,0.186-1.561,0.547-2.252c0.362-0.69,0.89-1.312,1.544-1.833
								c0.653-0.521,1.434-0.942,2.303-1.233c0.868-0.291,1.825-0.452,2.831-0.452c1.004,0,1.965,0.161,2.843,0.452
								s1.674,0.712,2.346,1.233c0.673,0.521,1.224,1.143,1.61,1.833c0.387,0.691,0.61,1.452,0.63,2.252
								c0.02,0.799-0.168,1.562-0.523,2.257c-0.355,0.696-0.88,1.324-1.532,1.852c-0.654,0.529-1.437,0.957-2.31,1.253
								C481.024,260.021,480.062,260.185,479.048,260.185 M478.572,234.315c-0.995,0-1.946-0.157-2.813-0.442
								s-1.65-0.696-2.311-1.203c-0.659-0.507-1.195-1.11-1.569-1.778c-0.373-0.667-0.584-1.4-0.594-2.167
								c-0.009-0.768,0.183-1.499,0.537-2.163c0.354-0.664,0.872-1.261,1.513-1.763c0.642-0.501,1.406-0.906,2.258-1.187
								c0.851-0.28,1.788-0.435,2.774-0.435c0.984,0,1.926,0.155,2.786,0.435c0.86,0.28,1.64,0.686,2.298,1.187
								c0.66,0.501,1.198,1.099,1.577,1.763c0.379,0.665,0.598,1.396,0.616,2.163s-0.165,1.5-0.514,2.167
								c-0.349,0.668-0.862,1.271-1.503,1.778c-0.641,0.507-1.407,0.918-2.263,1.203
								C480.509,234.158,479.565,234.315,478.572,234.315 M478.348,222.092c-1.181,0-2.303,0.185-3.32,0.519
								c-1.019,0.334-1.934,0.818-2.701,1.417c-0.767,0.599-1.386,1.313-1.811,2.107c-0.425,0.795-0.655,1.67-0.645,2.589
								c0.01,0.874,0.237,1.708,0.642,2.475c0.405,0.768,0.987,1.466,1.708,2.064c0.721,0.599,1.579,1.096,2.535,1.462
								c0.955,0.366,2.008,0.6,3.117,0.67l0.215,12.086c-1.116,0.073-2.172,0.313-3.126,0.688c-0.955,0.375-1.809,0.885-2.522,1.5
								c-0.714,0.615-1.287,1.334-1.68,2.126c-0.393,0.793-0.604,1.66-0.594,2.567c0.011,0.909,0.243,1.779,0.656,2.578
								c0.413,0.799,1.008,1.527,1.743,2.149c0.736,0.624,1.612,1.142,2.588,1.523s2.05,0.625,3.182,0.698l0.224,12.591
								c-1.14,0.077-2.217,0.326-3.19,0.717c-0.975,0.391-1.847,0.922-2.574,1.563c-0.729,0.641-1.313,1.39-1.714,2.216
								c-0.401,0.826-0.616,1.729-0.605,2.676c0.011,0.948,0.248,1.854,0.67,2.687c0.422,0.833,1.03,1.592,1.78,2.242
								c0.752,0.65,1.646,1.191,2.643,1.59s2.094,0.654,3.249,0.732l0.711,39.87h1.536l-0.757-39.87
								c1.152-0.078,2.241-0.333,3.224-0.732s1.858-0.939,2.587-1.59c0.728-0.65,1.309-1.408,1.701-2.242
								c0.392-0.832,0.597-1.739,0.572-2.687c-0.023-0.946-0.273-1.85-0.705-2.676c-0.432-0.826-1.045-1.575-1.799-2.216
								c-0.753-0.64-1.645-1.172-2.635-1.563c-0.988-0.391-2.075-0.64-3.219-0.717l-0.238-12.591
								c1.129-0.073,2.194-0.316,3.157-0.698c0.962-0.381,1.82-0.9,2.534-1.523c0.713-0.623,1.282-1.35,1.667-2.149
								c0.385-0.798,0.585-1.668,0.563-2.578c-0.023-0.908-0.267-1.774-0.689-2.567c-0.423-0.792-1.023-1.511-1.761-2.126
								c-0.737-0.614-1.611-1.125-2.58-1.5c-0.969-0.375-2.033-0.614-3.153-0.688l-0.229-12.086c1.105-0.07,2.15-0.304,3.094-0.67
								c0.942-0.366,1.783-0.864,2.483-1.462c0.699-0.598,1.258-1.297,1.635-2.064c0.377-0.767,0.574-1.602,0.552-2.475
								c-0.022-0.919-0.286-1.794-0.741-2.589c-0.454-0.794-1.1-1.508-1.89-2.107s-1.724-1.083-2.754-1.417
								C480.653,222.276,479.525,222.092,478.348,222.092"/>
							<path style="fill:#FFFFFF;" d="M430.55,287.142c-1.035,0-2.018-0.171-2.909-0.48c-0.891-0.309-1.69-0.755-2.357-1.306
								c-0.666-0.55-1.2-1.205-1.563-1.93c-0.362-0.725-0.552-1.52-0.532-2.352c0.021-0.832,0.25-1.624,0.646-2.344
								c0.396-0.719,0.958-1.367,1.645-1.911c0.687-0.543,1.5-0.983,2.396-1.287c0.896-0.304,1.877-0.472,2.902-0.472
								c1.027,0,2.004,0.168,2.89,0.472c0.887,0.304,1.683,0.743,2.35,1.287c0.667,0.543,1.205,1.191,1.574,1.911
								c0.369,0.72,0.568,1.513,0.557,2.344c-0.011,0.833-0.231,1.627-0.621,2.352c-0.39,0.726-0.949,1.38-1.637,1.93
								c-0.688,0.551-1.505,0.998-2.409,1.306C432.578,286.971,431.587,287.142,430.55,287.142 M431.062,260.185
								c-1.013,0-1.976-0.164-2.85-0.46c-0.873-0.296-1.655-0.724-2.309-1.253c-0.653-0.528-1.176-1.156-1.532-1.852
								c-0.354-0.695-0.542-1.458-0.521-2.257c0.02-0.8,0.244-1.561,0.631-2.252c0.387-0.69,0.938-1.312,1.611-1.833
								c0.672-0.521,1.468-0.942,2.347-1.233c0.878-0.291,1.839-0.452,2.843-0.452c1.006,0,1.963,0.161,2.831,0.452
								c0.869,0.291,1.649,0.712,2.302,1.233c0.654,0.521,1.181,1.143,1.542,1.833c0.361,0.691,0.556,1.452,0.546,2.252
								c-0.011,0.799-0.227,1.562-0.608,2.257c-0.382,0.696-0.929,1.324-1.603,1.852c-0.674,0.529-1.474,0.957-2.359,1.253
								C433.048,260.021,432.078,260.185,431.062,260.185 M431.554,234.315c-0.993,0-1.937-0.157-2.792-0.442
								c-0.855-0.285-1.622-0.696-2.263-1.203c-0.64-0.507-1.153-1.11-1.501-1.778c-0.348-0.667-0.531-1.4-0.512-2.167
								s0.238-1.499,0.618-2.163c0.379-0.664,0.918-1.261,1.578-1.763c0.659-0.501,1.438-0.906,2.299-1.187
								c0.86-0.28,1.802-0.435,2.786-0.435c0.986,0,1.923,0.155,2.774,0.435c0.851,0.28,1.616,0.686,2.256,1.187
								c0.641,0.501,1.158,1.099,1.512,1.763c0.354,0.665,0.546,1.396,0.536,2.163s-0.222,1.5-0.595,2.167
								c-0.374,0.668-0.911,1.271-1.57,1.778c-0.66,0.507-1.444,0.918-2.311,1.203C433.5,234.158,432.549,234.315,431.554,234.315
								 M433.127,187.943h-1.376l-0.669,34.174c-1.097,0.069-2.141,0.298-3.09,0.657c-0.95,0.359-1.807,0.849-2.529,1.439
								c-0.723,0.59-1.312,1.281-1.726,2.043c-0.415,0.762-0.654,1.595-0.676,2.469s0.174,1.708,0.551,2.475
								c0.377,0.768,0.935,1.466,1.633,2.064c0.7,0.599,1.541,1.096,2.483,1.462c0.943,0.366,1.988,0.6,3.094,0.67l-0.237,12.086
								c-1.119,0.073-2.184,0.313-3.153,0.687c-0.97,0.375-1.844,0.884-2.581,1.498c-0.738,0.614-1.339,1.333-1.762,2.125
								c-0.423,0.793-0.667,1.661-0.691,2.57c-0.024,0.909,0.176,1.779,0.561,2.578c0.384,0.799,0.953,1.527,1.666,2.149
								c0.713,0.624,1.571,1.142,2.533,1.523c0.962,0.381,2.028,0.625,3.157,0.698l-0.247,12.591
								c-1.143,0.077-2.229,0.326-3.219,0.717c-0.99,0.391-1.883,0.922-2.636,1.563c-0.754,0.641-1.368,1.39-1.8,2.216
								c-0.433,0.826-0.683,1.729-0.707,2.676c-0.026,0.998,0.201,1.951,0.634,2.82c0.433,0.87,1.073,1.655,1.871,2.315
								c0.799,0.661,1.757,1.196,2.825,1.567c1.069,0.371,2.248,0.576,3.489,0.576c1.243,0,2.431-0.206,3.515-0.576
								c1.083-0.371,2.061-0.907,2.884-1.567c0.823-0.661,1.491-1.446,1.957-2.315c0.465-0.869,0.728-1.822,0.74-2.82
								c0.011-0.946-0.204-1.85-0.604-2.676c-0.4-0.826-0.984-1.575-1.713-2.216c-0.728-0.64-1.599-1.172-2.573-1.563
								c-0.974-0.391-2.051-0.64-3.19-0.717l0.232-12.591c1.131-0.073,2.206-0.316,3.182-0.698c0.975-0.381,1.852-0.9,2.588-1.523
								c0.735-0.623,1.331-1.35,1.745-2.149c0.413-0.798,0.646-1.668,0.657-2.578c0.011-0.908-0.2-1.774-0.592-2.567
								c-0.392-0.792-0.965-1.511-1.678-2.126c-0.713-0.614-1.567-1.125-2.521-1.5c-0.954-0.375-2.009-0.614-3.125-0.688
								l0.223-12.086c1.108-0.072,2.161-0.307,3.117-0.673c0.956-0.366,1.814-0.864,2.536-1.462c0.72-0.598,1.304-1.295,1.709-2.063
								c0.405-0.766,0.633-1.601,0.644-2.475c0.01-0.874-0.197-1.706-0.581-2.468c-0.384-0.761-0.946-1.452-1.645-2.042
								c-0.699-0.589-1.536-1.079-2.471-1.438c-0.935-0.359-1.969-0.589-3.063-0.66L433.127,187.943"/>
							<path style="fill:#FFFFFF;" d="M754.356,362.242l-39.357-182.354c10.872,3.422,21.284,7.92,30.959,13.33
								c9.762,5.458,18.803,11.859,26.824,19.037c8.116,7.262,15.21,15.336,20.956,24.05c5.826,8.835,10.279,18.345,13.008,28.342
								c2.769,10.155,3.569,20.115,2.568,29.645c-1.015,9.669-3.883,18.881-8.419,27.381c-4.595,8.608-10.891,16.466-18.68,23.305
								C774.349,351.885,764.982,357.731,754.356,362.242 M655.874,112.585h-1.283l4.934,28.129l0.727,4.139l4.631,26.398
								c-15.146,0.063-29.295,2.273-42.046,6.261c-12.838,4.014-24.334,9.853-34.031,17.164c-9.814,7.4-17.833,16.345-23.532,26.478
								c-5.794,10.3-9.214,21.867-9.674,34.317h1.454c0.455-12.297,3.833-23.721,9.557-33.896
								c5.631-10.012,13.554-18.851,23.252-26.164c9.583-7.226,20.946-12.997,33.635-16.965c12.604-3.942,26.592-6.127,41.562-6.19
								l1.655,9.433c-14.243,0.069-27.487,2.293-39.301,6.28c-11.892,4.013-22.403,9.834-31.043,17.085
								c-8.744,7.338-15.612,16.175-20.054,26.124c-4.514,10.11-6.536,21.403-5.454,33.467c1.105,12.34,5.355,24.327,12.164,35.429
								c6.925,11.291,16.475,21.631,27.995,30.443c11.673,8.928,25.312,16.243,40.177,21.346c14.977,5.142,31.1,8.002,47.552,8.002
								c4.229,0,8.383-0.184,12.452-0.549c4.068-0.366,8.051-0.914,11.941-1.642c3.886-0.728,7.679-1.635,11.371-2.72
								c3.686-1.084,7.271-2.345,10.746-3.779l-1.004-1.171c-3.426,1.407-6.955,2.644-10.582,3.706
								c-3.634,1.063-7.363,1.954-11.185,2.667c-3.825,0.715-7.739,1.252-11.737,1.61c-4,0.359-8.081,0.539-12.238,0.539
								c-16.221,0-32.115-2.818-46.883-7.884c-14.659-5.028-28.111-12.237-39.628-21.037c-11.368-8.686-20.797-18.88-27.638-30.014
								c-6.729-10.949-10.935-22.773-12.039-34.947c-1.081-11.904,0.902-23.051,5.346-33.033
								c4.373-9.825,11.146-18.554,19.771-25.804c8.524-7.166,18.899-12.919,30.64-16.886c11.664-3.94,24.743-6.141,38.81-6.21
								l12.286,70.041c-1.961,0.076-3.771,0.455-5.368,1.08c-1.598,0.626-2.983,1.5-4.092,2.563
								c-1.11,1.065-1.942,2.323-2.433,3.714c-0.49,1.395-0.637,2.926-0.372,4.534l0.017,0.104h1.464l-0.018-0.104
								c-0.247-1.497-0.102-2.921,0.371-4.213c0.472-1.291,1.271-2.451,2.332-3.424c1.061-0.972,2.384-1.757,3.907-2.3
								c1.522-0.542,3.245-0.842,5.108-0.842c1.862,0,3.69,0.3,5.403,0.842c1.714,0.542,3.313,1.328,4.716,2.3
								c1.404,0.973,2.611,2.133,3.538,3.424c0.928,1.292,1.573,2.716,1.853,4.213c0.279,1.497,0.164,2.928-0.284,4.233
								c-0.449,1.308-1.233,2.489-2.29,3.483c-1.058,0.996-2.388,1.804-3.928,2.362c-1.541,0.56-3.291,0.869-5.185,0.869
								c-1.707,0-3.387-0.252-4.976-0.713s-3.086-1.128-4.428-1.959c-1.341-0.83-2.526-1.821-3.494-2.931
								c-0.966-1.107-1.715-2.332-2.184-3.629l-1.43,0.168c0.52,1.439,1.35,2.799,2.419,4.028c1.072,1.232,2.386,2.333,3.871,3.255
								c1.488,0.923,3.147,1.665,4.909,2.176c1.763,0.512,3.627,0.792,5.521,0.792c2.097,0,4.035-0.344,5.743-0.965
								c1.705-0.62,3.18-1.516,4.352-2.62c1.17-1.103,2.038-2.412,2.535-3.862c0.496-1.447,0.623-3.032,0.312-4.69
								c-0.302-1.608-0.987-3.139-1.968-4.534c-0.98-1.392-2.255-2.649-3.74-3.714c-1.482-1.064-3.175-1.938-4.994-2.563
								c-1.816-0.625-3.76-1.004-5.747-1.08l-14.211-80.497c4.051,0.017,8.081,0.188,12.082,0.507
								c4.003,0.319,7.977,0.785,11.912,1.392c3.94,0.607,7.843,1.356,11.698,2.238c3.86,0.883,7.676,1.901,11.435,3.047
								l39.372,183.391c-3.781,1.548-7.714,2.926-11.787,4.123c-4.08,1.2-8.298,2.218-12.644,3.041
								c-4.351,0.825-8.825,1.455-13.413,1.879c-4.591,0.425-9.291,0.643-14.089,0.643c-18.639,0-36.897-3.271-53.841-9.143
								c-16.802-5.822-32.185-14.159-45.313-24.318c-12.935-10.009-23.61-21.733-31.297-34.508
								c-7.542-12.533-12.182-26.036-13.278-39.903l-0.017-0.217h-1.464l0.017,0.217c1.094,14.03,5.773,27.694,13.393,40.382
								c7.768,12.934,18.563,24.808,31.65,34.946c13.284,10.292,28.855,18.74,45.866,24.642c17.157,5.951,35.647,9.267,54.523,9.267
								c4.798,0,9.499-0.215,14.092-0.635c4.591-0.418,9.069-1.041,13.426-1.856c4.352-0.813,8.577-1.819,12.668-3.005
								c4.083-1.185,8.027-2.547,11.824-4.077l13.132,61.165h1.646l-13.329-61.757c10.853-4.543,20.421-10.457,28.46-17.46
								c7.957-6.932,14.392-14.909,19.087-23.655c4.636-8.634,7.567-17.997,8.606-27.827c1.023-9.686,0.207-19.809-2.619-30.129
								c-3.75-13.687-10.694-26.469-19.959-37.885c-9.097-11.212-20.467-21.15-33.325-29.387
								c-12.687-8.128-26.89-14.643-41.907-19.126c-14.906-4.45-30.714-6.928-46.786-6.996l-4.661-26.398l-0.285-1.62l-0.17-0.958
								l-0.275-1.562L655.874,112.585"/>
							<path style="fill:#FFFFFF;" d="M663.97,142.31l0.313,0.958c20.628,0.352,40.904,3.675,60.057,9.442
								c19.342,5.825,37.701,14.193,54.201,24.609c16.792,10.6,31.772,23.393,43.933,37.872
								c12.452,14.826,22.012,31.498,27.516,49.456h1.464c-5.575-18.125-15.245-34.946-27.83-49.902
								c-12.289-14.602-27.42-27.5-44.373-38.181c-16.657-10.495-35.186-18.922-54.701-24.782
								C705.226,145.98,684.773,142.646,663.97,142.31"/>
							<path style="fill:#FFFFFF;" d="M231.278,246.741c-2.049,0-4.061,0.328-5.947,0.922c-1.888,0.594-3.65,1.454-5.196,2.519
								c-1.548,1.066-2.88,2.337-3.902,3.75c-1.024,1.417-1.738,2.977-2.046,4.616c-0.31,1.645-0.184,3.216,0.311,4.649
								c0.495,1.437,1.359,2.733,2.524,3.825c1.167,1.093,2.634,1.98,4.333,2.594c1.7,0.614,3.629,0.954,5.716,0.954
								c2.087,0,4.136-0.34,6.051-0.954c1.914-0.614,3.694-1.5,5.246-2.594c1.549-1.092,2.871-2.389,3.873-3.825
								c0.999-1.433,1.68-3.004,1.951-4.649l0.023-0.194h-1.448l-0.023,0.194c-0.247,1.486-0.863,2.905-1.768,4.199
								c-0.906,1.296-2.101,2.466-3.5,3.45c-1.402,0.985-3.009,1.784-4.736,2.336c-1.729,0.553-3.577,0.859-5.46,0.859
								c-1.883,0-3.624-0.306-5.158-0.859c-1.532-0.553-2.857-1.351-3.911-2.336c-1.053-0.984-1.834-2.154-2.282-3.45
								c-0.447-1.294-0.563-2.713-0.284-4.199c0.277-1.482,0.92-2.893,1.844-4.172c0.922-1.277,2.124-2.426,3.521-3.389
								c1.396-0.961,2.988-1.739,4.693-2.276c1.704-0.536,3.523-0.833,5.375-0.833c1.674,0,3.235,0.242,4.637,0.685
								c1.403,0.443,2.649,1.086,3.691,1.89c1.043,0.804,1.883,1.768,2.474,2.849c0.592,1.084,0.933,2.286,0.978,3.565l1.459-0.131
								c-0.039-1.423-0.412-2.761-1.064-3.966c-0.651-1.203-1.581-2.274-2.737-3.168c-1.155-0.892-2.537-1.607-4.093-2.1
								C234.866,247.01,233.134,246.741,231.278,246.741"/>
							<path style="fill:#FFFFFF;" d="M157.025,356.085c-10.581-4.471-19.908-10.266-27.745-17.113
								c-7.758-6.78-14.031-14.57-18.611-23.105c-4.522-8.428-7.382-17.562-8.397-27.15c-1-9.451-0.207-19.328,2.547-29.399
								c2.712-9.915,7.141-19.346,12.94-28.108c5.718-8.642,12.779-16.65,20.859-23.853c7.987-7.12,16.99-13.469,26.711-18.883
								c9.635-5.366,20.005-9.829,30.835-13.225L157.025,356.085 M206.928,131.583h-1.313l-9.212,42.563
								c-11.017,3.406-21.569,7.903-31.377,13.323c-9.896,5.469-19.064,11.895-27.199,19.107
								c-8.232,7.298-15.428,15.42-21.258,24.191c-5.913,8.895-10.431,18.475-13.198,28.55c-3.808,13.868-3.943,27.373-0.829,39.916
								c3.174,12.786,9.712,24.527,19.121,34.566c9.549,10.189,22.004,18.568,36.772,24.448c14.895,5.931,32.033,9.274,50.713,9.367
								l-15.593,88.021h1.67l15.494-88.021c17.674-0.088,35-3.076,51.188-8.406c16.065-5.289,30.903-12.849,43.803-22.099
								c12.727-9.125,23.504-19.851,31.706-31.615c8.06-11.56,13.607-24.085,16.092-37.06h-1.459
								c-2.489,12.809-7.996,25.171-15.977,36.576c-8.121,11.604-18.777,22.182-31.351,31.179
								c-12.743,9.118-27.393,16.568-43.25,21.78c-15.978,5.251-33.073,8.195-50.512,8.283l1.893-10.753
								c16.329-0.09,32.315-2.991,47.157-8.133c14.731-5.103,28.24-12.379,39.8-21.24c11.409-8.746,20.865-18.995,27.723-30.18
								c6.743-10.998,10.954-22.868,12.057-35.087c1.086-12.037-0.947-23.305-5.481-33.387c-4.462-9.921-11.362-18.728-20.144-26.03
								c-8.678-7.216-19.232-12.997-31.171-16.96c-11.86-3.938-25.156-6.106-39.451-6.106c-3.692,0-7.373,0.14-11.037,0.418
								c-3.666,0.279-7.318,0.698-10.954,1.256c-3.639,0.558-7.262,1.257-10.868,2.095c-3.611,0.839-7.206,1.819-10.781,2.94
								l0.407,0.918c3.522-1.103,7.067-2.068,10.629-2.895c3.558-0.826,7.134-1.515,10.727-2.067
								c3.588-0.551,7.194-0.964,10.812-1.241c3.616-0.276,7.247-0.414,10.887-0.414c14.119,0,27.249,2.143,38.961,6.036
								c11.788,3.918,22.207,9.632,30.77,16.763c8.664,7.215,15.467,15.915,19.862,25.714c4.465,9.955,6.459,21.079,5.374,32.959
								c-1.102,12.055-5.269,23.763-11.932,34.608c-6.775,11.027-16.109,21.131-27.367,29.751
								c-11.404,8.732-24.727,15.902-39.252,20.93c-14.634,5.064-30.394,7.924-46.49,8.014l14.679-83.395h-1.461l-16.916,95.485
								c-4.701-0.022-9.308-0.254-13.807-0.684c-4.496-0.43-8.882-1.058-13.147-1.873c-4.26-0.814-8.397-1.815-12.399-2.991
								c-3.996-1.174-7.855-2.522-11.569-4.034l39.155-181.864c3.796-1.153,7.65-2.177,11.551-3.063
								c3.895-0.885,7.839-1.633,11.82-2.237c3.978-0.604,7.994-1.064,12.039-1.374c4.043-0.309,8.116-0.468,12.21-0.468
								c15.863,0,30.63,2.38,43.826,6.706c13.292,4.357,25.075,10.718,34.805,18.67c9.858,8.057,17.66,17.789,22.78,28.774
								c5.212,11.183,7.667,23.708,6.663,37.122h1.458c1.001-13.571-1.496-26.24-6.781-37.547
								c-5.19-11.106-13.09-20.942-23.066-29.083c-9.845-8.034-21.764-14.459-35.204-18.861
								c-13.342-4.369-28.271-6.772-44.305-6.772c-4.086,0-8.152,0.156-12.188,0.46c-4.038,0.304-8.048,0.757-12.019,1.352
								c-3.976,0.595-7.915,1.332-11.806,2.203c-3.897,0.873-7.749,1.881-11.544,3.017L206.928,131.583"/>
							<path style="fill:#FFFFFF;" d="M61.746,259.317h-1.458c-5.705,18.509-6.562,36.671-3.05,53.68
								c3.603,17.452,11.789,33.611,23.965,47.558c12.426,14.232,28.919,26.058,48.713,34.491
								c20.032,8.535,43.244,13.513,68.667,13.985l0.261-1.451c-25.174-0.471-48.161-5.396-68.002-13.841
								c-19.607-8.346-35.951-20.048-48.271-34.135c-12.074-13.807-20.2-29.808-23.789-47.094
								C55.283,295.662,56.112,277.664,61.746,259.317"/>
							<polyline style="fill:#FFFFFF;" points="517.287,310.318 515.771,310.318 519.676,396.597 492.77,396.597 493.098,409.075 
								520.241,409.075 522.229,453.002 467.131,453.002 466.833,415.393 443.183,415.393 442.862,453.002 387.754,453.002 
								391.092,380.226 417.689,380.226 418.012,368.234 405.879,368.234 405.83,369.6 416.401,369.6 416.142,378.84 
								364.586,378.84 365.185,369.6 403.753,369.6 403.804,368.234 391.643,368.234 392.832,342.304 391.28,342.304 
								390.061,368.234 363.691,368.234 362.9,380.226 389.497,380.226 386.076,453.002 303.544,453.002 303.386,454.538 
								386.004,454.538 381.22,556.303 383.016,556.303 387.684,454.538 442.85,454.538 442.511,494.232 465.732,494.232 
								465.722,492.622 444.248,492.622 444.808,416.852 465.208,416.852 465.709,490.715 467.43,490.715 467.144,454.538 
								522.299,454.538 523.533,481.807 525.243,481.807 523.979,454.538 602.091,454.538 601.938,453.002 523.907,453.002 
								521.869,409.075 549.023,409.075 548.207,396.597 535.913,396.597 535.993,398.009 546.693,398.009 547.313,407.64 
								494.677,407.64 494.413,398.009 533.807,398.009 533.729,396.597 521.29,396.597 517.287,310.318 							"/>
						</g>
					</g>
				</g>
			</g>
		</g>
	</g>
</g>
</svg>
