<?xml version="1.0" encoding="iso-8859-1"?>
<!-- Generator: Adobe Illustrator 16.0.0, SVG Export Plug-In . SVG Version: 6.00 Build 0)  -->
<!DOCTYPE svg PUBLIC "-//W3C//DTD SVG 1.1//EN" "http://www.w3.org/Graphics/SVG/1.1/DTD/svg11.dtd">
<svg version="1.1" id="Layer_2" xmlns="http://www.w3.org/2000/svg" xmlns:xlink="http://www.w3.org/1999/xlink" x="0px" y="0px"
	 width="910.886px" height="597.925px" viewBox="0 0 910.886 597.925" style="enable-background:new 0 0 910.886 597.925;"
	 xml:space="preserve">
<g>
	<g>
		<g style="enable-background:new    ;">
			<defs>
				<polygon id="SVGID_1_" style="enable-background:new    ;" points="-104.406,600.169 70.88,92.057 840.008,92.057 
					1015.293,600.169 				"/>
			</defs>
			<clipPath id="SVGID_2_">
				<use xlink:href="#SVGID_1_"  style="overflow:visible;"/>
			</clipPath>
			<g style="clip-path:url(#SVGID_2_);">
				<g>
					<g>
						<g>
							<path style="fill:#FFFFFF;" d="M479.544,287.141c-1.036,0-2.027-0.171-2.932-0.48c-0.904-0.309-1.721-0.755-2.408-1.306
								c-0.688-0.55-1.246-1.205-1.636-1.93c-0.39-0.724-0.609-1.52-0.62-2.352c-0.011-0.832,0.189-1.624,0.559-2.344
								c0.368-0.719,0.907-1.367,1.574-1.911c0.668-0.543,1.465-0.983,2.351-1.287c0.887-0.304,1.863-0.471,2.891-0.471
								c1.024,0,2.006,0.167,2.902,0.471s1.708,0.743,2.395,1.287c0.688,0.544,1.25,1.191,1.645,1.911
								c0.396,0.72,0.624,1.513,0.645,2.344c0.021,0.833-0.171,1.628-0.533,2.352c-0.362,0.726-0.897,1.38-1.563,1.93
								c-0.667,0.551-1.467,0.998-2.357,1.306C481.563,286.97,480.579,287.141,479.544,287.141 M479.048,260.184
								c-1.015,0-1.985-0.164-2.871-0.46c-0.886-0.296-1.685-0.724-2.358-1.253c-0.673-0.528-1.221-1.156-1.602-1.852
								c-0.381-0.695-0.597-1.458-0.606-2.257c-0.011-0.8,0.186-1.561,0.547-2.252c0.362-0.69,0.89-1.312,1.544-1.833
								c0.653-0.521,1.434-0.942,2.303-1.233c0.868-0.291,1.825-0.452,2.831-0.452c1.004,0,1.965,0.161,2.843,0.452
								s1.674,0.712,2.346,1.233c0.673,0.521,1.224,1.143,1.61,1.833c0.387,0.691,0.61,1.452,0.63,2.252
								c0.02,0.799-0.168,1.562-0.523,2.257c-0.355,0.696-0.879,1.324-1.532,1.852c-0.654,0.529-1.437,0.957-2.31,1.253
								C481.024,260.02,480.062,260.184,479.048,260.184 M478.572,234.314c-0.995,0-1.946-0.158-2.813-0.442
								c-0.867-0.284-1.65-0.695-2.311-1.203c-0.659-0.507-1.195-1.11-1.569-1.778c-0.373-0.668-0.584-1.4-0.593-2.167
								c-0.01-0.768,0.182-1.499,0.536-2.164c0.354-0.664,0.872-1.261,1.514-1.763c0.641-0.501,1.405-0.906,2.257-1.186
								c0.851-0.28,1.788-0.435,2.774-0.435c0.984,0,1.926,0.155,2.786,0.435s1.64,0.685,2.299,1.186
								c0.659,0.502,1.197,1.099,1.576,1.763c0.379,0.665,0.598,1.396,0.616,2.164c0.019,0.767-0.165,1.5-0.514,2.167
								s-0.862,1.271-1.502,1.778c-0.642,0.507-1.408,0.918-2.264,1.203C480.509,234.157,479.565,234.314,478.572,234.314
								 M478.348,222.091c-1.181,0-2.302,0.185-3.32,0.519s-1.934,0.818-2.7,1.417c-0.768,0.599-1.387,1.313-1.812,2.107
								c-0.425,0.795-0.655,1.67-0.645,2.59c0.01,0.873,0.237,1.708,0.642,2.475c0.405,0.768,0.988,1.466,1.708,2.064
								c0.721,0.599,1.579,1.097,2.535,1.462c0.955,0.366,2.008,0.6,3.117,0.67l0.215,12.086c-1.116,0.073-2.172,0.313-3.126,0.688
								c-0.955,0.375-1.809,0.885-2.522,1.5c-0.714,0.615-1.287,1.334-1.679,2.126c-0.394,0.793-0.604,1.659-0.595,2.567
								c0.011,0.909,0.243,1.779,0.656,2.578c0.413,0.799,1.008,1.527,1.743,2.149c0.736,0.624,1.612,1.142,2.588,1.523
								s2.05,0.625,3.182,0.698l0.225,12.591c-1.141,0.077-2.218,0.326-3.191,0.717c-0.975,0.391-1.847,0.922-2.574,1.563
								c-0.729,0.641-1.313,1.39-1.714,2.216c-0.4,0.827-0.616,1.729-0.605,2.676c0.011,0.948,0.248,1.854,0.67,2.687
								c0.422,0.833,1.03,1.592,1.78,2.242c0.752,0.65,1.646,1.192,2.643,1.59c0.996,0.399,2.094,0.654,3.249,0.732l0.771,43.299
								h1.54l-0.821-43.299c1.152-0.078,2.241-0.333,3.224-0.732c0.982-0.398,1.858-0.939,2.587-1.59
								c0.728-0.65,1.309-1.408,1.701-2.242c0.392-0.832,0.597-1.739,0.572-2.687c-0.023-0.946-0.273-1.849-0.705-2.676
								c-0.432-0.826-1.045-1.575-1.799-2.216c-0.752-0.64-1.645-1.172-2.635-1.563c-0.988-0.391-2.075-0.64-3.219-0.717
								l-0.238-12.591c1.129-0.073,2.194-0.316,3.157-0.698c0.962-0.381,1.82-0.9,2.534-1.523c0.713-0.623,1.282-1.35,1.667-2.149
								c0.385-0.798,0.585-1.668,0.563-2.578c-0.022-0.908-0.267-1.774-0.689-2.567c-0.423-0.792-1.023-1.511-1.761-2.126
								c-0.737-0.614-1.611-1.125-2.58-1.5s-2.033-0.615-3.153-0.688l-0.229-12.086c1.105-0.07,2.15-0.304,3.094-0.67
								c0.942-0.366,1.783-0.864,2.483-1.462c0.699-0.598,1.258-1.296,1.635-2.064c0.377-0.767,0.574-1.602,0.553-2.475
								c-0.023-0.919-0.287-1.795-0.742-2.59c-0.454-0.794-1.1-1.508-1.89-2.107c-0.79-0.599-1.723-1.083-2.754-1.417
								C480.653,222.275,479.525,222.091,478.348,222.091"/>
							<path style="fill:#FFFFFF;" d="M430.55,287.141c-1.035,0-2.018-0.171-2.909-0.48c-0.891-0.309-1.69-0.755-2.357-1.306
								c-0.666-0.55-1.2-1.205-1.563-1.93c-0.362-0.724-0.552-1.52-0.532-2.352c0.021-0.832,0.25-1.624,0.646-2.344
								c0.396-0.719,0.958-1.367,1.646-1.911c0.687-0.543,1.5-0.983,2.396-1.287c0.896-0.304,1.877-0.471,2.902-0.471
								c1.027,0,2.003,0.167,2.89,0.471c0.887,0.304,1.683,0.743,2.35,1.287c0.667,0.544,1.205,1.191,1.574,1.911
								c0.369,0.72,0.567,1.513,0.557,2.344c-0.011,0.833-0.231,1.628-0.621,2.352c-0.39,0.726-0.949,1.38-1.637,1.93
								c-0.688,0.551-1.505,0.998-2.409,1.306C432.578,286.97,431.586,287.141,430.55,287.141 M431.062,260.184
								c-1.013,0-1.977-0.164-2.85-0.46c-0.873-0.296-1.656-0.724-2.309-1.253c-0.652-0.528-1.176-1.156-1.531-1.852
								c-0.354-0.695-0.542-1.458-0.521-2.257c0.02-0.8,0.244-1.561,0.631-2.252c0.387-0.69,0.938-1.312,1.611-1.833
								c0.672-0.521,1.468-0.942,2.346-1.233s1.839-0.452,2.843-0.452c1.006,0,1.963,0.161,2.831,0.452s1.649,0.712,2.302,1.233
								c0.654,0.521,1.181,1.143,1.542,1.833c0.362,0.691,0.557,1.452,0.546,2.252c-0.011,0.799-0.227,1.562-0.608,2.257
								c-0.382,0.696-0.93,1.324-1.603,1.852c-0.674,0.529-1.474,0.957-2.359,1.253C433.048,260.02,432.078,260.184,431.062,260.184
								 M431.554,234.314c-0.993,0-1.937-0.158-2.792-0.442c-0.855-0.284-1.623-0.695-2.263-1.203
								c-0.64-0.507-1.153-1.11-1.501-1.778s-0.531-1.4-0.513-2.167c0.019-0.768,0.238-1.499,0.618-2.164
								c0.379-0.664,0.918-1.261,1.578-1.763c0.659-0.501,1.438-0.906,2.299-1.186s1.802-0.435,2.787-0.435
								c0.986,0,1.923,0.155,2.774,0.435s1.616,0.685,2.256,1.186c0.641,0.502,1.158,1.099,1.512,1.763
								c0.354,0.665,0.546,1.396,0.536,2.164c-0.01,0.767-0.222,1.5-0.595,2.167c-0.374,0.668-0.911,1.271-1.57,1.778
								c-0.66,0.507-1.444,0.918-2.311,1.203C433.5,234.157,432.549,234.314,431.554,234.314 M433.178,185.195h-1.374l-0.723,36.921
								c-1.097,0.068-2.141,0.297-3.09,0.657c-0.95,0.359-1.807,0.849-2.529,1.438c-0.723,0.591-1.312,1.282-1.726,2.043
								c-0.415,0.763-0.654,1.596-0.676,2.469c-0.022,0.873,0.174,1.708,0.551,2.475c0.377,0.768,0.935,1.466,1.633,2.064
								c0.7,0.599,1.541,1.097,2.483,1.462c0.943,0.366,1.988,0.6,3.094,0.67l-0.237,12.086c-1.12,0.073-2.184,0.313-3.153,0.687
								s-1.843,0.884-2.581,1.498c-0.738,0.615-1.339,1.333-1.762,2.126c-0.423,0.793-0.667,1.661-0.691,2.57
								c-0.023,0.909,0.177,1.779,0.561,2.578c0.385,0.799,0.953,1.527,1.667,2.149c0.713,0.624,1.571,1.142,2.533,1.523
								s2.028,0.625,3.157,0.698l-0.247,12.591c-1.143,0.077-2.229,0.326-3.219,0.717s-1.882,0.922-2.635,1.563
								c-0.754,0.641-1.368,1.39-1.8,2.216c-0.433,0.827-0.683,1.729-0.707,2.676c-0.026,0.998,0.201,1.951,0.634,2.82
								c0.434,0.87,1.073,1.655,1.872,2.315c0.799,0.661,1.757,1.197,2.825,1.567c1.069,0.371,2.248,0.576,3.489,0.576
								c1.243,0,2.431-0.206,3.515-0.576c1.083-0.371,2.061-0.906,2.884-1.567c0.823-0.661,1.491-1.445,1.957-2.315
								c0.465-0.869,0.728-1.822,0.74-2.82c0.011-0.946-0.204-1.849-0.604-2.676c-0.4-0.826-0.984-1.575-1.713-2.216
								c-0.728-0.64-1.599-1.172-2.573-1.563c-0.974-0.391-2.051-0.64-3.19-0.717l0.232-12.591c1.131-0.073,2.206-0.316,3.182-0.698
								c0.975-0.381,1.852-0.9,2.588-1.523c0.735-0.623,1.331-1.35,1.745-2.149c0.413-0.798,0.646-1.668,0.657-2.578
								c0.011-0.908-0.2-1.774-0.592-2.567c-0.392-0.792-0.964-1.511-1.678-2.126c-0.713-0.614-1.567-1.125-2.521-1.5
								c-0.954-0.375-2.009-0.615-3.125-0.688l0.223-12.086c1.108-0.072,2.161-0.306,3.117-0.672
								c0.956-0.366,1.814-0.864,2.536-1.462c0.72-0.598,1.303-1.295,1.709-2.063c0.405-0.766,0.633-1.601,0.643-2.474
								c0.011-0.874-0.196-1.706-0.581-2.468c-0.384-0.761-0.946-1.451-1.646-2.041c-0.699-0.59-1.535-1.079-2.471-1.438
								c-0.935-0.359-1.969-0.589-3.063-0.66L433.178,185.195"/>
							<path style="fill:#FFFFFF;" d="M754.357,362.241L715,179.886c10.872,3.422,21.284,7.92,30.959,13.33
								c9.762,5.458,18.803,11.859,26.824,19.037c8.116,7.262,15.209,15.337,20.955,24.05c5.827,8.835,10.28,18.345,13.008,28.342
								c2.77,10.155,3.57,20.115,2.57,29.645c-1.016,9.67-3.884,18.881-8.42,27.381c-4.595,8.608-10.891,16.467-18.68,23.305
								C774.35,351.885,764.983,357.73,754.357,362.241 M655.758,111.926h-1.282l5.05,28.787l0.726,4.139l4.631,26.399
								c-15.598,0.066-30.141,2.409-43.189,6.625c-13.142,4.246-24.849,10.418-34.618,18.133
								c-9.895,7.814-17.85,17.25-23.292,27.917c-5.536,10.853-8.492,23.021-8.221,36.086h1.468
								c-0.276-12.91,2.636-24.937,8.1-35.664c5.372-10.546,13.229-19.876,23.006-27.603c9.654-7.63,21.227-13.735,34.218-17.935
								c12.901-4.17,27.282-6.488,42.706-6.552l1.654,9.433c-14.242,0.069-27.487,2.294-39.301,6.28
								c-11.892,4.013-22.402,9.834-31.043,17.085c-8.744,7.338-15.612,16.175-20.054,26.124
								c-4.513,10.11-6.536,21.403-5.454,33.467c1.106,12.34,5.355,24.327,12.164,35.429c6.925,11.291,16.475,21.632,27.996,30.443
								c11.673,8.928,25.312,16.244,40.177,21.347c14.977,5.141,31.099,8.002,47.552,8.002c4.519,0,8.951-0.209,13.29-0.627
								c4.336-0.417,8.575-1.041,12.708-1.872c4.128-0.829,8.147-1.863,12.052-3.101c3.896-1.235,7.675-2.673,11.326-4.309
								l-1.032-1.16c-3.597,1.605-7.316,3.016-11.151,4.229c-3.841,1.216-7.796,2.231-11.855,3.046
								c-4.065,0.816-8.233,1.43-12.499,1.84c-4.267,0.41-8.627,0.616-13.074,0.616c-16.22,0-32.115-2.819-46.882-7.885
								c-14.659-5.028-28.111-12.237-39.628-21.036c-11.369-8.687-20.797-18.881-27.639-30.015
								c-6.729-10.949-10.934-22.773-12.039-34.947c-1.081-11.904,0.902-23.051,5.346-33.033
								c4.374-9.825,11.146-18.554,19.771-25.804c8.525-7.166,18.899-12.918,30.641-16.885c11.663-3.941,24.742-6.141,38.809-6.21
								l12.286,70.041c-1.961,0.076-3.771,0.455-5.367,1.08c-1.599,0.626-2.984,1.5-4.093,2.563
								c-1.109,1.065-1.942,2.323-2.432,3.714c-0.49,1.395-0.637,2.926-0.373,4.534l0.018,0.104h1.464l-0.018-0.104
								c-0.247-1.497-0.103-2.921,0.37-4.213c0.473-1.291,1.271-2.451,2.333-3.424c1.061-0.972,2.384-1.757,3.907-2.3
								c1.521-0.542,3.245-0.842,5.107-0.842s3.691,0.3,5.404,0.842c1.714,0.542,3.313,1.328,4.716,2.3
								c1.404,0.973,2.611,2.133,3.537,3.424c0.928,1.292,1.574,2.716,1.854,4.213c0.279,1.497,0.164,2.928-0.284,4.233
								c-0.45,1.308-1.233,2.489-2.29,3.483c-1.058,0.996-2.388,1.804-3.928,2.362c-1.541,0.56-3.291,0.869-5.186,0.869
								c-1.768,0-3.507-0.271-5.146-0.763c-1.638-0.492-3.175-1.205-4.541-2.089c-1.363-0.883-2.557-1.937-3.51-3.111
								c-0.951-1.172-1.662-2.465-2.066-3.83l-1.445,0.119c0.446,1.512,1.234,2.945,2.287,4.246
								c1.057,1.303,2.379,2.472,3.891,3.452c1.515,0.981,3.219,1.772,5.034,2.318c1.817,0.546,3.745,0.847,5.706,0.847
								c2.097,0,4.035-0.344,5.742-0.964c1.706-0.62,3.18-1.516,4.353-2.621c1.17-1.103,2.038-2.412,2.535-3.862
								c0.496-1.447,0.623-3.032,0.312-4.69c-0.302-1.608-0.987-3.139-1.969-4.534c-0.979-1.392-2.255-2.649-3.739-3.714
								c-1.483-1.064-3.176-1.938-4.994-2.563c-1.816-0.625-3.761-1.004-5.747-1.08l-14.212-80.497
								c4.052,0.017,8.082,0.188,12.083,0.506c4.002,0.319,7.977,0.786,11.912,1.393c3.939,0.607,7.842,1.356,11.697,2.238
								c3.861,0.883,7.677,1.901,11.435,3.047l39.373,183.393c-3.781,1.547-7.714,2.926-11.787,4.123
								c-4.08,1.199-8.299,2.217-12.644,3.041c-4.351,0.824-8.826,1.455-13.414,1.879c-4.59,0.424-9.291,0.642-14.088,0.642
								c-18.639,0-36.898-3.271-53.842-9.142c-16.801-5.822-32.185-14.16-45.313-24.318c-12.935-10.01-23.61-21.733-31.297-34.509
								c-7.542-12.533-12.182-26.036-13.278-39.903l-0.017-0.217h-1.464l0.017,0.217c1.094,14.03,5.773,27.695,13.393,40.382
								c7.768,12.935,18.563,24.808,31.65,34.947c13.284,10.292,28.855,18.74,45.867,24.641c17.156,5.952,35.647,9.268,54.523,9.268
								c4.797,0,9.499-0.216,14.092-0.635c4.59-0.419,9.069-1.041,13.426-1.856c4.352-0.814,8.577-1.82,12.667-3.006
								c4.083-1.184,8.028-2.547,11.825-4.077l13.556,63.143h1.649l-13.756-63.734c10.853-4.542,20.421-10.456,28.46-17.459
								c7.957-6.933,14.392-14.91,19.087-23.656c4.636-8.634,7.567-17.996,8.605-27.827c1.023-9.685,0.208-19.809-2.618-30.129
								c-3.75-13.687-10.694-26.469-19.958-37.886c-9.098-11.211-20.468-21.15-33.326-29.387
								c-12.688-8.128-26.891-14.643-41.908-19.126c-14.906-4.45-30.714-6.928-46.785-6.996l-4.661-26.399l-0.286-1.62l-0.169-0.957
								l-0.275-1.562L655.758,111.926"/>
							<path style="fill:#FFFFFF;" d="M661.896,142.286l0.169,0.952c20.837,0.141,41.339,3.325,60.715,9.009
								c19.566,5.74,38.152,14.08,54.861,24.509c17.005,10.615,32.184,23.468,44.501,38.042
								c12.615,14.925,22.297,31.732,27.849,49.849h1.464c-5.621-18.272-15.403-35.222-28.141-50.269
								c-12.435-14.69-27.75-27.644-44.902-38.339c-16.852-10.507-35.592-18.907-55.316-24.687
								C703.563,145.627,682.897,142.423,661.896,142.286"/>
							<path style="fill:#FFFFFF;" d="M231.277,246.74c-2.049,0-4.062,0.329-5.947,0.922c-1.888,0.594-3.65,1.455-5.196,2.519
								c-1.548,1.066-2.879,2.337-3.901,3.75c-1.024,1.417-1.738,2.977-2.047,4.616c-0.31,1.645-0.183,3.216,0.311,4.649
								c0.495,1.437,1.36,2.733,2.525,3.825c1.167,1.093,2.634,1.98,4.333,2.594c1.7,0.614,3.629,0.954,5.716,0.954
								c2.087,0,4.136-0.34,6.052-0.954c1.914-0.614,3.693-1.5,5.246-2.594c1.549-1.092,2.871-2.389,3.873-3.825
								c0.999-1.433,1.68-3.004,1.951-4.649l0.023-0.194h-1.448l-0.023,0.194c-0.247,1.486-0.863,2.905-1.768,4.199
								c-0.906,1.296-2.101,2.466-3.5,3.45c-1.402,0.985-3.009,1.784-4.736,2.336c-1.729,0.553-3.578,0.859-5.46,0.859
								s-3.624-0.306-5.157-0.859c-1.532-0.553-2.857-1.351-3.911-2.336c-1.052-0.984-1.833-2.154-2.282-3.45
								c-0.447-1.294-0.563-2.713-0.285-4.199c0.278-1.482,0.921-2.893,1.845-4.172c0.922-1.277,2.124-2.426,3.521-3.389
								c1.396-0.962,2.988-1.739,4.693-2.276c1.704-0.536,3.523-0.833,5.375-0.833c1.726,0,3.332,0.257,4.769,0.727
								c1.438,0.47,2.706,1.152,3.755,2c1.05,0.85,1.881,1.868,2.442,3.007c0.562,1.141,0.852,2.405,0.819,3.745h1.446
								c0.061-1.499-0.245-2.914-0.857-4.191c-0.611-1.275-1.528-2.415-2.691-3.367c-1.163-0.951-2.572-1.716-4.171-2.243
								C234.99,247.029,233.201,246.74,231.277,246.74"/>
							<path style="fill:#FFFFFF;" d="M157.024,356.084c-10.581-4.471-19.908-10.266-27.745-17.113
								c-7.758-6.779-14.031-14.57-18.611-23.105c-4.522-8.427-7.382-17.562-8.397-27.15c-1-9.451-0.207-19.328,2.548-29.399
								c2.711-9.915,7.141-19.346,12.939-28.108c5.718-8.642,12.779-16.65,20.859-23.854c7.987-7.119,16.989-13.469,26.711-18.883
								c9.635-5.366,20.005-9.83,30.835-13.225L157.024,356.084 M207.196,130.334h-1.311l-9.482,43.811
								c-11.017,3.406-21.569,7.903-31.377,13.323c-9.896,5.469-19.064,11.894-27.2,19.106c-8.232,7.298-15.428,15.42-21.258,24.191
								c-5.913,8.895-10.431,18.474-13.198,28.55c-3.808,13.868-3.943,27.373-0.829,39.916c3.174,12.786,9.712,24.528,19.12,34.566
								c9.549,10.189,22.004,18.569,36.772,24.449c14.896,5.931,32.033,9.274,50.714,9.366l-16.121,90.998h1.674l16.018-90.998
								c18.197-0.09,36.023-3.254,52.618-8.883c16.461-5.584,31.594-13.552,44.629-23.271c12.851-9.583,23.595-20.818,31.559-33.098
								c7.818-12.055,12.929-25.077,14.74-38.506h-1.463c-1.813,13.265-6.883,26.124-14.623,38.025
								c-7.881,12.119-18.505,23.206-31.204,32.66c-12.878,9.587-27.824,17.445-44.076,22.951c-16.383,5.55-33.979,8.671-51.94,8.76
								l1.893-10.753c16.328-0.09,32.315-2.991,47.157-8.132c14.731-5.103,28.24-12.379,39.8-21.24
								c11.409-8.747,20.865-18.996,27.723-30.181c6.744-10.999,10.954-22.868,12.057-35.088
								c1.086-12.037-0.947-23.305-5.481-33.387c-4.462-9.921-11.363-18.728-20.144-26.03c-8.677-7.216-19.232-12.997-31.171-16.961
								c-11.86-3.938-25.156-6.106-39.451-6.106c-3.932,0-7.851,0.159-11.751,0.475c-3.903,0.317-7.791,0.792-11.659,1.425
								c-3.872,0.633-7.727,1.425-11.56,2.376c-3.839,0.952-7.658,2.063-11.453,3.333l0.361,0.932
								c3.75-1.255,7.526-2.354,11.322-3.295c3.79-0.94,7.601-1.724,11.429-2.352c3.824-0.626,7.667-1.098,11.524-1.412
								c3.855-0.314,7.726-0.471,11.608-0.471c14.119,0,27.25,2.144,38.961,6.036c11.788,3.918,22.207,9.632,30.77,16.763
								c8.664,7.215,15.467,15.915,19.862,25.714c4.465,9.956,6.459,21.079,5.373,32.959c-1.102,12.055-5.269,23.763-11.932,34.608
								c-6.774,11.027-16.109,21.131-27.367,29.752c-11.403,8.731-24.727,15.901-39.252,20.93
								c-14.634,5.064-30.394,7.923-46.491,8.013l14.679-83.395h-1.461l-16.916,95.485c-4.702-0.021-9.308-0.253-13.807-0.684
								c-4.496-0.43-8.882-1.058-13.147-1.873c-4.26-0.814-8.397-1.814-12.399-2.991c-3.996-1.174-7.855-2.522-11.569-4.034
								l39.155-181.865c3.796-1.153,7.65-2.177,11.552-3.063c3.895-0.885,7.839-1.633,11.82-2.237
								c3.977-0.604,7.994-1.064,12.039-1.374c4.043-0.309,8.116-0.468,12.21-0.468c15.863,0,30.63,2.38,43.826,6.706
								c13.291,4.357,25.075,10.718,34.805,18.67c9.858,8.057,17.66,17.789,22.78,28.774c5.212,11.183,7.667,23.708,6.663,37.122
								h1.457c1.001-13.571-1.496-26.24-6.781-37.547c-5.191-11.106-13.09-20.942-23.067-29.083
								c-9.845-8.034-21.764-14.459-35.204-18.861c-13.342-4.369-28.271-6.772-44.305-6.772c-4.086,0-8.152,0.156-12.188,0.46
								c-4.038,0.305-8.048,0.758-12.019,1.353c-3.976,0.595-7.915,1.332-11.806,2.203c-3.897,0.873-7.749,1.881-11.544,3.017
								L207.196,130.334"/>
							<path style="fill:#FFFFFF;" d="M61.745,259.316h-1.458c-5.735,18.607-6.57,36.863-2.995,53.948
								c3.669,17.532,11.968,33.753,24.293,47.726c12.578,14.261,29.258,26.075,49.258,34.447
								c20.239,8.471,43.673,13.33,69.314,13.62l0.259-1.452c-25.392-0.287-48.6-5.095-68.647-13.476
								c-19.814-8.283-36.344-19.976-48.816-34.091c-12.223-13.832-20.461-29.895-24.117-47.261
								C55.273,295.853,56.081,277.761,61.745,259.316"/>
							<path style="fill:#FFFFFF;" d="M444.248,492.622l0.56-75.771h20.4l0.514,75.771H444.248 M517.219,308.842h-1.514
								l3.972,87.754H492.77l0.328,12.479h27.144l1.988,43.928h-55.099l-0.298-37.609h-23.65l-0.321,37.609h-55.108l3.338-72.776
								h26.597l0.323-11.991h-12.796l-0.049,1.365h11.235l-0.259,9.24h-51.556l0.599-9.24h38.569l0.051-1.365h-12.162l1.189-25.931
								h-1.552l-1.219,25.931h-26.37l-0.791,11.991h26.597l-3.421,72.776h-82.532l-0.158,1.536h82.618l-4.947,105.234h1.799
								l4.827-105.234h55.166l-0.339,39.694h23.222l-0.008-1.116h1.725l-0.306-38.578h55.155l1.234,27.269h1.711l-1.266-27.269
								h80.184l-0.154-1.536h-80.101l-2.038-43.928h27.154l-0.816-12.479H535.18l0.079,1.413h11.435l0.619,9.631h-52.635
								l-0.265-9.631h39.394l-0.077-1.413h-12.438L517.219,308.842"/>
						</g>
					</g>
				</g>
			</g>
		</g>
	</g>
</g>
</svg>
