<?xml version="1.0" encoding="iso-8859-1"?>
<!-- Generator: Adobe Illustrator 16.0.0, SVG Export Plug-In . SVG Version: 6.00 Build 0)  -->
<!DOCTYPE svg PUBLIC "-//W3C//DTD SVG 1.1//EN" "http://www.w3.org/Graphics/SVG/1.1/DTD/svg11.dtd">
<svg version="1.1" id="Layer_2" xmlns="http://www.w3.org/2000/svg" xmlns:xlink="http://www.w3.org/1999/xlink" x="0px" y="0px"
	 width="910.886px" height="597.925px" viewBox="0 0 910.886 597.925" style="enable-background:new 0 0 910.886 597.925;"
	 xml:space="preserve">
<g>
	<g>
		<g style="enable-background:new    ;">
			<defs>
				<polygon id="SVGID_1_" style="enable-background:new    ;" points="-104.406,600.169 70.88,92.057 840.008,92.057 
					1015.293,600.169 				"/>
			</defs>
			<clipPath id="SVGID_2_">
				<use xlink:href="#SVGID_1_"  style="overflow:visible;"/>
			</clipPath>
			<g style="clip-path:url(#SVGID_2_);">
				<g>
					<g>
						<g>
							<path style="fill:#FFFFFF;" d="M479.544,287.141c-1.036,0-2.027-0.171-2.932-0.48c-0.904-0.309-1.721-0.755-2.408-1.306
								c-0.688-0.55-1.246-1.205-1.636-1.93c-0.39-0.724-0.609-1.52-0.62-2.352c-0.011-0.832,0.189-1.624,0.559-2.344
								c0.368-0.719,0.907-1.367,1.574-1.911c0.668-0.543,1.465-0.983,2.351-1.287c0.887-0.304,1.863-0.471,2.891-0.471
								c1.024,0,2.006,0.167,2.902,0.471s1.708,0.743,2.395,1.287c0.688,0.544,1.25,1.191,1.645,1.911
								c0.396,0.72,0.624,1.513,0.645,2.344c0.021,0.833-0.171,1.628-0.533,2.352c-0.362,0.726-0.897,1.38-1.563,1.93
								c-0.667,0.551-1.467,0.998-2.357,1.306C481.563,286.97,480.579,287.141,479.544,287.141 M479.048,260.184
								c-1.015,0-1.985-0.164-2.871-0.46c-0.886-0.296-1.685-0.724-2.358-1.253c-0.673-0.528-1.221-1.156-1.602-1.852
								c-0.381-0.695-0.597-1.458-0.606-2.257c-0.011-0.8,0.186-1.561,0.547-2.252c0.362-0.69,0.89-1.312,1.544-1.833
								c0.653-0.521,1.434-0.942,2.303-1.233c0.868-0.291,1.825-0.452,2.831-0.452c1.004,0,1.965,0.161,2.843,0.452
								s1.674,0.712,2.346,1.233c0.673,0.521,1.224,1.143,1.61,1.833c0.387,0.691,0.61,1.452,0.63,2.252
								c0.02,0.799-0.168,1.562-0.523,2.257c-0.355,0.696-0.879,1.324-1.532,1.852c-0.654,0.529-1.437,0.957-2.31,1.253
								C481.024,260.02,480.062,260.184,479.048,260.184 M478.572,234.314c-0.995,0-1.946-0.158-2.813-0.442
								c-0.867-0.284-1.65-0.695-2.311-1.203c-0.659-0.507-1.195-1.11-1.569-1.778c-0.373-0.668-0.584-1.4-0.593-2.167
								c-0.01-0.768,0.182-1.499,0.536-2.164c0.354-0.664,0.872-1.261,1.514-1.763c0.641-0.501,1.405-0.906,2.257-1.186
								c0.851-0.28,1.788-0.435,2.774-0.435c0.984,0,1.926,0.155,2.786,0.435s1.64,0.685,2.299,1.186
								c0.659,0.502,1.197,1.099,1.576,1.763c0.379,0.665,0.598,1.396,0.616,2.164c0.019,0.767-0.165,1.5-0.514,2.167
								s-0.862,1.271-1.502,1.778c-0.642,0.507-1.408,0.918-2.264,1.203C480.509,234.157,479.565,234.314,478.572,234.314
								 M478.348,222.091c-1.181,0-2.302,0.185-3.32,0.519s-1.934,0.818-2.7,1.417c-0.768,0.599-1.387,1.313-1.812,2.107
								c-0.425,0.795-0.655,1.67-0.645,2.59c0.01,0.873,0.237,1.708,0.642,2.475c0.405,0.768,0.988,1.466,1.708,2.064
								c0.721,0.599,1.579,1.097,2.535,1.462c0.955,0.366,2.008,0.6,3.117,0.67l0.215,12.086c-1.116,0.073-2.172,0.313-3.126,0.688
								c-0.955,0.375-1.809,0.885-2.522,1.5c-0.714,0.615-1.287,1.334-1.679,2.126c-0.394,0.793-0.604,1.659-0.595,2.567
								c0.011,0.909,0.243,1.779,0.656,2.578c0.413,0.799,1.008,1.527,1.743,2.149c0.736,0.624,1.612,1.142,2.588,1.523
								s2.05,0.625,3.182,0.698l0.225,12.591c-1.141,0.077-2.218,0.326-3.191,0.717c-0.975,0.391-1.847,0.922-2.574,1.563
								c-0.729,0.641-1.313,1.39-1.714,2.216c-0.4,0.827-0.616,1.729-0.605,2.676c0.011,0.948,0.248,1.854,0.67,2.687
								c0.422,0.833,1.03,1.592,1.78,2.242c0.752,0.65,1.646,1.192,2.643,1.59c0.996,0.399,2.094,0.654,3.249,0.732l0.804,45.105
								h1.542l-0.855-45.105c1.152-0.078,2.241-0.333,3.224-0.732c0.982-0.398,1.858-0.939,2.587-1.59
								c0.728-0.65,1.309-1.408,1.701-2.242c0.392-0.832,0.597-1.739,0.572-2.687c-0.023-0.946-0.273-1.849-0.705-2.676
								c-0.432-0.826-1.045-1.575-1.799-2.216c-0.752-0.64-1.645-1.172-2.635-1.563c-0.988-0.391-2.075-0.64-3.219-0.717
								l-0.238-12.591c1.129-0.073,2.194-0.316,3.157-0.698c0.962-0.381,1.82-0.9,2.534-1.523c0.713-0.623,1.282-1.35,1.667-2.149
								c0.385-0.798,0.585-1.668,0.563-2.578c-0.022-0.908-0.267-1.774-0.689-2.567c-0.423-0.792-1.023-1.511-1.761-2.126
								c-0.737-0.614-1.611-1.125-2.58-1.5s-2.033-0.615-3.153-0.688l-0.229-12.086c1.105-0.07,2.15-0.304,3.094-0.67
								c0.942-0.366,1.783-0.864,2.483-1.462c0.699-0.598,1.258-1.296,1.635-2.064c0.377-0.767,0.574-1.602,0.553-2.475
								c-0.023-0.919-0.287-1.795-0.742-2.59c-0.454-0.794-1.1-1.508-1.89-2.107c-0.79-0.599-1.723-1.083-2.754-1.417
								C480.653,222.275,479.525,222.091,478.348,222.091"/>
							<path style="fill:#FFFFFF;" d="M430.55,287.141c-1.035,0-2.018-0.171-2.909-0.48c-0.891-0.309-1.69-0.755-2.357-1.306
								c-0.666-0.55-1.2-1.205-1.563-1.93c-0.362-0.724-0.552-1.52-0.532-2.352c0.021-0.832,0.25-1.624,0.646-2.344
								c0.396-0.719,0.958-1.367,1.646-1.911c0.687-0.543,1.5-0.983,2.396-1.287c0.896-0.304,1.877-0.471,2.902-0.471
								c1.027,0,2.003,0.167,2.89,0.471c0.887,0.304,1.683,0.743,2.35,1.287c0.667,0.544,1.205,1.191,1.574,1.911
								c0.369,0.72,0.567,1.513,0.557,2.344c-0.011,0.833-0.231,1.628-0.621,2.352c-0.39,0.726-0.949,1.38-1.637,1.93
								c-0.688,0.551-1.505,0.998-2.409,1.306C432.578,286.97,431.586,287.141,430.55,287.141 M431.062,260.184
								c-1.013,0-1.977-0.164-2.85-0.46c-0.873-0.296-1.656-0.724-2.309-1.253c-0.652-0.528-1.176-1.156-1.531-1.852
								c-0.354-0.695-0.542-1.458-0.521-2.257c0.02-0.8,0.244-1.561,0.631-2.252c0.387-0.69,0.938-1.312,1.611-1.833
								c0.672-0.521,1.468-0.942,2.346-1.233s1.839-0.452,2.843-0.452c1.006,0,1.963,0.161,2.831,0.452s1.649,0.712,2.302,1.233
								c0.654,0.521,1.181,1.143,1.542,1.833c0.362,0.691,0.557,1.452,0.546,2.252c-0.011,0.799-0.227,1.562-0.608,2.257
								c-0.382,0.696-0.93,1.324-1.603,1.852c-0.674,0.529-1.474,0.957-2.359,1.253C433.048,260.02,432.078,260.184,431.062,260.184
								 M431.554,234.314c-0.993,0-1.937-0.158-2.792-0.442c-0.855-0.284-1.623-0.695-2.263-1.203
								c-0.64-0.507-1.153-1.11-1.501-1.778s-0.531-1.4-0.513-2.167c0.019-0.768,0.238-1.499,0.618-2.164
								c0.379-0.664,0.918-1.261,1.578-1.763c0.659-0.501,1.438-0.906,2.299-1.186s1.802-0.435,2.787-0.435
								c0.986,0,1.923,0.155,2.774,0.435s1.616,0.685,2.256,1.186c0.641,0.502,1.158,1.099,1.512,1.763
								c0.354,0.665,0.546,1.396,0.536,2.164c-0.01,0.767-0.222,1.5-0.595,2.167c-0.374,0.668-0.911,1.271-1.57,1.778
								c-0.66,0.507-1.444,0.918-2.311,1.203C433.5,234.157,432.549,234.314,431.554,234.314 M433.203,183.842h-1.372l-0.749,38.274
								c-1.097,0.068-2.141,0.297-3.09,0.657c-0.95,0.359-1.807,0.849-2.529,1.438c-0.723,0.591-1.312,1.282-1.726,2.043
								c-0.415,0.763-0.654,1.596-0.676,2.469c-0.022,0.873,0.174,1.708,0.551,2.475c0.377,0.768,0.935,1.466,1.633,2.064
								c0.7,0.599,1.541,1.097,2.483,1.462c0.943,0.366,1.988,0.6,3.094,0.67l-0.237,12.086c-1.12,0.073-2.184,0.313-3.153,0.687
								s-1.843,0.884-2.581,1.498c-0.738,0.615-1.339,1.333-1.762,2.126c-0.423,0.793-0.667,1.661-0.691,2.57
								c-0.023,0.909,0.177,1.779,0.561,2.578c0.385,0.799,0.953,1.527,1.667,2.149c0.713,0.624,1.571,1.142,2.533,1.523
								s2.028,0.625,3.157,0.698l-0.247,12.591c-1.143,0.077-2.229,0.326-3.219,0.717s-1.882,0.922-2.635,1.563
								c-0.754,0.641-1.368,1.39-1.8,2.216c-0.433,0.827-0.683,1.729-0.707,2.676c-0.026,0.998,0.201,1.951,0.634,2.82
								c0.434,0.87,1.073,1.655,1.872,2.315c0.799,0.661,1.757,1.197,2.825,1.567c1.069,0.371,2.248,0.576,3.489,0.576
								c1.243,0,2.431-0.206,3.515-0.576c1.083-0.371,2.061-0.906,2.884-1.567c0.823-0.661,1.491-1.445,1.957-2.315
								c0.465-0.869,0.728-1.822,0.74-2.82c0.011-0.946-0.204-1.849-0.604-2.676c-0.4-0.826-0.984-1.575-1.713-2.216
								c-0.728-0.64-1.599-1.172-2.573-1.563c-0.974-0.391-2.051-0.64-3.19-0.717l0.232-12.591c1.131-0.073,2.206-0.316,3.182-0.698
								c0.975-0.381,1.852-0.9,2.588-1.523c0.735-0.623,1.331-1.35,1.745-2.149c0.413-0.798,0.646-1.668,0.657-2.578
								c0.011-0.908-0.2-1.774-0.592-2.567c-0.392-0.792-0.964-1.511-1.678-2.126c-0.713-0.614-1.567-1.125-2.521-1.5
								c-0.954-0.375-2.009-0.615-3.125-0.688l0.223-12.086c1.108-0.072,2.161-0.306,3.117-0.672
								c0.956-0.366,1.814-0.864,2.536-1.462c0.72-0.598,1.303-1.295,1.709-2.063c0.405-0.766,0.633-1.601,0.643-2.474
								c0.011-0.874-0.196-1.706-0.581-2.468c-0.384-0.761-0.946-1.451-1.646-2.041c-0.699-0.59-1.535-1.079-2.471-1.438
								c-0.935-0.359-1.969-0.589-3.063-0.66L433.203,183.842"/>
							<path style="fill:#FFFFFF;" d="M683.919,275.593c-1.892,0-3.749-0.31-5.487-0.869c-1.736-0.559-3.352-1.367-4.76-2.363
								c-1.407-0.995-2.608-2.177-3.519-3.486c-0.909-1.306-1.528-2.738-1.776-4.237c-0.247-1.495-0.102-2.917,0.372-4.209
								c0.473-1.289,1.272-2.449,2.335-3.421c1.062-0.971,2.385-1.757,3.908-2.299c1.521-0.542,3.243-0.841,5.104-0.841
								s3.688,0.3,5.4,0.841c1.714,0.542,3.313,1.328,4.716,2.299c1.405,0.973,2.613,2.132,3.54,3.421
								c0.928,1.292,1.574,2.714,1.854,4.209c0.279,1.499,0.164,2.931-0.285,4.237c-0.45,1.309-1.234,2.491-2.291,3.486
								c-1.059,0.996-2.39,1.804-3.929,2.363C687.56,275.283,685.812,275.593,683.919,275.593 M754.357,362.241L715,179.886
								c10.872,3.422,21.284,7.92,30.959,13.33c9.762,5.458,18.803,11.859,26.824,19.037c8.116,7.262,15.209,15.337,20.955,24.05
								c5.827,8.835,10.28,18.345,13.008,28.342c2.77,10.155,3.57,20.115,2.57,29.645c-1.016,9.67-3.884,18.881-8.42,27.381
								c-4.595,8.608-10.891,16.467-18.68,23.305C774.35,351.885,764.983,357.73,754.357,362.241 M684.129,276.782
								c2.097,0,4.035-0.344,5.742-0.965c1.706-0.62,3.18-1.516,4.352-2.621c1.171-1.103,2.039-2.413,2.535-3.864
								c0.496-1.448,0.623-3.035,0.311-4.694c-0.301-1.607-0.985-3.136-1.966-4.53c-0.979-1.391-2.253-2.647-3.737-3.712
								c-1.482-1.063-3.175-1.937-4.993-2.563c-1.817-0.625-3.762-1.004-5.751-1.08l-14.212-80.497
								c4.052,0.017,8.082,0.188,12.083,0.506c4.002,0.319,7.977,0.786,11.912,1.393c3.939,0.607,7.842,1.356,11.697,2.238
								c3.861,0.883,7.677,1.901,11.435,3.047l36.109,168.191c-3.747,1.793-7.634,3.37-11.652,4.728
								c-4.026,1.36-8.183,2.499-12.458,3.412c-4.281,0.915-8.681,1.604-13.188,2.064c-4.51,0.461-9.124,0.692-13.834,0.692
								c-16.22,0-32.115-2.819-46.882-7.885c-14.659-5.028-28.111-12.237-39.628-21.037c-11.369-8.687-20.798-18.882-27.639-30.017
								c-6.729-10.95-10.935-22.775-12.04-34.952c-1.081-11.902,0.903-23.048,5.347-33.029c4.373-9.824,11.146-18.553,19.771-25.802
								c8.525-7.165,18.899-12.918,30.641-16.885c11.663-3.94,24.742-6.141,38.809-6.21l12.286,70.041
								c-1.963,0.076-3.774,0.455-5.371,1.08c-1.599,0.626-2.983,1.499-4.092,2.563c-1.109,1.065-1.941,2.322-2.431,3.712
								c-0.49,1.394-0.637,2.923-0.372,4.53c0.272,1.66,0.957,3.247,1.963,4.694c1.007,1.451,2.337,2.761,3.895,3.864
								c1.562,1.105,3.351,2.001,5.275,2.621C679.972,276.438,682.031,276.782,684.129,276.782 M655.686,111.513h-1.282
								l10.479,59.738c-15.903,0.068-30.714,2.502-43.96,6.876c-13.345,4.406-25.189,10.81-35,18.804
								c-9.939,8.101-17.84,17.876-23.089,28.912c-5.344,11.235-7.96,23.819-7.157,37.307h1.462
								c-0.808-13.33,1.766-25.771,7.036-36.88c5.18-10.915,12.982-20.585,22.805-28.6c9.695-7.91,21.406-14.248,34.602-18.608
								c13.101-4.33,27.748-6.739,43.479-6.805l1.654,9.433c-14.242,0.069-27.487,2.294-39.301,6.281
								c-11.892,4.013-22.402,9.834-31.043,17.086c-8.743,7.338-15.612,16.174-20.054,26.123c-4.514,10.108-6.536,21.4-5.455,33.459
								c1.106,12.34,5.356,24.327,12.164,35.429c6.925,11.292,16.476,21.634,27.996,30.446
								c11.673,8.929,25.312,16.245,40.178,21.349c14.977,5.142,31.099,8.004,47.552,8.004c4.709,0,9.325-0.229,13.837-0.684
								c4.509-0.454,8.912-1.134,13.199-2.037c4.282-0.901,8.446-2.025,12.483-3.368c4.029-1.341,7.93-2.898,11.693-4.67
								l2.946,13.726c-3.781,1.547-7.714,2.926-11.787,4.123c-4.08,1.199-8.299,2.217-12.644,3.041
								c-4.351,0.824-8.826,1.455-13.414,1.879c-4.59,0.424-9.291,0.642-14.088,0.642c-18.639,0-36.898-3.271-53.842-9.142
								c-16.801-5.822-32.185-14.16-45.313-24.318c-12.935-10.01-23.61-21.733-31.297-34.509
								c-7.542-12.533-12.182-26.036-13.278-39.903l-0.017-0.217h-1.464l0.017,0.217c1.094,14.03,5.773,27.695,13.393,40.382
								c7.768,12.935,18.563,24.808,31.65,34.947c13.284,10.292,28.855,18.74,45.867,24.641c17.156,5.952,35.647,9.268,54.523,9.268
								c4.797,0,9.499-0.216,14.092-0.635c4.59-0.419,9.069-1.041,13.426-1.856c4.352-0.814,8.577-1.82,12.667-3.006
								c4.083-1.184,8.028-2.547,11.825-4.077l14.035,65.373h1.651l-14.237-65.965c10.853-4.542,20.421-10.456,28.46-17.459
								c7.957-6.933,14.392-14.91,19.087-23.656c4.636-8.634,7.567-17.996,8.605-27.827c1.023-9.685,0.208-19.809-2.618-30.129
								c-3.75-13.687-10.694-26.469-19.958-37.886c-9.098-11.211-20.468-21.15-33.326-29.387
								c-12.688-8.128-26.891-14.643-41.908-19.126c-14.906-4.45-30.714-6.928-46.785-6.996l-4.945-28.007
								c20.912,0.064,41.494,3.198,60.95,8.852c19.645,5.708,38.312,14.036,55.094,24.469c17.08,10.618,32.328,23.492,44.701,38.096
								c12.673,14.957,22.396,31.81,27.964,49.978h1.456c-5.638-18.325-15.462-35.318-28.255-50.397
								c-12.489-14.72-27.873-27.694-45.1-38.392c-16.924-10.511-35.743-18.9-55.546-24.649
								c-19.611-5.694-40.356-8.849-61.434-8.914L655.686,111.513"/>
							<path style="fill:#FFFFFF;" d="M227.276,269.398c-1.883,0-3.624-0.307-5.157-0.861c-1.532-0.554-2.856-1.354-3.91-2.341
								c-1.052-0.985-1.833-2.156-2.281-3.452c-0.447-1.294-0.563-2.713-0.285-4.197c0.277-1.481,0.92-2.89,1.844-4.169
								c0.922-1.277,2.124-2.426,3.522-3.389c1.396-0.962,2.988-1.74,4.694-2.278c1.704-0.537,3.523-0.833,5.375-0.833
								s3.565,0.297,5.08,0.833c1.516,0.538,2.833,1.315,3.889,2.278c1.058,0.963,1.854,2.112,2.325,3.389
								c0.472,1.28,0.617,2.688,0.371,4.169c-0.247,1.484-0.863,2.903-1.767,4.197c-0.906,1.296-2.101,2.467-3.501,3.452
								c-1.402,0.987-3.009,1.787-4.737,2.341C231.008,269.091,229.159,269.398,227.276,269.398 M231.276,246.747
								c-2.049,0-4.062,0.328-5.947,0.921c-1.888,0.593-3.65,1.453-5.196,2.516c-1.548,1.065-2.879,2.335-3.901,3.748
								c-1.024,1.416-1.738,2.975-2.047,4.615c-0.31,1.645-0.184,3.216,0.311,4.65c0.495,1.437,1.359,2.735,2.524,3.828
								c1.167,1.094,2.634,1.982,4.333,2.596c1.699,0.615,3.628,0.956,5.716,0.956c2.087,0,4.136-0.34,6.052-0.956
								c1.914-0.614,3.694-1.501,5.246-2.596c1.549-1.093,2.871-2.391,3.873-3.828c1-1.434,1.68-3.005,1.951-4.65
								c0.271-1.64,0.108-3.199-0.415-4.615c-0.522-1.413-1.404-2.683-2.575-3.748c-1.168-1.063-2.626-1.923-4.304-2.516
								C235.221,247.075,233.325,246.747,231.276,246.747"/>
							<path style="fill:#FFFFFF;" d="M209.388,366.252c-4.702-0.021-9.308-0.253-13.807-0.684
								c-4.496-0.43-8.882-1.058-13.147-1.873c-4.26-0.814-8.397-1.814-12.399-2.991c-3.996-1.174-7.855-2.522-11.569-4.034
								l36.364-168.901c3.942-1.397,7.913-2.62,11.908-3.668c3.988-1.046,8.001-1.917,12.034-2.615
								c4.029-0.697,8.08-1.22,12.148-1.569c4.066-0.349,8.151-0.524,12.25-0.524c14.117,0,27.246,2.143,38.957,6.035
								c11.787,3.917,22.205,9.63,30.768,16.761c8.663,7.214,15.466,15.914,19.861,25.712c4.465,9.955,6.459,21.078,5.373,32.958
								c-1.102,12.057-5.27,23.765-11.934,34.611c-6.775,11.028-16.111,21.131-27.369,29.751
								c-11.404,8.732-24.728,15.901-39.253,20.929c-14.633,5.063-30.392,7.922-46.486,8.012l14.679-83.395h-1.461L209.388,366.252
								 M157.024,356.084c-10.581-4.471-19.908-10.266-27.745-17.113c-7.758-6.779-14.031-14.57-18.611-23.105
								c-4.522-8.427-7.382-17.562-8.397-27.15c-1-9.451-0.207-19.328,2.548-29.399c2.711-9.915,7.141-19.346,12.939-28.108
								c5.718-8.642,12.779-16.65,20.859-23.854c7.987-7.119,16.989-13.469,26.711-18.883c9.635-5.366,20.005-9.83,30.835-13.225
								L157.024,356.084 M207.455,129.129h-1.31l-9.743,45.016c-11.017,3.406-21.569,7.903-31.377,13.323
								c-9.896,5.469-19.064,11.894-27.2,19.106c-8.232,7.298-15.428,15.42-21.258,24.191c-5.913,8.895-10.431,18.474-13.198,28.55
								c-3.808,13.868-3.943,27.373-0.829,39.916c3.174,12.786,9.712,24.528,19.12,34.566c9.549,10.189,22.004,18.569,36.772,24.449
								c14.896,5.931,32.033,9.274,50.714,9.366l-7.089,40.018c-25.621-0.099-49.062-4.786-69.325-13.104
								c-20.029-8.22-36.752-19.902-49.381-34.046c-12.376-13.86-20.732-29.985-24.456-47.433
								c-3.629-17.003-2.844-35.189,2.85-53.732h-1.449c-5.766,18.707-6.579,37.059-2.937,54.222
								c3.738,17.614,12.154,33.897,24.632,47.896c12.735,14.288,29.608,26.091,49.823,34.396
								c20.455,8.403,44.12,13.139,69.989,13.236l-8.777,49.545h1.674l16.018-90.998c18.571-0.092,36.754-3.386,53.635-9.231
								c16.739-5.797,32.076-14.061,45.195-24.118c12.927-9.911,23.63-21.512,31.399-34.156
								c7.623-12.408,12.394-25.779,13.688-39.527h-1.459c-1.297,13.584-6.028,26.793-13.574,39.047
								c-7.688,12.485-18.272,23.938-31.048,33.72c-12.963,9.925-28.112,18.078-44.643,23.797
								c-16.668,5.767-34.62,9.017-52.953,9.107l1.893-10.753c16.326-0.09,32.312-2.991,47.153-8.132
								c14.731-5.103,28.24-12.379,39.8-21.24c11.41-8.747,20.867-18.996,27.725-30.181c6.744-10.999,10.956-22.868,12.059-35.088
								c1.086-12.037-0.947-23.305-5.481-33.387c-4.462-9.921-11.362-18.728-20.143-26.03c-8.677-7.216-19.231-12.997-31.169-16.961
								c-11.859-3.938-25.153-6.106-39.446-6.106c-4.091,0-8.169,0.172-12.228,0.516c-4.061,0.344-8.105,0.859-12.128,1.545
								c-4.027,0.687-8.035,1.545-12.019,2.575c-3.99,1.031-7.958,2.234-11.897,3.609l2.543-11.814
								c3.796-1.153,7.65-2.177,11.552-3.063c3.895-0.885,7.839-1.633,11.82-2.237c3.977-0.604,7.994-1.064,12.039-1.374
								c4.043-0.309,8.116-0.468,12.21-0.468c15.863,0,30.63,2.38,43.826,6.706c13.291,4.357,25.075,10.718,34.805,18.67
								c9.858,8.057,17.66,17.789,22.78,28.774c5.212,11.183,7.667,23.708,6.663,37.122h1.457
								c1.001-13.571-1.496-26.24-6.781-37.547c-5.191-11.106-13.09-20.942-23.067-29.083c-9.845-8.034-21.764-14.459-35.204-18.861
								c-13.342-4.369-28.271-6.772-44.305-6.772c-4.086,0-8.152,0.156-12.188,0.46c-4.038,0.305-8.048,0.758-12.019,1.353
								c-3.976,0.595-7.915,1.332-11.806,2.203c-3.897,0.873-7.749,1.881-11.544,3.017L207.455,129.129"/>
							<path style="fill:#FFFFFF;" d="M444.248,492.622l0.56-75.771h20.4l0.514,75.771H444.248 M517.189,308.198h-1.514
								l4.001,88.397H492.77l0.328,12.479h27.144l1.988,43.928h-55.099l-0.298-37.609h-23.65l-0.321,37.609h-55.108l3.338-72.776
								h26.597l0.323-11.991h-14.018l-0.05,1.365h12.458l-0.259,9.24h-51.556l0.599-9.24h38.569l0.051-1.365h-12.162l1.189-25.931
								h-1.552l-1.219,25.931h-26.37l-0.791,11.991h26.597l-3.421,72.776h-82.532l-0.158,1.536h82.618l-4.985,106.038h1.801
								l4.864-106.038h55.166l-0.339,39.694h23.222l-0.001-0.204h1.725l-0.313-39.49h55.155l1.234,27.269h1.711l-1.266-27.269
								h81.653l-0.156-1.536h-81.568l-2.038-43.928h27.154l-0.816-12.479h-14.274l0.078,1.413h12.683l0.619,9.631h-52.635
								l-0.265-9.631h39.394l-0.077-1.413h-12.438L517.189,308.198"/>
						</g>
					</g>
				</g>
			</g>
		</g>
	</g>
</g>
</svg>
