<?xml version="1.0" encoding="iso-8859-1"?>
<!-- Generator: Adobe Illustrator 16.0.0, SVG Export Plug-In . SVG Version: 6.00 Build 0)  -->
<!DOCTYPE svg PUBLIC "-//W3C//DTD SVG 1.1//EN" "http://www.w3.org/Graphics/SVG/1.1/DTD/svg11.dtd">
<svg version="1.1" id="Layer_2" xmlns="http://www.w3.org/2000/svg" xmlns:xlink="http://www.w3.org/1999/xlink" x="0px" y="0px"
	 width="910.886px" height="597.925px" viewBox="0 0 910.886 597.925" style="enable-background:new 0 0 910.886 597.925;"
	 xml:space="preserve">
<g>
	<g>
		<g style="enable-background:new    ;">
			<defs>
				<polygon id="SVGID_1_" style="enable-background:new    ;" points="-103.588,599.557 71.194,92.353 839.688,92.353 
					1014.471,599.557 				"/>
			</defs>
			<clipPath id="SVGID_2_">
				<use xlink:href="#SVGID_1_"  style="overflow:visible;"/>
			</clipPath>
			<g style="clip-path:url(#SVGID_2_);">
				<g>
					<g>
						<g>
							<path style="fill:#FFFFFF;" d="M479.542,287.142c-1.035,0-2.024-0.171-2.928-0.48c-0.902-0.309-1.718-0.755-2.405-1.306
								c-0.688-0.55-1.246-1.205-1.635-1.93c-0.389-0.724-0.609-1.52-0.619-2.352c-0.012-0.832,0.188-1.624,0.558-2.344
								c0.368-0.719,0.906-1.367,1.573-1.911c0.667-0.543,1.463-0.983,2.349-1.287c0.885-0.303,1.86-0.471,2.885-0.471
								c1.025,0,2.007,0.168,2.902,0.471c0.896,0.304,1.709,0.744,2.396,1.287c0.688,0.544,1.249,1.191,1.645,1.911
								c0.396,0.72,0.624,1.513,0.645,2.344c0.02,0.833-0.172,1.628-0.533,2.352c-0.363,0.726-0.897,1.38-1.564,1.93
								c-0.667,0.551-1.467,0.998-2.357,1.306C481.56,286.971,480.576,287.142,479.542,287.142 M479.046,260.186
								c-1.014,0-1.983-0.164-2.867-0.461c-0.884-0.296-1.683-0.724-2.355-1.252s-1.22-1.156-1.601-1.852
								c-0.381-0.695-0.596-1.458-0.606-2.257s0.186-1.561,0.548-2.252c0.361-0.69,0.888-1.312,1.541-1.833
								c0.654-0.521,1.434-0.942,2.301-1.233c0.867-0.291,1.822-0.452,2.826-0.452c1.005,0,1.965,0.161,2.844,0.452
								c0.878,0.291,1.673,0.712,2.346,1.233c0.673,0.521,1.223,1.143,1.609,1.833c0.387,0.691,0.611,1.453,0.631,2.252
								c0.019,0.799-0.169,1.562-0.523,2.257c-0.355,0.696-0.88,1.324-1.533,1.852s-1.437,0.957-2.31,1.252
								C481.022,260.021,480.059,260.186,479.046,260.186 M478.57,234.315c-0.994,0-1.943-0.157-2.81-0.442
								s-1.648-0.696-2.308-1.203c-0.659-0.507-1.195-1.11-1.568-1.778c-0.373-0.667-0.584-1.4-0.594-2.167
								c-0.01-0.768,0.183-1.499,0.537-2.164c0.354-0.664,0.871-1.261,1.512-1.763c0.641-0.501,1.404-0.906,2.255-1.187
								c0.851-0.28,1.786-0.435,2.771-0.435s1.926,0.155,2.785,0.435c0.861,0.28,1.641,0.686,2.299,1.187
								c0.659,0.501,1.198,1.099,1.576,1.763c0.38,0.665,0.599,1.396,0.617,2.164c0.019,0.767-0.166,1.5-0.514,2.167
								c-0.35,0.668-0.863,1.271-1.503,1.778c-0.641,0.507-1.408,0.918-2.264,1.203C480.506,234.158,479.563,234.315,478.57,234.315
								 M478.345,222.092c-1.179,0-2.299,0.185-3.316,0.519c-1.019,0.334-1.934,0.819-2.701,1.417
								c-0.768,0.599-1.388,1.313-1.813,2.107c-0.426,0.795-0.657,1.67-0.646,2.59c0.01,0.873,0.236,1.708,0.641,2.475
								c0.406,0.768,0.988,1.466,1.709,2.064c0.722,0.599,1.581,1.097,2.537,1.462c0.958,0.366,2.012,0.6,3.123,0.67l0.215,12.086
								c-1.119,0.073-2.176,0.313-3.131,0.688c-0.956,0.375-1.811,0.885-2.524,1.5c-0.714,0.615-1.288,1.334-1.681,2.126
								c-0.393,0.793-0.604,1.66-0.594,2.567c0.011,0.909,0.242,1.779,0.656,2.578c0.413,0.799,1.008,1.527,1.744,2.15
								s1.613,1.142,2.59,1.523c0.977,0.381,2.053,0.625,3.187,0.698l0.225,12.591c-1.142,0.077-2.222,0.326-3.196,0.717
								c-0.976,0.391-1.848,0.922-2.576,1.563c-0.729,0.641-1.314,1.39-1.715,2.216c-0.401,0.827-0.617,1.729-0.605,2.676
								c0.01,0.948,0.248,1.854,0.67,2.687c0.422,0.833,1.029,1.592,1.781,2.242c0.752,0.65,1.647,1.192,2.645,1.59
								c0.998,0.399,2.097,0.654,3.254,0.732l0.809,45.299h1.533l-0.859-45.299c1.154-0.078,2.244-0.333,3.227-0.732
								c0.982-0.398,1.858-0.939,2.586-1.59c0.729-0.65,1.309-1.408,1.699-2.242c0.393-0.832,0.596-1.739,0.572-2.687
								c-0.024-0.946-0.273-1.849-0.705-2.676c-0.43-0.826-1.043-1.575-1.796-2.216c-0.752-0.64-1.644-1.172-2.634-1.563
								s-2.078-0.64-3.223-0.717l-0.238-12.591c1.131-0.073,2.197-0.316,3.16-0.698c0.963-0.381,1.82-0.9,2.533-1.523
								s1.281-1.351,1.666-2.15c0.384-0.798,0.584-1.668,0.561-2.578c-0.022-0.908-0.266-1.774-0.688-2.567
								c-0.422-0.792-1.021-1.511-1.76-2.126c-0.736-0.614-1.609-1.125-2.579-1.5c-0.97-0.375-2.035-0.614-3.156-0.688
								l-0.229-12.086c1.108-0.07,2.154-0.304,3.098-0.67s1.783-0.864,2.483-1.462c0.698-0.598,1.256-1.296,1.633-2.064
								c0.376-0.767,0.573-1.602,0.551-2.475c-0.023-0.92-0.286-1.795-0.741-2.59c-0.455-0.794-1.101-1.508-1.891-2.107
								c-0.789-0.599-1.723-1.083-2.753-1.417C480.65,222.277,479.523,222.092,478.345,222.092"/>
							<path style="fill:#FFFFFF;" d="M430.556,287.142c-1.037,0-2.021-0.171-2.914-0.48c-0.893-0.309-1.692-0.755-2.359-1.306
								c-0.667-0.55-1.201-1.205-1.563-1.93c-0.362-0.724-0.553-1.52-0.532-2.352c0.021-0.832,0.25-1.624,0.646-2.344
								c0.396-0.719,0.958-1.367,1.646-1.911c0.688-0.543,1.5-0.983,2.399-1.287c0.897-0.303,1.88-0.471,2.907-0.471
								c1.025,0,2,0.168,2.885,0.471c0.885,0.304,1.681,0.744,2.347,1.287c0.667,0.544,1.205,1.191,1.573,1.911
								c0.369,0.72,0.568,1.513,0.557,2.344c-0.011,0.833-0.231,1.628-0.621,2.352c-0.39,0.726-0.949,1.38-1.636,1.93
								c-0.688,0.551-1.503,0.998-2.406,1.306C432.58,286.971,431.59,287.142,430.556,287.142 M431.068,260.186
								c-1.016,0-1.98-0.164-2.854-0.46c-0.874-0.296-1.658-0.725-2.312-1.253c-0.653-0.528-1.177-1.156-1.532-1.852
								c-0.355-0.695-0.542-1.458-0.522-2.257c0.02-0.799,0.244-1.561,0.631-2.251c0.387-0.691,0.938-1.312,1.612-1.833
								c0.673-0.521,1.47-0.942,2.349-1.233c0.879-0.291,1.842-0.452,2.848-0.452c1.004,0,1.959,0.161,2.826,0.452
								c0.867,0.291,1.647,0.712,2.3,1.233c0.653,0.521,1.18,1.143,1.541,1.833c0.361,0.691,0.556,1.452,0.546,2.251
								c-0.011,0.799-0.227,1.562-0.608,2.257c-0.381,0.696-0.929,1.324-1.602,1.852c-0.673,0.528-1.472,0.957-2.356,1.253
								S432.081,260.186,431.068,260.186 M431.56,234.315c-0.995,0-1.94-0.157-2.797-0.442c-0.856-0.284-1.625-0.696-2.265-1.203
								c-0.641-0.507-1.154-1.11-1.502-1.778c-0.348-0.667-0.532-1.4-0.513-2.167c0.019-0.768,0.238-1.499,0.618-2.164
								c0.379-0.664,0.918-1.261,1.579-1.763c0.66-0.501,1.44-0.906,2.302-1.187c0.861-0.28,1.805-0.435,2.791-0.435
								c0.984,0,1.92,0.155,2.77,0.435c0.85,0.28,1.614,0.686,2.254,1.187c0.641,0.501,1.157,1.099,1.511,1.763
								c0.354,0.665,0.545,1.396,0.535,2.164c-0.01,0.767-0.221,1.5-0.595,2.167c-0.374,0.668-0.91,1.271-1.569,1.778
								c-0.66,0.507-1.442,0.919-2.309,1.203C433.502,234.158,432.552,234.315,431.56,234.315 M433.203,183.708h-1.363
								l-0.751,38.409c-1.099,0.069-2.144,0.298-3.094,0.657c-0.95,0.359-1.807,0.849-2.528,1.439
								c-0.723,0.59-1.311,1.282-1.724,2.043c-0.414,0.762-0.652,1.596-0.675,2.469c-0.022,0.873,0.173,1.708,0.55,2.475
								c0.376,0.768,0.933,1.466,1.632,2.064c0.699,0.599,1.54,1.097,2.482,1.462c0.943,0.366,1.989,0.6,3.097,0.67l-0.236,12.086
								c-1.122,0.073-2.188,0.313-3.157,0.687c-0.97,0.375-1.844,0.884-2.581,1.498c-0.738,0.614-1.338,1.333-1.76,2.125
								c-0.422,0.793-0.667,1.661-0.69,2.57c-0.023,0.91,0.176,1.779,0.56,2.578c0.384,0.799,0.952,1.527,1.664,2.15
								c0.713,0.624,1.571,1.142,2.533,1.523c0.962,0.381,2.03,0.625,3.161,0.698l-0.247,12.592
								c-1.145,0.076-2.233,0.326-3.223,0.716c-0.991,0.391-1.883,0.922-2.635,1.563c-0.753,0.641-1.367,1.39-1.798,2.216
								c-0.432,0.827-0.681,1.729-0.706,2.676c-0.026,0.998,0.201,1.951,0.633,2.82c0.433,0.87,1.072,1.655,1.869,2.315
								c0.799,0.661,1.756,1.197,2.825,1.567c1.069,0.371,2.25,0.576,3.493,0.576c1.241,0,2.428-0.206,3.51-0.576
								c1.082-0.371,2.059-0.906,2.882-1.567c0.822-0.661,1.491-1.445,1.956-2.315c0.465-0.869,0.728-1.822,0.74-2.82
								c0.011-0.946-0.204-1.849-0.604-2.676c-0.4-0.826-0.984-1.575-1.713-2.216c-0.728-0.64-1.599-1.172-2.573-1.563
								c-0.974-0.391-2.05-0.64-3.19-0.716l0.232-12.592c1.131-0.073,2.206-0.316,3.182-0.698c0.976-0.381,1.852-0.899,2.588-1.523
								c0.736-0.623,1.331-1.351,1.745-2.15c0.414-0.798,0.646-1.668,0.657-2.578c0.011-0.908-0.2-1.774-0.592-2.567
								c-0.392-0.792-0.965-1.511-1.679-2.126c-0.713-0.614-1.566-1.125-2.521-1.5c-0.954-0.375-2.009-0.614-3.125-0.688
								l0.223-12.086c1.108-0.072,2.162-0.306,3.118-0.673c0.956-0.366,1.814-0.864,2.536-1.462c0.72-0.598,1.304-1.295,1.709-2.063
								c0.405-0.766,0.633-1.601,0.644-2.474c0.01-0.874-0.196-1.707-0.581-2.468c-0.384-0.761-0.946-1.451-1.646-2.042
								c-0.699-0.589-1.535-1.079-2.471-1.438c-0.936-0.359-1.969-0.589-3.064-0.66L433.203,183.708"/>
							<path style="fill:#FFFFFF;" d="M683.916,275.594c-1.893,0-3.75-0.31-5.488-0.87c-1.735-0.559-3.351-1.367-4.76-2.363
								c-1.406-0.995-2.607-2.177-3.518-3.485c-0.909-1.307-1.529-2.739-1.776-4.237c-0.247-1.495-0.102-2.917,0.372-4.209
								c0.473-1.29,1.272-2.449,2.335-3.422c1.062-0.971,2.384-1.756,3.907-2.299c1.521-0.542,3.244-0.842,5.104-0.842
								c1.863,0,3.691,0.3,5.404,0.842c1.715,0.542,3.314,1.328,4.717,2.299c1.404,0.973,2.611,2.132,3.537,3.422
								c0.928,1.292,1.573,2.714,1.852,4.209c0.279,1.499,0.165,2.931-0.283,4.237c-0.449,1.309-1.233,2.491-2.289,3.485
								c-1.059,0.996-2.389,1.804-3.929,2.363C687.56,275.284,685.811,275.594,683.916,275.594 M754.354,362.242l-39.357-182.354
								c10.875,3.422,21.287,7.92,30.963,13.329c9.762,5.458,18.802,11.858,26.823,19.035c8.115,7.261,15.207,15.335,20.952,24.047
								c5.826,8.835,10.278,18.344,13.006,28.341c2.771,10.155,3.574,20.116,2.574,29.646c-1.014,9.671-3.883,18.883-8.419,27.384
								c-4.595,8.609-10.892,16.468-18.681,23.308C774.346,351.885,764.98,357.731,754.354,362.242 M700.973,372.519
								c-18.637,0-36.895-3.271-53.838-9.143c-16.801-5.822-32.184-14.16-45.313-24.319c-12.936-10.01-23.611-21.734-31.299-34.51
								c-7.543-12.535-12.184-26.039-13.279-39.908c-1.07-13.528,1.333-26.166,6.506-37.456
								c5.082-11.089,12.855-20.921,22.695-29.071c9.711-8.043,21.484-14.49,34.774-18.928c13.192-4.405,27.963-6.859,43.835-6.927
								l1.655,9.433c-14.243,0.069-27.487,2.294-39.301,6.281c-11.892,4.013-22.402,9.834-31.043,17.086
								c-8.743,7.338-15.612,16.174-20.054,26.122c-4.514,10.109-6.536,21.4-5.455,33.459c1.106,12.34,5.355,24.327,12.164,35.429
								c6.926,11.292,16.476,21.633,27.996,30.446c11.673,8.929,25.312,16.245,40.177,21.349c14.978,5.142,31.1,8.003,47.552,8.003
								c4.712,0,9.328-0.228,13.842-0.683c4.51-0.454,8.912-1.135,13.199-2.037c4.282-0.902,8.446-2.026,12.484-3.369
								c4.029-1.34,7.932-2.897,11.697-4.669l2.946,13.725c-3.784,1.546-7.718,2.923-11.792,4.12
								c-4.08,1.199-8.299,2.217-12.645,3.041c-4.35,0.825-8.824,1.456-13.413,1.881C710.475,372.3,705.773,372.519,700.973,372.519
								 M684.125,276.783c2.098,0,4.035-0.344,5.743-0.965c1.706-0.62,3.18-1.516,4.353-2.621c1.17-1.103,2.037-2.413,2.535-3.864
								c0.495-1.448,0.621-3.035,0.311-4.694c-0.303-1.606-0.986-3.136-1.967-4.53c-0.979-1.391-2.253-2.647-3.736-3.712
								c-1.481-1.063-3.174-1.937-4.991-2.563c-1.815-0.625-3.759-1.004-5.746-1.08l-14.212-80.497
								c4.049,0.017,8.078,0.188,12.078,0.507c4.002,0.319,7.975,0.785,11.91,1.392c3.94,0.608,7.844,1.356,11.699,2.238
								c3.862,0.883,7.679,1.901,11.439,3.047l36.11,168.189c-3.749,1.794-7.639,3.371-11.658,4.729
								c-4.028,1.36-8.185,2.498-12.461,3.412c-4.282,0.915-8.681,1.604-13.188,2.063c-4.51,0.461-9.124,0.692-13.834,0.692
								c-16.22,0-32.116-2.818-46.883-7.884c-14.659-5.028-28.111-12.238-39.628-21.037c-11.368-8.688-20.797-18.883-27.639-30.017
								c-6.729-10.95-10.934-22.775-12.039-34.952c-1.08-11.902,0.902-23.048,5.346-33.028c4.375-9.825,11.146-18.553,19.771-25.802
								c8.525-7.165,18.9-12.918,30.641-16.885c11.664-3.94,24.743-6.141,38.809-6.21l12.287,70.041
								c-1.961,0.076-3.771,0.455-5.367,1.08c-1.597,0.626-2.98,1.499-4.088,2.563c-1.109,1.065-1.941,2.322-2.43,3.712
								c-0.49,1.394-0.637,2.923-0.373,4.53c0.273,1.66,0.957,3.247,1.962,4.694c1.007,1.451,2.335,2.761,3.892,3.864
								c1.561,1.105,3.349,2.001,5.272,2.621C679.969,276.439,682.027,276.783,684.125,276.783 M655.674,111.423h-1.29
								l10.495,59.829c-16.047,0.068-30.98,2.546-44.319,6.995c-13.438,4.483-25.349,10.997-35.175,19.124
								c-9.958,8.237-17.829,18.174-22.98,29.385c-5.246,11.416-7.691,24.197-6.625,37.883c1.094,14.034,5.774,27.7,13.395,40.389
								c7.769,12.936,18.565,24.81,31.652,34.948c13.285,10.292,28.857,18.74,45.867,24.641c17.156,5.951,35.646,9.266,54.52,9.266
								c4.798,0,9.5-0.215,14.094-0.634c4.591-0.419,9.071-1.042,13.429-1.856c4.353-0.814,8.579-1.82,12.671-3.006
								c4.084-1.185,8.029-2.547,11.826-4.077l14.035,65.372h1.642l-14.237-65.964c10.855-4.543,20.425-10.456,28.464-17.46
								c7.958-6.933,14.391-14.91,19.085-23.656c4.635-8.635,7.564-17.998,8.602-27.829c1.021-9.687,0.201-19.812-2.627-30.134
								c-3.75-13.686-10.693-26.468-19.956-37.883c-9.097-11.211-20.464-21.148-33.321-29.385
								c-12.686-8.127-26.886-14.641-41.901-19.124c-14.905-4.449-30.71-6.927-46.78-6.995l-4.945-28.007
								c20.912,0.064,41.494,3.198,60.949,8.852c19.645,5.708,38.31,14.036,55.092,24.469
								c17.078,10.618,32.326,23.492,44.698,38.096c12.671,14.957,22.395,31.81,27.963,49.978h1.464
								c-5.637-18.325-15.462-35.318-28.255-50.397c-12.489-14.72-27.874-27.694-45.1-38.392
								c-16.924-10.511-35.744-18.899-55.547-24.649c-19.61-5.694-40.356-8.85-61.433-8.914L655.674,111.423"/>
							<path style="fill:#FFFFFF;" d="M227.274,269.399c-1.883,0-3.624-0.307-5.157-0.861c-1.532-0.554-2.857-1.354-3.911-2.341
								c-1.052-0.985-1.833-2.156-2.281-3.452c-0.447-1.294-0.563-2.712-0.285-4.197c0.277-1.48,0.92-2.89,1.844-4.169
								c0.922-1.277,2.124-2.426,3.521-3.389c1.396-0.962,2.988-1.74,4.694-2.277c1.704-0.537,3.523-0.834,5.375-0.834
								s3.565,0.297,5.08,0.834c1.516,0.537,2.833,1.315,3.89,2.277c1.058,0.963,1.854,2.112,2.325,3.389
								c0.472,1.28,0.617,2.689,0.371,4.169c-0.247,1.485-0.863,2.903-1.767,4.197c-0.906,1.296-2.101,2.467-3.5,3.452
								c-1.402,0.987-3.009,1.787-4.737,2.341C231.006,269.092,229.157,269.399,227.274,269.399 M231.274,246.748
								c-2.049,0-4.061,0.328-5.946,0.921c-1.887,0.593-3.648,1.453-5.193,2.516c-1.547,1.065-2.877,2.335-3.898,3.748
								c-1.023,1.416-1.736,2.975-2.045,4.615c-0.31,1.645-0.184,3.216,0.309,4.65c0.495,1.437,1.358,2.735,2.521,3.828
								c1.166,1.094,2.632,1.982,4.329,2.596c1.699,0.615,3.627,0.955,5.714,0.955c2.087,0,4.137-0.34,6.053-0.955
								c1.915-0.614,3.696-1.502,5.249-2.596c1.551-1.093,2.874-2.391,3.876-3.828c1-1.434,1.682-3.005,1.953-4.65
								c0.271-1.64,0.107-3.199-0.417-4.615c-0.523-1.413-1.406-2.683-2.578-3.748c-1.17-1.063-2.628-1.923-4.307-2.516
								C235.219,247.076,233.323,246.748,231.274,246.748"/>
							<path style="fill:#FFFFFF;" d="M209.386,366.253c-4.701-0.022-9.307-0.254-13.806-0.684
								c-4.496-0.43-8.882-1.058-13.147-1.873c-4.26-0.814-8.397-1.815-12.399-2.991c-3.996-1.174-7.855-2.522-11.569-4.034
								l36.364-168.901c3.944-1.397,7.916-2.62,11.911-3.667c3.988-1.046,8.001-1.918,12.034-2.616
								c4.028-0.697,8.079-1.22,12.146-1.569c4.065-0.349,8.15-0.524,12.249-0.524c14.116,0,27.246,2.143,38.957,6.035
								c11.788,3.918,22.207,9.63,30.771,16.761c8.665,7.214,15.469,15.913,19.865,25.712c4.465,9.955,6.46,21.078,5.375,32.958
								c-1.102,12.057-5.27,23.765-11.934,34.611c-6.775,11.028-16.111,21.131-27.37,29.751
								c-11.405,8.732-24.729,15.901-39.256,20.928c-14.634,5.064-30.395,7.923-46.491,8.013l14.688-83.395h-1.471L209.386,366.253
								 M157.022,356.085c-10.581-4.471-19.908-10.266-27.743-17.113c-7.757-6.78-14.029-14.57-18.607-23.105
								c-4.521-8.427-7.38-17.562-8.395-27.15c-1-9.451-0.206-19.328,2.549-29.399c2.711-9.915,7.141-19.346,12.938-28.109
								c5.718-8.642,12.778-16.651,20.857-23.855c7.986-7.12,16.988-13.47,26.708-18.885c9.634-5.367,20.004-9.83,30.833-13.225
								L157.022,356.085 M195.076,186.621l2.545-11.821c3.796-1.152,7.65-2.174,11.551-3.059c3.895-0.884,7.838-1.632,11.819-2.236
								c3.977-0.603,7.994-1.063,12.038-1.373c4.043-0.309,8.117-0.468,12.21-0.468c15.902,0,30.703,2.391,43.923,6.737
								c13.317,4.377,25.118,10.767,34.852,18.752c9.864,8.092,17.658,17.865,22.753,28.895c5.187,11.229,7.598,23.805,6.525,37.268
								c-1.092,13.705-5.687,27.048-13.153,39.438c-7.609,12.626-18.174,24.219-30.977,34.129
								c-12.992,10.056-28.219,18.325-44.857,24.127c-16.779,5.851-34.869,9.15-53.348,9.242l1.893-10.753
								c16.326-0.09,32.312-2.991,47.153-8.132c14.731-5.104,28.241-12.38,39.8-21.241c11.41-8.746,20.867-18.995,27.726-30.18
								c6.744-10.999,10.956-22.868,12.059-35.088c1.086-12.037-0.947-23.305-5.481-33.386c-4.462-9.922-11.362-18.728-20.143-26.03
								c-8.677-7.216-19.231-12.997-31.168-16.961c-11.859-3.938-25.153-6.106-39.446-6.106c-4.092,0-8.169,0.172-12.228,0.516
								c-4.061,0.344-8.105,0.859-12.128,1.545c-4.027,0.687-8.035,1.545-12.019,2.574
								C202.983,184.043,199.016,185.246,195.076,186.621 M207.484,128.986h-1.31l-9.773,45.155
								c-11.015,3.406-21.566,7.903-31.374,13.324c-9.896,5.47-19.064,11.896-27.2,19.109c-8.233,7.299-15.43,15.422-21.26,24.193
								c-5.914,8.896-10.433,18.476-13.2,28.551c-3.808,13.868-3.943,27.373-0.829,39.916c3.174,12.786,9.712,24.528,19.12,34.566
								c9.549,10.189,22.004,18.568,36.772,24.449c14.895,5.93,32.033,9.274,50.713,9.366l-7.089,40.018
								c-25.619-0.1-49.057-4.787-69.319-13.104c-20.027-8.221-36.75-19.903-49.378-34.047
								c-12.376-13.86-20.731-29.984-24.456-47.432c-3.629-17.003-2.845-35.189,2.85-53.732h-1.458
								c-5.766,18.707-6.579,37.059-2.937,54.222c3.739,17.614,12.154,33.896,24.632,47.896
								c12.735,14.287,29.608,26.091,49.824,34.396c20.454,8.403,44.119,13.139,69.988,13.236l-8.777,49.545h1.675l16.017-90.997
								c18.716-0.092,37.036-3.437,54.025-9.366c16.845-5.881,32.259-14.26,45.406-24.449c12.953-10.038,23.637-21.78,31.326-34.566
								c7.543-12.543,12.178-26.048,13.267-39.916c1.07-13.619-1.382-26.338-6.641-37.692c-5.164-11.15-13.054-21.029-23.034-29.207
								c-9.848-8.069-21.783-14.524-35.248-18.946c-13.366-4.39-28.329-6.805-44.403-6.805c-4.086,0-8.152,0.156-12.188,0.46
								c-4.038,0.304-8.048,0.758-12.02,1.352c-3.975,0.595-7.914,1.332-11.806,2.203c-3.897,0.873-7.749,1.881-11.544,3.017
								L207.484,128.986"/>
							<path style="fill:#FFFFFF;" d="M444.246,492.622l0.56-75.771h20.4l0.514,75.771H444.246 M494.684,407.64l-0.264-9.631h52.271
								l0.618,9.631H494.684 M364.574,378.84l0.599-9.24h51.235l-0.259,9.24H364.574 M517.188,308.199h-1.506l4.002,88.397h-26.917
								l0.329,12.479h27.152l1.988,43.927h-55.108l-0.298-37.601h-23.649l-0.32,37.601h-55.108l3.338-72.776h26.606l0.322-11.991
								H391.64l1.189-25.931h-1.543l-1.219,25.931h-26.378l-0.791,11.991h26.606l-3.42,72.776h-82.542l-0.158,1.536h82.627
								l-4.984,106.037h1.79l4.864-106.037h55.166l-0.338,39.694h24.946l-0.314-39.694h55.166l1.233,27.269h1.701l-1.265-27.269
								h82.638l-0.157-1.536h-82.553l-2.037-43.927h27.162l-0.815-12.479h-26.926L517.188,308.199"/>
						</g>
					</g>
				</g>
			</g>
		</g>
	</g>
</g>
</svg>
